<svg xmlns="http://www.w3.org/2000/svg" width="512" height="288" fill="#313144"><path d="M138.488 125.776h5.566l15.575 36.153h-7.354l-3.37-8.272h-15.676l-3.269 8.272h-7.2l15.728-36.153h0zm8.17 22.366l-5.566-14.707-5.668 14.707h11.234zm19.871-22.366h7.404l9.856 27.319 10.161-27.319h6.947l-14.606 36.153h-5.566l-14.196-36.153h0zm57.361 0h5.567l15.573 36.153h-7.353l-3.369-8.272h-15.677l-3.269 8.272h-7.199l15.727-36.153zm8.171 22.366l-5.566-14.707-5.668 14.707h11.234zm27.201-22.366h6.435v30.332h15.369v5.821h-21.804v-36.153zm48.385 0h5.567l15.574 36.153h-7.353l-3.37-8.272h-15.677l-3.269 8.272h-7.199l15.727-36.153h0zm8.17 22.366l-5.565-14.707-5.668 14.707h11.233zm27.202-22.366h8.528l17.514 26.859h.104v-26.859h6.432v36.153h-8.168l-17.874-27.727h-.102v27.727h-6.434v-36.153h0zm75.672 8.477c-1.327-1.43-2.621-2.383-3.881-2.86a10.23 10.23 0 0 0-3.727-.715c-1.873 0-3.575.34-5.107 1.022-1.476.631-2.799 1.571-3.881 2.757-1.09 1.157-1.94 2.519-2.554 4.085-.579 1.566-.867 3.252-.867 5.056 0 1.94.288 3.728.867 5.361.614 1.635 1.464 3.047 2.554 4.239a11.85 11.85 0 0 0 3.881 2.808c1.532.681 3.234 1.021 5.107 1.021 1.463 0 2.876-.34 4.238-1.021 1.395-.715 2.688-1.838 3.881-3.37l5.309 3.778c-1.634 2.248-3.624 3.881-5.974 4.903s-4.851 1.532-7.505 1.532c-2.793 0-5.363-.443-7.711-1.328-2.316-.919-4.324-2.195-6.025-3.83-1.669-1.668-2.98-3.66-3.933-5.974s-1.43-4.886-1.43-7.711c0-2.893.476-5.515 1.43-7.864.953-2.383 2.264-4.408 3.933-6.076 1.701-1.668 3.709-2.945 6.025-3.83 2.348-.919 4.918-1.379 7.711-1.379 2.45 0 4.714.443 6.79 1.328 2.111.851 4.068 2.314 5.873 4.391l-5.004 3.677zm20.353-8.477h6.433v14.4h16.901v-14.4h6.435v36.153h-6.435v-15.932h-16.901v15.932h-6.433v-36.153zm48.061 0h23.949v5.821H493.54v8.885h16.596v5.821H493.54v9.805h18.434v5.821h-24.869v-36.153z"/><path fill-rule="evenodd" d="M103.714 143.858c0 28.639-23.217 51.856-51.857 51.856S0 172.497 0 143.858 23.218 92 51.858 92s51.856 23.218 51.856 51.858zm-66.552 20.635H27.098c-2.114 0-3.16 0-3.796-.408-.337-.219-.617-.514-.819-.862s-.318-.737-.341-1.138c-.038-.751.485-1.669 1.53-3.503l24.849-43.8c1.058-1.86 1.592-2.791 2.268-3.135.359-.182.756-.276 1.159-.276s.8.094 1.159.276c.675.344 1.21 1.275 2.267 3.135l5.109 8.916.026.046c1.142 1.996 1.721 3.007 1.974 4.07.28 1.164.28 2.377 0 3.541-.254 1.071-.828 2.09-1.987 4.115l-13.053 23.073-.034.059c-1.15 2.012-1.733 3.032-2.54 3.801a7.6 7.6 0 0 1-3.096 1.797c-1.057.293-2.242.293-4.611.293h0zm25.415.001h14.421c2.128 0 3.198 0 3.834-.42.339-.22.621-.517.822-.867a2.55 2.55 0 0 0 .337-1.146c.037-.727-.474-1.609-1.475-3.337l-.104-.179-7.224-12.358-.082-.138c-1.015-1.717-1.528-2.584-2.186-2.919a2.54 2.54 0 0 0-2.306 0c-.662.344-1.198 1.248-2.255 3.07l-7.198 12.358-.024.042c-1.054 1.818-1.581 2.727-1.542 3.474.022.402.139.794.34 1.144a2.58 2.58 0 0 0 .819.868c.624.408 1.694.408 3.822.408z"/></svg>