<svg xmlns="http://www.w3.org/2000/svg" width="512" height="288" fill="none" ><g clip-path="url(#A)" fill="#313144"><path d="M153.206 165.508c7.04 0 13.953-2.368 18.114-5.568v-20.418h-19.074v8.832h8.833v5.377a15.82 15.82 0 0 1-7.873 1.984c-7.744 0-12.289-6.017-12.289-13.377 0-8.449 5.377-13.377 11.841-13.377 4.864 0 8.448 2.112 10.881 4.48l7.553-6.4c-4.673-5.377-11.842-8.129-18.434-8.129-14.529 0-23.042 10.241-23.042 23.426 0 14.785 10.369 23.17 23.49 23.17h0zm24.726-.512h9.985V149.25c0-4.864 2.304-7.232 5.761-7.232 3.264 0 4.992 1.472 4.992 6.656v16.322h9.984v-18.754c0-9.92-4.736-13.121-11.2-13.121-3.648 0-6.976 1.409-9.409 4.225h-.128v-3.649h-9.985v31.299h0zm52.679.577c9.856 0 16.899-6.593 16.899-16.194 0-9.665-7.043-16.258-16.899-16.258-10.113 0-16.961 6.721-16.961 16.258 0 9.473 6.848 16.194 16.961 16.194zm0-8.834c-3.969 0-6.848-3.2-6.848-7.36 0-4.289 2.817-7.361 6.848-7.361 3.905 0 6.786 3.008 6.786 7.361 0 4.288-3.009 7.36-6.786 7.36zm32.571 8.834c8.576 0 12.738-4.225 12.738-10.05 0-6.144-3.777-7.937-10.689-10.305-3.137-1.088-4.289-1.792-4.289-2.752 0-1.216 1.344-1.728 2.497-1.728 2.111 0 4.799 1.088 6.976 3.264l4.737-6.976c-3.648-2.689-7.106-3.905-11.841-3.905-6.529 0-11.715 3.649-11.715 9.985 0 6.017 4.609 8.577 9.858 10.177 3.904 1.216 4.864 1.856 4.864 2.88 0 1.152-1.024 1.856-3.007 1.856-2.881 0-5.569-1.152-8.193-3.52l-4.672 6.465c3.456 3.072 7.808 4.609 12.736 4.609h0zm23.197-35.78c3.458 0 6.018-2.496 6.018-5.761 0-3.136-2.56-5.632-6.018-5.632s-5.952 2.56-5.952 5.632c0 3.265 2.496 5.761 5.952 5.761zm-4.991 35.203h9.985v-31.299h-9.985v31.299zm27.548.577c8.578 0 12.737-4.225 12.737-10.05 0-6.144-3.775-7.937-10.688-10.305-3.135-1.088-4.288-1.792-4.288-2.752 0-1.216 1.343-1.728 2.496-1.728 2.113 0 4.801 1.088 6.976 3.264l4.737-6.976c-3.649-2.689-7.104-3.905-11.842-3.905-6.529 0-11.712 3.649-11.712 9.985 0 6.017 4.608 8.577 9.856 10.177 3.905 1.216 4.866 1.856 4.866 2.88 0 1.152-1.025 1.856-3.01 1.856-2.88 0-5.569-1.152-8.192-3.52l-4.673 6.465c3.458 3.072 7.81 4.609 12.737 4.609h0zm55.855 0c8.064 0 14.401-3.841 18.306-8.642l-7.81-6.72c-2.624 3.136-6.273 5.12-10.496 5.12-7.425 0-12.226-5.697-12.226-12.993 0-8.32 5.569-13.185 12.162-13.185 4.416 0 8.064 2.368 10.495 5.249l7.811-6.721c-4.994-6.081-11.906-8.769-18.306-8.769-14.978 0-23.428 10.433-23.428 23.426 0 15.106 10.434 23.235 23.492 23.235zm23.224-.577h9.987v-15.81c0-4.864 2.304-7.168 5.824-7.168s5.247 1.536 5.247 6.592v16.386h9.987v-18.882c0-9.856-4.801-12.993-11.266-12.993-3.84 0-7.232 1.409-9.666 4.161l-.126-.064v-19.331h-9.987v47.109h0zm50.69.577c3.774 0 6.59-1.281 8.639-3.905l.129.064v3.264h9.537v-31.299h-10.048v3.265l-.129.064c-2.177-2.56-5.312-3.905-8.642-3.905-8.064 0-14.273 6.657-14.273 16.258 0 9.665 6.209 16.194 14.787 16.194h0zm2.11-8.834c-3.967 0-6.719-2.944-6.719-7.36 0-4.481 2.881-7.425 6.719-7.425 3.713 0 6.593 3.136 6.593 7.425 0 4.48-3.009 7.36-6.593 7.36zm28.208-26.946c3.456 0 6.019-2.496 6.019-5.761 0-3.136-2.563-5.632-6.019-5.632s-5.951 2.56-5.951 5.632c0 3.265 2.495 5.761 5.951 5.761zm-4.991 35.203h9.985v-31.299h-9.985v31.299zm17.243 0h9.985V149.25c0-4.864 2.305-7.232 5.761-7.232 3.265 0 4.993 1.472 4.993 6.656v16.322h9.985v-18.754c0-9.92-4.737-13.121-11.201-13.121-3.648 0-6.976 1.409-9.41 4.225h-.128v-3.649h-9.985v31.299h0zm-449.182-13.36c3.143.009 6.198-1.034 8.68-2.962l-19.864-19.858c-1.878 2.378-2.963 5.382-2.963 8.678-.042 7.8 6.302 14.142 14.148 14.142h-.001zm59.095-14.184a14.08 14.08 0 0 0-2.963-8.678l-19.866 19.858c2.379 1.878 5.384 2.962 8.681 2.962 7.804.042 14.148-6.299 14.148-14.142h0zm10.018-21.569l-8.807 8.803c2.922 3.504 4.674 7.926 4.674 12.849 0 11.055-8.973 20.025-20.032 20.025-4.883 0-9.349-1.752-12.854-4.673l-9.64 9.638-9.642-9.638c-3.506 2.921-7.929 4.673-12.854 4.673-11.06 0-20.032-8.97-20.032-20.025 0-4.881 1.752-9.345 4.674-12.849l-4.507-4.506-4.298-4.297A54.23 54.23 0 0 0 0 144.126c0 30.121 24.414 54.485 54.505 54.485s54.505-24.405 54.505-54.485c.083-10.388-2.796-20.024-7.804-28.243h0zm-7.222-9.387C84.094 96.108 70.071 89.6 54.546 89.6s-29.506 6.508-39.439 16.896a65.47 65.47 0 0 0-3.839 4.464l43.237 43.221 43.236-43.263c-1.134-1.57-2.39-3.049-3.756-4.422h0zm-39.438-9.804c12.77 0 24.623 4.923 33.512 13.893l-33.512 33.5-33.512-33.5c8.93-8.97 20.742-13.893 33.512-13.893h0z"/></g><defs><clipPath id="A"><path fill="#fff" d="M0 0h512v288H0z"/></clipPath></defs></svg>