<svg xmlns="http://www.w3.org/2000/svg" width="512" height="288" fill="none"><path d="M90.214 123.114c-2.206-1.358-5.074-1.358-7.5 0L65.51 133.528l-11.69 6.792-17.205 10.414c-2.206 1.359-5.074 1.359-7.499 0l-13.676-8.15c-2.206-1.358-3.75-3.849-3.75-6.566v-16.073c0-2.717 1.323-5.207 3.75-6.566l13.455-7.924c2.206-1.358 5.073-1.358 7.499 0l13.455 7.924c2.206 1.359 3.75 3.849 3.75 6.566v10.413l11.69-7.017v-10.415c0-2.716-1.323-5.207-3.75-6.565L36.615 91.418c-2.206-1.358-5.074-1.358-7.499 0L3.75 106.361C1.323 107.719 0 110.21 0 112.926v30.111c0 2.717 1.323 5.207 3.75 6.565l25.366 14.942c2.206 1.359 5.073 1.359 7.499 0l17.205-10.187 11.69-7.019 17.205-10.188c2.206-1.358 5.074-1.358 7.5 0l13.455 7.924c2.206 1.359 3.75 3.849 3.75 6.566v16.074c0 2.716-1.324 5.207-3.75 6.565l-13.455 8.151c-2.206 1.358-5.074 1.358-7.5 0l-13.454-7.924c-2.206-1.359-3.75-3.849-3.75-6.566v-10.414l-11.69 7.018v10.414c0 2.717 1.323 5.208 3.75 6.566l25.366 14.942c2.206 1.359 5.074 1.359 7.499 0l25.367-14.942c2.205-1.358 3.749-3.849 3.749-6.566v-30.11c0-2.717-1.323-5.207-3.749-6.566l-25.587-15.168zm75.908 64.742v-24.998c2.69 3.413 7.572 5.321 13.251 5.321 14.445 0 24.209-10.341 24.209-26.102s-8.967-26.102-23.014-26.102c-6.476 0-11.457 2.41-14.446 6.325v-5.522h-13.848v71.078h13.848zm11.556-31.724c-7.471 0-12.352-5.622-12.352-14.055 0-8.533 4.881-14.155 12.352-14.155 7.273 0 12.255 5.622 12.255 14.155 0 8.433-4.982 14.055-12.255 14.055zm57.348 12.047c15.443 0 26.501-11.043 26.501-26.102s-11.058-26.102-26.501-26.102-26.5 11.043-26.5 26.102 11.059 26.102 26.5 26.102zm0-12.047c-7.471 0-12.552-5.722-12.552-14.055 0-8.433 5.081-14.155 12.552-14.155s12.554 5.722 12.554 14.155c0 8.333-5.081 14.055-12.554 14.055zm48.72 11.244V94.792h-13.848v72.584h13.848zm41.627-50.598l-10.46 32.628-10.561-32.628h-14.146l18.231 50.196-7.372 20.882h13.25l7.073-20.681 18.232-50.397h-14.247zm53.139 5.02c-2.791-3.514-7.77-5.823-13.848-5.823-14.647 0-23.512 10.34-23.512 26.102s8.865 26.102 23.71 26.102c5.88 0 11.156-2.209 13.75-5.923v6.626c0 4.718-3.089 8.031-7.275 8.031h-23.114v10.943h25.306c11.357 0 18.93-6.927 18.93-17.469v-53.609h-13.947v5.02h0zm-11.458 34.334c-7.372 0-12.255-5.522-12.255-14.055s4.883-14.155 12.255-14.155c7.472 0 12.355 5.622 12.355 14.155s-4.883 14.055-12.355 14.055zm60.316 12.047c15.444 0 26.5-11.043 26.5-26.102s-11.056-26.102-26.5-26.102-26.5 11.043-26.5 26.102 11.06 26.102 26.5 26.102h0zm0-12.047c-7.473 0-12.552-5.722-12.552-14.055 0-8.433 5.079-14.155 12.552-14.155s12.552 5.722 12.552 14.155c0 8.333-5.08 14.055-12.552 14.055zm48.024 11.244v-27.709c0-6.525 4.284-11.243 10.36-11.243 5.776 0 9.661 4.417 9.661 10.541v28.411h13.948v-31.523c0-11.646-7.372-19.878-18.729-19.878-6.874 0-12.452 2.911-15.24 7.831v-7.028h-13.948v50.598h13.948z" fill="#313144"/></svg>