<svg xmlns="http://www.w3.org/2000/svg" width="512" height="288" fill="none" ><g clip-path="url(#A)" fill="#313144"><path d="M46.688 79.265c3.231-1.686 8.147-1.686 11.378 0l32.968 17.203c1.946 1.015 3.014 2.528 3.206 4.09h.031v86.474c-.043 1.704-1.122 3.396-3.237 4.5l-32.968 17.204c-3.231 1.686-8.147 1.686-11.378 0L13.72 191.532c-2.107-1.099-3.118-2.804-3.168-4.5a6.14 6.14 0 0 1-.001-.422v-85.496a4.39 4.39 0 0 1-.001-.281l.002-.275h.015c.146-1.579 1.167-3.053 3.153-4.09l32.968-17.203zm42.394 69.536l-31.016 16.185c-3.231 1.686-8.147 1.686-11.378 0L15.74 148.838v38.023l30.948 16.064c1.748.923 3.561 1.822 5.335 1.936l.354.012c1.848.006 3.642-.921 5.462-1.799l31.243-16.351v-37.922zM5.189 185.152c0 3.312.39 5.49 1.164 7.025.641 1.271 1.604 2.243 3.361 3.426l.1.067c.386.257.811.526 1.328.841l.61.369 1.873 1.117-2.686 4.387-2.096-1.251-.352-.213c-.606-.37-1.108-.687-1.577-.999-5.008-3.337-6.876-6.973-6.913-14.539l-.001-.23h5.189zm44.592-59.528a4.7 4.7 0 0 0-.67.283L16.143 143.11a2.21 2.21 0 0 0-.099.054l-.028.016.052.029.075.04 32.968 17.204c.205.107.43.201.67.282v-35.111zm5.191 0v35.111a4.7 4.7 0 0 0 .67-.282l32.968-17.204.099-.053.028-.016-.052-.03-.075-.04-32.968-17.203a4.7 4.7 0 0 0-.67-.283zm34.109-18.932l-29.574 15.433 29.575 15.433v-30.866zm-73.342.037v30.793l29.506-15.397-29.506-15.396zm39.902-22.931c-1.715-.895-4.816-.895-6.531 0l-32.968 17.203a2.21 2.21 0 0 0-.099.054l-.028.016.052.029.075.041 32.968 17.203c1.714.895 4.816.895 6.531 0l32.968-17.203.099-.054.028-.016-.052-.029-.075-.041-32.968-17.203zm38.312 1.886l2.096 1.251.352.214c.606.37 1.108.687 1.577.999 5.008 3.336 6.876 6.973 6.912 14.538l.001.231h-5.189c0-3.314-.39-5.491-1.164-7.025-.641-1.272-1.604-2.243-3.361-3.426l-.1-.067a40.38 40.38 0 0 0-1.328-.842l-.61-.369-1.873-1.116 2.686-4.387zm63.656 97.743v-48.225h13.468v-8.83h-13.468v-6.339c0-7.17 3.158-10.754 9.473-10.754 1.826 0 3.767.301 5.821.905v-9.396c-2.511-.754-5.288-1.132-8.332-1.132-5.858 0-10.405 1.661-13.639 4.981s-4.851 8.151-4.851 14.49v7.245H135.01v8.83h11.071v48.225h11.528zm46.795.792c4.414 0 8.276-.906 11.585-2.718a17.54 17.54 0 0 0 7.477-7.81v9.736h11.413v-57.055h-11.413v9.283c-1.751-3.396-4.261-6.019-7.534-7.868s-7.114-2.773-11.528-2.773c-4.945 0-9.359 1.245-13.239 3.735s-6.905 6-9.074 10.528-3.252 9.736-3.252 15.622 1.064 11.038 3.195 15.452 5.117 7.83 8.96 10.245 8.312 3.623 13.41 3.623zm2.74-9.056c-5.251 0-9.341-1.774-12.269-5.321s-4.395-8.528-4.395-14.943c0-6.49 1.465-11.565 4.395-15.226s6.981-5.49 12.155-5.49c5.25 0 9.302 1.774 12.155 5.321s4.281 8.603 4.281 15.169c0 6.49-1.427 11.528-4.281 15.112s-6.867 5.378-12.041 5.378zm56.041 8.264v-32.49c0-5.056 1.464-9.094 4.394-12.113s6.829-4.528 11.699-4.528c4.261 0 7.361 1.132 9.302 3.396s2.91 5.887 2.91 10.868v34.867h11.528v-35.546c0-15.245-6.887-22.867-20.659-22.867-4.412 0-8.351.962-11.813 2.886s-6.106 4.698-7.932 8.321l-1.028-9.849h-10.728c.609 4.755.913 10.113.913 16.075v40.98h11.414zm78.411.792c3.195 0 6.049-.415 8.56-1.245v-9.283c-2.055.604-4.071.905-6.049.905-3.044 0-5.422-.811-7.134-2.433s-2.568-4.396-2.568-8.321v-28.64h15.865v-8.83h-15.865v-18.226l-11.527 3.963v14.263h-11.186v8.83h11.186v29.546c0 6.339 1.636 11.169 4.907 14.49s7.875 4.981 13.811 4.981zm44.056 0c5.555 0 10.463-1.208 14.724-3.623s7.551-5.849 9.872-10.301 3.481-9.66 3.481-15.622-1.16-11.188-3.481-15.679-5.611-7.943-9.872-10.358-9.169-3.622-14.724-3.622c-5.631 0-10.576 1.207-14.837 3.622s-7.552 5.868-9.874 10.358-3.481 9.717-3.481 15.679 1.161 11.169 3.481 15.622 5.613 7.886 9.874 10.301 9.206 3.623 14.837 3.623zm-.114-9.056c-5.251 0-9.302-1.736-12.156-5.208s-4.28-8.565-4.28-15.282c0-6.566 1.446-11.622 4.337-15.169s6.963-5.321 12.213-5.321c5.174 0 9.188 1.774 12.041 5.321s4.28 8.603 4.28 15.169c0 6.717-1.407 11.811-4.223 15.282s-6.886 5.208-12.212 5.208zm53.073 8.264v-32.264c0-5.207 1.294-9.32 3.881-12.339s6.087-4.528 10.5-4.528c3.805 0 6.563 1.132 8.274 3.396s2.569 5.849 2.569 10.755v34.98h11.527v-32.264c0-5.207 1.275-9.32 3.824-12.339s6.03-4.528 10.444-4.528c3.804 0 6.562 1.132 8.274 3.396s2.568 5.849 2.568 10.755v34.98H512v-35.546c0-15.245-6.391-22.867-19.174-22.867-4.262 0-8.085.981-11.471 2.943s-5.954 4.641-7.704 8.037c-2.74-7.32-8.561-10.98-17.463-10.98-4.185 0-7.838.943-10.958 2.83s-5.515 4.566-7.189 8.037l-1.028-9.509h-10.729c.609 4.755.913 10.113.913 16.075v40.98h11.414z"/></g><defs><clipPath id="A"><path fill="#fff" transform="translate(0 78)" d="M0 0h512v132H0z"/></clipPath></defs></svg>