<svg xmlns="http://www.w3.org/2000/svg" width="512" height="288" fill="none" ><path d="M54.978 140.142l7.236-12.277 19.502 30.376.009 5.829-.064-40.114a3.02 3.02 0 0 0-1.397-2.406l-35.111-20.197a3.1 3.1 0 0 0-2.683.013 3.07 3.07 0 0 0-.314.181l-.122.077-34.081 19.75-.132.06a3.13 3.13 0 0 0-.503.294 3.01 3.01 0 0 0-1.214 1.917 3.08 3.08 0 0 0-.043.355l.053 32.688 18.165-28.155c2.287-3.734 7.27-4.936 11.896-4.871l5.429.143-31.989 51.301 3.771 2.171 32.372-53.42 14.308-.052-32.289 54.768 13.456 7.74 1.608.924a3.09 3.09 0 0 0 2.167.043l35.605-20.634-6.807 3.945-18.827-30.449zm2.761 39.76l-13.59-21.33 8.296-14.077 17.848 28.131-12.554 7.276z" fill="#313144"/><path d="M44.148 158.572l13.59 21.33 12.554-7.275-17.848-28.132-8.296 14.077zm37.577 5.497l-.009-5.829-19.502-30.376-7.236 12.277 18.827 30.449 6.807-3.944a3.02 3.02 0 0 0 1.114-2.197l-.001-.38z" fill="#5e5e6d"/><g fill="#83838f"><path d="M0 169.567l9.613 5.539 31.989-51.301-5.429-.143c-4.626-.066-9.609 1.137-11.896 4.87L6.111 156.688 0 166.078v3.489h0zm60.065-45.762l-14.308.052-32.372 53.42 11.315 6.515 3.077-5.219 32.288-54.768z"/><path d="M87.754 123.732c-.12-2.993-1.74-5.732-4.278-7.327L47.905 95.949c-2.511-1.264-5.647-1.266-8.161-.001-.297.15-34.593 20.04-34.593 20.04-.475.228-.932.499-1.362.806-2.266 1.624-3.647 4.147-3.789 6.919v42.365l6.111-9.389L6.058 124c.007-.12.022-.237.043-.353.138-.77.567-1.456 1.214-1.919.161-.116 35.043-20.306 35.154-20.362.82-.412 1.862-.416 2.683-.012l35.111 20.196a3.02 3.02 0 0 1 1.398 2.407v40.493c-.043.859-.382 1.654-1.05 2.197l-6.807 3.944-3.512 2.036-12.554 7.275-12.731 7.378c-.686.248-1.487.234-2.167-.043l-15.063-8.663-3.077 5.218 13.537 7.794 1.174.664.974.533c.962.468 2.346.74 3.594.74 1.144 0 2.259-.21 3.314-.624l36.979-21.415c2.123-1.645 3.371-4.125 3.484-6.811v-40.941h0z"/></g><path d="M125.555 129.497c1.066 0 1.964.218 2.693.652s1.445 1.284 2.148 2.548l13.936 25.305c.14.28.176.511.106.694s-.273.273-.61.273h-5.347c-.477 0-.8-.182-.969-.547l-2.989-5.431h-19.789l-2.906 5.431c-.196.366-.519.547-.967.547h-5.473c-.366 0-.582-.09-.652-.273s-.036-.414.104-.694l13.81-25.305c.702-1.264 1.39-2.112 2.064-2.548s1.458-.652 2.358-.652h2.483 0zm-8.169 18.61h14.484l-6.695-12.337c-.112-.195-.267-.295-.463-.295h-.253c-.196 0-.351.1-.463.295l-6.61 12.337zm71.16-18.61c3.227 0 5.543.73 6.948 2.19s2.104 3.621 2.104 6.483v2.4c0 2.414-.491 4.324-1.473 5.727s-2.584 2.301-4.801 2.694l7.2 8.926c.14.141.182.351.126.631s-.281.421-.673.421h-5.433c-.365 0-.618-.041-.757-.125s-.281-.225-.421-.422l-6.653-8.757h-13.599v8.378c0 .619-.31.926-.926.926h-4.548c-.645 0-.968-.307-.968-.926v-27.282c0-.843.422-1.264 1.264-1.264h22.61 0zm-17.432 15.031h16.127c1.432 0 2.443-.309 3.031-.926s.885-1.557.885-2.821v-1.769c0-1.263-.295-2.204-.885-2.821s-1.599-.926-3.031-.926h-15.579c-.365 0-.547.169-.547.505v8.758h-.001zm73.57-15.031c2.892 0 4.948.575 6.168 1.726s1.831 2.891 1.831 5.221v2.021c0 2.358-.897 4.141-2.693 5.348 1.936 1.122 2.904 2.934 2.904 5.431v2.442c0 1.124-.127 2.135-.379 3.033s-.667 1.662-1.241 2.295-1.341 1.115-2.295 1.452-2.134.504-3.538.504h-25.009c-.843 0-1.265-.421-1.265-1.263v-26.946c0-.843.422-1.264 1.265-1.264h24.252 0zm-19.074 12.252h17.264c1.404 0 2.357-.21 2.863-.631s.758-1.039.758-1.854v-1.431c0-.871-.246-1.509-.737-1.917s-1.284-.609-2.379-.609h-17.221c-.365 0-.548.183-.548.547v5.895zm0 4.589v6.274c0 .365.183.547.548.547h17.263c1.123 0 1.923-.204 2.4-.61s.715-1.059.715-1.958v-1.6c0-.871-.26-1.53-.779-1.979s-1.48-.675-2.884-.675H225.61v.001zm54.008-16.841c.618 0 .927.308.927.926v27.62c0 .619-.309.926-.927.926h-4.548c-.645 0-.967-.307-.967-.926v-27.62c0-.618.322-.926.967-.926h4.548zm55.14 0c.645 0 .968.308.968.926v4.125c0 .646-.323.969-.968.969h-13.221v22.525c0 .619-.309.926-.927.926h-4.588c-.618 0-.926-.307-.926-.926v-22.524h-13.221c-.646 0-.968-.323-.968-.969v-4.125c0-.618.322-.926.968-.926h32.883v-.001zm45.16 0c3.229 0 5.545.73 6.949 2.19s2.105 3.621 2.105 6.483v2.4c0 2.414-.492 4.324-1.474 5.727s-2.584 2.301-4.801 2.694l7.201 8.926c.14.141.181.351.125.631s-.28.421-.673.421h-5.432c-.365 0-.618-.041-.758-.125s-.281-.225-.421-.422l-6.653-8.757h-13.598v8.378c0 .619-.31.926-.926.926h-4.547c-.646 0-.969-.307-.969-.926v-27.282c0-.843.422-1.264 1.264-1.264h22.608 0zm-17.43 15.031h16.127c1.431 0 2.442-.309 3.03-.926s.886-1.557.886-2.821v-1.769c0-1.263-.295-2.204-.886-2.821s-1.599-.926-3.03-.926h-15.58c-.365 0-.547.169-.547.505v8.758h0zm52.954-15.031c.617 0 .926.308.926.926v16.8c0 1.123.091 2.056.273 2.799s.485 1.334.906 1.768.99.745 1.706.926 1.62.274 2.716.274h11.662c1.094 0 2-.091 2.716-.274s1.283-.49 1.705-.926.716-1.025.885-1.768.252-1.677.252-2.799v-16.8c0-.618.309-.926.926-.926h4.59c.617 0 .926.308.926.926v17.431c0 2.021-.21 3.74-.632 5.158s-1.101 2.568-2.041 3.452-2.162 1.523-3.664 1.916-3.319.589-5.452.589h-12.126c-2.135 0-3.944-.195-5.432-.589s-2.703-1.031-3.642-1.916-1.629-2.034-2.064-3.452-.653-3.138-.653-5.158v-17.431c0-.618.323-.926.969-.926h4.548zm60.18 0c.618 0 1.151.042 1.6.126s.843.246 1.179.484.638.562.905.969.54.947.822 1.62l8.757 20.21c.111.253.31.379.59.379h.504c.281 0 .478-.126.59-.379l8.757-20.21c.281-.674.555-1.214.822-1.62a3.54 3.54 0 0 1 .904-.969c.338-.238.723-.4 1.159-.484s.961-.126 1.579-.126h4.506c1.458 0 2.441.33 2.945.99s.759 1.789.759 3.389v24.167c0 .619-.323.926-.968.926h-4.294c-.618 0-.926-.307-.926-.926v-21.978c0-.28-.113-.421-.338-.421h-.379c-.28 0-.463.113-.547.337l-8.504 18.863c-.336.757-.681 1.397-1.032 1.915s-.729.948-1.135 1.284-.871.576-1.391.716-1.129.21-1.831.21h-2.021c-.703 0-1.312-.069-1.831-.21a3.65 3.65 0 0 1-1.39-.716c-.406-.337-.786-.763-1.136-1.284s-.695-1.158-1.032-1.915l-8.505-18.863c-.084-.225-.266-.337-.547-.337h-.379c-.225 0-.336.141-.336.421v21.978c0 .619-.309.926-.926.926h-4.295c-.645 0-.968-.307-.968-.926v-24.167c0-1.6.253-2.729.757-3.389s1.501-.99 2.99-.99h4.586z" fill="#313144"/></svg>