<svg xmlns="http://www.w3.org/2000/svg" width="512" height="288" fill="none"><path d="M61.08 205.159c33.733 0 61.079-27.346 61.079-61.079S94.813 83 61.08 83 0 110.346 0 144.08s27.346 61.079 61.08 61.079z" fill="#313144"/><path d="M43.277 160.314c-3.637 0-6.617-.856-8.939-2.568-2.292-1.742-3.438-4.217-3.438-7.426 0-.672.076-1.498.229-2.476l1.696-7.931c2.078-8.404 7.442-12.606 16.091-12.606 2.353 0 4.462.397 6.326 1.191 1.864.764 3.331 1.926 4.401 3.485 1.07 1.528 1.605 3.361 1.605 5.501 0 .642-.076 1.451-.229 2.429a104.03 104.03 0 0 1-1.65 7.931c-1.07 4.187-2.919 7.32-5.547 9.398-2.628 2.048-6.143 3.072-10.544 3.072zm.642-6.602c1.712 0 3.163-.504 4.355-1.513 1.223-1.008 2.094-2.551 2.613-4.63.703-2.873 1.238-5.379 1.605-7.518.122-.642.183-1.299.183-1.971 0-2.781-1.452-4.172-4.355-4.172-1.712 0-3.178.504-4.401 1.513-1.192 1.008-2.048 2.552-2.567 4.63-.55 2.048-1.1 4.554-1.65 7.518a9.79 9.79 0 0 0-.184 1.926c0 2.811 1.467 4.217 4.401 4.217zm19.433 6.143c-.336 0-.596-.107-.779-.321a1.09 1.09 0 0 1-.137-.825l6.326-29.798c.061-.336.229-.612.504-.826s.565-.32.871-.32h12.194c3.392 0 6.112.703 8.16 2.108 2.078 1.406 3.118 3.439 3.118 6.098 0 .764-.092 1.558-.275 2.383-.764 3.515-2.307 6.113-4.63 7.794-2.292 1.681-5.44 2.521-9.444 2.521h-6.189l-2.109 10.04a1.31 1.31 0 0 1-.504.825c-.275.214-.566.321-.871.321h-6.235zm16.229-17.512c1.283 0 2.399-.352 3.346-1.055.978-.703 1.62-1.711 1.925-3.025.092-.52.138-.978.138-1.376 0-.886-.26-1.558-.779-2.017-.52-.489-1.406-.733-2.659-.733h-5.501l-1.742 8.206h5.272z" fill="#eaeaec"/><path d="M158.957 169.112c-5.516 0-10.036-1.298-13.559-3.894-3.477-2.642-5.215-6.397-5.215-11.264 0-1.02.116-2.272.347-3.755.603-3.338 1.461-7.348 2.573-12.03 3.152-12.748 11.288-19.122 24.407-19.122 3.569 0 6.768.603 9.596 1.808 2.828 1.159 5.053 2.92 6.675 5.284 1.623 2.318 2.434 5.1 2.434 8.345 0 .973-.116 2.202-.348 3.685a157.6 157.6 0 0 1-2.503 12.03c-1.623 6.351-4.427 11.102-8.414 14.254-3.987 3.106-9.317 4.659-15.993 4.659zm.974-10.013c2.596 0 4.798-.765 6.606-2.295 1.854-1.529 3.175-3.87 3.963-7.023 1.066-4.357 1.877-8.158 2.434-11.403a15.99 15.99 0 0 0 .278-2.99c0-4.219-2.202-6.328-6.606-6.328-2.596 0-4.821.765-6.675 2.295-1.808 1.529-3.106 3.87-3.894 7.023-.835 3.106-1.669 6.907-2.504 11.403a14.91 14.91 0 0 0-.278 2.921c0 4.265 2.225 6.397 6.676 6.397zm33.339 9.317c-.51 0-.904-.162-1.182-.487a1.66 1.66 0 0 1-.208-1.252l9.595-45.197a1.99 1.99 0 0 1 .765-1.252c.418-.325.858-.487 1.322-.487h18.496c5.145 0 9.271 1.066 12.377 3.199 3.152 2.132 4.729 5.215 4.729 9.248 0 1.159-.14 2.364-.418 3.616-1.159 5.331-3.5 9.271-7.023 11.821-3.476 2.549-8.251 3.824-14.324 3.824h-9.387l-3.199 15.228a1.99 1.99 0 0 1-.765 1.252c-.417.325-.857.487-1.321.487h-9.457zm24.616-26.563c1.947 0 3.639-.533 5.076-1.599 1.483-1.066 2.457-2.596 2.92-4.589.139-.788.209-1.484.209-2.086 0-1.345-.394-2.364-1.182-3.06-.788-.742-2.133-1.112-4.033-1.112h-8.344l-2.643 12.446h7.997zm36.945 26.563c-.51 0-.904-.162-1.182-.487-.279-.371-.371-.788-.279-1.252l7.719-36.019h-12.377c-.51 0-.904-.162-1.183-.487-.231-.37-.301-.788-.208-1.251l1.599-7.44a1.99 1.99 0 0 1 .765-1.252c.417-.325.858-.487 1.321-.487h37.41c.51 0 .904.162 1.182.487.186.278.278.556.278.834 0 .139-.023.279-.069.418l-1.599 7.44a1.99 1.99 0 0 1-.765 1.251c-.371.325-.811.487-1.321.487h-12.308l-7.719 36.019c-.092.51-.347.927-.764 1.252s-.858.487-1.322.487h-9.178zm36.819 0c-.51 0-.904-.162-1.182-.487-.278-.371-.371-.788-.278-1.252l9.665-45.197a1.99 1.99 0 0 1 .765-1.252c.417-.325.857-.487 1.321-.487h9.387c.51 0 .904.162 1.182.487.186.278.279.556.279.834a1.33 1.33 0 0 1-.07.418l-9.596 45.197a1.99 1.99 0 0 1-.765 1.252c-.417.325-.857.487-1.321.487h-9.387zm26.477 0c-.51 0-.904-.162-1.182-.487s-.371-.742-.278-1.252l9.596-45.197c.093-.51.347-.928.765-1.252s.881-.487 1.391-.487h7.509c1.113 0 1.831.51 2.156 1.53l7.579 21.904 16.897-21.904a4.08 4.08 0 0 1 .974-1.043c.463-.325 1.019-.487 1.669-.487h7.579c.51 0 .904.162 1.182.487.185.278.278.556.278.834 0 .139-.023.279-.069.418l-9.596 45.197c-.093.51-.348.927-.765 1.252s-.858.487-1.321.487h-8.414c-.51 0-.904-.162-1.182-.487-.232-.371-.301-.788-.209-1.252l5.424-25.658-10.639 14.116c-.463.51-.904.903-1.321 1.182s-.904.417-1.46.417h-3.616c-.973 0-1.646-.533-2.017-1.599l-4.937-14.742-5.562 26.284c-.093.51-.348.927-.765 1.252s-.858.487-1.322.487h-8.344zm61.378 0c-.51 0-.904-.162-1.182-.487-.278-.371-.371-.788-.278-1.252l9.665-45.197a1.99 1.99 0 0 1 .765-1.252c.416-.325.857-.487 1.321-.487h9.387c.51 0 .905.162 1.182.487.186.278.278.556.278.834 0 .139-.022.279-.07.418l-9.595 45.197a1.98 1.98 0 0 1-.766 1.252c-.416.325-.858.487-1.321.487h-9.386zm43.653.696c-4.08 0-7.58-.556-10.5-1.669-2.875-1.112-5.054-2.596-6.537-4.45-1.437-1.854-2.156-3.917-2.156-6.189 0-.37.047-.927.139-1.668a2.09 2.09 0 0 1 .557-1.043 1.66 1.66 0 0 1 1.113-.418h8.899c.558 0 .974.093 1.252.279.325.185.649.509.974.973.325 1.205 1.066 2.202 2.226 2.99 1.205.788 2.851 1.182 4.935 1.182 2.643 0 4.777-.417 6.398-1.251s2.598-1.971 2.92-3.408c.047-.185.069-.463.069-.834 0-1.159-.716-2.063-2.154-2.712-1.437-.695-4.08-1.507-7.927-2.434-4.496-.973-7.905-2.434-10.222-4.38-2.318-1.994-3.475-4.59-3.475-7.788 0-1.113.138-2.249.416-3.408.927-4.311 3.222-7.695 6.884-10.152 3.708-2.457 8.482-3.685 14.324-3.685 3.523 0 6.653.626 9.388 1.877s4.843 2.851 6.328 4.798c1.529 1.901 2.293 3.801 2.293 5.702 0 .556-.023.95-.07 1.182-.091.417-.3.765-.624 1.043-.278.278-.627.417-1.044.417h-9.318c-1.018 0-1.715-.394-2.084-1.182-.047-1.066-.605-1.97-1.671-2.712s-2.456-1.112-4.172-1.112c-2.04 0-3.73.371-5.076 1.112-1.297.742-2.11 1.832-2.432 3.269a4.68 4.68 0 0 0-.072.904c0 1.112.65 2.039 1.948 2.781 1.344.695 3.686 1.414 7.023 2.156 5.193 1.019 8.971 2.48 11.335 4.38 2.41 1.901 3.614 4.427 3.614 7.58 0 1.066-.138 2.225-.416 3.476-1.019 4.729-3.5 8.322-7.441 10.778-3.892 2.411-9.107 3.616-15.644 3.616zm32.728-.696c-.511 0-.905-.162-1.183-.487s-.372-.742-.277-1.252l9.595-45.197a1.98 1.98 0 0 1 .766-1.252c.416-.325.88-.487 1.39-.487h7.509c1.113 0 1.831.51 2.156 1.53l7.58 21.904 16.896-21.904c.233-.371.557-.719.974-1.043.463-.325 1.019-.487 1.668-.487h7.58c.511 0 .905.162 1.183.487.185.278.277.556.277.834a1.3 1.3 0 0 1-.069.418l-9.596 45.197a2 2 0 0 1-.765 1.252c-.417.325-.858.487-1.322.487h-8.413c-.51 0-.904-.162-1.182-.487-.233-.371-.302-.788-.208-1.252l5.423-25.658-10.639 14.116c-.463.51-.904.903-1.321 1.182s-.905.417-1.46.417h-3.616c-.975 0-1.646-.533-2.016-1.599l-4.937-14.742-5.563 26.284a2 2 0 0 1-.766 1.252c-.416.325-.857.487-1.321.487h-8.343z" fill="#313144"/></svg>