<svg xmlns="http://www.w3.org/2000/svg" width="512" height="288" fill="none"><path d="M282.514 123.966c0-.324-.108-.505-.433-.505h-6.611c-.324 0-.469.145-.469.469v2.348c-1.987-1.842-3.143-2.6-4.876-3.034-4.335-1.084-8.164-.072-11.415 2.89-4.082 3.792-5.31 8.56-4.154 13.907 1.373 6.249 7.008 11.017 13.834 10.294 2.24-.253 4.263-1.083 5.888-2.673.181-.18.289-.469.687-.397-.036 1.517.108 2.998-.181 4.515-.542 2.565-2.42 4.334-5.093 4.624-2.781.325-5.418-.47-6.646-3.07-.362-.759-.759-.976-1.518-.94-1.409.072-2.817 0-4.225.036-.651 0-1.265-.108-1.915.072-.073.506 0 .94.108 1.373.975 3.938 3.54 6.466 7.261 7.839 3.612 1.336 7.296 1.372 10.945.252 4.37-1.3 7.116-4.19 8.235-8.596.362-1.409.506-2.818.506-4.299v-24.49c.072-.181.072-.398.072-.615h0zm-13.798 19.687c-4.335-.036-6.972-3.323-6.972-7.008.036-3.973 2.962-6.935 6.863-6.971 3.974-.036 6.935 2.962 6.935 7.008.037 3.936-2.925 7.007-6.826 6.971zm102.369-17.411c-4.66-4.515-11.884-4.551-15.966-.18-.073.072-.145.072-.289-.036 0-.542-.036-1.192 0-1.806s-.217-.759-.795-.759c-1.806.037-3.648 0-5.454 0-1.445 0-1.264-.144-1.264 1.265v36.699c.036.759.036.795.83.795h5.816c.831 0 .867 0 .867-.903v-13.474c1.228 1.337 2.456 2.203 3.901 2.782 4.407 1.733 9.608.469 13.004-3.251 2.131-2.312 3.359-5.057 3.756-8.128.543-5.02-.722-9.464-4.406-13.004h0zm-3.504 13.546c-.903 2.89-3.359 4.696-6.394 4.696-3.467 0-6.177-2.239-6.79-5.707-.253-1.409-.217-2.782.216-4.155.939-3.142 3.613-5.092 6.791-4.948 3.251.144 5.779 2.384 6.43 5.599.252 1.553.216 3.034-.253 4.515h0zM287.86 88.857c2.854-3.287 6.322-4.046 10.114-3.359 4.335.794 6.755 3.648 7.803 7.802.325 1.301.469 2.601.469 3.938v15.243c.072.542-.144.795-.686.722h-5.78c-1.011 0-1.011.073-1.011-.975V98.646c0-.831-.072-1.662-.253-2.493-.686-3.467-3.793-5.021-7.044-3.576-1.3.578-2.203 1.59-2.781 2.89-.65 1.445-.831 2.998-.831 4.551v12.209c0 .939 0 .939-.903.939h-5.815c-.759-.036-.759-.036-.795-.867V73.433c0-.181.036-.398 0-.578-.073-.614.216-.758.795-.758 1.95.036 3.864 0 5.815 0 .903 0 .939 0 .939.939v14.34c-.036.47-.036.831-.036 1.482h0zm101.898 37.313c3.36-3.504 7.369-4.118 11.668-2.637 3.684 1.265 5.491 4.226 6.285 7.911.253 1.155.289 2.347.289 3.503v15.28c0 .361-.108.578-.506.578h-6.501c-.326 0-.506-.144-.506-.47V136.32c0-.903-.037-1.806-.253-2.709-.433-1.77-1.3-3.215-3.143-3.721-1.95-.541-3.793-.108-5.273 1.301-1.445 1.336-1.951 3.143-2.096 5.021-.072.83-.036 1.662-.036 2.492v11.054c0 1.011 0 1.011-.975 1.011h-5.707c-.831 0-.831 0-.867-.903v-38.867c0-1.481-.144-1.265 1.265-1.265h5.128c1.228 0 1.12-.072 1.12 1.084v14.124c.036.397-.036.795.108 1.228h0zm-51.4-2.745h-6.286c-.542 0-.65.217-.614.686.036.65 0 1.264 0 2.131-.289-.216-.361-.289-.469-.361-2.095-2.203-4.732-3.143-7.695-3.035-3.828.109-6.971 1.771-9.319 4.768-3.07 3.902-3.901 8.345-2.817 13.113.903 4.046 3.106 7.224 6.791 9.247 4.189 2.312 9.933 1.806 13.112-1.734.072-.072.181-.144.361.036 0 .542.036 1.192 0 1.842-.036.542.216.723.759.687 1.805-.036 3.648 0 5.453 0 1.373 0 1.301.217 1.301-1.264v-25.503c.072-.469-.145-.613-.577-.613h0zm-6.647 16.218c-.939 3.107-3.468 4.913-6.755 4.84-3.106-.072-5.598-2.094-6.358-5.201-.396-1.625-.36-3.215.145-4.84.975-3.035 3.576-4.913 6.719-4.768 3.142.108 5.599 2.131 6.357 5.237.181.687.289 1.409.253 2.131.036.904-.108 1.771-.361 2.601h0zm8.959-43.417c-1.192-5.057-4.154-8.597-9.175-10.258-2.167-.722-4.37-.903-6.646-.578-5.31.722-9.175 3.432-11.306 8.381-1.156 2.709-1.409 5.562-.867 8.488.831 4.552 3.142 8.092 7.405 10.042 5.346 2.456 10.62 2.058 15.605-1.12 2.131-1.373 3.684-3.287 4.66-5.599.144-.361.396-.723.324-1.264h-7.26c-.361 0-.542.217-.687.469-.433.687-1.047 1.192-1.733 1.59-1.517.83-3.143 1.083-4.84.903-3.504-.361-5.816-2.493-6.213-5.816.469-.181.902-.108 1.3-.108h19.145c.794 0 .794-.036.83-.795-.033-1.459-.215-2.912-.542-4.334h0zm-20.444.072c.36-2.926 3.214-5.021 6.574-4.948 3.034.072 5.707 2.311 5.923 4.948h-12.497zm-46.309 10.186v5.96c0 .542-.362.614-.723.686-1.264.325-2.564.397-3.828.397-1.843 0-3.649-.217-5.311-1.011-2.925-1.337-4.587-3.612-5.165-6.754-.144-.832-.18-1.662-.18-2.493v-9.898c0-.902 0-.939-.94-.939-1.3 0-2.564-.036-3.864 0-.543 0-.723-.144-.723-.722.036-1.746.036-3.492 0-5.238 0-.506.18-.65.65-.65 1.373.036 2.745-.037 4.081.036.615 0 .796-.181.796-.758-.036-1.987 0-3.938 0-5.924 0-.867 0-.904.866-.904h5.924c.542 0 .722.145.722.723-.036 1.914 0 3.793 0 5.707 0 1.3-.108 1.192 1.265 1.192h5.707c.542 0 .831.108.795.758a121.83 121.83 0 0 0 0 5.13c0 .65-.253.758-.795.722-2.023-.036-4.009 0-6.032 0-.867 0-.903 0-.903.866v8.634c0 .613.072 1.228.18 1.805.29 1.554 1.192 2.493 2.71 2.854 1.409.326 2.781.217 4.153-.108a.58.58 0 0 1 .615-.072h0zm24.382 20.734c.434-.253.506-.615.687-.868 1.806-2.564 4.732-3.72 8.019-3.07.361.073.613.217.613.686v6.972c-.613.036-1.083-.18-1.588-.289-3.902-.831-6.828 1.156-7.55 5.093-.145.723-.181 1.409-.181 2.132v11.486c0 .217-.036.47 0 .686.072.615-.253.759-.794.759-1.987-.036-3.938 0-5.924 0-.795 0-.795-.036-.795-.831v-25.719c0-.577.144-.794.759-.794 2.022.036 4.009.036 6.032 0 .614 0 .758.253.758.794-.036.903-.036 1.879-.036 2.963zM160.35 171.9c-7.622 0-14.991-1.482-21.926-4.443-6.718-2.854-12.751-6.899-17.916-12.065s-9.247-11.198-12.065-17.916c-2.926-6.972-4.443-14.341-4.443-21.926s1.481-14.991 4.443-21.926c2.854-6.718 6.899-12.751 12.065-17.916s11.198-9.248 17.916-12.065c6.971-2.926 14.34-4.443 21.926-4.443s14.99 1.481 21.926 4.443a56.38 56.38 0 0 1 17.916 12.064c5.166 5.166 9.247 11.198 12.065 17.917 2.925 6.971 4.443 14.34 4.443 21.926s-1.482 14.99-4.443 21.926a56.37 56.37 0 0 1-12.065 17.916c-5.166 5.166-11.198 9.247-17.916 12.065a56.1 56.1 0 0 1-21.926 4.443h0zm0-94.494c-21.023 0-38.108 17.086-38.108 38.108s17.121 38.144 38.144 38.144 38.144-17.121 38.144-38.144c-.036-21.023-17.157-38.108-38.18-38.108zm65.814-.254c4.908 0 8.886-3.978 8.886-8.886s-3.978-8.886-8.886-8.886a8.89 8.89 0 0 0-8.886 8.886 8.89 8.89 0 0 0 8.886 8.886zm-56.457 150.953a9.05 9.05 0 0 1-3.482-.694 9.04 9.04 0 0 1-2.947-1.979c-.85-.845-1.525-1.85-1.985-2.956a9.1 9.1 0 0 1 0-6.984c.46-1.106 1.135-2.111 1.985-2.956l37.927-37.927c.845-.85 1.849-1.525 2.956-1.985a9.1 9.1 0 0 1 6.984 0c1.106.46 2.111 1.135 2.956 1.985a9.1 9.1 0 0 1 1.985 2.956c.46 1.106.697 2.293.697 3.491a9.1 9.1 0 0 1-2.682 6.448l-37.928 37.928a9.12 9.12 0 0 1-2.966 1.982c-1.11.459-2.299.693-3.5.691h0z" fill="#313144"/></svg>