<svg xmlns="http://www.w3.org/2000/svg" width="512" height="288" fill="none"><path d="M116.719 102.528v64.632H104v-64.632h12.719 0zm25.328 6.168c0 8.843-15.175 8.843-15.175 0s15.175-8.788 15.175 0zm-14.029 12.719v45.745h12.828v-45.854l-12.828.109h0zm37.285-18.887v25.274c2.167-2.361 4.81-4.234 7.756-5.495a22.6 22.6 0 0 1 9.33-1.82c15.176 0 26.421 8.134 26.421 23.91s-11.464 23.909-26.748 23.909a19.92 19.92 0 0 1-9.268-1.62c-2.916-1.273-5.484-3.225-7.491-5.694l-.819 6.168h-12.118v-64.632h12.937 0zm.873 41.869c.092 2.842 1.052 5.588 2.75 7.869s4.055 3.987 6.752 4.89c1.79.598 3.683.826 5.564.67 1.861.134 3.729-.112 5.491-.723a13.75 13.75 0 0 0 4.76-2.829c1.378-1.257 2.487-2.78 3.259-4.478s1.19-3.535 1.23-5.399a13.55 13.55 0 0 0-1.183-5.422c-.764-1.707-1.873-3.237-3.257-4.493a13.56 13.56 0 0 0-10.3-3.459c-1.873-.141-3.756.096-5.537.697s-3.422 1.553-4.827 2.8-2.546 2.765-3.353 4.461-1.267 3.539-1.349 5.416h0zm53.714 41.923v-64.795h5.077v10.917a25.5 25.5 0 0 1 9.751-8.725c3.954-2.01 8.364-2.954 12.794-2.739 14.084.437 25.274 8.789 25.274 23.528s-11.791 23.691-26.42 23.691a23.97 23.97 0 0 1-21.508-11.409v29.642l-4.968-.11h0zm47.711-41.923c0-12.883-9.444-19.16-21.235-19.16-2.676-.247-5.375.067-7.922.921a19.33 19.33 0 0 0-6.876 4.042c-1.986 1.811-3.573 4.016-4.658 6.474s-1.646 5.117-1.646 7.805.56 5.345 1.646 7.804 2.672 4.664 4.658 6.475a19.33 19.33 0 0 0 6.876 4.041 19.32 19.32 0 0 0 7.922.922c11.791 0 21.235-6.442 21.235-19.324h0zm16.867-24.728c0-13.811 14.957-18.069 28.277-18.069s28.331 4.913 28.44 18.887-15.175 18.615-28.222 18.615c-10.917 0-23.309 2.292-23.309 13.428v9.936h50.767v4.694h-56.335v-14.63c0-14.356 15.066-18.068 28.659-18.068 9.553 0 23.145-3.166 23.145-14.084s-13.047-14.52-23.145-14.52-22.655 2.948-22.655 13.701l-5.622.11h0zm70.637 66.652v-64.796h5.021v10.917c2.444-3.699 5.807-6.7 9.759-8.71s8.358-2.957 12.786-2.753c14.139.437 25.329 8.788 25.329 23.527s-11.845 23.692-26.474 23.692c-4.324.215-8.625-.741-12.449-2.769a24.01 24.01 0 0 1-9.278-8.75v29.642h-4.694 0zm47.709-41.924c0-12.883-9.498-19.16-21.288-19.16-2.677-.247-5.375.067-7.923.922a19.33 19.33 0 0 0-6.876 4.041 19.34 19.34 0 0 0-4.657 6.475c-1.085 2.459-1.646 5.117-1.646 7.804s.562 5.345 1.647 7.804 2.672 4.663 4.658 6.474 4.327 3.187 6.875 4.042 5.246 1.169 7.922.923c11.79 0 21.288-6.442 21.288-19.325z" fill="#313144"/></svg>