<svg xmlns="http://www.w3.org/2000/svg" width="512" height="288" fill="#313144"><path d="M256.004 39.68c-57.512 0-104.32 46.831-104.32 104.321s46.83 104.32 104.32 104.32 104.32-46.831 104.32-104.32-46.83-104.32-104.32-104.32v-.001zm-.155 9.27a6.83 6.83 0 0 1 4.724 2.072c1.246 1.284 1.942 3.003 1.941 4.792 0 1.82-.723 3.566-2.01 4.853s-3.033 2.01-4.853 2.01-3.566-.723-4.853-2.01-2.01-3.033-2.01-4.853a6.85 6.85 0 0 1 1.196-3.877 6.86 6.86 0 0 1 3.178-2.522c.856-.333 1.769-.491 2.687-.465zm15.714 11.299c12.049 2.257 23.462 7.109 33.447 14.221s18.302 16.311 24.374 26.961l-8.1 18.272c-1.39 3.156.044 6.864 3.178 8.276l15.581 6.908c.483 4.87.542 9.773.176 14.654h-8.673c-.861 0-1.214.574-1.214 1.412v3.973c0 9.357-5.274 11.409-9.908 11.917-4.415.508-9.292-1.854-9.91-4.546-2.604-14.632-6.93-17.744-13.77-23.15 8.496-5.385 17.324-13.352 17.324-23.99 0-11.498-7.88-18.736-13.242-22.29-7.547-4.966-15.89-5.958-18.141-5.958h-89.6a84.46 84.46 0 0 1 47.25-26.659l10.571 11.078c2.383 2.494 6.334 2.604 8.828.198l11.829-11.277h0zm-97.545 50.802a6.87 6.87 0 0 1 4.726 2.079c1.244 1.282 1.94 2.999 1.939 4.785a6.86 6.86 0 0 1-6.864 6.864 6.86 6.86 0 0 1-6.863-6.864 6.87 6.87 0 0 1 1.198-3.875 6.88 6.88 0 0 1 3.176-2.524c.856-.333 1.77-.491 2.688-.465h0zm163.641.31a6.86 6.86 0 0 1 6.665 6.863c0 1.82-.724 3.566-2.011 4.853a6.86 6.86 0 0 1-4.853 2.01c-1.82 0-3.566-.723-4.853-2.01s-2.01-3.033-2.01-4.853a6.86 6.86 0 0 1 .54-2.674 6.85 6.85 0 0 1 1.54-2.251c.658-.64 1.439-1.142 2.294-1.475s1.77-.49 2.688-.463h0zm-150.709 1.103h11.962v53.937h-24.144c-2.982-10.471-3.911-21.42-2.736-32.243l14.786-6.577c3.156-1.412 4.59-5.098 3.178-8.254l-3.046-6.863h0zm49.92.574h28.491c1.479 0 10.395 1.699 10.395 8.386 0 5.539-6.842 7.526-12.469 7.526h-26.439l.022-15.912h0zm0 38.753h21.826c1.987 0 10.66.574 13.418 11.652.861 3.399 2.781 14.478 4.083 18.031 1.302 3.972 6.577 11.917 12.204 11.917h35.619c-2.387 3.197-4.997 6.22-7.812 9.048l-14.5-3.112c-3.376-.728-6.708 1.435-7.436 4.811l-3.444 16.067c-11.07 5.015-23.093 7.581-35.246 7.524a84.45 84.45 0 0 1-35.175-7.855l-3.443-16.067c-.728-3.376-4.039-5.539-7.416-4.811l-14.189 3.046c-2.634-2.716-5.082-5.606-7.327-8.651h69.009c.773 0 1.303-.133 1.303-.861v-24.408c0-.706-.53-.861-1.303-.861h-20.193l.022-15.47h0zm-31.846 55.9c1.34.04 2.64.47 3.738 1.24s1.947 1.842 2.442 3.088.614 2.61.343 3.923a6.87 6.87 0 0 1-1.867 3.466c-1.288 1.287-3.033 2.01-4.854 2.01s-3.565-.723-4.853-2.01c-.643-.643-1.153-1.408-1.498-2.25s-.52-1.744-.513-2.653.193-1.81.551-2.647a6.86 6.86 0 0 1 1.53-2.228c.658-.64 1.438-1.142 2.294-1.475s1.769-.491 2.687-.464h0zm101.628.31c1.786.051 3.481.797 4.725 2.079a6.87 6.87 0 0 1 1.669 2.873 6.86 6.86 0 0 1-1.327 6.31 6.86 6.86 0 0 1-2.685 1.957 6.85 6.85 0 0 1-3.289.467 6.87 6.87 0 0 1-3.124-1.132c-.933-.628-1.697-1.475-2.225-2.468a6.85 6.85 0 0 1-.806-3.223 6.87 6.87 0 0 1 1.199-3.875c.78-1.142 1.887-2.022 3.175-2.524a6.86 6.86 0 0 1 2.688-.464h0z"/><path fill-rule="evenodd" d="M354.494 144c0 12.934-2.548 25.742-7.498 37.692s-12.204 22.807-21.35 31.953-20.004 16.401-31.954 21.351-24.757 7.498-37.691 7.498a98.49 98.49 0 0 1-37.692-7.498 98.48 98.48 0 0 1-53.304-53.304c-4.95-11.949-7.498-24.757-7.498-37.691 0-26.122 10.377-51.174 28.848-69.645S229.878 45.507 256 45.507s51.174 10.377 69.645 28.848 28.849 43.523 28.849 69.645h0zm-1.854-9.512L368 144l-15.36 9.512 13.198 12.336-16.905 6.334 10.549 14.676-17.855 2.913 7.504 16.463-18.074-.64 4.149 17.612-17.612-4.149.64 18.074-16.463-7.504-2.913 17.855-14.676-10.549-6.334 16.905-12.336-13.198L256 256l-9.512-15.36-12.336 13.198-6.334-16.905-14.676 10.549-2.913-17.855-16.463 7.504.64-18.074-17.612 4.149 4.149-17.612-18.074.64 7.504-16.463-17.855-2.913 10.549-14.676-16.905-6.334 13.198-12.336L144 144l15.36-9.512-13.198-12.336 16.905-6.334-10.549-14.676 17.855-2.913-7.504-16.463 18.074.64-4.149-17.611 17.612 4.149-.64-18.074 16.463 7.504 2.913-17.854 14.676 10.549 6.334-16.904 12.336 13.197L256 32l9.512 15.36 12.336-13.198 6.334 16.905 14.676-10.549 2.913 17.854 16.463-7.504-.64 18.074 17.612-4.149-4.149 17.611 18.074-.64-7.504 16.463 17.855 2.913-10.549 14.676 16.905 6.334-13.198 12.336h0z" stroke="#313144" stroke-width="3" stroke-linejoin="round"/></svg>