<svg xmlns="http://www.w3.org/2000/svg" width="512" height="288" fill="none"><path d="M102.682 80C67.2 80 38.4 108.668 38.4 143.985S67.2 208 102.682 208s64.311-28.668 64.311-64.015S138.192 80 102.682 80h0zm-16.717 99.037c-.001.157-.064.307-.175.418s-.262.173-.419.173h-12.53a.59.59 0 0 1-.419-.173c-.111-.111-.174-.261-.175-.418v-48.381c0-.325.267-.591.594-.591h12.53c.326 0 .594.266.594.591v48.381h0zm-6.888-55.711c-4.365 0-7.808-3.221-7.808-7.477s3.443-7.477 7.808-7.477c4.483 0 7.898 3.222 7.898 7.477s-3.415 7.477-7.898 7.477zm30.642 55.681c-.001.157-.064.307-.175.418s-.262.173-.419.173h-12.53a.59.59 0 0 1-.419-.173c-.111-.111-.174-.261-.175-.418v-70.044c0-.325.267-.591.594-.591h12.53c.327 0 .594.266.594.591v70.044zm23.723.03c-.001.157-.064.307-.175.418s-.262.173-.419.173h-12.5c-.157 0-.307-.062-.419-.173s-.174-.261-.175-.418v-48.381c0-.325.268-.591.594-.591h12.53c.326 0 .594.266.594.591v48.381h-.03zm.682-56.272a.59.59 0 0 1-.174.418c-.112.111-.262.173-.419.173h-13.836c-.157 0-.308-.062-.419-.173s-.174-.261-.175-.418v-13.802c0-.325.267-.591.594-.591h13.836c.326 0 .593.266.593.591v13.802zm47.928 63.193a.66.66 0 0 0 .66.658h12.856a.66.66 0 0 0 .252-.05.64.64 0 0 0 .214-.142c.061-.061.11-.134.143-.213s.05-.166.051-.253v-23.482h19.903a.66.66 0 0 0 .252-.05.67.67 0 0 0 .215-.142.66.66 0 0 0 .143-.214c.033-.08.05-.166.051-.252v-9.317c-.001-.175-.071-.342-.195-.466a.66.66 0 0 0-.466-.192h-19.903v-16.471h25.328a.66.66 0 0 0 .466-.192.64.64 0 0 0 .144-.213c.033-.08.05-.166.05-.253v-9.752c0-.087-.017-.173-.05-.253a.64.64 0 0 0-.144-.213.66.66 0 0 0-.466-.192h-38.844a.66.66 0 0 0-.252.05c-.08.033-.153.081-.214.142a.67.67 0 0 0-.144.213c-.033.08-.05.166-.05.253v60.996zm58.484 1.618c7.525 0 12.163-3.486 14.525-8.106v6.489a.66.66 0 0 0 .661.658h11.279c.087 0 .173-.017.253-.05a.64.64 0 0 0 .214-.142.66.66 0 0 0 .143-.214.64.64 0 0 0 .051-.252v-44.264c0-.086-.017-.172-.051-.252s-.082-.152-.143-.213-.134-.11-.214-.143-.166-.05-.253-.049h-11.279a.64.64 0 0 0-.252.049.66.66 0 0 0-.215.143c-.061.061-.11.133-.143.213s-.051.166-.051.252v26.098c0 6.71-4.2 10.022-9.537 10.022-5.426 0-7.964-2.963-7.964-9.151v-26.969c0-.174-.07-.342-.194-.465s-.291-.193-.466-.192h-11.28c-.086-.001-.172.016-.252.049s-.153.081-.214.143-.11.133-.144.213a.66.66 0 0 0-.05.252v28.712c0 11.94 6.65 17.169 15.576 17.169h0zm31.356-1.617a.66.66 0 0 0 .661.658h38.756c.087 0 .173-.017.253-.05a.64.64 0 0 0 .214-.142.66.66 0 0 0 .143-.214.64.64 0 0 0 .051-.252v-8.445a.66.66 0 0 0-.194-.466c-.124-.123-.292-.192-.467-.192h-21.215l22.641-34.085a.64.64 0 0 0 .109-.363v-.713a.66.66 0 0 0-.05-.252c-.033-.08-.082-.152-.143-.213a.67.67 0 0 0-.214-.143c-.08-.033-.166-.05-.253-.049h-37.356c-.086-.001-.172.016-.252.049s-.153.081-.214.143-.11.133-.144.213a.66.66 0 0 0-.05.252v8.446a.66.66 0 0 0 .66.657h19.64L272 185.058a.66.66 0 0 0-.108.36v.541zm41.897 0a.66.66 0 0 0 .661.658h38.756c.087 0 .172-.017.253-.05a.64.64 0 0 0 .214-.142.67.67 0 0 0 .144-.213c.033-.08.05-.166.051-.253v-8.445c-.001-.175-.071-.342-.195-.466s-.292-.192-.467-.192h-21.217l22.642-34.085a.66.66 0 0 0 .111-.363v-.713c0-.086-.017-.172-.051-.252s-.082-.152-.143-.213-.134-.11-.214-.143-.166-.05-.253-.049h-37.356c-.086-.001-.172.016-.252.049s-.153.081-.214.143-.11.133-.144.213-.05.166-.051.252v8.446a.66.66 0 0 0 .661.657h19.642l-22.47 34.26a.66.66 0 0 0-.108.36v.541h0zm45.766 0a.66.66 0 0 0 .661.658h11.28a.66.66 0 0 0 .659-.658v-44.264a.66.66 0 0 0-.659-.658h-11.28c-.175 0-.343.069-.467.192a.66.66 0 0 0-.194.466v44.264h0zm6.213-51.109c4.112 0 7.262-2.964 7.262-6.885s-3.15-6.885-7.262-6.885c-4.024 0-7.177 2.962-7.177 6.885s3.153 6.885 7.177 6.885zm13.673 51.108c0 .363.294.657.659.657h11.366a.66.66 0 0 0 .662-.657v-25.662c0-6.71 4.112-10.022 9.539-10.022 5.601 0 8.049 2.963 8.049 9.15v26.534a.66.66 0 0 0 .661.657h11.367c.175.001.342-.068.466-.192a.65.65 0 0 0 .195-.465v-28.364c0-12.201-6.388-17.604-15.402-17.604-7.611 0-12.601 3.748-14.875 8.279v-6.576c-.001-.087-.018-.173-.051-.253a.64.64 0 0 0-.144-.213.66.66 0 0 0-.214-.143c-.08-.033-.166-.049-.253-.049H380.1a.66.66 0 0 0-.252.05c-.08.033-.153.081-.214.143s-.11.133-.143.213a.66.66 0 0 0-.05.252v44.265h0zm70.632 17.477c15.052 0 24.064-6.885 24.153-20.393v-41.349c-.001-.175-.071-.342-.195-.466s-.292-.192-.467-.192h-11.278a.66.66 0 0 0-.252.05c-.081.032-.153.081-.215.142a.66.66 0 0 0-.143.214c-.033.079-.051.165-.051.252v6.141c-2.625-4.62-7.089-7.844-14.525-7.844-11.377 0-20.128 9.15-20.128 22.223v.61c0 13.508 8.839 21.787 19.952 21.787 6.737 0 12.161-4.008 14.701-8.453v6.885c0 7.146-3.851 11.155-11.552 11.155-6.188 0-9.101-2.386-10.033-6.094-.035-.149-.119-.282-.239-.378a.69.69 0 0 0-.421-.151h-11.308c-.093-.002-.185.018-.271.056s-.161.095-.222.165-.106.154-.131.244a.63.63 0 0 0-.017.276c1.477 9.008 8.246 15.12 22.642 15.12zm.613-28.324c-6.302 0-10.762-4.706-10.762-12.288v-.697c0-7.495 3.936-12.55 11.024-12.55 6.912 0 11.028 4.706 11.028 12.462v.611c0 7.756-4.64 12.462-11.29 12.462zm-265.802-62.764v-10.795h1.652c3.606 0 5.108 1.988 5.108 5.28v.171c0 3.378-1.652 5.344-5.087 5.344h-1.673 0zm-2.856 2.245h4.616c5.387 0 7.984-3.164 7.984-7.61v-.192c0-4.447-2.597-7.482-7.942-7.482h-4.658v15.284h0zm16.479 0h2.876V99.308h-2.876v15.284zm7.789 0h9.4v-2.266h-6.546V99.308h-2.854v15.284zm13.193 0h2.876V99.308h-2.876v15.284zm14.671.214c4.336 0 6.996-2.564 6.996-6.797v-1.411h-6.674v2.138h3.863c-.086 2.116-1.267 3.847-4.142 3.847-3.22 0-4.744-2.244-4.744-5.515v-.17c0-3.357 1.738-5.58 4.744-5.58 1.996 0 3.369.876 3.713 2.907h2.854c-.408-3.655-3.326-5.151-6.61-5.151-4.486 0-7.663 3.248-7.663 7.802v.171c0 4.511 2.747 7.759 7.663 7.759zm11.04-.214h9.96v-2.245h-7.105v-4.467h5.409v-2.138h-5.409v-4.19h6.74v-2.244H245.2v15.284h0zm13.822 0h2.598v-11.714l6.911 11.714h2.962V99.308h-2.597v11.051l-6.46-11.051h-3.414v15.284zm23.569.214c3.649 0 6.267-1.859 6.718-5.536h-2.79c-.3 2.159-1.803 3.228-3.928 3.228-2.833 0-4.486-2.031-4.486-5.472v-.172c0-3.42 1.76-5.515 4.465-5.515 2.21 0 3.348 1.047 3.67 3.079h2.897c-.343-3.592-3.069-5.344-6.589-5.344-4.271 0-7.448 3.206-7.448 7.802v.171c0 4.703 2.684 7.759 7.491 7.759h0zm10.477-.214h9.959v-2.245h-7.105v-4.467h5.409v-2.138h-5.409v-4.19h6.74v-2.244h-9.594v15.284h0z" fill="#313144"/></svg>