<svg xmlns="http://www.w3.org/2000/svg" width="512" height="288" fill="#313144"><path d="M194.371 121.014c0 3.458.374 6.26 1.028 8.316.748 2.056 1.681 4.299 2.99 6.728.467.748.654 1.495.654 2.149 0 .935-.561 1.869-1.775 2.803l-5.887 3.924c-.841.561-1.681.841-2.429.841-.935 0-1.869-.467-2.804-1.308a28.95 28.95 0 0 1-3.363-4.391l-2.897-5.513c-7.288 8.596-16.444 12.894-27.47 12.894-7.849 0-14.11-2.243-18.688-6.727s-6.914-10.465-6.914-17.94c0-7.942 2.803-14.389 8.503-19.248s13.268-7.288 22.892-7.288c3.177 0 6.447.28 9.905.747s7.007 1.215 10.744 2.056v-6.821c0-7.102-1.495-12.054-4.391-14.95-2.99-2.896-8.036-4.298-15.23-4.298-3.271 0-6.635.374-10.091 1.214s-6.821 1.869-10.092 3.177c-1.495.654-2.616 1.028-3.27 1.215s-1.122.28-1.495.28c-1.308 0-1.962-.934-1.962-2.896v-4.579c0-1.495.187-2.616.654-3.27s1.308-1.308 2.616-1.962c3.27-1.682 7.195-3.084 11.773-4.205 4.579-1.215 9.437-1.776 14.576-1.776 11.12 0 19.248 2.523 24.481 7.569 5.139 5.046 7.755 12.707 7.755 22.986v30.273h.187 0zm-37.935 14.203c3.083 0 6.26-.561 9.624-1.682s6.353-3.177 8.876-5.98c1.495-1.775 2.616-3.737 3.177-5.98s.935-4.952.935-8.129v-3.924c-2.834-.69-5.704-1.22-8.597-1.588a70.08 70.08 0 0 0-8.783-.561c-6.26 0-10.839 1.214-13.922 3.737s-4.578 6.073-4.578 10.745c0 4.392 1.12 7.663 3.456 9.905 2.243 2.336 5.513 3.457 9.812 3.457zm75.03 10.091c-1.682 0-2.803-.28-3.551-.934-.747-.561-1.402-1.869-1.962-3.644l-21.958-72.228c-.56-1.868-.841-3.083-.841-3.737 0-1.496.748-2.336 2.242-2.336h9.157c1.776 0 2.991.28 3.644.934.748.56 1.309 1.869 1.869 3.644l15.698 61.855 14.576-61.856c.467-1.868 1.028-3.082 1.776-3.643s2.055-.934 3.736-.934h7.476c1.775 0 2.99.28 3.737.934.747.56 1.402 1.869 1.775 3.644l14.764 62.602 16.164-62.602c.561-1.869 1.215-3.084 1.869-3.644.747-.561 1.962-.934 3.644-.934h8.69c1.495 0 2.336.747 2.336 2.336 0 .467-.094.934-.187 1.494s-.28 1.308-.654 2.336l-22.518 72.227c-.561 1.869-1.216 3.083-1.963 3.644s-1.962.935-3.55.935h-8.036c-1.775 0-2.99-.28-3.738-.935s-1.401-1.869-1.775-3.737l-14.482-60.268-14.39 60.174c-.467 1.869-1.028 3.084-1.775 3.738s-2.056.934-3.738.934h-8.035zm120.066 2.523c-4.858 0-9.717-.561-14.389-1.682s-8.316-2.336-10.745-3.738c-1.495-.841-2.523-1.775-2.897-2.616a6.62 6.62 0 0 1-.561-2.616v-4.765c0-1.962.748-2.896 2.15-2.896.56 0 1.121.092 1.682.28s1.401.56 2.336.934a50.82 50.82 0 0 0 10.277 3.27c3.738.748 7.382 1.121 11.119 1.121 5.887 0 10.465-1.027 13.643-3.083s4.858-5.046 4.858-8.877c0-2.616-.841-4.765-2.523-6.54s-4.858-3.364-9.437-4.859l-13.548-4.205c-6.821-2.149-11.867-5.325-14.95-9.53-3.083-4.111-4.672-8.69-4.672-13.548 0-3.925.841-7.382 2.523-10.372s3.924-5.606 6.727-7.662c2.803-2.149 5.98-3.738 9.718-4.858S350.504 60 354.616 60c2.056 0 4.204.094 6.26.374 2.149.28 4.112.654 6.073 1.028 1.869.467 3.644.934 5.327 1.495s2.989 1.121 3.924 1.682c1.308.747 2.242 1.495 2.803 2.336.561.747.841 1.776.841 3.083v4.392c0 1.962-.748 2.99-2.149 2.99-.747 0-1.963-.374-3.551-1.121-5.326-2.43-11.306-3.644-17.94-3.644-5.326 0-9.53.84-12.427 2.616s-4.392 4.485-4.392 8.316c0 2.616.935 4.858 2.803 6.634s5.327 3.551 10.279 5.139l13.268 4.205c6.727 2.149 11.586 5.139 14.483 8.97s4.298 8.222 4.298 13.081c0 4.018-.841 7.662-2.43 10.839-1.682 3.176-3.924 5.98-6.821 8.222-2.896 2.336-6.353 4.018-10.371 5.233-4.205 1.308-8.596 1.962-13.362 1.962h0z"/><path d="M369.191 193.242c-30.741 22.705-75.404 34.759-113.806 34.759-53.82 0-102.314-19.903-138.941-52.979-2.897-2.616-.281-6.167 3.177-4.111 39.617 22.985 88.485 36.907 139.034 36.907 34.105 0 71.573-7.1 106.051-21.677 5.14-2.336 9.531 3.364 4.485 7.101h0zm12.802-14.576c-3.924-5.046-25.975-2.43-35.973-1.216-2.99.374-3.458-2.242-.748-4.204 17.566-12.334 46.439-8.783 49.803-4.672 3.363 4.204-.935 33.077-17.38 46.905-2.523 2.15-4.953 1.028-3.831-1.775 3.738-9.25 12.054-30.086 8.129-35.038z" fill-rule="evenodd"/></svg>