<svg xmlns="http://www.w3.org/2000/svg" width="1286" height="708" fill="none"><g clip-path="url(#A)" fill="#5158f6"><path d="M18.8 558.7c-3.6-19.7-8.3-39.4-10.5-59.3C3.5 454-1.9 408.6.6 362.6c2.2-39.1 11.5-76.4 28.3-111.7.7-1.6 2.3-3.1 3.6-4.4l81.3-76.4c6.4-6.1 12.9-12 15.8-21.9 2.2-7.6 11.5-12.1 20.7-12.3 7.3-.2 14.6.2 21.9.4 3.9.2 5.8-1 7.7-4.7l26-48.9c7-13.3 19.3-20.4 32.3-26 20.5-8.7 41.5-16 61.8-24.6 11.1-4.7 21.6-11.1 32.4-16.5 8.3-4.2 16.8-8.3 25.4-12.3 13.3-6.1 24.7-2 36.1 5.7 15 10.2 30.8 19.4 46 29.3 7.3 4.7 14 10.4 21.3 15 5.8 3.7 12.4 6 18.2 9.5 5.4 3.2 10.8 6.7 15.5 10.8 10.8 9.5 21.2 19.4 31.7 29.1 3.4 3.1 7 5.8 11.2 9.3 3.9-7.9 16.4-7.2 15.5-18.7.3-.3.7-.9 1.3-1.2 12.6-5.4 15.2-3.9 18.1 9.5 1 4.4 2.8 8.5 4.7 13.9.3-.9.3-.3 0 0-4.2 4.5-12.3 9.3-12.1 13.7.3 8.2 5.1 16.4 8.6 24.4 6 13.3 14 25.8 18.1 39.6 5.4 18 8.2 37 11.8 55.5 2.2 11.4 3.8 23.1 5.5 34.6.3 2.2.4 4.4.4 6.6-.2 10.8-1.9 12.4-12.6 12-7.3-.3-14.6-.7-21.9-.4-5.5.3-8.6-1.8-10.2-7-2.6-8-6.6-15.9-7.9-24.2-1.2-7.2.9-14.9.7-22.3-.2-13.6-.2-27.3-1.5-40.9-.6-6.3-3.5-12.6-6.4-18.4-5.4-10.5-11.5-20.9-17.7-31-3.5-5.7-7.6-10.8-1.9-18.5-11.1 12.7-18-.7-27.2-3.2.3 1.6.4 2.6.7 3.7 8.9 28 19.1 55.8 26.4 84.1 4.5 17.5 4.7 36.1 6.4 54.2.9 9.5 95.5 17.8 102.7 25.6-9.3 4.8-96.8 3.9-123.4 8.2-3.4-1-7.5-1-10.8-.2-9.6 2.2-78.3 18.6-86.5 15.9-2.3-.7 56.2-27.9 56.2-30.8.4-14-6-23.1-17.4-31-18.4-12.6-36.4-24.8-59.1-28.2-11.8-1.8-22.6-1-33 5.1-11 6.4-22.5 9.3-35.5 8.2-13.6-1.3-26.1 1.6-35.3 14-5.5 7.4-13.4 13.1-20.7 19.1-11.4 9.3-23.4 18.2-33.6 28.2-1.2 3.2-1.9 6.6-3.5 9.6-6.9 13.9-14.6 27.4-20.6 41.6-7.7 18.1-14 36.8-21.2 55.2-1.6 4.1-1.3 6.9 1.3 10.5 16.5 23.4 37.7 41.9 59.9 59.3-27.2-12.3-46.6-33.9-66-57.5-7.3 21.5-19.3 39.9-20.1 61.8-.9 19.3-5.8 37.4-13.7 54.9-2.5 5.7-1.6 9.6 2 14.6 42.4 56.9 95 102.2 154.4 140.1l6 3.9-.9 1.8c-14.2-7.6-28.6-14.9-42.5-23.1-29.8-17.4-57.2-37.7-82.6-60.9-19.9-18.1-35-39.7-50.4-61.3-1-1.5-1.6-4.4-.9-5.8 11.7-24.5 11.7-51.6 15.9-77.5 3.1-18.8 12-35.3 20.3-52 2.8-5.6 2.6-9.1-1.2-14.2-12.6-16.7-24.5-33.9-36.5-51-1.6-2.3-2.3-6.3-1.8-9.3l29.4-156.4c1.5-7.6.6-16.4 8.6-21.6-.1-.7-.3-1.5-.3-2.2l-19.7-1.6c-4.1-.4-8.3-1.3-13.1-2-.4 9.8-9.8 12.7-18 16.7-20.6 9.6-35.6 25.8-51.1 41.8-2.5 2.6-5 5.6-7.9 7.4-32.9 21.6-41.8 55.9-47.9 90.7-13.4 76.2-8.8 152.6 2.6 228.8.1 1.3.1 2.6.3 4.1-.8-.1-1.5 0-2.2.2zM431 234.9c.6-.9 1-1.8 1.6-2.6-3.7-2.8-7-6.4-11.1-8.2-11.1-5-19.6-12.6-25.1-23.4-2.6-5.1-6.7-6.6-12-6.1-5.3.4-10.7.6-15.9 1.6-14.6 2.6-29.1.9-43.5-1.6-7.3-1.3-14.9-1.9-22.3-1.2-20.3 1.8-39-1.8-55.5-14.6-5.1-3.9-11.4-6.7-17.5-8.5-3.5-1-8.8 0-11.8 2-9 6.1-17.7 13-26 20-2.5 2.2-4.7 5.5-5.5 8.8l-14.8 62.5-20.9 88.8c-.7 2.9-.4 6.9.9 9.5 4.2 7.6 9 14.9 13.9 22.2l19.7 29.1c4.2-12.1 8.6-21.9 11.2-32.3 5.5-21.5 12.3-42.5 24.4-61.2 4.8-7.4 5.4-12.3-.9-19.3-7.2-8-6.4-10.2 1.9-17.4 1.8-1.5 5-1.3 7.5-1.9 1.5-.4 3.2-.6 4.2-1.5 12.7-12.8 25.9-24.5 43.4-31.2 16.4-6.3 31.8-15.2 47.9-22.3 7.5-3.4 15.5-7.4 23.4-7.7 17.4-.7 34.8.3 51.4 7 9.8 4.1 20.8 6.3 31.4 9.5zm29.4-135.8c-5-3.8-9-6.4-12.6-9.6C437 80.2 426 71 415.8 61c-7.7-7.5-14.6-15-24.1-21.2-14.6-9.5-27.9-7.6-41.3-2.2L240.6 83c-26 9.9-37.2 33.3-54.2 52.1 13 .9 25.6.9 38.1.7 1.5 0 3.2-1.2 4.5-2.2 21.2-16.9 42.2-34.2 59.3-55.6.9-1.2 3.2-2.8 3.9-2.5 6.4 3.1 8.6-2.3 11.8-5.5 2.2-2.3 4.1-5.1 6.3-8 .9 3.1 1.6 5.4 2.5 8 3.5-2 6.4-3.9 9.6-5.8 1.3 2.3 2.3 3.9 3.1 5.7 3.9 8.8 10.5 13.9 20.2 16.2 15.5 3.8 30.8 8.5 46.3 12.7.6.2 1.3-.3 1.9-.4-.3-2.2-.6-4.2-1-8.2 14.6 3.7 28.2 6.4 41.3 10.2 8.4 2.8 16.4 2.2 26.2-1.3zM261.9 140l120.8 21.2c-1.3-7.2-1.2-14.8-7.7-19.6-.2-.2 0-.9 0-2.9 8.6 5.4 16.8 9.9 24.4 15.3 5.1 3.5 8.2 1.5 10.5-2.8 2.2-3.8 3.7-7.9 6-13-6.1-2.8-12.6-7.3-19.4-8.5-21.5-3.5-43.4-5.5-65-8.5-3.4-.4-6.7-2.3-9.5-4.4-6.1-4.5-12-9.5-18.2-14.6-.7 1.5-2 2.8-1.9 3.8.7 6.3-3.4 9-7.7 11.8L261.9 140zm171.9 2.6c2.3 16.1 5.7 31.5 18.5 43.1 7 6.3 15.3 11.4 19.4 20.7 1.9 4.2 4.8 7.9 7.3 11.7l26.6 40.3c.6-.3 1.3-.7 1.9-1-.6-2.2-.9-4.5-1.6-6.7l-12.3-31.8C485 196.1 474 174.7 458 156c-6.4-7.7-12.7-14-24.2-13.4zm831.8 415.6c0-1.3 0-2.8.3-4.1 11.2-76.1 16.1-152.5 2.6-228.8-6.1-34.8-15-69.1-47.5-90.7-2.9-2-5.4-4.8-7.9-7.4-15.5-15.8-30.5-32.1-51.1-41.8-8.2-3.8-17.7-6.7-18-16.7-5 .7-9.1 1.6-13.1 2-6.6.7-13.1 1-19.7 1.6a8.33 8.33 0 0 0-.3 2.2c8 5.3 7.2 14 8.6 21.6l29.3 156.4c.6 2.9-.2 6.9-1.8 9.3-11.8 17.2-23.9 34.3-36.5 51-3.8 5-4.1 8.5-1.2 14.2 8.5 16.7 17.2 33.2 20.3 52 4.4 26 4.4 53 15.9 77.5.7 1.5.2 4.4-.9 5.8-15.3 21.6-30.7 43.2-50.4 61.3-25.4 23.2-53 43.5-82.7 60.9-13.9 8.2-28.3 15.3-42.5 23.1l-.9-1.8 6-3.9c59.4-37.8 112-83.1 154.1-140.2 3.7-5 4.5-8.9 2-14.6-7.9-17.4-12.7-35.6-13.7-54.9-1-22.1-12.8-40.3-20.2-61.8-19.6 23.7-38.8 45.3-66 57.5 22.2-17.5 43.4-35.9 59.9-59.3 2.6-3.7 2.9-6.6 1.3-10.5-7.2-18.4-13.4-37.1-21.2-55.2-6-14.3-13.9-27.8-20.6-41.6-1.5-3.1-2.3-6.4-3.5-9.6-10.2-9.9-22.1-18.8-33.6-28.2-7.3-6-15.2-11.7-20.7-19.1-9.2-12.4-21.8-15.3-35.3-14-13.1 1.3-24.7-1.6-35.5-8.2-10.4-6.3-21.2-6.9-33-5.1-22.8 3.4-40.9 15.6-59.1 28.2-11.5 7.9-17.8 16.9-17.4 31 .2 3.1 58.7 30.1 56.2 30.8-8.3 2.6-76.8-13.7-86.5-15.9-3.5-.7-7.6-.9-10.8.2-26.4-4.2-114-3.4-123.4-8.2 7.2-7.7 101.8-16.1 102.7-25.6 1.8-18.1 1.9-36.8 6.4-54.2 7.3-28.5 17.5-56.1 26.4-84.1.3-1 .4-2 .7-3.7-9.2 2.5-16.1 15.9-27.2 3.2 5.7 7.7 1.6 12.8-1.9 18.5-6.3 10.1-12.3 20.4-17.7 31-2.9 5.7-5.8 12.1-6.4 18.4-1.3 13.6-1.3 27.2-1.5 40.9-.2 7.4 1.9 15.2.7 22.3-1.3 8.3-5.4 16.1-7.9 24.2-1.6 5.1-4.7 7.2-10.2 7-7.3-.3-14.6.2-21.9.4-10.5.4-12.4-1.3-12.6-12 0-2.2.2-4.4.4-6.6l5.5-34.6c3.5-18.6 6.3-37.4 11.8-55.5 4.1-13.7 12.3-26.3 18.1-39.6 3.5-7.9 8.3-16.1 8.6-24.4.2-4.4-7.9-9-12.1-13.7-.3-.3-.3-.9 0 0 1.8-5.4 3.7-9.5 4.7-13.9 2.9-13.4 5.5-14.9 18.1-9.5.6.3 1 .9 1.3 1.2-.9 11.7 11.5 10.8 15.5 18.7 4.2-3.5 7.9-6.3 11.2-9.3l31.7-29.1c4.7-4.1 10.1-7.6 15.5-10.8 5.8-3.5 12.6-5.8 18.2-9.5 7.3-4.7 14-10.4 21.3-15l46-29.3c11.4-7.6 22.8-11.7 36.1-5.7 8.5 3.9 16.9 8 25.4 12.3 10.8 5.4 21.3 11.8 32.4 16.5 19.7 8.8 40.7 16.1 61 24.7 13 5.5 25.3 12.7 32.3 26l26 48.9c1.9 3.7 3.8 5 7.7 4.7 7.3-.4 14.6-.6 21.9-.4 9.2.2 18.6 4.7 20.7 12.3 2.9 9.9 9.2 15.8 15.8 21.9l81.3 76.4c1.3 1.3 2.9 2.6 3.7 4.4 16.8 35.3 26.1 72.6 28.3 111.7 2.5 45.8-2.9 91.4-7.7 136.8-2 19.9-6.9 39.6-10.5 59.3.2.1-.6 0-1.3-.2zM887.4 225.4c16.7-6.7 34-7.7 51.4-7 7.9.3 15.9 4.4 23.4 7.7 16.1 7.2 31.4 16.1 47.9 22.3 17.5 6.7 30.7 18.4 43.4 31.2.9 1 2.8 1.2 4.2 1.5 2.5.7 5.7.4 7.4 1.9 8.2 7 8.9 9.3 1.9 17.4-6.1 7-5.6 11.8-.9 19.3 12.1 18.7 18.8 39.7 24.4 61.2 2.6 10.2 7 20.2 11.2 32.3l19.7-29.1c4.8-7.3 9.8-14.6 13.9-22.2 1.5-2.6 1.6-6.6.9-9.5l-20.9-88.8-14.8-62.5c-.7-3.2-3.1-6.6-5.6-8.8-8.3-7-16.9-13.9-26-20-3.1-2-8.3-3.1-11.8-2-6.1 1.8-12.6 4.5-17.5 8.5-16.7 12.7-35.2 16.2-55.5 14.6-7.3-.6-15 0-22.3 1.2-14.5 2.5-28.8 4.2-43.5 1.6-5.3-.9-10.7-1-15.9-1.6-5.3-.4-9.3 1-12 6.1-5.6 10.8-14 18.2-25.1 23.4-4.1 1.9-7.4 5.4-11.1 8.2.6.9 1 1.8 1.6 2.6 10.4-3.2 21.3-5.4 31.6-9.5zm-34.8-124.5c13.1-3.8 26.7-6.7 41.3-10.2-.4 3.9-.7 6-1 8.2.6.2 1.3.6 1.9.4l46.3-12.7c9.5-2.3 16.1-7.5 20.2-16.2.7-1.8 1.9-3.4 3.1-5.7l9.6 5.8c.9-2.6 1.5-5 2.5-8 2.3 2.9 4.1 5.7 6.3 8 3.2 3.2 5.6 8.6 11.8 5.5.7-.4 2.9 1.3 3.9 2.5 17.1 21.5 38 38.7 59.3 55.6 1.3 1 2.9 2.2 4.5 2.2 12.6.2 25.1.2 38.1-.7-16.9-18.8-28.2-42.2-54.2-52.1-36.9-14.2-73-30.8-109.8-45.4-13.4-5.4-26.7-7.2-41.3 2.2-9.5 6.1-16.4 13.6-24.1 21.2-10.2 9.9-21.2 19.1-32 28.5-3.7 3.2-7.6 5.8-12.6 9.6 9.6 3 17.6 3.6 26.2 1.3zm139.6 17.2c-4.4-2.9-8.5-5.7-7.7-11.8.2-1.2-1.2-2.3-1.9-3.8-6.3 5.1-12.1 10.1-18.3 14.6-2.8 2-6.1 3.8-9.5 4.4-21.6 2.9-43.4 5-65 8.5-6.9 1.2-13.3 5.7-19.4 8.5 2.3 5.1 3.8 9.2 6 13 2.5 4.2 5.4 6.3 10.5 2.8 7.6-5.3 15.8-9.9 24.4-15.3 0 2.2.3 2.8 0 2.9-6.7 4.8-6.6 12.4-7.7 19.6l120.8-21.2c-11.7-8.5-21.8-15.5-32.2-22.2zm-163.7 37.7c-16.1 18.7-27 40.2-35.6 62.9l-12.3 31.8c-.9 2.2-1.2 4.5-1.6 6.7.6.3 1.3.7 1.9 1l26.6-40.3c2.5-3.8 5.5-7.6 7.3-11.7 4.1-9.3 12.4-14.3 19.4-20.7 12.8-11.5 16.2-27 18.6-43.1-11.6-.4-17.9 5.9-24.3 13.4zM753 362.1l48.6-16.1-3.5 9.5c8-1 15.3-2.3 22.8-2.8 3.2-.3 7.7-.2 9.8 1.9 9.1 8.5 17.8 17.4 26 26.9 2.2 2.6 2.6 7.9 1.9 11.5-3.2 13.9-6.4 27.9-11.2 41.2-2.6 7.2-8.5 13.1-13.6 20.9-.7-1.6-.6-.7-.2-.6 16.5 5.1 14 18 11.7 29.9-3.1 15.9-4.8 32.7-11.4 47.2-6.9 14.9-7.2 30.8-12.3 45.7-.3.7-1 1.5-1.5 2-1 0-2-.2-3.1-.2l-2.2-76.1c-.3-8.9 0-18.2-2.5-26.6-1.2-3.9-8.3-6-12.8-8.9-2 3.2-5.5 6.1-5.7 9.5-.9 14-1.6 28-.7 41.9.3 4.4 5.5 8.6 10.2 15.3l-60.9-2.9c-.6-.7-1.2-1.3-1.9-2 16.8-5.1 13.1-21.9 20.9-32.3.6-.9.4-2.5.4-3.7l2.6-57.2 2.9-55.6c.6-8-.9-13-9.8-13.7-1.5-.2-2.8-1.2-4.1-1.9-.1-.7-.2-1.8-.4-2.8zm53 75.4c24.4-19.7 27.8-40 7.7-51-1.2 6.1-2.2 12-3.2 17.8-2.8-4.2-3.4-8.8-5-12.7-1.2-2.8-3.8-5-5.7-7.4-1.5 2.9-3.9 5.7-4.2 8.8-1 10.5-1.3 21-1.6 31.4-.2 6.3 0 12.7 0 19 .7 0 1.5.2 2.2.2l6.7-13.6c1.4 3.2 2.1 5.1 3.1 7.5zm-49.6-96.3c-2.2 2.8-3.2 5.1-5 6-11.5 5.8-12.7 16.4-13.3 27.4l-6 99.3c-1 11.4-5.7 22.5-8.9 34.3-1.5-1-3.2-2.3-5.4-3.8l-6.1 21.2h-3.5l-5.8-52.6-6 4.8c-.7-1.9-1.6-3.9-3.5-8.5l-12.1 21-1.2-19.6c-6.6 15.9-3.7 33-16.5 47.2l-1.2-21.6-23.5 31c-.3-6-.9-10.8-.7-15.8.2-6.6 1.9-13.7-10.2-13.4 22.8-10.8 22.5-32 27.9-50.2 3.8-12.7 8.8-25.1 12.8-37.8 1.8-5.4 2.5-10.9 4.2-16.4 3.1-9.6 5.8-19.4 10.2-28.6 3.9-8.3 3.2-12.6-5.3-16.7-3.2-1.5-6.1-3.2-9.3-4.8.3-.9.4-1.9.7-2.8l87.7.4zm-42.8 29.4l-3.5-.6-21 73.2c15.9 2.9 19.4.3 20-15.5.3-6 1.2-12 1.6-18l2.9-39.1zm-91.4-37.1l-9.3 56.8-2 .9-8.2-16.7-4.5 6-8.6-19.6-3.9 7.7c-2.5-2-5-4.1-9.3-7.7-2.9 20-.3 37.7 1.6 55.8 14.8-.3 10.5-16.7 21-22.3l4.2 62.9c-1 .3-1.9.6-2.9.7-2.3-3.8-4.2-8-7.2-11.4-2.6-3.1-6.3-5.4-9.8-8.2-7.9 14.5-3.9 39.7 7 52.1 9.9-2.2 15-8.2 16.2-18.6.6-5.8 2.9-11.5 5-19.4 8.9 13.6 11.2 48.3 7 71.3l-26.7-12.7c-10.8-5.6-10.8-5.6-15.6 5.6-.4 1.2-1.3 2-2.3 3.8-8.8-16.2-22.5-7.4-36.4-7 1.8-3.7 2.3-7 4.2-8.6 7.2-5.6 7-13 6.6-20.9l-4.1-104.1c-.4-13-5-23.4-18-29.8 31.1-11.6 63.1-12.2 96-16.6zM465.6 553c-1.6-6.9-2.9-13.9-4.8-20.7-12.1-42.6-18.5-86.4-22-130.6-1-13.1-1.3-26.4-16.5-32.3-.6-.2-.6-1.6-1.5-4.1l94.3-17.2-5 50.1c-2.8-3.1-5.8-5.3-7.2-8.3-4.1-9.6-12-12.1-21.6-7-8.9 4.7-13.3 11.1-11.8 21.3 1.3 9.3 2 18.7 3.1 28 14.3-2 10.7-16.9 20.9-23.5l4.8 62.5-2.8.6c-2.8-4.4-5.3-9.3-8.6-13.1-2-2.3-5.7-3.2-8.6-4.7-1.2 2.8-3.2 5.4-3.2 8.2.3 10.4 1.2 20.9 1.9 31.2 1.2 20.6-2.6 40.3-11.4 59.6z"/></g><defs><clipPath id="A"><path fill="#fff" d="M0 0h1285.8v707.9H0z"/></clipPath></defs></svg>