<svg width="75" height="75" viewBox="0 0 75 75" fill="none" xmlns="http://www.w3.org/2000/svg">
<path d="M69.7753 32.3036C69.0475 32.3036 68.3201 32.436 67.6589 32.767L42.2619 7.34774C42.5265 6.68578 42.7249 6.02383 42.7249 5.2295C42.7249 2.31686 40.3439 0 37.5 0C34.6561 0 32.2751 2.38305 32.2751 5.2295C32.2751 5.95762 32.4074 6.68578 32.7381 7.34774L7.34126 32.7008C6.67988 32.436 6.01851 32.2374 5.22488 32.2374C2.31482 32.2374 0 34.6205 0 37.4669C0 40.3133 2.38095 42.6964 5.22488 42.6964C5.95238 42.6964 6.67988 42.564 7.34126 42.233L32.7381 67.6522C32.4735 68.3143 32.2751 68.976 32.2751 69.7704C32.2751 72.683 34.6561 75 37.5 75C40.3439 75 42.7249 72.6169 42.7249 69.7704C42.7249 69.0422 42.5926 68.3143 42.2619 67.6522L67.6589 42.233C68.3201 42.4978 68.9814 42.6964 69.7753 42.6964C72.6852 42.6964 75 40.3133 75 37.4669C75 34.6205 72.6852 32.3036 69.7753 32.3036ZM64.8808 35.6796L55.0265 38.0627C54.1669 36.9373 52.8439 36.143 51.3226 36.143C50.1985 36.143 49.2062 36.5402 48.4127 37.2021L41.9973 34.2233C41.9973 34.1571 41.9973 34.1571 41.9973 34.0909C41.9973 32.2374 40.9392 30.7149 39.3518 29.9868V10.128C39.418 10.128 39.4841 10.0618 39.5503 10.0618L64.9469 35.481C64.9469 35.481 64.8808 35.6134 64.8808 35.6796ZM37.5 64.6074C37.3677 64.6074 37.2355 64.6074 37.1032 64.6074L27.1825 43.6231C27.8439 42.8288 28.2407 41.8358 28.2407 40.7105L34.7222 37.6655C35.5159 38.2613 36.5079 38.6584 37.5 38.6584C38.5582 38.6584 39.5503 38.2613 40.3439 37.6655L46.8253 40.7105C46.8253 40.7105 46.8253 40.7105 46.8253 40.7767C46.8253 41.902 47.222 42.895 47.8837 43.6893L37.8307 64.6074C37.7645 64.6074 37.6323 64.6074 37.5 64.6074ZM35.582 10.128V29.9868C34.0608 30.7149 32.9365 32.3036 32.9365 34.0909C32.9365 34.1571 32.9365 34.2233 32.9365 34.2233L26.5212 37.2021C25.7275 36.5402 24.7354 36.143 23.6111 36.143C22.0899 36.143 20.7672 36.8712 19.9074 38.0627L10.1191 35.6796C10.1191 35.6134 10.0529 35.5472 10.0529 35.4148L35.4497 9.99559C35.4497 10.0618 35.5159 10.0618 35.582 10.128ZM10.0529 39.5852L19.246 41.8358C19.7751 43.8217 21.4947 45.2778 23.6772 45.2778H23.7434L31.0185 60.6355L10.0529 39.5852ZM51.2565 45.2778H51.3226C53.4391 45.2778 55.2249 43.8217 55.7538 41.8358L64.9469 39.5852C64.9469 39.5852 64.9469 39.5852 64.9469 39.6513L43.9815 60.6355L51.2565 45.2778Z" fill="#5158F6"/>
</svg>
