<svg width="401" height="56" viewBox="0 0 401 56" fill="none" xmlns="http://www.w3.org/2000/svg">
<g clip-path="url(#clip0_1_15)">
<path d="M48.8319 0V55.1915H38.1704L12.771 20.4543H12.3529V55.1915H0V0H10.8325L36.0324 34.7103H36.5455V0H48.8319Z" fill="#5158F6"/>
<path d="M55.797 55.1915V0H94.4425V9.62079H68.1404V22.7719H91.8959V32.3927H68.1404V55.1915H55.797Z" fill="#5158F6"/>
<path d="M100.514 9.62079V0H148.463V9.62079H130.589V55.1915H118.388V9.62079H100.514Z" fill="#5158F6"/>
<path d="M151.598 55.1916V13.7979H163.372V20.9843H163.828C164.447 18.6711 165.861 16.6175 167.847 15.1454C169.724 13.8279 172.009 13.1332 174.347 13.1691C175.004 13.1718 175.66 13.2077 176.314 13.2769C176.938 13.336 177.557 13.435 178.167 13.5733V23.796C177.388 23.5923 176.594 23.4452 175.791 23.3558C174.875 23.2361 173.951 23.1731 173.026 23.1672C171.37 23.1422 169.735 23.5163 168.275 24.2541C166.899 24.961 165.755 26.0112 164.968 27.2904C164.14 28.6556 163.723 30.2087 163.761 31.7819V55.1916H151.598Z" fill="#5158F6"/>
<path d="M195.29 55.973C192.724 56.016 190.177 55.5413 187.821 54.5807C185.706 53.713 183.906 52.2798 182.642 50.4575C181.311 48.4086 180.65 46.0334 180.742 43.6304C180.671 41.6238 181.132 39.6322 182.081 37.8364C182.941 36.3078 184.197 35.0099 185.73 34.0635C187.346 33.0791 189.121 32.3509 190.985 31.9076C193.021 31.4113 195.096 31.0688 197.19 30.8835C199.724 30.632 201.776 30.3925 203.347 30.1649C204.537 30.0551 205.689 29.7125 206.73 29.1588C207.074 28.9413 207.352 28.6432 207.537 28.2936C207.721 27.9439 207.807 27.5549 207.785 27.1646V27.0029C207.832 26.2653 207.704 25.527 207.412 24.8418C207.119 24.1566 206.669 23.5416 206.094 23.0414C204.73 22.034 203.022 21.5353 201.295 21.64C199.447 21.5465 197.616 22.0225 196.078 22.9965C194.842 23.8299 193.938 25.0322 193.513 26.41L182.281 25.5117C182.798 23.0976 183.955 20.8473 185.645 18.9721C187.403 17.0722 189.629 15.6101 192.125 14.7141C195.073 13.6692 198.204 13.1632 201.352 13.223C203.71 13.2145 206.059 13.4861 208.346 14.0314C210.473 14.5259 212.491 15.3745 214.303 16.5377C216.026 17.6521 217.437 19.1438 218.418 20.8855C219.473 22.8505 219.992 25.0335 219.929 27.2364V55.1915H208.422V49.4514H208.098C207.386 50.7472 206.418 51.9027 205.248 52.8559C204.001 53.8701 202.559 54.6478 201 55.1466C199.159 55.7229 197.229 56.0022 195.29 55.973ZM198.767 48.05C200.415 48.082 202.046 47.7336 203.518 47.035C204.822 46.4209 205.93 45.491 206.73 44.3401C207.51 43.1686 207.909 41.8071 207.88 40.4235V36.0038C207.396 36.2794 206.875 36.4909 206.331 36.6326C205.675 36.8213 204.934 36.992 204.117 37.1447C203.3 37.2974 202.492 37.4321 201.675 37.5489L199.451 37.8633C198.179 38.0267 196.933 38.3436 195.746 38.8065C194.774 39.1708 193.919 39.7684 193.266 40.5403C192.662 41.3204 192.351 42.2689 192.382 43.2352C192.336 43.9296 192.478 44.6238 192.793 45.2523C193.109 45.8808 193.589 46.4232 194.187 46.8284C195.54 47.681 197.143 48.1086 198.767 48.05Z" fill="#5158F6"/>
<path d="M242.306 55.8563C239.114 55.8934 235.979 55.0472 233.289 53.4219C230.473 51.6569 228.256 49.1617 226.903 46.2355C225.226 42.5521 224.421 38.5662 224.547 34.5576C224.403 30.4862 225.231 26.4365 226.97 22.709C228.356 19.8069 230.6 17.3455 233.431 15.6214C236.092 14.052 239.171 13.2324 242.306 13.2589C244.424 13.191 246.529 13.5909 248.454 14.4267C249.984 15.1243 251.343 16.1156 252.445 17.3372C253.376 18.372 254.156 19.5201 254.764 20.7507H255.134V0H267.25V55.1915H255.277V48.5621H254.764C254.134 49.7973 253.325 50.9433 252.36 51.9666C251.232 53.1678 249.849 54.1318 248.302 54.7963C246.411 55.5632 244.363 55.9251 242.306 55.8563ZM246.107 46.7116C247.904 46.7606 249.663 46.2211 251.086 45.1845C252.527 44.0619 253.612 42.5854 254.222 40.9175C254.994 38.8503 255.364 36.6684 255.315 34.4767C255.364 32.2947 254.997 30.1221 254.232 28.0629C253.63 26.4084 252.543 24.9501 251.096 23.8588C249.654 22.855 247.897 22.3392 246.107 22.3946C244.288 22.3402 242.505 22.883 241.062 23.9307C239.625 25.0472 238.548 26.5225 237.954 28.1886C237.217 30.2103 236.86 32.3385 236.9 34.4767C236.86 36.6428 237.223 38.7987 237.973 40.8457C238.569 42.5263 239.644 44.0186 241.081 45.1575C242.512 46.2157 244.291 46.7657 246.107 46.7116Z" fill="#5158F6"/>
<path d="M295.519 56C291.471 56.1038 287.465 55.2058 283.898 53.3949C280.686 51.6882 278.083 49.1182 276.419 46.0109C274.591 42.4903 273.692 38.6039 273.797 34.6833C273.707 30.8016 274.607 26.9565 276.419 23.4725C278.074 20.3505 280.639 17.7415 283.812 15.9538C287.222 14.1015 291.103 13.1694 295.034 13.2589C297.787 13.2355 300.522 13.6766 303.111 14.5614C305.569 15.4097 307.806 16.7486 309.668 18.487C311.619 20.3429 313.114 22.5816 314.048 25.0446C315.152 28.0091 315.683 31.137 315.616 34.2791V37.4321H278.633V30.3176H304.175C304.207 28.7844 303.814 27.2701 303.035 25.9249C302.294 24.668 301.203 23.6272 299.88 22.9156C298.458 22.1692 296.851 21.794 295.224 21.8286C293.508 21.7951 291.815 22.2084 290.331 23.0234C288.944 23.7958 287.8 24.9025 287.014 26.2303C286.205 27.6032 285.783 29.15 285.789 30.7218V37.4591C285.729 39.2922 286.133 41.1123 286.967 42.768C287.73 44.2126 288.926 45.4124 290.407 46.2175C292.02 47.0569 293.84 47.4754 295.68 47.4302C296.939 47.4436 298.191 47.2615 299.386 46.8912C300.45 46.5552 301.423 46.0034 302.237 45.2743C303.049 44.5359 303.673 43.6328 304.061 42.6333L315.293 43.3339C314.762 45.806 313.557 48.1038 311.796 49.9993C309.938 51.9609 307.612 53.4759 305.012 54.419C301.983 55.5124 298.761 56.049 295.519 56Z" fill="#5158F6"/>
<path d="M400.414 54.8412L377.304 17.0048C377.258 16.9242 377.189 16.857 377.105 16.8102C377.022 16.7633 376.927 16.7386 376.829 16.7386C376.732 16.7386 376.637 16.7633 376.553 16.8102C376.47 16.857 376.401 16.9242 376.354 17.0048L353.264 54.8412C353.207 54.9337 353.182 55.0411 353.194 55.1477C353.206 55.2543 353.254 55.3545 353.33 55.4337C353.406 55.5129 353.508 55.5669 353.619 55.588C353.73 55.6091 353.845 55.5961 353.948 55.5508L376.62 46.1456C376.688 46.1146 376.763 46.0985 376.839 46.0985C376.914 46.0985 376.989 46.1146 377.057 46.1456L399.73 55.5508C399.832 55.5961 399.948 55.6091 400.059 55.588C400.17 55.5669 400.271 55.5129 400.348 55.4337C400.424 55.3545 400.472 55.2543 400.483 55.1477C400.495 55.0411 400.471 54.9337 400.414 54.8412Z" fill="#575EF6"/>
<path d="M376.022 1.09593L352.912 38.9323C352.866 39.0129 352.797 39.0801 352.713 39.127C352.63 39.1738 352.534 39.1985 352.437 39.1985C352.34 39.1985 352.245 39.1738 352.161 39.127C352.077 39.0801 352.009 39.0129 351.962 38.9323L328.881 1.09593C328.822 1.00406 328.796 0.896832 328.807 0.789916C328.817 0.683001 328.863 0.582011 328.938 0.501714C329.014 0.421417 329.114 0.366025 329.225 0.343639C329.337 0.321252 329.452 0.333045 329.556 0.377293L352.238 9.79147C352.304 9.82239 352.377 9.83847 352.451 9.83847C352.525 9.83847 352.599 9.82239 352.665 9.79147L375.337 0.377293C375.441 0.336227 375.556 0.32665 375.665 0.349887C375.775 0.373125 375.874 0.428027 375.949 0.506987C376.025 0.585946 376.072 0.685054 376.085 0.790577C376.098 0.8961 376.076 1.00281 376.022 1.09593Z" fill="#8786EB"/>
</g>
<defs>
<clipPath id="clip0_1_15">
<rect width="400.48" height="56" fill="white"/>
</clipPath>
</defs>
</svg>
