<svg width="131" height="127" viewBox="0 0 131 127" fill="none" xmlns="http://www.w3.org/2000/svg">
<path fill-rule="evenodd" clip-rule="evenodd" d="M127 4H4V123H127V4ZM0 0V127H131V0H0Z" fill="#5158F6"/>
<path d="M28.6807 30V72H18.9607V37.8H10.5607V30H28.6807Z" fill="#5158F6"/>
<path d="M76.8368 72L76.7768 46.8L64.4168 67.56H60.0368L47.7368 47.34V72H38.6168V30H46.6568L62.3768 56.1L77.8568 30H85.8368L85.9568 72H76.8368Z" fill="#5158F6"/>
<path d="M123.221 54.66H112.781V64.86H105.041V54.66H94.6615V47.34H105.041V37.14H112.781V47.34H123.221V54.66Z" fill="#5158F6"/>
<path d="M0 93H131V127H0V93Z" fill="#5158F6"/>
<path d="M22.4104 109.336H25.9624V116.152C25.0504 116.84 23.9944 117.368 22.7944 117.736C21.5944 118.104 20.3864 118.288 19.1704 118.288C17.4264 118.288 15.8584 117.92 14.4664 117.184C13.0744 116.432 11.9784 115.4 11.1784 114.088C10.3944 112.76 10.0024 111.264 10.0024 109.6C10.0024 107.936 10.3944 106.448 11.1784 105.136C11.9784 103.808 13.0824 102.776 14.4904 102.04C15.8984 101.288 17.4824 100.912 19.2424 100.912C20.7144 100.912 22.0504 101.16 23.2504 101.656C24.4504 102.152 25.4584 102.872 26.2744 103.816L23.7784 106.12C22.5784 104.856 21.1304 104.224 19.4344 104.224C18.3624 104.224 17.4104 104.448 16.5784 104.896C15.7464 105.344 15.0984 105.976 14.6344 106.792C14.1704 107.608 13.9384 108.544 13.9384 109.6C13.9384 110.64 14.1704 111.568 14.6344 112.384C15.0984 113.2 15.7384 113.84 16.5544 114.304C17.3864 114.752 18.3304 114.976 19.3864 114.976C20.5064 114.976 21.5144 114.736 22.4104 114.256V109.336Z" fill="white"/>
<path d="M40.6381 114.4H32.8381L31.3501 118H27.3661L34.8541 101.2H38.6941L46.2061 118H42.1261L40.6381 114.4ZM39.4141 111.448L36.7501 105.016L34.0861 111.448H39.4141Z" fill="white"/>
<path d="M63.2371 118L63.2131 107.92L58.2691 116.224H56.5171L51.5971 108.136V118H47.9491V101.2H51.1651L57.4531 111.64L63.6451 101.2H66.8371L66.8851 118H63.2371Z" fill="white"/>
<path d="M83.8789 114.88V118H70.8709V101.2H83.5669V104.32H74.7349V107.968H82.5349V110.992H74.7349V114.88H83.8789Z" fill="white"/>
<path d="M97.6765 118L94.4365 113.32H94.2445H90.8605V118H86.9725V101.2H94.2445C95.7325 101.2 97.0205 101.448 98.1085 101.944C99.2125 102.44 100.061 103.144 100.653 104.056C101.245 104.968 101.541 106.048 101.541 107.296C101.541 108.544 101.237 109.624 100.629 110.536C100.037 111.432 99.1885 112.12 98.0845 112.6L101.853 118H97.6765ZM97.6045 107.296C97.6045 106.352 97.3005 105.632 96.6925 105.136C96.0845 104.624 95.1965 104.368 94.0285 104.368H90.8605V110.224H94.0285C95.1965 110.224 96.0845 109.968 96.6925 109.456C97.3005 108.944 97.6045 108.224 97.6045 107.296Z" fill="white"/>
<path d="M110.141 118.288C108.813 118.288 107.525 118.112 106.277 117.76C105.045 117.392 104.053 116.92 103.301 116.344L104.621 113.416C105.341 113.944 106.197 114.368 107.189 114.688C108.181 115.008 109.173 115.168 110.165 115.168C111.269 115.168 112.085 115.008 112.613 114.688C113.141 114.352 113.405 113.912 113.405 113.368C113.405 112.968 113.245 112.64 112.925 112.384C112.621 112.112 112.221 111.896 111.725 111.736C111.245 111.576 110.589 111.4 109.757 111.208C108.477 110.904 107.429 110.6 106.613 110.296C105.797 109.992 105.093 109.504 104.501 108.832C103.925 108.16 103.637 107.264 103.637 106.144C103.637 105.168 103.901 104.288 104.429 103.504C104.957 102.704 105.749 102.072 106.805 101.608C107.877 101.144 109.181 100.912 110.717 100.912C111.789 100.912 112.837 101.04 113.861 101.296C114.885 101.552 115.781 101.92 116.549 102.4L115.349 105.352C113.797 104.472 112.245 104.032 110.693 104.032C109.605 104.032 108.797 104.208 108.269 104.56C107.757 104.912 107.501 105.376 107.501 105.952C107.501 106.528 107.797 106.96 108.389 107.248C108.997 107.52 109.917 107.792 111.149 108.064C112.429 108.368 113.477 108.672 114.293 108.976C115.109 109.28 115.805 109.76 116.381 110.416C116.973 111.072 117.269 111.96 117.269 113.08C117.269 114.04 116.997 114.92 116.453 115.72C115.925 116.504 115.125 117.128 114.053 117.592C112.981 118.056 111.677 118.288 110.141 118.288Z" fill="white"/>
</svg>
