<svg width="131" height="127" viewBox="0 0 131 127" fill="none" xmlns="http://www.w3.org/2000/svg">
<path d="M17.0757 68.172C17.9757 68.172 18.7917 68.382 19.5237 68.802C20.2677 69.21 20.8497 69.792 21.2697 70.548C21.6897 71.292 21.8997 72.162 21.8997 73.158C21.8997 74.154 21.6897 75.03 21.2697 75.786C20.8497 76.53 20.2677 77.112 19.5237 77.532C18.7917 77.94 17.9757 78.144 17.0757 78.144C15.8397 78.144 14.8677 77.754 14.1597 76.974V81.492H11.3517V68.316H14.0337V69.432C14.7297 68.592 15.7437 68.172 17.0757 68.172ZM16.5897 75.84C17.3097 75.84 17.8977 75.6 18.3537 75.12C18.8217 74.628 19.0557 73.974 19.0557 73.158C19.0557 72.342 18.8217 71.694 18.3537 71.214C17.8977 70.722 17.3097 70.476 16.5897 70.476C15.8697 70.476 15.2757 70.722 14.8077 71.214C14.3517 71.694 14.1237 72.342 14.1237 73.158C14.1237 73.974 14.3517 74.628 14.8077 75.12C15.2757 75.6 15.8697 75.84 16.5897 75.84Z" fill="#5158F6"/>
<path d="M27.5272 68.172C29.0272 68.172 30.1792 68.532 30.9832 69.252C31.7872 69.96 32.1892 71.034 32.1892 72.474V78H29.5612V76.794C29.0332 77.694 28.0492 78.144 26.6092 78.144C25.8652 78.144 25.2172 78.018 24.6652 77.766C24.1252 77.514 23.7112 77.166 23.4232 76.722C23.1352 76.278 22.9912 75.774 22.9912 75.21C22.9912 74.31 23.3272 73.602 23.9992 73.086C24.6832 72.57 25.7332 72.312 27.1492 72.312H29.3812C29.3812 71.7 29.1952 71.232 28.8232 70.908C28.4512 70.572 27.8932 70.404 27.1492 70.404C26.6332 70.404 26.1232 70.488 25.6192 70.656C25.1272 70.812 24.7072 71.028 24.3592 71.304L23.3512 69.342C23.8792 68.97 24.5092 68.682 25.2412 68.478C25.9852 68.274 26.7472 68.172 27.5272 68.172ZM27.3112 76.254C27.7912 76.254 28.2172 76.146 28.5892 75.93C28.9612 75.702 29.2252 75.372 29.3812 74.94V73.95H27.4552C26.3032 73.95 25.7272 74.328 25.7272 75.084C25.7272 75.444 25.8652 75.732 26.1412 75.948C26.4292 76.152 26.8192 76.254 27.3112 76.254Z" fill="#5158F6"/>
<path d="M37.4126 69.594C37.7486 69.126 38.1986 68.772 38.7626 68.532C39.3386 68.292 39.9986 68.172 40.7426 68.172V70.764C40.4306 70.74 40.2206 70.728 40.1126 70.728C39.3086 70.728 38.6786 70.956 38.2226 71.412C37.7666 71.856 37.5386 72.528 37.5386 73.428V78H34.7306V68.316H37.4126V69.594Z" fill="#5158F6"/>
<path d="M48.9922 77.532C48.7162 77.736 48.3742 77.892 47.9662 78C47.5702 78.096 47.1502 78.144 46.7062 78.144C45.5542 78.144 44.6602 77.85 44.0242 77.262C43.4002 76.674 43.0882 75.81 43.0882 74.67V70.692H41.5942V68.532H43.0882V66.174H45.8962V68.532H48.3082V70.692H45.8962V74.634C45.8962 75.042 45.9982 75.36 46.2022 75.588C46.4182 75.804 46.7182 75.912 47.1022 75.912C47.5462 75.912 47.9242 75.792 48.2362 75.552L48.9922 77.532Z" fill="#5158F6"/>
<path d="M50.5685 68.316H53.3765V78H50.5685V68.316ZM51.9725 66.966C51.4565 66.966 51.0365 66.816 50.7125 66.516C50.3885 66.216 50.2265 65.844 50.2265 65.4C50.2265 64.956 50.3885 64.584 50.7125 64.284C51.0365 63.984 51.4565 63.834 51.9725 63.834C52.4885 63.834 52.9085 63.978 53.2325 64.266C53.5565 64.554 53.7185 64.914 53.7185 65.346C53.7185 65.814 53.5565 66.204 53.2325 66.516C52.9085 66.816 52.4885 66.966 51.9725 66.966Z" fill="#5158F6"/>
<path d="M60.6625 78.144C59.6305 78.144 58.7005 77.934 57.8725 77.514C57.0565 77.082 56.4145 76.488 55.9465 75.732C55.4905 74.976 55.2625 74.118 55.2625 73.158C55.2625 72.198 55.4905 71.34 55.9465 70.584C56.4145 69.828 57.0565 69.24 57.8725 68.82C58.7005 68.388 59.6305 68.172 60.6625 68.172C61.6825 68.172 62.5705 68.388 63.3265 68.82C64.0945 69.24 64.6525 69.846 65.0005 70.638L62.8225 71.808C62.3185 70.92 61.5925 70.476 60.6445 70.476C59.9125 70.476 59.3065 70.716 58.8265 71.196C58.3465 71.676 58.1065 72.33 58.1065 73.158C58.1065 73.986 58.3465 74.64 58.8265 75.12C59.3065 75.6 59.9125 75.84 60.6445 75.84C61.6045 75.84 62.3305 75.396 62.8225 74.508L65.0005 75.696C64.6525 76.464 64.0945 77.064 63.3265 77.496C62.5705 77.928 61.6825 78.144 60.6625 78.144Z" fill="#5158F6"/>
<path d="M66.6173 68.316H69.4253V78H66.6173V68.316ZM68.0213 66.966C67.5053 66.966 67.0853 66.816 66.7613 66.516C66.4373 66.216 66.2753 65.844 66.2753 65.4C66.2753 64.956 66.4373 64.584 66.7613 64.284C67.0853 63.984 67.5053 63.834 68.0213 63.834C68.5373 63.834 68.9573 63.978 69.2813 64.266C69.6053 64.554 69.7673 64.914 69.7673 65.346C69.7673 65.814 69.6053 66.204 69.2813 66.516C68.9573 66.816 68.5373 66.966 68.0213 66.966Z" fill="#5158F6"/>
<path d="M77.7554 68.172C78.6554 68.172 79.4714 68.382 80.2034 68.802C80.9474 69.21 81.5294 69.792 81.9494 70.548C82.3694 71.292 82.5794 72.162 82.5794 73.158C82.5794 74.154 82.3694 75.03 81.9494 75.786C81.5294 76.53 80.9474 77.112 80.2034 77.532C79.4714 77.94 78.6554 78.144 77.7554 78.144C76.5194 78.144 75.5474 77.754 74.8394 76.974V81.492H72.0313V68.316H74.7133V69.432C75.4093 68.592 76.4234 68.172 77.7554 68.172ZM77.2694 75.84C77.9894 75.84 78.5774 75.6 79.0334 75.12C79.5014 74.628 79.7354 73.974 79.7354 73.158C79.7354 72.342 79.5014 71.694 79.0334 71.214C78.5774 70.722 77.9894 70.476 77.2694 70.476C76.5494 70.476 75.9554 70.722 75.4874 71.214C75.0314 71.694 74.8034 72.342 74.8034 73.158C74.8034 73.974 75.0314 74.628 75.4874 75.12C75.9554 75.6 76.5494 75.84 77.2694 75.84Z" fill="#5158F6"/>
<path d="M88.2069 68.172C89.7069 68.172 90.8589 68.532 91.6629 69.252C92.4669 69.96 92.8689 71.034 92.8689 72.474V78H90.2409V76.794C89.7129 77.694 88.7289 78.144 87.2889 78.144C86.5449 78.144 85.8969 78.018 85.3449 77.766C84.8049 77.514 84.3909 77.166 84.1029 76.722C83.8149 76.278 83.6709 75.774 83.6709 75.21C83.6709 74.31 84.0069 73.602 84.6789 73.086C85.3629 72.57 86.4129 72.312 87.8289 72.312H90.0609C90.0609 71.7 89.8749 71.232 89.5029 70.908C89.1309 70.572 88.5729 70.404 87.8289 70.404C87.3129 70.404 86.8029 70.488 86.2989 70.656C85.8069 70.812 85.3869 71.028 85.0389 71.304L84.0309 69.342C84.5589 68.97 85.1889 68.682 85.9209 68.478C86.6649 68.274 87.4269 68.172 88.2069 68.172ZM87.9909 76.254C88.4709 76.254 88.8969 76.146 89.2689 75.93C89.6409 75.702 89.9049 75.372 90.0609 74.94V73.95H88.1349C86.9829 73.95 86.4069 74.328 86.4069 75.084C86.4069 75.444 86.5449 75.732 86.8209 75.948C87.1089 76.152 87.4989 76.254 87.9909 76.254Z" fill="#5158F6"/>
<path d="M101.296 68.172C102.496 68.172 103.462 68.532 104.194 69.252C104.938 69.972 105.31 71.04 105.31 72.456V78H102.502V72.888C102.502 72.12 102.334 71.55 101.998 71.178C101.662 70.794 101.176 70.602 100.54 70.602C99.8323 70.602 99.2683 70.824 98.8483 71.268C98.4283 71.7 98.2183 72.348 98.2183 73.212V78H95.4103V68.316H98.0923V69.45C98.4643 69.042 98.9263 68.73 99.4783 68.514C100.03 68.286 100.636 68.172 101.296 68.172Z" fill="#5158F6"/>
<path d="M114.102 77.532C113.826 77.736 113.484 77.892 113.076 78C112.68 78.096 112.26 78.144 111.816 78.144C110.664 78.144 109.77 77.85 109.134 77.262C108.51 76.674 108.198 75.81 108.198 74.67V70.692H106.704V68.532H108.198V66.174H111.006V68.532H113.418V70.692H111.006V74.634C111.006 75.042 111.108 75.36 111.312 75.588C111.528 75.804 111.828 75.912 112.212 75.912C112.656 75.912 113.034 75.792 113.346 75.552L114.102 77.532Z" fill="#5158F6"/>
<path d="M118.936 78.144C118.132 78.144 117.346 78.048 116.578 77.856C115.81 77.652 115.198 77.4 114.742 77.1L115.678 75.084C116.11 75.36 116.632 75.588 117.244 75.768C117.856 75.936 118.456 76.02 119.044 76.02C120.232 76.02 120.826 75.726 120.826 75.138C120.826 74.862 120.664 74.664 120.34 74.544C120.016 74.424 119.518 74.322 118.846 74.238C118.054 74.118 117.4 73.98 116.884 73.824C116.368 73.668 115.918 73.392 115.534 72.996C115.162 72.6 114.976 72.036 114.976 71.304C114.976 70.692 115.15 70.152 115.498 69.684C115.858 69.204 116.374 68.832 117.046 68.568C117.73 68.304 118.534 68.172 119.458 68.172C120.142 68.172 120.82 68.25 121.492 68.406C122.176 68.55 122.74 68.754 123.184 69.018L122.248 71.016C121.396 70.536 120.466 70.296 119.458 70.296C118.858 70.296 118.408 70.38 118.108 70.548C117.808 70.716 117.658 70.932 117.658 71.196C117.658 71.496 117.82 71.706 118.144 71.826C118.468 71.946 118.984 72.06 119.692 72.168C120.484 72.3 121.132 72.444 121.636 72.6C122.14 72.744 122.578 73.014 122.95 73.41C123.322 73.806 123.508 74.358 123.508 75.066C123.508 75.666 123.328 76.2 122.968 76.668C122.608 77.136 122.08 77.502 121.384 77.766C120.7 78.018 119.884 78.144 118.936 78.144Z" fill="#5158F6"/>
<path d="M1 91H131V125H1V91Z" fill="#5158F6"/>
<path d="M19.222 113.695C19.222 114.843 18.802 115.83 17.962 116.656C17.122 117.468 15.911 117.972 14.329 118.168V120.52H12.229V118.231C11.193 118.175 10.206 117.993 9.268 117.685C8.33 117.377 7.574 116.999 7 116.551L8.155 113.989C8.687 114.381 9.31 114.71 10.024 114.976C10.738 115.242 11.473 115.41 12.229 115.48V111.973C11.235 111.735 10.395 111.469 9.709 111.175C9.023 110.881 8.449 110.454 7.987 109.894C7.525 109.32 7.294 108.564 7.294 107.626C7.294 106.464 7.714 105.47 8.554 104.644C9.408 103.804 10.633 103.293 12.229 103.111V100.78H14.329V103.069C16.051 103.209 17.472 103.636 18.592 104.35L17.542 106.933C16.492 106.331 15.421 105.967 14.329 105.841V109.411C15.309 109.635 16.135 109.894 16.807 110.188C17.493 110.468 18.067 110.895 18.529 111.469C18.991 112.029 19.222 112.771 19.222 113.695ZM10.675 107.458C10.675 107.808 10.808 108.095 11.074 108.319C11.34 108.543 11.725 108.732 12.229 108.886V105.904C11.697 106.03 11.305 106.233 11.053 106.513C10.801 106.779 10.675 107.094 10.675 107.458ZM14.329 115.396C14.833 115.284 15.211 115.102 15.463 114.85C15.715 114.598 15.841 114.297 15.841 113.947C15.841 113.597 15.708 113.31 15.442 113.086C15.19 112.862 14.819 112.666 14.329 112.498V115.396Z" fill="white"/>
<path d="M31.6056 115.228V118H20.4966V115.795L26.1666 110.44C26.7686 109.866 27.1746 109.376 27.3846 108.97C27.5946 108.55 27.6996 108.137 27.6996 107.731C27.6996 107.143 27.4966 106.695 27.0906 106.387C26.6986 106.065 26.1176 105.904 25.3476 105.904C24.7036 105.904 24.1226 106.03 23.6046 106.282C23.0866 106.52 22.6526 106.884 22.3026 107.374L19.8246 105.778C20.3986 104.924 21.1896 104.259 22.1976 103.783C23.2056 103.293 24.3606 103.048 25.6626 103.048C26.7546 103.048 27.7066 103.23 28.5186 103.594C29.3446 103.944 29.9816 104.448 30.4296 105.106C30.8916 105.75 31.1226 106.513 31.1226 107.395C31.1226 108.193 30.9546 108.942 30.6186 109.642C30.2826 110.342 29.6316 111.14 28.6656 112.036L25.2846 115.228H31.6056Z" fill="white"/>
<path d="M39.2683 118.252C38.0503 118.252 36.9653 117.951 36.0133 117.349C35.0613 116.747 34.3123 115.879 33.7663 114.745C33.2343 113.597 32.9683 112.232 32.9683 110.65C32.9683 109.068 33.2343 107.71 33.7663 106.576C34.3123 105.428 35.0613 104.553 36.0133 103.951C36.9653 103.349 38.0503 103.048 39.2683 103.048C40.4863 103.048 41.5713 103.349 42.5233 103.951C43.4753 104.553 44.2173 105.428 44.7493 106.576C45.2953 107.71 45.5683 109.068 45.5683 110.65C45.5683 112.232 45.2953 113.597 44.7493 114.745C44.2173 115.879 43.4753 116.747 42.5233 117.349C41.5713 117.951 40.4863 118.252 39.2683 118.252ZM39.2683 115.375C40.1643 115.375 40.8643 114.99 41.3683 114.22C41.8863 113.45 42.1453 112.26 42.1453 110.65C42.1453 109.04 41.8863 107.85 41.3683 107.08C40.8643 106.31 40.1643 105.925 39.2683 105.925C38.3863 105.925 37.6863 106.31 37.1683 107.08C36.6643 107.85 36.4123 109.04 36.4123 110.65C36.4123 112.26 36.6643 113.45 37.1683 114.22C37.6863 114.99 38.3863 115.375 39.2683 115.375Z" fill="white"/>
<path d="M53.5212 118.252C52.3032 118.252 51.2182 117.951 50.2662 117.349C49.3142 116.747 48.5652 115.879 48.0192 114.745C47.4872 113.597 47.2212 112.232 47.2212 110.65C47.2212 109.068 47.4872 107.71 48.0192 106.576C48.5652 105.428 49.3142 104.553 50.2662 103.951C51.2182 103.349 52.3032 103.048 53.5212 103.048C54.7392 103.048 55.8242 103.349 56.7762 103.951C57.7282 104.553 58.4702 105.428 59.0022 106.576C59.5482 107.71 59.8212 109.068 59.8212 110.65C59.8212 112.232 59.5482 113.597 59.0022 114.745C58.4702 115.879 57.7282 116.747 56.7762 117.349C55.8242 117.951 54.7392 118.252 53.5212 118.252ZM53.5212 115.375C54.4172 115.375 55.1172 114.99 55.6212 114.22C56.1392 113.45 56.3982 112.26 56.3982 110.65C56.3982 109.04 56.1392 107.85 55.6212 107.08C55.1172 106.31 54.4172 105.925 53.5212 105.925C52.6392 105.925 51.9392 106.31 51.4212 107.08C50.9172 107.85 50.6652 109.04 50.6652 110.65C50.6652 112.26 50.9172 113.45 51.4212 114.22C51.9392 114.99 52.6392 115.375 53.5212 115.375Z" fill="white"/>
<path d="M75.7752 118L75.7542 109.18L71.4282 116.446H69.8952L65.5902 109.369V118H62.3982V103.3H65.2122L70.7142 112.435L76.1322 103.3H78.9252L78.9672 118H75.7752Z" fill="white"/>
<path d="M91.4471 106.072H86.7431V103.3H99.5531V106.072H94.8491V118H91.4471V106.072Z" fill="white"/>
<path d="M115.25 103.3L108.887 118H105.527L99.1849 103.3H102.86L107.333 113.8L111.869 103.3H115.25Z" fill="white"/>
<path d="M116.477 103.3H119.879V115.228H127.25V118H116.477V103.3Z" fill="white"/>
<path fill-rule="evenodd" clip-rule="evenodd" d="M127 4H4V123H127V4ZM0 0V127H131V0H0Z" fill="#5158F6"/>
<path d="M37.2606 21.04C38.7326 21.28 39.8606 21.832 40.6446 22.696C41.4286 23.544 41.8206 24.6 41.8206 25.864C41.8206 26.84 41.5646 27.744 41.0526 28.576C40.5406 29.392 39.7566 30.048 38.7006 30.544C37.6606 31.04 36.3806 31.288 34.8606 31.288C33.6766 31.288 32.5086 31.136 31.3566 30.832C30.2206 30.512 29.2526 30.064 28.4526 29.488L29.9646 26.512C30.6046 26.992 31.3406 27.368 32.1726 27.64C33.0206 27.896 33.8846 28.024 34.7646 28.024C35.7406 28.024 36.5086 27.84 37.0686 27.472C37.6286 27.088 37.9086 26.552 37.9086 25.864C37.9086 24.488 36.8606 23.8 34.7646 23.8H32.9886V21.232L36.4446 17.32H29.2926V14.2H41.0526V16.72L37.2606 21.04Z" fill="#5158F6"/>
<path d="M50.8157 31.288C49.4237 31.288 48.1837 30.944 47.0957 30.256C46.0077 29.568 45.1517 28.576 44.5277 27.28C43.9197 25.968 43.6157 24.408 43.6157 22.6C43.6157 20.792 43.9197 19.24 44.5277 17.944C45.1517 16.632 46.0077 15.632 47.0957 14.944C48.1837 14.256 49.4237 13.912 50.8157 13.912C52.2077 13.912 53.4477 14.256 54.5357 14.944C55.6237 15.632 56.4717 16.632 57.0797 17.944C57.7037 19.24 58.0157 20.792 58.0157 22.6C58.0157 24.408 57.7037 25.968 57.0797 27.28C56.4717 28.576 55.6237 29.568 54.5357 30.256C53.4477 30.944 52.2077 31.288 50.8157 31.288ZM50.8157 28C51.8397 28 52.6397 27.56 53.2157 26.68C53.8077 25.8 54.1037 24.44 54.1037 22.6C54.1037 20.76 53.8077 19.4 53.2157 18.52C52.6397 17.64 51.8397 17.2 50.8157 17.2C49.8077 17.2 49.0077 17.64 48.4157 18.52C47.8397 19.4 47.5517 20.76 47.5517 22.6C47.5517 24.44 47.8397 25.8 48.4157 26.68C49.0077 27.56 49.8077 28 50.8157 28Z" fill="#5158F6"/>
<path d="M67.1047 31.288C65.7127 31.288 64.4727 30.944 63.3847 30.256C62.2967 29.568 61.4407 28.576 60.8167 27.28C60.2087 25.968 59.9047 24.408 59.9047 22.6C59.9047 20.792 60.2087 19.24 60.8167 17.944C61.4407 16.632 62.2967 15.632 63.3847 14.944C64.4727 14.256 65.7127 13.912 67.1047 13.912C68.4967 13.912 69.7367 14.256 70.8247 14.944C71.9127 15.632 72.7607 16.632 73.3687 17.944C73.9927 19.24 74.3047 20.792 74.3047 22.6C74.3047 24.408 73.9927 25.968 73.3687 27.28C72.7607 28.576 71.9127 29.568 70.8247 30.256C69.7367 30.944 68.4967 31.288 67.1047 31.288ZM67.1047 28C68.1287 28 68.9287 27.56 69.5047 26.68C70.0967 25.8 70.3927 24.44 70.3927 22.6C70.3927 20.76 70.0967 19.4 69.5047 18.52C68.9287 17.64 68.1287 17.2 67.1047 17.2C66.0967 17.2 65.2967 17.64 64.7047 18.52C64.1287 19.4 63.8407 20.76 63.8407 22.6C63.8407 24.44 64.1287 25.8 64.7047 26.68C65.2967 27.56 66.0967 28 67.1047 28Z" fill="#5158F6"/>
<path d="M83.3698 24.4L81.1138 26.752V31H77.2498V14.2H81.1138V22.048L88.5538 14.2H92.8738L85.9138 21.688L93.2818 31H88.7458L83.3698 24.4Z" fill="#5158F6"/>
<path d="M105.068 24.064H100.892V28.144H97.7962V24.064H93.6442V21.136H97.7962V17.056H100.892V21.136H105.068V24.064Z" fill="#5158F6"/>
<path d="M18.6017 39.644H21.4097V53H18.6017V39.644Z" fill="#5158F6"/>
<path d="M27.9217 43.172C29.4217 43.172 30.5737 43.532 31.3777 44.252C32.1817 44.96 32.5837 46.034 32.5837 47.474V53H29.9557V51.794C29.4277 52.694 28.4437 53.144 27.0037 53.144C26.2597 53.144 25.6117 53.018 25.0597 52.766C24.5197 52.514 24.1057 52.166 23.8177 51.722C23.5297 51.278 23.3857 50.774 23.3857 50.21C23.3857 49.31 23.7217 48.602 24.3937 48.086C25.0777 47.57 26.1277 47.312 27.5437 47.312H29.7757C29.7757 46.7 29.5897 46.232 29.2177 45.908C28.8457 45.572 28.2877 45.404 27.5437 45.404C27.0277 45.404 26.5177 45.488 26.0137 45.656C25.5217 45.812 25.1017 46.028 24.7537 46.304L23.7457 44.342C24.2737 43.97 24.9037 43.682 25.6357 43.478C26.3797 43.274 27.1417 43.172 27.9217 43.172ZM27.7057 51.254C28.1857 51.254 28.6117 51.146 28.9837 50.93C29.3557 50.702 29.6197 50.372 29.7757 49.94V48.95H27.8497C26.6977 48.95 26.1217 49.328 26.1217 50.084C26.1217 50.444 26.2597 50.732 26.5357 50.948C26.8237 51.152 27.2137 51.254 27.7057 51.254Z" fill="#5158F6"/>
<path d="M44.8811 43.316V53H42.2171V51.848C41.8451 52.268 41.4011 52.592 40.8851 52.82C40.3691 53.036 39.8111 53.144 39.2111 53.144C37.9391 53.144 36.9311 52.778 36.1871 52.046C35.4431 51.314 35.0711 50.228 35.0711 48.788V43.316H37.8791V48.374C37.8791 49.934 38.5331 50.714 39.8411 50.714C40.5131 50.714 41.0531 50.498 41.4611 50.066C41.8691 49.622 42.0731 48.968 42.0731 48.104V43.316H44.8811Z" fill="#5158F6"/>
<path d="M53.3685 43.172C54.5685 43.172 55.5345 43.532 56.2665 44.252C57.0105 44.972 57.3825 46.04 57.3825 47.456V53H54.5745V47.888C54.5745 47.12 54.4065 46.55 54.0705 46.178C53.7345 45.794 53.2485 45.602 52.6125 45.602C51.9045 45.602 51.3405 45.824 50.9205 46.268C50.5005 46.7 50.2905 47.348 50.2905 48.212V53H47.4825V43.316H50.1645V44.45C50.5365 44.042 50.9985 43.73 51.5505 43.514C52.1025 43.286 52.7085 43.172 53.3685 43.172Z" fill="#5158F6"/>
<path d="M64.7133 53.144C63.6813 53.144 62.7513 52.934 61.9233 52.514C61.1073 52.082 60.4653 51.488 59.9973 50.732C59.5413 49.976 59.3133 49.118 59.3133 48.158C59.3133 47.198 59.5413 46.34 59.9973 45.584C60.4653 44.828 61.1073 44.24 61.9233 43.82C62.7513 43.388 63.6813 43.172 64.7133 43.172C65.7333 43.172 66.6213 43.388 67.3773 43.82C68.1453 44.24 68.7033 44.846 69.0513 45.638L66.8733 46.808C66.3693 45.92 65.6433 45.476 64.6953 45.476C63.9633 45.476 63.3573 45.716 62.8773 46.196C62.3973 46.676 62.1573 47.33 62.1573 48.158C62.1573 48.986 62.3973 49.64 62.8773 50.12C63.3573 50.6 63.9633 50.84 64.6953 50.84C65.6553 50.84 66.3813 50.396 66.8733 49.508L69.0513 50.696C68.7033 51.464 68.1453 52.064 67.3773 52.496C66.6213 52.928 65.7333 53.144 64.7133 53.144Z" fill="#5158F6"/>
<path d="M76.4838 43.172C77.6838 43.172 78.6498 43.532 79.3818 44.252C80.1258 44.972 80.4978 46.04 80.4978 47.456V53H77.6898V47.888C77.6898 47.12 77.5218 46.55 77.1858 46.178C76.8498 45.794 76.3638 45.602 75.7278 45.602C75.0198 45.602 74.4558 45.824 74.0358 46.268C73.6158 46.7 73.4058 47.348 73.4058 48.212V53H70.5978V39.644H73.4058V44.324C73.7778 43.952 74.2278 43.67 74.7558 43.478C75.2838 43.274 75.8598 43.172 76.4838 43.172Z" fill="#5158F6"/>
<path d="M88.7671 43.172C89.6671 43.172 90.4831 43.382 91.2151 43.802C91.9591 44.21 92.5411 44.792 92.9611 45.548C93.3811 46.292 93.5911 47.162 93.5911 48.158C93.5911 49.154 93.3811 50.03 92.9611 50.786C92.5411 51.53 91.9591 52.112 91.2151 52.532C90.4831 52.94 89.6671 53.144 88.7671 53.144C87.5311 53.144 86.5591 52.754 85.8511 51.974V56.492H83.0431V43.316H85.7251V44.432C86.4211 43.592 87.4351 43.172 88.7671 43.172ZM88.2811 50.84C89.0011 50.84 89.5891 50.6 90.0451 50.12C90.5131 49.628 90.7471 48.974 90.7471 48.158C90.7471 47.342 90.5131 46.694 90.0451 46.214C89.5891 45.722 89.0011 45.476 88.2811 45.476C87.5611 45.476 86.9671 45.722 86.4991 46.214C86.0431 46.694 85.8151 47.342 85.8151 48.158C85.8151 48.974 86.0431 49.628 86.4991 50.12C86.9671 50.6 87.5611 50.84 88.2811 50.84Z" fill="#5158F6"/>
<path d="M99.2186 43.172C100.719 43.172 101.871 43.532 102.675 44.252C103.479 44.96 103.881 46.034 103.881 47.474V53H101.253V51.794C100.725 52.694 99.7406 53.144 98.3006 53.144C97.5566 53.144 96.9086 53.018 96.3566 52.766C95.8166 52.514 95.4026 52.166 95.1146 51.722C94.8266 51.278 94.6826 50.774 94.6826 50.21C94.6826 49.31 95.0186 48.602 95.6906 48.086C96.3746 47.57 97.4246 47.312 98.8406 47.312H101.073C101.073 46.7 100.887 46.232 100.515 45.908C100.143 45.572 99.5846 45.404 98.8406 45.404C98.3246 45.404 97.8146 45.488 97.3106 45.656C96.8186 45.812 96.3986 46.028 96.0506 46.304L95.0426 44.342C95.5706 43.97 96.2006 43.682 96.9326 43.478C97.6766 43.274 98.4386 43.172 99.2186 43.172ZM99.0026 51.254C99.4826 51.254 99.9086 51.146 100.281 50.93C100.653 50.702 100.917 50.372 101.073 49.94V48.95H99.1466C97.9946 48.95 97.4186 49.328 97.4186 50.084C97.4186 50.444 97.5566 50.732 97.8326 50.948C98.1206 51.152 98.5106 51.254 99.0026 51.254Z" fill="#5158F6"/>
<path d="M116.391 39.644V53H113.709V51.884C113.013 52.724 112.005 53.144 110.685 53.144C109.773 53.144 108.945 52.94 108.201 52.532C107.469 52.124 106.893 51.542 106.473 50.786C106.053 50.03 105.843 49.154 105.843 48.158C105.843 47.162 106.053 46.286 106.473 45.53C106.893 44.774 107.469 44.192 108.201 43.784C108.945 43.376 109.773 43.172 110.685 43.172C111.921 43.172 112.887 43.562 113.583 44.342V39.644H116.391ZM111.171 50.84C111.879 50.84 112.467 50.6 112.935 50.12C113.403 49.628 113.637 48.974 113.637 48.158C113.637 47.342 113.403 46.694 112.935 46.214C112.467 45.722 111.879 45.476 111.171 45.476C110.451 45.476 109.857 45.722 109.389 46.214C108.921 46.694 108.687 47.342 108.687 48.158C108.687 48.974 108.921 49.628 109.389 50.12C109.857 50.6 110.451 50.84 111.171 50.84Z" fill="#5158F6"/>
</svg>
