<svg width="131" height="127" viewBox="0 0 131 127" fill="none" xmlns="http://www.w3.org/2000/svg">
<path d="M64.7415 43.784H73.0615V50.76H63.9095L62.6295 61H55.3975L56.6775 50.76H47.2695L45.9895 61H38.8215L40.1015 50.76H31.7175V43.784H40.9335L42.2775 33.416H33.8935V26.44H43.1095L44.3895 16.2H51.5575L50.2775 26.44H59.6855L60.9655 16.2H68.1335L66.8535 26.44H75.1735L75.2375 33.416H66.0215L64.7415 43.784ZM57.5095 43.784L58.8535 33.416H49.4455L48.1015 43.784H57.5095Z" fill="#5158F6"/>
<path d="M96.276 16.2V61H85.908V24.52H76.948V16.2H96.276Z" fill="#5158F6"/>
<path d="M17.353 83.144C16.321 83.144 15.391 82.934 14.563 82.514C13.747 82.082 13.105 81.488 12.637 80.732C12.181 79.976 11.953 79.118 11.953 78.158C11.953 77.198 12.181 76.34 12.637 75.584C13.105 74.828 13.747 74.24 14.563 73.82C15.391 73.388 16.321 73.172 17.353 73.172C18.373 73.172 19.261 73.388 20.017 73.82C20.785 74.24 21.343 74.846 21.691 75.638L19.513 76.808C19.009 75.92 18.283 75.476 17.335 75.476C16.603 75.476 15.997 75.716 15.517 76.196C15.037 76.676 14.797 77.33 14.797 78.158C14.797 78.986 15.037 79.64 15.517 80.12C15.997 80.6 16.603 80.84 17.335 80.84C18.295 80.84 19.021 80.396 19.513 79.508L21.691 80.696C21.343 81.464 20.785 82.064 20.017 82.496C19.261 82.928 18.373 83.144 17.353 83.144Z" fill="#5158F6"/>
<path d="M25.9898 74.594C26.3258 74.126 26.7758 73.772 27.3398 73.532C27.9158 73.292 28.5758 73.172 29.3198 73.172V75.764C29.0078 75.74 28.7978 75.728 28.6898 75.728C27.8858 75.728 27.2558 75.956 26.7998 76.412C26.3438 76.856 26.1158 77.528 26.1158 78.428V83H23.3078V73.316H25.9898V74.594Z" fill="#5158F6"/>
<path d="M35.5095 83.144C34.4895 83.144 33.5715 82.934 32.7555 82.514C31.9515 82.082 31.3215 81.488 30.8655 80.732C30.4095 79.976 30.1815 79.118 30.1815 78.158C30.1815 77.198 30.4095 76.34 30.8655 75.584C31.3215 74.828 31.9515 74.24 32.7555 73.82C33.5715 73.388 34.4895 73.172 35.5095 73.172C36.5295 73.172 37.4415 73.388 38.2455 73.82C39.0495 74.24 39.6795 74.828 40.1355 75.584C40.5915 76.34 40.8195 77.198 40.8195 78.158C40.8195 79.118 40.5915 79.976 40.1355 80.732C39.6795 81.488 39.0495 82.082 38.2455 82.514C37.4415 82.934 36.5295 83.144 35.5095 83.144ZM35.5095 80.84C36.2295 80.84 36.8175 80.6 37.2735 80.12C37.7415 79.628 37.9755 78.974 37.9755 78.158C37.9755 77.342 37.7415 76.694 37.2735 76.214C36.8175 75.722 36.2295 75.476 35.5095 75.476C34.7895 75.476 34.1955 75.722 33.7275 76.214C33.2595 76.694 33.0255 77.342 33.0255 78.158C33.0255 78.974 33.2595 79.628 33.7275 80.12C34.1955 80.6 34.7895 80.84 35.5095 80.84Z" fill="#5158F6"/>
<path d="M45.9544 83.144C45.1504 83.144 44.3644 83.048 43.5964 82.856C42.8284 82.652 42.2164 82.4 41.7604 82.1L42.6964 80.084C43.1284 80.36 43.6504 80.588 44.2624 80.768C44.8744 80.936 45.4744 81.02 46.0624 81.02C47.2504 81.02 47.8444 80.726 47.8444 80.138C47.8444 79.862 47.6824 79.664 47.3584 79.544C47.0344 79.424 46.5364 79.322 45.8644 79.238C45.0724 79.118 44.4184 78.98 43.9024 78.824C43.3864 78.668 42.9364 78.392 42.5524 77.996C42.1804 77.6 41.9944 77.036 41.9944 76.304C41.9944 75.692 42.1684 75.152 42.5164 74.684C42.8764 74.204 43.3924 73.832 44.0644 73.568C44.7484 73.304 45.5524 73.172 46.4764 73.172C47.1604 73.172 47.8384 73.25 48.5104 73.406C49.1944 73.55 49.7584 73.754 50.2024 74.018L49.2664 76.016C48.4144 75.536 47.4844 75.296 46.4764 75.296C45.8764 75.296 45.4264 75.38 45.1264 75.548C44.8264 75.716 44.6764 75.932 44.6764 76.196C44.6764 76.496 44.8384 76.706 45.1624 76.826C45.4864 76.946 46.0024 77.06 46.7104 77.168C47.5024 77.3 48.1504 77.444 48.6544 77.6C49.1584 77.744 49.5964 78.014 49.9684 78.41C50.3404 78.806 50.5264 79.358 50.5264 80.066C50.5264 80.666 50.3464 81.2 49.9864 81.668C49.6264 82.136 49.0984 82.502 48.4024 82.766C47.7184 83.018 46.9024 83.144 45.9544 83.144Z" fill="#5158F6"/>
<path d="M55.5169 83.144C54.7129 83.144 53.9269 83.048 53.1589 82.856C52.3909 82.652 51.7789 82.4 51.3229 82.1L52.2589 80.084C52.6909 80.36 53.2129 80.588 53.8249 80.768C54.4369 80.936 55.0369 81.02 55.6249 81.02C56.8129 81.02 57.4069 80.726 57.4069 80.138C57.4069 79.862 57.2449 79.664 56.9209 79.544C56.5969 79.424 56.0989 79.322 55.4269 79.238C54.6349 79.118 53.9809 78.98 53.4649 78.824C52.9489 78.668 52.4989 78.392 52.1149 77.996C51.7429 77.6 51.5569 77.036 51.5569 76.304C51.5569 75.692 51.7309 75.152 52.0789 74.684C52.4389 74.204 52.9549 73.832 53.6269 73.568C54.3109 73.304 55.1149 73.172 56.0389 73.172C56.7229 73.172 57.4009 73.25 58.0729 73.406C58.7569 73.55 59.3209 73.754 59.7649 74.018L58.8289 76.016C57.9769 75.536 57.0469 75.296 56.0389 75.296C55.4389 75.296 54.9889 75.38 54.6889 75.548C54.3889 75.716 54.2389 75.932 54.2389 76.196C54.2389 76.496 54.4009 76.706 54.7249 76.826C55.0489 76.946 55.5649 77.06 56.2729 77.168C57.0649 77.3 57.7129 77.444 58.2169 77.6C58.7209 77.744 59.1589 78.014 59.5309 78.41C59.9029 78.806 60.0889 79.358 60.0889 80.066C60.0889 80.666 59.9089 81.2 59.5489 81.668C59.1889 82.136 58.6609 82.502 57.9649 82.766C57.2809 83.018 56.4649 83.144 55.5169 83.144Z" fill="#5158F6"/>
<path d="M61.4614 76.808H66.5554V79.058H61.4614V76.808Z" fill="#5158F6"/>
<path d="M73.6206 83.144C72.5886 83.144 71.6586 82.934 70.8306 82.514C70.0146 82.082 69.3726 81.488 68.9046 80.732C68.4486 79.976 68.2206 79.118 68.2206 78.158C68.2206 77.198 68.4486 76.34 68.9046 75.584C69.3726 74.828 70.0146 74.24 70.8306 73.82C71.6586 73.388 72.5886 73.172 73.6206 73.172C74.6406 73.172 75.5286 73.388 76.2846 73.82C77.0526 74.24 77.6106 74.846 77.9586 75.638L75.7806 76.808C75.2766 75.92 74.5506 75.476 73.6026 75.476C72.8706 75.476 72.2646 75.716 71.7846 76.196C71.3046 76.676 71.0646 77.33 71.0646 78.158C71.0646 78.986 71.3046 79.64 71.7846 80.12C72.2646 80.6 72.8706 80.84 73.6026 80.84C74.5626 80.84 75.2886 80.396 75.7806 79.508L77.9586 80.696C77.6106 81.464 77.0526 82.064 76.2846 82.496C75.5286 82.928 74.6406 83.144 73.6206 83.144Z" fill="#5158F6"/>
<path d="M85.391 73.172C86.591 73.172 87.557 73.532 88.289 74.252C89.033 74.972 89.405 76.04 89.405 77.456V83H86.597V77.888C86.597 77.12 86.429 76.55 86.093 76.178C85.757 75.794 85.271 75.602 84.635 75.602C83.927 75.602 83.363 75.824 82.943 76.268C82.523 76.7 82.313 77.348 82.313 78.212V83H79.505V69.644H82.313V74.324C82.685 73.952 83.135 73.67 83.663 73.478C84.191 73.274 84.767 73.172 85.391 73.172Z" fill="#5158F6"/>
<path d="M95.8564 73.172C97.3564 73.172 98.5083 73.532 99.3123 74.252C100.116 74.96 100.518 76.034 100.518 77.474V83H97.8904V81.794C97.3624 82.694 96.3783 83.144 94.9383 83.144C94.1943 83.144 93.5464 83.018 92.9944 82.766C92.4544 82.514 92.0403 82.166 91.7523 81.722C91.4643 81.278 91.3203 80.774 91.3203 80.21C91.3203 79.31 91.6564 78.602 92.3284 78.086C93.0124 77.57 94.0623 77.312 95.4783 77.312H97.7103C97.7103 76.7 97.5243 76.232 97.1523 75.908C96.7803 75.572 96.2223 75.404 95.4783 75.404C94.9623 75.404 94.4523 75.488 93.9483 75.656C93.4563 75.812 93.0363 76.028 92.6883 76.304L91.6803 74.342C92.2083 73.97 92.8383 73.682 93.5703 73.478C94.3143 73.274 95.0764 73.172 95.8564 73.172ZM95.6404 81.254C96.1204 81.254 96.5464 81.146 96.9184 80.93C97.2904 80.702 97.5543 80.372 97.7103 79.94V78.95H95.7843C94.6323 78.95 94.0564 79.328 94.0564 80.084C94.0564 80.444 94.1944 80.732 94.4704 80.948C94.7584 81.152 95.1484 81.254 95.6404 81.254Z" fill="#5158F6"/>
<path d="M103.06 73.316H105.868V83H103.06V73.316ZM104.464 71.966C103.948 71.966 103.528 71.816 103.204 71.516C102.88 71.216 102.718 70.844 102.718 70.4C102.718 69.956 102.88 69.584 103.204 69.284C103.528 68.984 103.948 68.834 104.464 68.834C104.98 68.834 105.4 68.978 105.724 69.266C106.048 69.554 106.21 69.914 106.21 70.346C106.21 70.814 106.048 71.204 105.724 71.516C105.4 71.816 104.98 71.966 104.464 71.966Z" fill="#5158F6"/>
<path d="M114.36 73.172C115.56 73.172 116.526 73.532 117.258 74.252C118.002 74.972 118.374 76.04 118.374 77.456V83H115.566V77.888C115.566 77.12 115.398 76.55 115.062 76.178C114.726 75.794 114.24 75.602 113.604 75.602C112.896 75.602 112.332 75.824 111.912 76.268C111.492 76.7 111.282 77.348 111.282 78.212V83H108.474V73.316H111.156V74.45C111.528 74.042 111.99 73.73 112.542 73.514C113.094 73.286 113.7 73.172 114.36 73.172Z" fill="#5158F6"/>
<path fill-rule="evenodd" clip-rule="evenodd" d="M127 4H4V123H127V4ZM0 0V127H131V0H0Z" fill="#5158F6"/>
<path d="M0 93H131V127H0V93Z" fill="#5158F6"/>
<path d="M13.1997 114L13.1837 107.28L9.88769 112.816H8.71969L5.43969 107.424V114H3.00769V102.8H5.15169L9.34369 109.76L13.4717 102.8H15.5997L15.6317 114H13.1997Z" fill="white"/>
<path d="M25.6649 111.6H20.4649L19.4729 114H16.8169L21.8089 102.8H24.3689L29.3769 114H26.6569L25.6649 111.6ZM24.8489 109.632L23.0729 105.344L21.2969 109.632H24.8489Z" fill="white"/>
<path d="M37.6749 114L35.5149 110.88H35.3869H33.1309V114H30.5389V102.8H35.3869C36.3789 102.8 37.2376 102.965 37.9629 103.296C38.6989 103.627 39.2643 104.096 39.6589 104.704C40.0536 105.312 40.2509 106.032 40.2509 106.864C40.2509 107.696 40.0483 108.416 39.6429 109.024C39.2483 109.621 38.6829 110.08 37.9469 110.4L40.4589 114H37.6749ZM37.6269 106.864C37.6269 106.235 37.4243 105.755 37.0189 105.424C36.6136 105.083 36.0216 104.912 35.2429 104.912H33.1309V108.816H35.2429C36.0216 108.816 36.6136 108.645 37.0189 108.304C37.4243 107.963 37.6269 107.483 37.6269 106.864Z" fill="white"/>
<path d="M46.3846 109.6L44.8806 111.168V114H42.3046V102.8H44.8806V108.032L49.8406 102.8H52.7206L48.0806 107.792L52.9926 114H49.9686L46.3846 109.6Z" fill="white"/>
<path d="M62.8203 111.92V114H54.1483V102.8H62.6123V104.88H56.7243V107.312H61.9243V109.328H56.7243V111.92H62.8203Z" fill="white"/>
<path d="M67.2027 104.912H63.6187V102.8H73.3787V104.912H69.7947V114H67.2027V104.912Z" fill="white"/>
<path d="M79.6213 102.8C80.6133 102.8 81.472 102.965 82.1973 103.296C82.9333 103.627 83.4986 104.096 83.8933 104.704C84.288 105.312 84.4853 106.032 84.4853 106.864C84.4853 107.685 84.288 108.405 83.8933 109.024C83.4986 109.632 82.9333 110.101 82.1973 110.432C81.472 110.752 80.6133 110.912 79.6213 110.912H77.3653V114H74.7733V102.8H79.6213ZM79.4773 108.8C80.256 108.8 80.848 108.635 81.2533 108.304C81.6586 107.963 81.8613 107.483 81.8613 106.864C81.8613 106.235 81.6586 105.755 81.2533 105.424C80.848 105.083 80.256 104.912 79.4773 104.912H77.3653V108.8H79.4773Z" fill="white"/>
<path d="M86.3358 102.8H88.9278V111.888H94.5438V114H86.3358V102.8Z" fill="white"/>
<path d="M103.462 111.6H98.2618L97.2698 114H94.6138L99.6058 102.8H102.166L107.174 114H104.454L103.462 111.6ZM102.646 109.632L100.87 105.344L99.0938 109.632H102.646Z" fill="white"/>
<path d="M113.54 114.192C112.398 114.192 111.364 113.947 110.436 113.456C109.518 112.955 108.793 112.267 108.26 111.392C107.737 110.507 107.476 109.509 107.476 108.4C107.476 107.291 107.737 106.299 108.26 105.424C108.793 104.539 109.518 103.851 110.436 103.36C111.364 102.859 112.404 102.608 113.556 102.608C114.526 102.608 115.401 102.779 116.18 103.12C116.969 103.461 117.63 103.952 118.164 104.592L116.5 106.128C115.742 105.253 114.804 104.816 113.684 104.816C112.99 104.816 112.372 104.971 111.828 105.28C111.284 105.579 110.857 106 110.548 106.544C110.249 107.088 110.1 107.707 110.1 108.4C110.1 109.093 110.249 109.712 110.548 110.256C110.857 110.8 111.284 111.227 111.828 111.536C112.372 111.835 112.99 111.984 113.684 111.984C114.804 111.984 115.742 111.541 116.5 110.656L118.164 112.192C117.63 112.843 116.969 113.339 116.18 113.68C115.39 114.021 114.51 114.192 113.54 114.192Z" fill="white"/>
<path d="M128.586 111.92V114H119.914V102.8H128.378V104.88H122.49V107.312H127.69V109.328H122.49V111.92H128.586Z" fill="white"/>
</svg>
