<svg width="528" height="467" viewBox="0 0 528 467" fill="none" xmlns="http://www.w3.org/2000/svg">
<g clip-path="url(#clip0)">
<path d="M316.272 233.399C316.272 280.075 278.59 317.91 232.112 317.91C185.635 317.91 147.954 280.075 147.954 233.399C147.954 186.723 185.635 148.888 232.112 148.888C278.59 148.888 316.272 186.723 316.272 233.399Z" stroke="#ADAEF9"/>
<path d="M333.328 233.6C333.328 289.662 288.07 335.106 232.245 335.106C176.42 335.106 131.16 289.662 131.16 233.6C131.16 177.537 176.42 132.093 232.245 132.093C288.07 132.093 333.328 177.537 333.328 233.6Z" stroke="#ADAEF9"/>
<path d="M349.325 233.733C349.325 298.63 296.935 351.236 232.312 351.236C167.689 351.236 115.299 298.63 115.299 233.733C115.299 168.837 167.689 116.231 232.312 116.231C296.935 116.231 349.325 168.837 349.325 233.733Z" stroke="#ADAEF9"/>
<path d="M368.496 233.135C368.496 308.522 307.637 369.633 232.567 369.633C157.497 369.633 96.6377 308.522 96.6377 233.135C96.6377 157.748 157.497 96.6377 232.567 96.6377C307.637 96.6377 368.496 157.748 368.496 233.135Z" stroke="#ADAEF9"/>
<path d="M385.553 233.337C385.553 318.11 317.115 386.829 232.698 386.829C148.28 386.829 79.8438 318.11 79.8438 233.337C79.8438 148.562 148.28 79.8433 232.698 79.8433C317.115 79.8433 385.553 148.562 385.553 233.337Z" stroke="#ADAEF9"/>
<path d="M403.665 233.604C403.665 328.316 327.205 405.092 232.89 405.092C138.576 405.092 62.1152 328.316 62.1152 233.604C62.1152 138.892 138.576 62.1157 232.89 62.1157C327.205 62.1157 403.665 138.892 403.665 233.604Z" stroke="#ADAEF9"/>
<path d="M419.663 233.738C419.663 337.285 336.071 421.222 232.958 421.222C129.846 421.222 46.2539 337.285 46.2539 233.738C46.2539 130.192 129.846 46.2544 232.958 46.2544C336.071 46.2544 419.663 130.192 419.663 233.738Z" stroke="#ADAEF9"/>
<path d="M437.901 233.14C437.901 347.177 345.84 439.619 232.281 439.619C118.722 439.619 26.6602 347.177 26.6602 233.14C26.6602 119.103 118.722 26.6606 232.281 26.6606C345.84 26.6606 437.901 119.103 437.901 233.14Z" stroke="#ADAEF9"/>
<path d="M457.074 233.474C457.074 358.002 356.543 458.948 232.536 458.948C108.53 458.948 8 358.002 8 233.474C8 108.946 108.53 8 232.536 8C356.543 8 457.074 108.946 457.074 233.474Z" stroke="#ADAEF9"/>
<path d="M90.0887 141.035C91.2147 141.035 92.1276 140.122 92.1276 138.996C92.1276 137.87 91.2147 136.958 90.0887 136.958C88.9627 136.958 88.0498 137.87 88.0498 138.996C88.0498 140.122 88.9627 141.035 90.0887 141.035Z" fill="#5158F6"/>
<path d="M26.9041 245.291C28.0302 245.291 28.943 244.378 28.943 243.252C28.943 242.126 28.0302 241.213 26.9041 241.213C25.7781 241.213 24.8652 242.126 24.8652 243.252C24.8652 244.378 25.7781 245.291 26.9041 245.291Z" fill="#5158F6"/>
<path d="M128.355 147.858C129.481 147.858 130.394 146.945 130.394 145.819C130.394 144.693 129.481 143.78 128.355 143.78C127.229 143.78 126.316 144.693 126.316 145.819C126.316 146.945 127.229 147.858 128.355 147.858Z" fill="#5158F6"/>
<path d="M119.091 208.193C120.835 208.193 122.248 206.779 122.248 205.036C122.248 203.292 120.835 201.879 119.091 201.879C117.348 201.879 115.935 203.292 115.935 205.036C115.935 206.779 117.348 208.193 119.091 208.193Z" fill="#5158F6"/>
<path d="M79.9342 243.789C81.6778 243.789 83.0913 242.377 83.0913 240.633C83.0913 238.889 81.6778 237.476 79.9342 237.476C78.1907 237.476 76.7773 238.889 76.7773 240.633C76.7773 242.377 78.1907 243.789 79.9342 243.789Z" fill="#5158F6"/>
<path d="M189.431 327.512C190.701 327.512 191.732 326.482 191.732 325.21C191.732 323.939 190.701 322.909 189.431 322.909C188.159 322.909 187.128 323.939 187.128 325.21C187.128 326.482 188.159 327.512 189.431 327.512Z" fill="#5158F6"/>
<path d="M73.4435 366.373C74.7148 366.373 75.7455 365.343 75.7455 364.071C75.7455 362.801 74.7148 361.77 73.4435 361.77C72.1722 361.77 71.1416 362.801 71.1416 364.071C71.1416 365.343 72.1722 366.373 73.4435 366.373Z" fill="#5158F6"/>
<path d="M333.039 250.155C334.165 250.155 335.077 249.243 335.077 248.117C335.077 246.991 334.165 246.078 333.039 246.078C331.913 246.078 331 246.991 331 248.117C331 249.243 331.913 250.155 333.039 250.155Z" fill="#5158F6"/>
<path d="M348.382 222.52C349.509 222.52 350.421 221.608 350.421 220.482C350.421 219.355 349.509 218.443 348.382 218.443C347.256 218.443 346.344 219.355 346.344 220.482C346.344 221.608 347.256 222.52 348.382 222.52Z" fill="#5158F6"/>
<path d="M345.498 310.967C346.624 310.967 347.537 310.055 347.537 308.929C347.537 307.803 346.624 306.89 345.498 306.89C344.371 306.89 343.459 307.803 343.459 308.929C343.459 310.055 344.371 310.967 345.498 310.967Z" fill="#5158F6"/>
<path d="M292.399 317.197C293.525 317.197 294.438 316.285 294.438 315.159C294.438 314.033 293.525 313.12 292.399 313.12C291.273 313.12 290.36 314.033 290.36 315.159C290.36 316.285 291.273 317.197 292.399 317.197Z" fill="#5158F6"/>
<path d="M35.5926 295.931C36.7186 295.931 37.6315 295.018 37.6315 293.892C37.6315 292.766 36.7186 291.854 35.5926 291.854C34.4666 291.854 33.5537 292.766 33.5537 293.892C33.5537 295.018 34.4666 295.931 35.5926 295.931Z" fill="#5158F6"/>
<path d="M315.364 153.364C316.49 153.364 317.403 152.452 317.403 151.326C317.403 150.2 316.49 149.287 315.364 149.287C314.239 149.287 313.325 150.2 313.325 151.326C313.325 152.452 314.239 153.364 315.364 153.364Z" fill="#5158F6"/>
<path d="M198.364 123.237C199.49 123.237 200.403 122.325 200.403 121.198C200.403 120.072 199.49 119.16 198.364 119.16C197.238 119.16 196.325 120.072 196.325 121.198C196.325 122.325 197.238 123.237 198.364 123.237Z" fill="#5158F6"/>
<path d="M340.639 191.581C342.383 191.581 343.796 190.168 343.796 188.425C343.796 186.681 342.383 185.268 340.639 185.268C338.896 185.268 337.482 186.681 337.482 188.425C337.482 190.168 338.896 191.581 340.639 191.581Z" fill="#5158F6"/>
<path d="M293.814 114.157C295.557 114.157 296.971 112.744 296.971 111C296.971 109.257 295.557 107.843 293.814 107.843C292.07 107.843 290.656 109.257 290.656 111C290.656 112.744 292.07 114.157 293.814 114.157Z" fill="#5158F6"/>
<path d="M369.257 237.751C371.872 237.751 373.992 235.63 373.992 233.015C373.992 230.4 371.872 228.28 369.257 228.28C366.641 228.28 364.521 230.4 364.521 233.015C364.521 235.63 366.641 237.751 369.257 237.751Z" fill="#5158F6"/>
<path d="M403.668 234.785C406.283 234.785 408.403 232.665 408.403 230.049C408.403 227.434 406.283 225.314 403.668 225.314C401.052 225.314 398.932 227.434 398.932 230.049C398.932 232.665 401.052 234.785 403.668 234.785Z" fill="#5158F6"/>
<path d="M152.411 348.695C155.026 348.695 157.146 346.574 157.146 343.959C157.146 341.343 155.026 339.224 152.411 339.224C149.796 339.224 147.675 341.343 147.675 343.959C147.675 346.574 149.796 348.695 152.411 348.695Z" fill="#5158F6"/>
<path d="M436.298 268.008C438.913 268.008 441.034 265.889 441.034 263.273C441.034 260.658 438.913 258.538 436.298 258.538C433.682 258.538 431.562 260.658 431.562 263.273C431.562 265.889 433.682 268.008 436.298 268.008Z" fill="#5158F6"/>
<path d="M342.625 276.449C344.95 276.449 346.835 274.564 346.835 272.24C346.835 269.915 344.95 268.03 342.625 268.03C340.301 268.03 338.416 269.915 338.416 272.24C338.416 274.564 340.301 276.449 342.625 276.449Z" fill="#5158F6"/>
<path d="M380.008 324.85C382.332 324.85 384.217 322.966 384.217 320.641C384.217 318.316 382.332 316.432 380.008 316.432C377.683 316.432 375.798 318.316 375.798 320.641C375.798 322.966 377.683 324.85 380.008 324.85Z" fill="#5158F6"/>
<path d="M119.55 266.66C121.875 266.66 123.76 264.775 123.76 262.451C123.76 260.126 121.875 258.241 119.55 258.241C117.226 258.241 115.341 260.126 115.341 262.451C115.341 264.775 117.226 266.66 119.55 266.66Z" fill="#5158F6"/>
<path d="M309.044 347.521C310.025 347.521 310.821 346.726 310.821 345.745C310.821 344.765 310.025 343.97 309.044 343.97C308.064 343.97 307.269 344.765 307.269 345.745C307.269 346.726 308.064 347.521 309.044 347.521Z" fill="#5158F6"/>
<g filter="url(#filter0_dii)">
<circle cx="232.86" cy="233.793" r="59.7139" fill="#313144"/>
</g>
<path d="M197.545 239.782C198.137 239.782 198.618 239.302 198.618 238.709C198.618 238.117 198.137 237.636 197.545 237.636C196.952 237.636 196.472 238.117 196.472 238.709C196.472 239.302 196.952 239.782 197.545 239.782Z" fill="white"/>
<path opacity="0.6" d="M212.465 238.485C213.057 238.485 213.538 238.005 213.538 237.412C213.538 236.819 213.057 236.339 212.465 236.339C211.872 236.339 211.392 236.819 211.392 237.412C211.392 238.005 211.872 238.485 212.465 238.485Z" fill="white"/>
<path opacity="0.6" d="M216.773 244.629C217.366 244.629 217.846 244.148 217.846 243.556C217.846 242.963 217.366 242.483 216.773 242.483C216.181 242.483 215.7 242.963 215.7 243.556C215.7 244.148 216.181 244.629 216.773 244.629Z" fill="white"/>
<path d="M229.494 240.129C230.087 240.129 230.567 239.648 230.567 239.056C230.567 238.463 230.087 237.982 229.494 237.982C228.901 237.982 228.421 238.463 228.421 239.056C228.421 239.648 228.901 240.129 229.494 240.129Z" fill="white"/>
<path d="M198.411 207.054C199.004 207.054 199.484 206.574 199.484 205.981C199.484 205.389 199.004 204.908 198.411 204.908C197.818 204.908 197.338 205.389 197.338 205.981C197.338 206.574 197.818 207.054 198.411 207.054Z" fill="white"/>
<path d="M199.536 220.623C200.453 220.623 201.197 219.879 201.197 218.962C201.197 218.044 200.453 217.3 199.536 217.3C198.618 217.3 197.874 218.044 197.874 218.962C197.874 219.879 198.618 220.623 199.536 220.623Z" fill="white"/>
<path d="M226.535 236.2C227.3 236.2 227.92 235.58 227.92 234.816C227.92 234.051 227.3 233.431 226.535 233.431C225.77 233.431 225.15 234.051 225.15 234.816C225.15 235.58 225.77 236.2 226.535 236.2Z" fill="white"/>
<path d="M198.617 253.075C199.382 253.075 200.002 252.455 200.002 251.69C200.002 250.926 199.382 250.306 198.617 250.306C197.852 250.306 197.232 250.926 197.232 251.69C197.232 252.455 197.852 253.075 198.617 253.075Z" fill="white"/>
<path d="M209.279 245.719C210.12 245.719 210.802 245.037 210.802 244.196C210.802 243.355 210.12 242.673 209.279 242.673C208.438 242.673 207.756 243.355 207.756 244.196C207.756 245.037 208.438 245.719 209.279 245.719Z" fill="white"/>
<path opacity="0.6" d="M225.393 257.367C226.234 257.367 226.916 256.685 226.916 255.844C226.916 255.003 226.234 254.321 225.393 254.321C224.552 254.321 223.87 255.003 223.87 255.844C223.87 256.685 224.552 257.367 225.393 257.367Z" fill="white"/>
<path opacity="0.6" d="M221.066 250.911C221.735 250.911 222.278 250.369 222.278 249.7C222.278 249.03 221.735 248.488 221.066 248.488C220.397 248.488 219.854 249.03 219.854 249.7C219.854 250.369 220.397 250.911 221.066 250.911Z" fill="white"/>
<path d="M202.945 259.685C203.949 259.685 204.762 258.872 204.762 257.868C204.762 256.864 203.949 256.051 202.945 256.051C201.942 256.051 201.128 256.864 201.128 257.868C201.128 258.872 201.942 259.685 202.945 259.685Z" fill="white"/>
<path d="M210.197 214.704C211.736 214.704 212.983 213.457 212.983 211.918C212.983 210.379 211.736 209.131 210.197 209.131C208.658 209.131 207.41 210.379 207.41 211.918C207.41 213.457 208.658 214.704 210.197 214.704Z" fill="white"/>
<path d="M205.853 208.162C207.535 208.162 208.899 206.799 208.899 205.116C208.899 203.434 207.535 202.07 205.853 202.07C204.17 202.07 202.807 203.434 202.807 205.116C202.807 206.799 204.17 208.162 205.853 208.162Z" fill="white"/>
<path d="M206.978 221.558C208.421 221.558 209.591 220.388 209.591 218.945C209.591 217.502 208.421 216.332 206.978 216.332C205.534 216.332 204.364 217.502 204.364 218.945C204.364 220.388 205.534 221.558 206.978 221.558Z" fill="white"/>
<path d="M214.506 220.398C216.026 220.398 217.258 219.166 217.258 217.646C217.258 216.127 216.026 214.895 214.506 214.895C212.986 214.895 211.754 216.127 211.754 217.646C211.754 219.166 212.986 220.398 214.506 220.398Z" fill="white"/>
<path d="M203.863 227.702C205.316 227.702 206.494 226.525 206.494 225.072C206.494 223.619 205.316 222.441 203.863 222.441C202.41 222.441 201.232 223.619 201.232 225.072C201.232 226.525 202.41 227.702 203.863 227.702Z" fill="white"/>
<path d="M211.321 226.958C212.707 226.958 213.831 225.834 213.831 224.449C213.831 223.063 212.707 221.939 211.321 221.939C209.935 221.939 208.812 223.063 208.812 224.449C208.812 225.834 209.935 226.958 211.321 226.958Z" fill="white"/>
<path d="M218.832 225.971C220.036 225.971 221.013 224.995 221.013 223.791C221.013 222.586 220.036 221.61 218.832 221.61C217.628 221.61 216.651 222.586 216.651 223.791C216.651 224.995 217.628 225.971 218.832 225.971Z" fill="white"/>
<path d="M215.648 232.791C216.853 232.791 217.829 231.814 217.829 230.61C217.829 229.405 216.853 228.429 215.648 228.429C214.444 228.429 213.468 229.405 213.468 230.61C213.468 231.814 214.444 232.791 215.648 232.791Z" fill="white"/>
<path d="M208.137 233.448C209.341 233.448 210.317 232.471 210.317 231.267C210.317 230.063 209.341 229.086 208.137 229.086C206.932 229.086 205.956 230.063 205.956 231.267C205.956 232.471 206.932 233.448 208.137 233.448Z" fill="white"/>
<path d="M204.97 240.526C206.346 240.526 207.462 239.411 207.462 238.034C207.462 236.658 206.346 235.542 204.97 235.542C203.593 235.542 202.478 236.658 202.478 238.034C202.478 239.411 203.593 240.526 204.97 240.526Z" fill="white"/>
<path d="M201.801 247.052C203.025 247.052 204.017 246.06 204.017 244.836C204.017 243.613 203.025 242.621 201.801 242.621C200.578 242.621 199.586 243.613 199.586 244.836C199.586 246.06 200.578 247.052 201.801 247.052Z" fill="white"/>
<path d="M224.25 245.338C225.617 245.338 226.725 244.23 226.725 242.863C226.725 241.496 225.617 240.388 224.25 240.388C222.883 240.388 221.775 241.496 221.775 242.863C221.775 244.23 222.883 245.338 224.25 245.338Z" fill="white"/>
<path d="M219.906 239.246C221.283 239.246 222.399 238.13 222.399 236.754C222.399 235.378 221.283 234.262 219.906 234.262C218.53 234.262 217.414 235.378 217.414 236.754C217.414 238.13 218.53 239.246 219.906 239.246Z" fill="white"/>
<path d="M206.094 253.525C207.47 253.525 208.586 252.409 208.586 251.032C208.586 249.656 207.47 248.54 206.094 248.54C204.717 248.54 203.602 249.656 203.602 251.032C203.602 252.409 204.717 253.525 206.094 253.525Z" fill="white"/>
<path d="M200.608 233.759C201.631 233.759 202.46 232.93 202.46 231.908C202.46 230.885 201.631 230.056 200.608 230.056C199.585 230.056 198.756 230.885 198.756 231.908C198.756 232.93 199.585 233.759 200.608 233.759Z" fill="white"/>
<path d="M223.143 231.787C224.166 231.787 224.995 230.958 224.995 229.935C224.995 228.912 224.166 228.083 223.143 228.083C222.12 228.083 221.291 228.912 221.291 229.935C221.291 230.958 222.12 231.787 223.143 231.787Z" fill="white"/>
<path d="M202.72 214.877C204.239 214.877 205.471 213.645 205.471 212.125C205.471 210.606 204.239 209.374 202.72 209.374C201.2 209.374 199.968 210.606 199.968 212.125C199.968 213.645 201.2 214.877 202.72 214.877Z" fill="white"/>
<path d="M232.558 245.338C233.59 245.338 234.427 244.501 234.427 243.469C234.427 242.436 233.59 241.6 232.558 241.6C231.525 241.6 230.688 242.436 230.688 243.469C230.688 244.501 231.525 245.338 232.558 245.338Z" fill="white"/>
<path d="M268.176 239.782C268.768 239.782 269.248 239.302 269.248 238.709C269.248 238.117 268.768 237.636 268.176 237.636C267.583 237.636 267.103 238.117 267.103 238.709C267.103 239.302 267.583 239.782 268.176 239.782Z" fill="white"/>
<path opacity="0.6" d="M253.239 238.485C253.832 238.485 254.312 238.005 254.312 237.412C254.312 236.819 253.832 236.339 253.239 236.339C252.646 236.339 252.166 236.819 252.166 237.412C252.166 238.005 252.646 238.485 253.239 238.485Z" fill="white"/>
<path opacity="0.6" d="M248.947 244.629C249.54 244.629 250.02 244.148 250.02 243.556C250.02 242.963 249.54 242.483 248.947 242.483C248.354 242.483 247.874 242.963 247.874 243.556C247.874 244.148 248.354 244.629 248.947 244.629Z" fill="white"/>
<path d="M236.226 240.129C236.819 240.129 237.299 239.648 237.299 239.056C237.299 238.463 236.819 237.982 236.226 237.982C235.633 237.982 235.153 238.463 235.153 239.056C235.153 239.648 235.633 240.129 236.226 240.129Z" fill="white"/>
<path d="M267.311 207.054C267.904 207.054 268.384 206.574 268.384 205.981C268.384 205.389 267.904 204.908 267.311 204.908C266.719 204.908 266.238 205.389 266.238 205.981C266.238 206.574 266.719 207.054 267.311 207.054Z" fill="white"/>
<path d="M266.186 220.624C267.104 220.624 267.847 219.88 267.847 218.962C267.847 218.045 267.104 217.301 266.186 217.301C265.268 217.301 264.524 218.045 264.524 218.962C264.524 219.88 265.268 220.624 266.186 220.624Z" fill="white"/>
<path d="M239.186 236.2C239.951 236.2 240.571 235.58 240.571 234.816C240.571 234.051 239.951 233.431 239.186 233.431C238.422 233.431 237.802 234.051 237.802 234.816C237.802 235.58 238.422 236.2 239.186 236.2Z" fill="white"/>
<path d="M267.085 253.075C267.849 253.075 268.469 252.455 268.469 251.69C268.469 250.926 267.849 250.306 267.085 250.306C266.32 250.306 265.7 250.926 265.7 251.69C265.7 252.455 266.32 253.075 267.085 253.075Z" fill="white"/>
<path d="M256.424 245.719C257.265 245.719 257.947 245.037 257.947 244.196C257.947 243.355 257.265 242.673 256.424 242.673C255.583 242.673 254.901 243.355 254.901 244.196C254.901 245.037 255.583 245.719 256.424 245.719Z" fill="white"/>
<path opacity="0.6" d="M240.33 257.367C241.171 257.367 241.853 256.685 241.853 255.844C241.853 255.003 241.171 254.321 240.33 254.321C239.488 254.321 238.807 255.003 238.807 255.844C238.807 256.685 239.488 257.367 240.33 257.367Z" fill="white"/>
<path opacity="0.6" d="M244.638 250.911C245.307 250.911 245.85 250.369 245.85 249.7C245.85 249.03 245.307 248.488 244.638 248.488C243.969 248.488 243.427 249.03 243.427 249.7C243.427 250.369 243.969 250.911 244.638 250.911Z" fill="white"/>
<path d="M262.759 259.685C263.762 259.685 264.576 258.872 264.576 257.868C264.576 256.864 263.762 256.051 262.759 256.051C261.755 256.051 260.941 256.864 260.941 257.868C260.941 258.872 261.755 259.685 262.759 259.685Z" fill="white"/>
<path d="M255.507 214.704C257.046 214.704 258.294 213.457 258.294 211.918C258.294 210.379 257.046 209.131 255.507 209.131C253.968 209.131 252.721 210.379 252.721 211.918C252.721 213.457 253.968 214.704 255.507 214.704Z" fill="white"/>
<path d="M259.852 208.162C261.534 208.162 262.898 206.799 262.898 205.116C262.898 203.434 261.534 202.07 259.852 202.07C258.169 202.07 256.806 203.434 256.806 205.116C256.806 206.799 258.169 208.162 259.852 208.162Z" fill="white"/>
<path d="M258.727 221.558C260.17 221.558 261.34 220.388 261.34 218.945C261.34 217.502 260.17 216.332 258.727 216.332C257.283 216.332 256.113 217.502 256.113 218.945C256.113 220.388 257.283 221.558 258.727 221.558Z" fill="white"/>
<path d="M251.215 220.398C252.735 220.398 253.966 219.166 253.966 217.646C253.966 216.127 252.735 214.895 251.215 214.895C249.695 214.895 248.463 216.127 248.463 217.646C248.463 219.166 249.695 220.398 251.215 220.398Z" fill="white"/>
<path d="M261.842 227.702C263.294 227.702 264.472 226.525 264.472 225.072C264.472 223.619 263.294 222.441 261.842 222.441C260.389 222.441 259.211 223.619 259.211 225.072C259.211 226.525 260.389 227.702 261.842 227.702Z" fill="white"/>
<path d="M254.399 226.958C255.785 226.958 256.909 225.834 256.909 224.449C256.909 223.063 255.785 221.939 254.399 221.939C253.013 221.939 251.89 223.063 251.89 224.449C251.89 225.834 253.013 226.958 254.399 226.958Z" fill="white"/>
<path d="M246.888 225.971C248.092 225.971 249.068 224.995 249.068 223.791C249.068 222.586 248.092 221.61 246.888 221.61C245.683 221.61 244.707 222.586 244.707 223.791C244.707 224.995 245.683 225.971 246.888 225.971Z" fill="white"/>
<path d="M250.055 232.791C251.259 232.791 252.235 231.814 252.235 230.61C252.235 229.405 251.259 228.429 250.055 228.429C248.85 228.429 247.874 229.405 247.874 230.61C247.874 231.814 248.85 232.791 250.055 232.791Z" fill="white"/>
<path d="M257.584 233.448C258.788 233.448 259.765 232.472 259.765 231.267C259.765 230.063 258.788 229.086 257.584 229.086C256.38 229.086 255.403 230.063 255.403 231.267C255.403 232.472 256.38 233.448 257.584 233.448Z" fill="white"/>
<path d="M260.734 240.526C262.111 240.526 263.227 239.411 263.227 238.034C263.227 236.658 262.111 235.542 260.734 235.542C259.358 235.542 258.242 236.658 258.242 238.034C258.242 239.411 259.358 240.526 260.734 240.526Z" fill="white"/>
<path d="M263.901 247.052C265.124 247.052 266.116 246.06 266.116 244.836C266.116 243.613 265.124 242.621 263.901 242.621C262.677 242.621 261.686 243.613 261.686 244.836C261.686 246.06 262.677 247.052 263.901 247.052Z" fill="white"/>
<path d="M241.454 245.338C242.821 245.338 243.929 244.23 243.929 242.863C243.929 241.496 242.821 240.388 241.454 240.388C240.088 240.388 238.979 241.496 238.979 242.863C238.979 244.23 240.088 245.338 241.454 245.338Z" fill="white"/>
<path d="M245.798 239.246C247.174 239.246 248.29 238.13 248.29 236.754C248.29 235.378 247.174 234.262 245.798 234.262C244.421 234.262 243.306 235.378 243.306 236.754C243.306 238.13 244.421 239.246 245.798 239.246Z" fill="white"/>
<path d="M259.627 253.525C261.003 253.525 262.119 252.409 262.119 251.032C262.119 249.656 261.003 248.54 259.627 248.54C258.251 248.54 257.135 249.656 257.135 251.032C257.135 252.409 258.251 253.525 259.627 253.525Z" fill="white"/>
<path d="M265.096 233.759C266.119 233.759 266.948 232.93 266.948 231.908C266.948 230.885 266.119 230.056 265.096 230.056C264.073 230.056 263.244 230.885 263.244 231.908C263.244 232.93 264.073 233.759 265.096 233.759Z" fill="white"/>
<path d="M242.579 231.787C243.602 231.787 244.431 230.958 244.431 229.935C244.431 228.912 243.602 228.083 242.579 228.083C241.557 228.083 240.728 228.912 240.728 229.935C240.728 230.958 241.557 231.787 242.579 231.787Z" fill="white"/>
<path d="M263.002 214.877C264.522 214.877 265.754 213.645 265.754 212.125C265.754 210.606 264.522 209.374 263.002 209.374C261.482 209.374 260.25 210.606 260.25 212.125C260.25 213.645 261.482 214.877 263.002 214.877Z" fill="white"/>
<path d="M233.163 245.338C234.196 245.338 235.032 244.501 235.032 243.469C235.032 242.436 234.196 241.6 233.163 241.6C232.131 241.6 231.294 242.436 231.294 243.469C231.294 244.501 232.131 245.338 233.163 245.338Z" fill="white"/>
<path d="M232.851 245.65C234.056 245.65 235.032 244.674 235.032 243.469C235.032 242.265 234.056 241.289 232.851 241.289C231.647 241.289 230.671 242.265 230.671 243.469C230.671 244.674 231.647 245.65 232.851 245.65Z" fill="white"/>
<path d="M232.851 257.54C234.056 257.54 235.032 256.563 235.032 255.359C235.032 254.155 234.056 253.178 232.851 253.178C231.647 253.178 230.671 254.155 230.671 255.359C230.671 256.563 231.647 257.54 232.851 257.54Z" fill="white"/>
<path d="M228.542 251.222C229.747 251.222 230.723 250.246 230.723 249.042C230.723 247.837 229.747 246.861 228.542 246.861C227.338 246.861 226.361 247.837 226.361 249.042C226.361 250.246 227.338 251.222 228.542 251.222Z" fill="white"/>
<path d="M237.161 251.222C238.365 251.222 239.342 250.246 239.342 249.042C239.342 247.837 238.365 246.861 237.161 246.861C235.957 246.861 234.98 247.837 234.98 249.042C234.98 250.246 235.957 251.222 237.161 251.222Z" fill="white"/>
<path opacity="0.6" d="M229.685 262.957C230.201 262.957 230.619 262.539 230.619 262.022C230.619 261.506 230.201 261.088 229.685 261.088C229.168 261.088 228.75 261.506 228.75 262.022C228.75 262.539 229.168 262.957 229.685 262.957Z" fill="white"/>
<path opacity="0.6" d="M236.036 262.957C236.552 262.957 236.971 262.539 236.971 262.022C236.971 261.506 236.552 261.088 236.036 261.088C235.52 261.088 235.102 261.506 235.102 262.022C235.102 262.539 235.52 262.957 236.036 262.957Z" fill="white"/>
<g filter="url(#filter1_dii)">
<path d="M137.361 127.056C150.189 127.056 160.587 116.658 160.587 103.831C160.587 91.0034 150.189 80.605 137.361 80.605C124.534 80.605 114.136 91.0034 114.136 103.831C114.136 116.658 124.534 127.056 137.361 127.056Z" fill="white"/>
</g>
<path d="M130.983 116.406H128.203L127.579 118.137H126.677L129.21 111.504H129.975L132.513 118.137H131.615L130.983 116.406ZM128.467 115.686H130.722L129.592 112.583L128.467 115.686ZM135.201 116.975L137.096 111.504H138.053L135.593 118.137H134.818L132.363 111.504H133.315L135.201 116.975ZM142.262 116.406H139.484L138.859 118.137H137.957L140.49 111.504H141.255L143.793 118.137H142.896L142.262 116.406ZM139.748 115.686H142.003L140.873 112.583L139.748 115.686ZM146.85 114.045L148.441 111.504H149.47L147.374 114.793L149.52 118.137H148.481L146.85 115.55L145.21 118.137H144.176L146.326 114.793L144.226 111.504H145.252L146.85 114.045Z" fill="#5158F6"/>
<path d="M143.266 99.3695C143.814 98.44 144.698 98.44 145.244 99.3695L148.655 105.252C149.201 106.182 148.753 106.94 147.659 106.94H140.79C139.708 106.94 139.259 106.182 139.794 105.252L143.266 99.3695ZM136.671 88.0439C137.218 87.1143 138.09 87.1143 138.638 88.0439L139.396 89.3892L141.188 92.4836C141.623 93.3642 141.623 94.4039 141.188 95.2845L135.178 105.521C134.63 106.353 133.722 106.879 132.714 106.94H127.724C126.629 106.94 126.182 106.194 126.728 105.252L136.671 88.0439Z" fill="#5158F6"/>
<g filter="url(#filter2_dii)">
<path d="M263.119 74.7953C263.119 87.3894 252.909 97.599 240.315 97.599C227.721 97.599 217.512 87.3894 217.512 74.7953C217.512 62.2013 227.721 51.9917 240.315 51.9917C252.909 51.9917 263.119 62.2013 263.119 74.7953Z" fill="white"/>
</g>
<g filter="url(#filter3_dii)">
<path d="M237.969 381.805C250.796 381.805 261.194 371.406 261.194 358.579C261.194 345.752 250.796 335.354 237.969 335.354C225.142 335.354 214.743 345.752 214.743 358.579C214.743 371.406 225.142 381.805 237.969 381.805Z" fill="white"/>
</g>
<path d="M231.141 367.83L232.731 365.288H233.761L231.665 368.577L233.811 371.921H232.772L231.141 369.334L229.501 371.921H228.467L230.617 368.577L228.517 365.288H229.542L231.141 367.83ZM234.826 371.921V365.288H236.699C237.276 365.288 237.787 365.415 238.23 365.671C238.673 365.925 239.015 366.288 239.254 366.759C239.498 367.23 239.621 367.771 239.624 368.381V368.805C239.624 369.431 239.503 369.978 239.259 370.45C239.019 370.92 238.675 371.282 238.225 371.534C237.778 371.786 237.258 371.914 236.663 371.921H234.826ZM235.702 366.007V371.205H236.621C237.296 371.205 237.819 370.996 238.194 370.577C238.57 370.158 238.758 369.561 238.758 368.787V368.4C238.758 367.646 238.581 367.062 238.225 366.646C237.873 366.226 237.372 366.014 236.722 366.007H235.702ZM244.512 370.19H241.734L241.109 371.921H240.207L242.74 365.288H243.505L246.043 371.921H245.146L244.512 370.19ZM241.998 369.47H244.253L243.123 366.368L241.998 369.47ZM247.875 371.921H247V365.288H247.875V371.921Z" fill="#5158F6"/>
<path fill-rule="evenodd" clip-rule="evenodd" d="M229.235 346.849H236.256V343.339H229.235V346.849Z" fill="#5158F6"/>
<path fill-rule="evenodd" clip-rule="evenodd" d="M239.753 346.849H246.773V343.339H239.753V346.849Z" fill="#5158F6"/>
<path fill-rule="evenodd" clip-rule="evenodd" d="M246.773 353.856H243.263V357.366H239.753V360.877H246.773V353.856Z" fill="#5158F6"/>
<path fill-rule="evenodd" clip-rule="evenodd" d="M236.256 360.877V357.366H232.745V353.856H229.235V360.877H236.256Z" fill="#5158F6"/>
<g filter="url(#filter4_dii)">
<path d="M78.6921 336.46C96.3295 336.46 110.627 322.162 110.627 304.525C110.627 286.888 96.3295 272.59 78.6921 272.59C61.0547 272.59 46.7568 286.888 46.7568 304.525C46.7568 322.162 61.0547 336.46 78.6921 336.46Z" fill="white"/>
</g>
<path d="M70.5 323.404V316.771H72.6686C73.3884 316.771 73.929 316.919 74.2904 317.217C74.6549 317.514 74.8371 317.955 74.8371 318.538C74.8371 318.848 74.749 319.123 74.5729 319.363C74.3967 319.6 74.1567 319.783 73.853 319.914C74.2114 320.014 74.4939 320.205 74.7004 320.488C74.91 320.767 75.0147 321.102 75.0147 321.49C75.0147 322.085 74.8219 322.554 74.4362 322.893C74.0505 323.234 73.5053 323.404 72.8007 323.404H70.5ZM71.3747 320.301V322.688H72.8189C73.2259 322.688 73.5463 322.583 73.7802 322.373C74.0171 322.162 74.1355 321.87 74.1355 321.499C74.1355 320.701 73.7012 320.301 72.8326 320.301H71.3747ZM71.3747 319.6H72.6959C73.0785 319.6 73.3838 319.504 73.6116 319.312C73.8424 319.121 73.9578 318.862 73.9578 318.533C73.9578 318.169 73.8515 317.904 73.6389 317.741C73.4264 317.574 73.1029 317.49 72.6686 317.49H71.3747V319.6ZM78.2677 320.447C77.5174 320.231 76.9708 319.967 76.6276 319.654C76.2874 319.338 76.1173 318.949 76.1173 318.487C76.1173 317.966 76.3254 317.534 76.7414 317.194C77.1605 316.851 77.7042 316.679 78.3724 316.679C78.828 316.679 79.2334 316.767 79.5888 316.943C79.9472 317.12 80.2236 317.362 80.418 317.672C80.6154 317.982 80.7141 318.32 80.7141 318.688H79.8349C79.8349 318.288 79.7072 317.973 79.4521 317.746C79.1971 317.514 78.8371 317.399 78.3724 317.399C77.9411 317.399 77.604 317.495 77.361 317.686C77.1211 317.874 77.0011 318.137 77.0011 318.474C77.0011 318.745 77.115 318.974 77.3428 319.162C77.5737 319.348 77.9639 319.517 78.5136 319.672C79.0664 319.827 79.4977 319.999 79.8075 320.187C80.1203 320.372 80.3511 320.59 80.4999 320.839C80.6518 321.088 80.7278 321.381 80.7278 321.718C80.7278 322.256 80.5182 322.687 80.0991 323.012C79.6799 323.334 79.1196 323.495 78.418 323.495C77.9624 323.495 77.5372 323.408 77.1423 323.235C76.7475 323.059 76.4423 322.819 76.2267 322.515C76.014 322.211 75.9077 321.867 75.9077 321.481H76.787C76.787 321.882 76.9343 322.199 77.2289 322.433C77.5266 322.664 77.9229 322.779 78.418 322.779C78.8796 322.779 79.2334 322.685 79.4795 322.497C79.7255 322.308 79.8485 322.052 79.8485 321.727C79.8485 321.402 79.7346 321.151 79.5068 320.975C79.2791 320.796 78.8659 320.62 78.2677 320.447ZM86.7323 321.299C86.6503 322 86.3906 322.542 85.9533 322.925C85.519 323.305 84.9404 323.495 84.2175 323.495C83.4339 323.495 82.8053 323.214 82.3314 322.652C81.8607 322.09 81.6253 321.338 81.6253 320.396V319.759C81.6253 319.142 81.7346 318.6 81.9533 318.133C82.175 317.664 82.4878 317.306 82.8918 317.057C83.2958 316.805 83.7635 316.679 84.2949 316.679C84.9996 316.679 85.5645 316.877 85.9897 317.272C86.415 317.664 86.6625 318.207 86.7323 318.903H85.8531C85.7771 318.374 85.6116 317.991 85.3564 317.754C85.1043 317.517 84.7505 317.399 84.2949 317.399C83.7361 317.399 83.2972 317.606 82.9783 318.019C82.6625 318.431 82.5045 319.019 82.5045 319.782V320.424C82.5045 321.144 82.6549 321.717 82.9556 322.141C83.2562 322.567 83.6769 322.779 84.2175 322.779C84.7035 322.779 85.0755 322.67 85.3337 322.451C85.5949 322.23 85.768 321.845 85.8531 321.299H86.7323Z" fill="#5158F6"/>
<path d="M72.3598 294.406L78.1061 288.659L83.8525 294.406L87.1853 291.073L78.1061 281.994L69.0269 291.073L72.3598 294.406ZM63.3955 296.705L66.7284 293.372L70.0613 296.705L66.7284 300.038L63.3955 296.705ZM72.3598 299.118L78.1061 304.864L83.8525 299.118L87.1853 302.45L78.1061 311.53L69.0269 302.45L72.3598 299.118ZM86.2659 296.705L89.5988 293.372L92.9317 296.705L89.5988 300.038L86.2659 296.705Z" fill="#5158F6"/>
<path d="M81.5544 296.705L78.2215 293.371L75.6931 295.9L75.4633 296.13L74.8887 296.705L78.2215 300.038L81.5544 296.705Z" fill="#5158F6"/>
<g filter="url(#filter5_dii)">
<path d="M85.3277 170.961C85.3277 189.769 70.0814 205.015 51.2741 205.015C32.467 205.015 17.2207 189.769 17.2207 170.961C17.2207 152.154 32.467 136.908 51.2741 136.908C70.0814 136.908 85.3277 152.154 85.3277 170.961Z" fill="white"/>
</g>
<path d="M47.1001 188.78H44.2253V191.131H47.5647V191.846H43.3506V185.213H47.5192V185.933H44.2253V188.065H47.1001V188.78ZM53.3278 185.933H51.1957V191.846H50.3255V185.933H48.198V185.213H53.3278V185.933ZM59.4098 191.846H58.5305V188.78H55.1866V191.846H54.3119V185.213H55.1866V188.065H58.5305V185.213H59.4098V191.846Z" fill="#5158F6"/>
<path d="M60.76 164.29L50.9108 147.917L41.0615 164.29L50.9108 169.979L60.76 164.29Z" fill="#5158F6"/>
<path d="M50.9108 171.996L41.0615 166.039L50.9108 180.222L60.76 166.039L50.9108 171.996Z" fill="#5158F6"/>
<g filter="url(#filter6_dii)">
<path d="M392.11 291.351C404.938 291.351 415.336 280.952 415.336 268.125C415.336 255.298 404.938 244.899 392.11 244.899C379.283 244.899 368.885 255.298 368.885 268.125C368.885 280.952 379.283 291.351 392.11 291.351Z" fill="white"/>
</g>
<path d="M380.82 273.851L382.989 279.262L385.158 273.851H386.292V280.484H385.417V277.9L385.499 275.112L383.322 280.484H382.652L380.479 275.126L380.566 277.9V280.484H379.69V273.851H380.82ZM391.581 278.753H388.802L388.178 280.484H387.276L389.809 273.851H390.574L393.112 280.484H392.214L391.581 278.753ZM389.066 278.033H391.322L390.192 274.93L389.066 278.033ZM397.996 274.57H395.864V280.484H394.994V274.57H392.866V273.851H397.996V274.57ZM399.919 280.484H399.043V273.851H399.919V280.484ZM406.401 278.379C406.319 279.08 406.06 279.622 405.622 280.005C405.188 280.385 404.609 280.575 403.887 280.575C403.103 280.575 402.474 280.294 402 279.732C401.53 279.17 401.294 278.418 401.294 277.476V276.839C401.294 276.222 401.404 275.68 401.622 275.213C401.844 274.745 402.157 274.386 402.561 274.137C402.965 273.885 403.432 273.759 403.964 273.759C404.669 273.759 405.233 273.957 405.659 274.352C406.084 274.744 406.331 275.287 406.401 275.983H405.522C405.446 275.454 405.281 275.071 405.025 274.834C404.773 274.597 404.419 274.479 403.964 274.479C403.405 274.479 402.966 274.686 402.648 275.099C402.331 275.512 402.174 276.099 402.174 276.862V277.504C402.174 278.224 402.324 278.797 402.624 279.221C402.925 279.647 403.346 279.859 403.887 279.859C404.373 279.859 404.744 279.75 405.003 279.531C405.264 279.31 405.437 278.925 405.522 278.379H406.401Z" fill="#5158F6"/>
<path d="M398.123 258.175C397.714 257.952 397.19 257.952 396.724 258.175L393.458 260.013L391.242 261.183L388.034 263.021C387.627 263.244 387.101 263.244 386.635 263.021L384.128 261.572C383.719 261.35 383.428 260.904 383.428 260.403V257.618C383.428 257.172 383.661 256.726 384.128 256.448L386.635 255.055C387.043 254.833 387.568 254.833 388.034 255.055L390.542 256.504C390.95 256.726 391.242 257.172 391.242 257.673V259.512L393.458 258.286V256.392C393.458 255.947 393.225 255.501 392.758 255.222L388.093 252.605C387.684 252.382 387.16 252.382 386.693 252.605L381.912 255.278C381.445 255.501 381.212 255.947 381.212 256.392V261.628C381.212 262.074 381.445 262.519 381.912 262.798L386.635 265.416C387.043 265.639 387.568 265.639 388.034 265.416L391.242 263.633L393.458 262.408L396.665 260.626C397.073 260.403 397.598 260.403 398.064 260.626L400.572 262.018C400.98 262.241 401.272 262.686 401.272 263.188V265.973C401.272 266.418 401.039 266.864 400.572 267.143L398.123 268.535C397.714 268.758 397.19 268.758 396.724 268.535L394.216 267.143C393.808 266.92 393.516 266.474 393.516 265.973V264.19L391.3 265.416V267.254C391.3 267.7 391.533 268.145 392 268.424L396.724 271.042C397.131 271.265 397.657 271.265 398.123 271.042L402.846 268.424C403.255 268.201 403.546 267.755 403.546 267.254V261.962C403.546 261.517 403.313 261.071 402.846 260.793L398.123 258.175Z" fill="#5158F6"/>
<g filter="url(#filter7_dii)">
<path d="M331.504 411.04C345.012 411.04 355.963 400.089 355.963 386.581C355.963 373.072 345.012 362.121 331.504 362.121C317.995 362.121 307.044 373.072 307.044 386.581C307.044 400.089 317.995 411.04 331.504 411.04Z" fill="white"/>
</g>
<g filter="url(#filter8_dii)">
<path d="M424.481 211.372C477.234 211.372 520 168.607 520 115.853C520 63.0993 477.234 20.334 424.481 20.334C371.727 20.334 328.962 63.0993 328.962 115.853C328.962 168.607 371.727 211.372 424.481 211.372Z" fill="#F3A761"/>
</g>
<path d="M368.299 149.82L365.631 145.995C365.519 146.007 365.351 146.014 365.127 146.014H362.179V149.82H359.753V136.758H365.127C366.259 136.758 367.242 136.945 368.076 137.318C368.922 137.691 369.568 138.226 370.016 138.923C370.464 139.619 370.688 140.446 370.688 141.404C370.688 142.387 370.445 143.233 369.96 143.942C369.488 144.651 368.803 145.18 367.908 145.528L370.912 149.82H368.299ZM368.243 141.404C368.243 140.571 367.97 139.93 367.422 139.482C366.875 139.034 366.073 138.811 365.015 138.811H362.179V144.017H365.015C366.073 144.017 366.875 143.793 367.422 143.345C367.97 142.885 368.243 142.238 368.243 141.404Z" fill="white"/>
<path d="M383.199 147.786V149.82H373.402V136.758H382.938V138.792H375.828V142.188H382.135V144.185H375.828V147.786H383.199Z" fill="white"/>
<path d="M394.375 146.797H387.844L386.556 149.82H384.056L389.934 136.758H392.323L398.219 149.82H395.681L394.375 146.797ZM393.573 144.894L391.11 139.184L388.665 144.894H393.573Z" fill="white"/>
<path d="M399.88 136.758H402.306V147.768H409.136V149.82H399.88V136.758Z" fill="white"/>
<path d="M435.298 136.758L430.969 149.82H428.394L425.166 140.154L421.881 149.82H419.288L414.958 136.758H417.477L420.724 146.685L424.102 136.758H426.341L429.644 146.741L432.984 136.758H435.298Z" fill="white"/>
<path d="M443.231 150.007C441.9 150.007 440.699 149.721 439.629 149.149C438.559 148.564 437.72 147.761 437.11 146.741C436.501 145.709 436.196 144.558 436.196 143.289C436.196 142.02 436.501 140.876 437.11 139.856C437.72 138.823 438.559 138.021 439.629 137.448C440.699 136.864 441.9 136.571 443.231 136.571C444.562 136.571 445.762 136.864 446.832 137.448C447.902 138.021 448.742 138.817 449.351 139.837C449.961 140.857 450.266 142.008 450.266 143.289C450.266 144.57 449.961 145.721 449.351 146.741C448.742 147.761 447.902 148.564 446.832 149.149C445.762 149.721 444.562 150.007 443.231 150.007ZM443.231 147.88C444.102 147.88 444.885 147.687 445.582 147.301C446.279 146.903 446.826 146.356 447.224 145.659C447.622 144.95 447.821 144.16 447.821 143.289C447.821 142.418 447.622 141.635 447.224 140.938C446.826 140.229 446.279 139.681 445.582 139.296C444.885 138.898 444.102 138.699 443.231 138.699C442.36 138.699 441.576 138.898 440.88 139.296C440.183 139.681 439.636 140.229 439.237 140.938C438.839 141.635 438.64 142.418 438.64 143.289C438.64 144.16 438.839 144.95 439.237 145.659C439.636 146.356 440.183 146.903 440.88 147.301C441.576 147.687 442.36 147.88 443.231 147.88Z" fill="white"/>
<path d="M461.384 149.82L458.715 145.995C458.603 146.007 458.435 146.014 458.211 146.014H455.263V149.82H452.837V136.758H458.211C459.344 136.758 460.326 136.945 461.16 137.318C462.006 137.691 462.653 138.226 463.101 138.923C463.548 139.619 463.772 140.446 463.772 141.404C463.772 142.387 463.53 143.233 463.045 143.942C462.572 144.651 461.888 145.18 460.992 145.528L463.996 149.82H461.384ZM461.328 141.404C461.328 140.571 461.054 139.93 460.507 139.482C459.959 139.034 459.157 138.811 458.1 138.811H455.263V144.017H458.1C459.157 144.017 459.959 143.793 460.507 143.345C461.054 142.885 461.328 142.238 461.328 141.404Z" fill="white"/>
<path d="M466.486 136.758H468.912V147.768H475.742V149.82H466.486V136.758Z" fill="white"/>
<path d="M477.657 136.758H483.367C484.761 136.758 485.999 137.032 487.081 137.579C488.163 138.114 489.003 138.879 489.6 139.874C490.197 140.857 490.496 141.995 490.496 143.289C490.496 144.583 490.197 145.727 489.6 146.723C489.003 147.705 488.163 148.471 487.081 149.018C485.999 149.553 484.761 149.82 483.367 149.82H477.657V136.758ZM483.255 147.768C484.213 147.768 485.053 147.587 485.775 147.226C486.509 146.853 487.068 146.331 487.454 145.659C487.852 144.975 488.051 144.185 488.051 143.289C488.051 142.393 487.852 141.61 487.454 140.938C487.068 140.254 486.509 139.731 485.775 139.37C485.053 138.997 484.213 138.811 483.255 138.811H480.083V147.768H483.255Z" fill="white"/>
<path d="M399.862 159.151H405.572C406.966 159.151 408.204 159.424 409.286 159.972C410.368 160.507 411.208 161.272 411.805 162.267C412.402 163.25 412.701 164.388 412.701 165.682C412.701 166.976 412.402 168.12 411.805 169.115C411.208 170.098 410.368 170.863 409.286 171.411C408.204 171.946 406.966 172.213 405.572 172.213H399.862V159.151ZM405.46 170.16C406.418 170.16 407.258 169.98 407.98 169.619C408.714 169.246 409.273 168.723 409.659 168.052C410.057 167.367 410.256 166.578 410.256 165.682C410.256 164.786 410.057 164.002 409.659 163.331C409.273 162.646 408.714 162.124 407.98 161.763C407.258 161.39 406.418 161.203 405.46 161.203H402.288V170.16H405.46Z" fill="white"/>
<path d="M423.569 169.19H417.038L415.75 172.213H413.249L419.128 159.151H421.516L427.413 172.213H424.875L423.569 169.19ZM422.766 167.287L420.303 161.576L417.859 167.287H422.766Z" fill="white"/>
<path d="M431.068 161.203H426.739V159.151H437.823V161.203H433.494V172.213H431.068V161.203Z" fill="white"/>
<path d="M447.459 169.19H440.928L439.641 172.213H437.14L443.018 159.151H445.407L451.304 172.213H448.766L447.459 169.19ZM446.657 167.287L444.194 161.576L441.749 167.287H446.657Z" fill="white"/>
<path d="M459.495 98.2609C459.516 98.2163 459.536 98.1706 459.552 98.1238C463.973 87.8904 463.183 75.3448 457.439 65.7559C460.506 62.0807 456.523 56.8176 452.167 58.854C451.402 58.0698 450.598 57.3181 449.765 56.6074C451.4 52.1521 445.944 48.4973 442.546 51.826C432.67 46.8263 420.387 46.8896 410.566 51.9952C407.071 48.2831 401.205 52.2633 403.32 56.9207C402.109 57.9827 400.962 59.1301 399.904 60.3434C398.991 61.3909 400.645 62.8267 401.552 61.7865C402.535 60.6579 403.602 59.5902 404.727 58.6009C406.904 60.1751 410.06 59.3731 411.254 56.9703C415.195 58.1077 418.959 59.74 422.466 61.835C422.173 62.8965 422.292 64.082 422.796 65.0619C419.91 67.5617 417.311 70.3895 415.054 73.4886C412.969 72.8573 410.672 73.9139 409.766 75.8924C405.171 75.9171 400.561 76.4128 396.036 77.3718C395.635 76.6252 395.03 76.0065 394.296 75.5921C395.145 72.2675 396.493 69.105 398.307 66.1809C399.03 65.0154 397.205 63.8039 396.449 65.0222C394.52 68.1311 393.087 71.4931 392.181 75.0272C386.941 75.1164 386.062 82.3849 391.05 83.7831C390.977 94.1277 395.438 104.185 403.173 111.037C401.56 115.407 406.799 119.011 410.256 115.929C420.346 121.308 433.097 121.309 443.188 115.93C446.705 119.417 452.336 115.523 450.356 110.964C454.342 107.412 457.44 103.067 459.495 98.2609ZM458.116 95.8079C455.088 92.7918 451.774 90.0557 448.236 87.6539C448.739 86.0759 448.302 84.3005 447.128 83.1356C450.104 78.1763 452.439 72.8585 454.083 67.3033C454.631 67.3052 455.158 67.2039 455.643 67.0205C460.681 75.5506 461.602 86.5485 458.116 95.8079ZM407.779 108.206C406.858 99.1653 408.473 90.1459 412.472 81.9952C414.956 82.7723 417.64 81.1346 418.122 78.5784C425.665 79.5106 432.929 81.7309 439.747 85.1885C439.42 86.4662 439.691 87.8751 440.472 88.938C432.788 98.6987 422.644 106.043 411.034 110.253C410.331 109.136 409.147 108.355 407.779 108.206ZM441.795 86.2998C441.795 85.057 442.796 84.046 444.027 84.046C446.987 84.1695 446.986 88.4305 444.027 88.5536C442.796 88.5536 441.795 87.5426 441.795 86.2998ZM456.324 62.8561C456.324 64.099 455.323 65.11 454.093 65.11C451.132 64.9864 451.133 60.7255 454.093 60.6023C455.323 60.6023 456.324 61.6133 456.324 62.8561ZM450.496 60.2778C448.983 62.4077 449.685 65.4865 451.964 66.7525C450.372 72.1109 448.115 77.2404 445.242 82.0248C444.642 81.8518 443.975 81.8088 443.357 81.9036C440.355 75.476 435.987 69.6866 430.65 65.0622C431.155 64.0818 431.274 62.8983 430.98 61.8353C434.359 59.8176 437.976 58.2276 441.761 57.0972C443.017 59.5314 446.391 60.2186 448.486 58.3964C449.18 58.9951 449.852 59.624 450.496 60.2778ZM424.492 63.0259C424.492 61.7831 425.493 60.7721 426.723 60.7721C429.684 60.8956 429.683 65.1565 426.723 65.2797C425.493 65.2797 424.492 64.2686 424.492 63.0259ZM445.65 52.7344C446.881 52.7344 447.882 53.7455 447.882 54.9883C447.759 57.9782 443.541 57.9775 443.419 54.9883C443.419 53.7455 444.42 52.7344 445.65 52.7344ZM407.299 57.242C406.069 57.242 405.068 56.231 405.068 54.9881C405.19 51.998 409.409 51.999 409.532 54.9881C409.532 56.231 408.53 57.242 407.299 57.242ZM411.715 54.8199C411.704 54.5155 411.662 54.2191 411.593 53.9331C420.75 49.1854 432.19 49.1026 441.417 53.7123C441.299 54.1098 441.233 54.5302 441.232 54.9656C437.251 56.146 433.446 57.8133 429.893 59.9317C428.186 58.1608 425.262 58.1601 423.553 59.9315C419.851 57.7238 415.877 56.0076 411.715 54.8199ZM424.245 66.7058C425.724 67.7181 427.722 67.7181 429.202 66.706C434.296 71.1164 438.471 76.6373 441.345 82.768C441.15 82.9182 440.968 83.0845 440.801 83.2645C433.613 79.6094 425.944 77.2856 417.977 76.3505C417.761 75.6978 417.4 75.1118 416.932 74.6319C419.069 71.7197 421.523 69.06 424.245 66.7058ZM413.781 75.4935C415.012 75.4935 416.013 76.5046 416.013 77.7474C415.89 80.7375 411.672 80.7366 411.549 77.7474C411.55 76.5046 412.551 75.4935 413.781 75.4935ZM389.909 79.4737C389.909 78.2308 390.91 77.2197 392.141 77.2197C395.102 77.3434 395.101 81.6041 392.141 81.7273C390.911 81.7275 389.909 80.7165 389.909 79.4737ZM393.237 83.7823C393.237 83.7823 396.56 83.0558 396.56 79.5026C396.56 79.5026 405.086 78.1362 409.376 78.0882C409.456 79.1507 409.909 80.1095 410.603 80.8331C406.34 89.4316 404.62 98.9647 405.61 108.517C405.185 108.696 404.792 108.939 404.445 109.235C397.308 102.825 393.237 92.0855 393.237 83.7823ZM407.299 114.881C406.069 114.881 405.068 113.869 405.068 112.627C405.068 111.384 406.069 110.372 407.299 110.372C408.514 110.372 409.532 111.427 409.532 112.627C409.532 113.869 408.53 114.881 407.299 114.881ZM426.723 117.787C421.414 117.787 416.164 116.512 411.472 114.091C411.662 113.545 411.746 112.921 411.709 112.34C423.719 108.001 434.212 100.416 442.163 90.3306C442.816 90.6377 443.541 90.7786 444.26 90.7408C444.746 92.5492 445.131 94.3942 445.402 96.2391C445.611 97.6513 447.776 97.3358 447.567 95.9182C447.278 93.9593 446.869 92.0002 446.349 90.0813C446.611 89.9181 446.854 89.7278 447.075 89.5151C450.726 91.9997 454.129 94.852 457.212 98.0086C455.3 102.247 452.517 106.084 448.981 109.255C448.631 108.991 448.241 108.78 447.823 108.629C448.038 106.59 448.132 104.532 448.101 102.495C448.078 101.063 445.891 101.096 445.913 102.529C445.943 104.486 445.853 106.465 445.645 108.425C443.065 108.837 441.378 111.519 442.089 114.033C437.367 116.491 432.076 117.787 426.723 117.787ZM446.339 115.071C445.108 115.071 444.107 114.06 444.107 112.817C444.23 109.827 448.449 109.828 448.571 112.817C448.571 114.06 447.57 115.071 446.339 115.071Z" fill="white"/>
<path d="M239.36 77.56C239.36 76.84 239.52 76.2467 239.84 75.78C240.173 75.3 240.653 74.78 241.28 74.22C241.76 73.7933 242.113 73.4267 242.34 73.12C242.58 72.8 242.7 72.44 242.7 72.04C242.7 71.48 242.473 71.0267 242.02 70.68C241.567 70.3333 240.96 70.16 240.2 70.16C238.76 70.16 237.673 70.6733 236.94 71.7L235 70.44C235.573 69.6533 236.313 69.0533 237.22 68.64C238.127 68.2133 239.193 68 240.42 68C241.913 68 243.1 68.3267 243.98 68.98C244.873 69.62 245.32 70.5067 245.32 71.64C245.32 72.1867 245.227 72.6667 245.04 73.08C244.867 73.4933 244.653 73.8467 244.4 74.14C244.147 74.42 243.813 74.7467 243.4 75.12C242.893 75.5733 242.513 75.9733 242.26 76.32C242.02 76.6667 241.9 77.08 241.9 77.56H239.36ZM240.64 82.34C240.173 82.34 239.787 82.1933 239.48 81.9C239.187 81.5933 239.04 81.22 239.04 80.78C239.04 80.34 239.187 79.9733 239.48 79.68C239.787 79.3867 240.173 79.24 240.64 79.24C241.093 79.24 241.467 79.3867 241.76 79.68C242.067 79.9733 242.22 80.34 242.22 80.78C242.22 81.22 242.067 81.5933 241.76 81.9C241.467 82.1933 241.093 82.34 240.64 82.34Z" fill="#5158F6"/>
<path d="M331.36 389.56C331.36 388.84 331.52 388.247 331.84 387.78C332.173 387.3 332.653 386.78 333.28 386.22C333.76 385.793 334.113 385.427 334.34 385.12C334.58 384.8 334.7 384.44 334.7 384.04C334.7 383.48 334.473 383.027 334.02 382.68C333.567 382.333 332.96 382.16 332.2 382.16C330.76 382.16 329.673 382.673 328.94 383.7L327 382.44C327.573 381.653 328.313 381.053 329.22 380.64C330.127 380.213 331.193 380 332.42 380C333.913 380 335.1 380.327 335.98 380.98C336.873 381.62 337.32 382.507 337.32 383.64C337.32 384.187 337.227 384.667 337.04 385.08C336.867 385.493 336.653 385.847 336.4 386.14C336.147 386.42 335.813 386.747 335.4 387.12C334.893 387.573 334.513 387.973 334.26 388.32C334.02 388.667 333.9 389.08 333.9 389.56H331.36ZM332.64 394.34C332.173 394.34 331.787 394.193 331.48 393.9C331.187 393.593 331.04 393.22 331.04 392.78C331.04 392.34 331.187 391.973 331.48 391.68C331.787 391.387 332.173 391.24 332.64 391.24C333.093 391.24 333.467 391.387 333.76 391.68C334.067 391.973 334.22 392.34 334.22 392.78C334.22 393.22 334.067 393.593 333.76 393.9C333.467 394.193 333.093 394.34 332.64 394.34Z" fill="#5158F6"/>
</g>
<defs>
<filter id="filter0_dii" x="149.146" y="162.079" width="167.428" height="167.428" filterUnits="userSpaceOnUse" color-interpolation-filters="sRGB">
<feFlood flood-opacity="0" result="BackgroundImageFix"/>
<feColorMatrix in="SourceAlpha" type="matrix" values="0 0 0 0 0 0 0 0 0 0 0 0 0 0 0 0 0 0 127 0" result="hardAlpha"/>
<feOffset dy="12"/>
<feGaussianBlur stdDeviation="12"/>
<feComposite in2="hardAlpha" operator="out"/>
<feColorMatrix type="matrix" values="0 0 0 0 0 0 0 0 0 0 0 0 0 0 0 0 0 0 0.05 0"/>
<feBlend mode="normal" in2="BackgroundImageFix" result="effect1_dropShadow"/>
<feBlend mode="normal" in="SourceGraphic" in2="effect1_dropShadow" result="shape"/>
<feColorMatrix in="SourceAlpha" type="matrix" values="0 0 0 0 0 0 0 0 0 0 0 0 0 0 0 0 0 0 127 0" result="hardAlpha"/>
<feOffset dy="12"/>
<feGaussianBlur stdDeviation="12"/>
<feComposite in2="hardAlpha" operator="arithmetic" k2="-1" k3="1"/>
<feColorMatrix type="matrix" values="0 0 0 0 1 0 0 0 0 1 0 0 0 0 1 0 0 0 0.2 0"/>
<feBlend mode="normal" in2="shape" result="effect2_innerShadow"/>
<feColorMatrix in="SourceAlpha" type="matrix" values="0 0 0 0 0 0 0 0 0 0 0 0 0 0 0 0 0 0 127 0" result="hardAlpha"/>
<feOffset dy="-6"/>
<feGaussianBlur stdDeviation="3"/>
<feComposite in2="hardAlpha" operator="arithmetic" k2="-1" k3="1"/>
<feColorMatrix type="matrix" values="0 0 0 0 1 0 0 0 0 1 0 0 0 0 1 0 0 0 0.15 0"/>
<feBlend mode="normal" in2="effect2_innerShadow" result="effect3_innerShadow"/>
</filter>
<filter id="filter1_dii" x="104.936" y="76.005" width="64.8513" height="64.8513" filterUnits="userSpaceOnUse" color-interpolation-filters="sRGB">
<feFlood flood-opacity="0" result="BackgroundImageFix"/>
<feColorMatrix in="SourceAlpha" type="matrix" values="0 0 0 0 0 0 0 0 0 0 0 0 0 0 0 0 0 0 127 0" result="hardAlpha"/>
<feOffset dy="4.6"/>
<feGaussianBlur stdDeviation="4.6"/>
<feComposite in2="hardAlpha" operator="out"/>
<feColorMatrix type="matrix" values="0 0 0 0 0 0 0 0 0 0 0 0 0 0 0 0 0 0 0.05 0"/>
<feBlend mode="normal" in2="BackgroundImageFix" result="effect1_dropShadow"/>
<feBlend mode="normal" in="SourceGraphic" in2="effect1_dropShadow" result="shape"/>
<feColorMatrix in="SourceAlpha" type="matrix" values="0 0 0 0 0 0 0 0 0 0 0 0 0 0 0 0 0 0 127 0" result="hardAlpha"/>
<feOffset dy="4.6"/>
<feGaussianBlur stdDeviation="4.6"/>
<feComposite in2="hardAlpha" operator="arithmetic" k2="-1" k3="1"/>
<feColorMatrix type="matrix" values="0 0 0 0 0.317647 0 0 0 0 0.345098 0 0 0 0 0.964706 0 0 0 0.1 0"/>
<feBlend mode="normal" in2="shape" result="effect2_innerShadow"/>
<feColorMatrix in="SourceAlpha" type="matrix" values="0 0 0 0 0 0 0 0 0 0 0 0 0 0 0 0 0 0 127 0" result="hardAlpha"/>
<feOffset dy="-2.3"/>
<feGaussianBlur stdDeviation="1.15"/>
<feComposite in2="hardAlpha" operator="arithmetic" k2="-1" k3="1"/>
<feColorMatrix type="matrix" values="0 0 0 0 0.317647 0 0 0 0 0.345098 0 0 0 0 0.964706 0 0 0 0.05 0"/>
<feBlend mode="normal" in2="effect2_innerShadow" result="effect3_innerShadow"/>
</filter>
<filter id="filter2_dii" x="208.312" y="47.3917" width="64.0074" height="64.0073" filterUnits="userSpaceOnUse" color-interpolation-filters="sRGB">
<feFlood flood-opacity="0" result="BackgroundImageFix"/>
<feColorMatrix in="SourceAlpha" type="matrix" values="0 0 0 0 0 0 0 0 0 0 0 0 0 0 0 0 0 0 127 0" result="hardAlpha"/>
<feOffset dy="4.6"/>
<feGaussianBlur stdDeviation="4.6"/>
<feComposite in2="hardAlpha" operator="out"/>
<feColorMatrix type="matrix" values="0 0 0 0 0 0 0 0 0 0 0 0 0 0 0 0 0 0 0.05 0"/>
<feBlend mode="normal" in2="BackgroundImageFix" result="effect1_dropShadow"/>
<feBlend mode="normal" in="SourceGraphic" in2="effect1_dropShadow" result="shape"/>
<feColorMatrix in="SourceAlpha" type="matrix" values="0 0 0 0 0 0 0 0 0 0 0 0 0 0 0 0 0 0 127 0" result="hardAlpha"/>
<feOffset dy="4.6"/>
<feGaussianBlur stdDeviation="4.6"/>
<feComposite in2="hardAlpha" operator="arithmetic" k2="-1" k3="1"/>
<feColorMatrix type="matrix" values="0 0 0 0 0.317647 0 0 0 0 0.345098 0 0 0 0 0.964706 0 0 0 0.1 0"/>
<feBlend mode="normal" in2="shape" result="effect2_innerShadow"/>
<feColorMatrix in="SourceAlpha" type="matrix" values="0 0 0 0 0 0 0 0 0 0 0 0 0 0 0 0 0 0 127 0" result="hardAlpha"/>
<feOffset dy="-2.3"/>
<feGaussianBlur stdDeviation="1.15"/>
<feComposite in2="hardAlpha" operator="arithmetic" k2="-1" k3="1"/>
<feColorMatrix type="matrix" values="0 0 0 0 0.317647 0 0 0 0 0.345098 0 0 0 0 0.964706 0 0 0 0.05 0"/>
<feBlend mode="normal" in2="effect2_innerShadow" result="effect3_innerShadow"/>
</filter>
<filter id="filter3_dii" x="205.543" y="330.754" width="64.8513" height="64.8513" filterUnits="userSpaceOnUse" color-interpolation-filters="sRGB">
<feFlood flood-opacity="0" result="BackgroundImageFix"/>
<feColorMatrix in="SourceAlpha" type="matrix" values="0 0 0 0 0 0 0 0 0 0 0 0 0 0 0 0 0 0 127 0" result="hardAlpha"/>
<feOffset dy="4.6"/>
<feGaussianBlur stdDeviation="4.6"/>
<feComposite in2="hardAlpha" operator="out"/>
<feColorMatrix type="matrix" values="0 0 0 0 0 0 0 0 0 0 0 0 0 0 0 0 0 0 0.05 0"/>
<feBlend mode="normal" in2="BackgroundImageFix" result="effect1_dropShadow"/>
<feBlend mode="normal" in="SourceGraphic" in2="effect1_dropShadow" result="shape"/>
<feColorMatrix in="SourceAlpha" type="matrix" values="0 0 0 0 0 0 0 0 0 0 0 0 0 0 0 0 0 0 127 0" result="hardAlpha"/>
<feOffset dy="4.6"/>
<feGaussianBlur stdDeviation="4.6"/>
<feComposite in2="hardAlpha" operator="arithmetic" k2="-1" k3="1"/>
<feColorMatrix type="matrix" values="0 0 0 0 0.317647 0 0 0 0 0.345098 0 0 0 0 0.964706 0 0 0 0.1 0"/>
<feBlend mode="normal" in2="shape" result="effect2_innerShadow"/>
<feColorMatrix in="SourceAlpha" type="matrix" values="0 0 0 0 0 0 0 0 0 0 0 0 0 0 0 0 0 0 127 0" result="hardAlpha"/>
<feOffset dy="-2.3"/>
<feGaussianBlur stdDeviation="1.15"/>
<feComposite in2="hardAlpha" operator="arithmetic" k2="-1" k3="1"/>
<feColorMatrix type="matrix" values="0 0 0 0 0.317647 0 0 0 0 0.345098 0 0 0 0 0.964706 0 0 0 0.05 0"/>
<feBlend mode="normal" in2="effect2_innerShadow" result="effect3_innerShadow"/>
</filter>
<filter id="filter4_dii" x="34.1568" y="266.29" width="89.0705" height="89.0705" filterUnits="userSpaceOnUse" color-interpolation-filters="sRGB">
<feFlood flood-opacity="0" result="BackgroundImageFix"/>
<feColorMatrix in="SourceAlpha" type="matrix" values="0 0 0 0 0 0 0 0 0 0 0 0 0 0 0 0 0 0 127 0" result="hardAlpha"/>
<feOffset dy="6.3"/>
<feGaussianBlur stdDeviation="6.3"/>
<feComposite in2="hardAlpha" operator="out"/>
<feColorMatrix type="matrix" values="0 0 0 0 0 0 0 0 0 0 0 0 0 0 0 0 0 0 0.05 0"/>
<feBlend mode="normal" in2="BackgroundImageFix" result="effect1_dropShadow"/>
<feBlend mode="normal" in="SourceGraphic" in2="effect1_dropShadow" result="shape"/>
<feColorMatrix in="SourceAlpha" type="matrix" values="0 0 0 0 0 0 0 0 0 0 0 0 0 0 0 0 0 0 127 0" result="hardAlpha"/>
<feOffset dy="6.3"/>
<feGaussianBlur stdDeviation="6.3"/>
<feComposite in2="hardAlpha" operator="arithmetic" k2="-1" k3="1"/>
<feColorMatrix type="matrix" values="0 0 0 0 0.317647 0 0 0 0 0.345098 0 0 0 0 0.964706 0 0 0 0.1 0"/>
<feBlend mode="normal" in2="shape" result="effect2_innerShadow"/>
<feColorMatrix in="SourceAlpha" type="matrix" values="0 0 0 0 0 0 0 0 0 0 0 0 0 0 0 0 0 0 127 0" result="hardAlpha"/>
<feOffset dy="-3.15"/>
<feGaussianBlur stdDeviation="1.575"/>
<feComposite in2="hardAlpha" operator="arithmetic" k2="-1" k3="1"/>
<feColorMatrix type="matrix" values="0 0 0 0 0.317647 0 0 0 0 0.345098 0 0 0 0 0.964706 0 0 0 0.05 0"/>
<feBlend mode="normal" in2="effect2_innerShadow" result="effect3_innerShadow"/>
</filter>
<filter id="filter5_dii" x="3.6207" y="130.108" width="95.307" height="95.3074" filterUnits="userSpaceOnUse" color-interpolation-filters="sRGB">
<feFlood flood-opacity="0" result="BackgroundImageFix"/>
<feColorMatrix in="SourceAlpha" type="matrix" values="0 0 0 0 0 0 0 0 0 0 0 0 0 0 0 0 0 0 127 0" result="hardAlpha"/>
<feOffset dy="6.8"/>
<feGaussianBlur stdDeviation="6.8"/>
<feComposite in2="hardAlpha" operator="out"/>
<feColorMatrix type="matrix" values="0 0 0 0 0 0 0 0 0 0 0 0 0 0 0 0 0 0 0.05 0"/>
<feBlend mode="normal" in2="BackgroundImageFix" result="effect1_dropShadow"/>
<feBlend mode="normal" in="SourceGraphic" in2="effect1_dropShadow" result="shape"/>
<feColorMatrix in="SourceAlpha" type="matrix" values="0 0 0 0 0 0 0 0 0 0 0 0 0 0 0 0 0 0 127 0" result="hardAlpha"/>
<feOffset dy="6.8"/>
<feGaussianBlur stdDeviation="6.8"/>
<feComposite in2="hardAlpha" operator="arithmetic" k2="-1" k3="1"/>
<feColorMatrix type="matrix" values="0 0 0 0 0.317647 0 0 0 0 0.345098 0 0 0 0 0.964706 0 0 0 0.1 0"/>
<feBlend mode="normal" in2="shape" result="effect2_innerShadow"/>
<feColorMatrix in="SourceAlpha" type="matrix" values="0 0 0 0 0 0 0 0 0 0 0 0 0 0 0 0 0 0 127 0" result="hardAlpha"/>
<feOffset dy="-3.4"/>
<feGaussianBlur stdDeviation="1.7"/>
<feComposite in2="hardAlpha" operator="arithmetic" k2="-1" k3="1"/>
<feColorMatrix type="matrix" values="0 0 0 0 0.317647 0 0 0 0 0.345098 0 0 0 0 0.964706 0 0 0 0.05 0"/>
<feBlend mode="normal" in2="effect2_innerShadow" result="effect3_innerShadow"/>
</filter>
<filter id="filter6_dii" x="359.685" y="240.299" width="64.8513" height="64.8512" filterUnits="userSpaceOnUse" color-interpolation-filters="sRGB">
<feFlood flood-opacity="0" result="BackgroundImageFix"/>
<feColorMatrix in="SourceAlpha" type="matrix" values="0 0 0 0 0 0 0 0 0 0 0 0 0 0 0 0 0 0 127 0" result="hardAlpha"/>
<feOffset dy="4.6"/>
<feGaussianBlur stdDeviation="4.6"/>
<feComposite in2="hardAlpha" operator="out"/>
<feColorMatrix type="matrix" values="0 0 0 0 0 0 0 0 0 0 0 0 0 0 0 0 0 0 0.05 0"/>
<feBlend mode="normal" in2="BackgroundImageFix" result="effect1_dropShadow"/>
<feBlend mode="normal" in="SourceGraphic" in2="effect1_dropShadow" result="shape"/>
<feColorMatrix in="SourceAlpha" type="matrix" values="0 0 0 0 0 0 0 0 0 0 0 0 0 0 0 0 0 0 127 0" result="hardAlpha"/>
<feOffset dy="4.6"/>
<feGaussianBlur stdDeviation="4.6"/>
<feComposite in2="hardAlpha" operator="arithmetic" k2="-1" k3="1"/>
<feColorMatrix type="matrix" values="0 0 0 0 0.317647 0 0 0 0 0.345098 0 0 0 0 0.964706 0 0 0 0.1 0"/>
<feBlend mode="normal" in2="shape" result="effect2_innerShadow"/>
<feColorMatrix in="SourceAlpha" type="matrix" values="0 0 0 0 0 0 0 0 0 0 0 0 0 0 0 0 0 0 127 0" result="hardAlpha"/>
<feOffset dy="-2.3"/>
<feGaussianBlur stdDeviation="1.15"/>
<feComposite in2="hardAlpha" operator="arithmetic" k2="-1" k3="1"/>
<feColorMatrix type="matrix" values="0 0 0 0 0.317647 0 0 0 0 0.345098 0 0 0 0 0.964706 0 0 0 0.05 0"/>
<feBlend mode="normal" in2="effect2_innerShadow" result="effect3_innerShadow"/>
</filter>
<filter id="filter7_dii" x="297.444" y="357.321" width="68.1193" height="68.1193" filterUnits="userSpaceOnUse" color-interpolation-filters="sRGB">
<feFlood flood-opacity="0" result="BackgroundImageFix"/>
<feColorMatrix in="SourceAlpha" type="matrix" values="0 0 0 0 0 0 0 0 0 0 0 0 0 0 0 0 0 0 127 0" result="hardAlpha"/>
<feOffset dy="4.8"/>
<feGaussianBlur stdDeviation="4.8"/>
<feComposite in2="hardAlpha" operator="out"/>
<feColorMatrix type="matrix" values="0 0 0 0 0 0 0 0 0 0 0 0 0 0 0 0 0 0 0.05 0"/>
<feBlend mode="normal" in2="BackgroundImageFix" result="effect1_dropShadow"/>
<feBlend mode="normal" in="SourceGraphic" in2="effect1_dropShadow" result="shape"/>
<feColorMatrix in="SourceAlpha" type="matrix" values="0 0 0 0 0 0 0 0 0 0 0 0 0 0 0 0 0 0 127 0" result="hardAlpha"/>
<feOffset dy="4.8"/>
<feGaussianBlur stdDeviation="4.8"/>
<feComposite in2="hardAlpha" operator="arithmetic" k2="-1" k3="1"/>
<feColorMatrix type="matrix" values="0 0 0 0 0.317647 0 0 0 0 0.345098 0 0 0 0 0.964706 0 0 0 0.1 0"/>
<feBlend mode="normal" in2="shape" result="effect2_innerShadow"/>
<feColorMatrix in="SourceAlpha" type="matrix" values="0 0 0 0 0 0 0 0 0 0 0 0 0 0 0 0 0 0 127 0" result="hardAlpha"/>
<feOffset dy="-2.4"/>
<feGaussianBlur stdDeviation="1.2"/>
<feComposite in2="hardAlpha" operator="arithmetic" k2="-1" k3="1"/>
<feColorMatrix type="matrix" values="0 0 0 0 0.317647 0 0 0 0 0.345098 0 0 0 0 0.964706 0 0 0 0.05 0"/>
<feBlend mode="normal" in2="effect2_innerShadow" result="effect3_innerShadow"/>
</filter>
<filter id="filter8_dii" x="312.962" y="10.784" width="223.038" height="224.588" filterUnits="userSpaceOnUse" color-interpolation-filters="sRGB">
<feFlood flood-opacity="0" result="BackgroundImageFix"/>
<feColorMatrix in="SourceAlpha" type="matrix" values="0 0 0 0 0 0 0 0 0 0 0 0 0 0 0 0 0 0 127 0" result="hardAlpha"/>
<feOffset dy="8"/>
<feGaussianBlur stdDeviation="8"/>
<feComposite in2="hardAlpha" operator="out"/>
<feColorMatrix type="matrix" values="0 0 0 0 0 0 0 0 0 0 0 0 0 0 0 0 0 0 0.05 0"/>
<feBlend mode="normal" in2="BackgroundImageFix" result="effect1_dropShadow"/>
<feBlend mode="normal" in="SourceGraphic" in2="effect1_dropShadow" result="shape"/>
<feColorMatrix in="SourceAlpha" type="matrix" values="0 0 0 0 0 0 0 0 0 0 0 0 0 0 0 0 0 0 127 0" result="hardAlpha"/>
<feOffset dy="19.1"/>
<feGaussianBlur stdDeviation="19.1"/>
<feComposite in2="hardAlpha" operator="arithmetic" k2="-1" k3="1"/>
<feColorMatrix type="matrix" values="0 0 0 0 1 0 0 0 0 1 0 0 0 0 1 0 0 0 0.2 0"/>
<feBlend mode="normal" in2="shape" result="effect2_innerShadow"/>
<feColorMatrix in="SourceAlpha" type="matrix" values="0 0 0 0 0 0 0 0 0 0 0 0 0 0 0 0 0 0 127 0" result="hardAlpha"/>
<feOffset dy="-9.55"/>
<feGaussianBlur stdDeviation="4.775"/>
<feComposite in2="hardAlpha" operator="arithmetic" k2="-1" k3="1"/>
<feColorMatrix type="matrix" values="0 0 0 0 1 0 0 0 0 1 0 0 0 0 1 0 0 0 0.15 0"/>
<feBlend mode="normal" in2="effect2_innerShadow" result="effect3_innerShadow"/>
</filter>
<clipPath id="clip0">
<rect width="528" height="467" fill="white"/>
</clipPath>
</defs>
</svg>
