<svg width="121" height="32" viewBox="0 0 121 32" fill="none" xmlns="http://www.w3.org/2000/svg">
<path d="M62.408 13L62.396 5.81204L58.88 11.884H58.58L55.064 5.83604V13H54.464V4.60004H54.98L58.736 11.092L62.492 4.60004H62.996L63.008 13H62.408ZM69.7047 13.06C68.6407 13.06 67.8127 12.752 67.2207 12.136C66.6367 11.52 66.3447 10.62 66.3447 9.43604V4.60004H66.9567V9.41204C66.9567 10.444 67.1927 11.216 67.6647 11.728C68.1367 12.24 68.8207 12.496 69.7167 12.496C70.6047 12.496 71.2847 12.24 71.7567 11.728C72.2287 11.216 72.4647 10.444 72.4647 9.41204V4.60004H73.0767V9.43604C73.0767 10.62 72.7807 11.52 72.1887 12.136C71.5967 12.752 70.7687 13.06 69.7047 13.06ZM79.9763 13.06C79.1523 13.06 78.4083 12.876 77.7443 12.508C77.0803 12.132 76.5563 11.62 76.1723 10.972C75.7963 10.324 75.6083 9.60004 75.6083 8.80004C75.6083 8.00004 75.7963 7.27604 76.1723 6.62804C76.5563 5.98004 77.0803 5.47204 77.7443 5.10404C78.4083 4.72804 79.1523 4.54004 79.9763 4.54004C80.8003 4.54004 81.5443 4.72404 82.2083 5.09204C82.8723 5.46004 83.3923 5.96804 83.7683 6.61604C84.1523 7.26404 84.3443 7.99204 84.3443 8.80004C84.3443 9.60804 84.1523 10.336 83.7683 10.984C83.3923 11.632 82.8723 12.14 82.2083 12.508C81.5443 12.876 80.8003 13.06 79.9763 13.06ZM79.9763 12.496C80.6803 12.496 81.3163 12.336 81.8843 12.016C82.4523 11.696 82.9003 11.256 83.2283 10.696C83.5563 10.128 83.7203 9.49604 83.7203 8.80004C83.7203 8.10404 83.5563 7.47604 83.2283 6.91604C82.9003 6.34804 82.4523 5.90404 81.8843 5.58404C81.3163 5.26404 80.6803 5.10404 79.9763 5.10404C79.2723 5.10404 78.6323 5.26404 78.0563 5.58404C77.4883 5.90404 77.0403 6.34804 76.7123 6.91604C76.3843 7.47604 76.2203 8.10404 76.2203 8.80004C76.2203 9.49604 76.3843 10.128 76.7123 10.696C77.0403 11.256 77.4883 11.696 78.0563 12.016C78.6323 12.336 79.2723 12.496 79.9763 12.496ZM93.787 4.60004V13H93.283L87.559 5.70404V13H86.947V4.60004H87.463L93.175 11.896V4.60004H93.787ZM61.304 19.6V28H60.8L55.076 20.704V28H54.464V19.6H54.98L60.692 26.896V19.6H61.304ZM70.5134 27.448V28H64.7174V19.6H70.3334V20.152H65.3294V23.464H69.8054V24.004H65.3294V27.448H70.5134ZM74.8328 20.152H71.8088V19.6H78.4688V20.152H75.4448V28H74.8328V20.152ZM91.6633 19.6L88.8193 28H88.1713L85.5673 20.464L82.9513 28H82.3033L79.4473 19.6H80.0953L82.6513 27.16L85.2793 19.6H85.8673L88.4833 27.172L91.0633 19.6H91.6633ZM97.3894 28.06C96.5654 28.06 95.8214 27.876 95.1574 27.508C94.4934 27.132 93.9694 26.62 93.5854 25.972C93.2094 25.324 93.0214 24.6 93.0214 23.8C93.0214 23 93.2094 22.276 93.5854 21.628C93.9694 20.98 94.4934 20.472 95.1574 20.104C95.8214 19.728 96.5654 19.54 97.3894 19.54C98.2134 19.54 98.9574 19.724 99.6214 20.092C100.285 20.46 100.805 20.968 101.181 21.616C101.565 22.264 101.757 22.992 101.757 23.8C101.757 24.608 101.565 25.336 101.181 25.984C100.805 26.632 100.285 27.14 99.6214 27.508C98.9574 27.876 98.2134 28.06 97.3894 28.06ZM97.3894 27.496C98.0934 27.496 98.7294 27.336 99.2974 27.016C99.8654 26.696 100.313 26.256 100.641 25.696C100.969 25.128 101.133 24.496 101.133 23.8C101.133 23.104 100.969 22.476 100.641 21.916C100.313 21.348 99.8654 20.904 99.2974 20.584C98.7294 20.264 98.0934 20.104 97.3894 20.104C96.6854 20.104 96.0454 20.264 95.4694 20.584C94.9014 20.904 94.4534 21.348 94.1254 21.916C93.7974 22.476 93.6334 23.104 93.6334 23.8C93.6334 24.496 93.7974 25.128 94.1254 25.696C94.4534 26.256 94.9014 26.696 95.4694 27.016C96.0454 27.336 96.6854 27.496 97.3894 27.496ZM110.192 28L108.188 25.192C107.892 25.232 107.62 25.252 107.372 25.252H104.972V28H104.36V19.6H107.372C108.428 19.6 109.256 19.852 109.856 20.356C110.456 20.852 110.756 21.544 110.756 22.432C110.756 23.096 110.584 23.656 110.24 24.112C109.904 24.56 109.42 24.876 108.788 25.06L110.888 28H110.192ZM107.372 24.712C108.268 24.712 108.952 24.516 109.424 24.124C109.896 23.724 110.132 23.16 110.132 22.432C110.132 21.704 109.896 21.144 109.424 20.752C108.952 20.352 108.268 20.152 107.372 20.152H104.972V24.712H107.372ZM115.973 23.86L114.089 25.792V28H113.477V19.6H114.089V25L119.333 19.6H120.077L116.381 23.416L120.329 28H119.585L115.973 23.86Z" fill="white"/>
<path d="M0.589774 20.7278C0.915497 20.7278 1.17955 20.4638 1.17955 20.138C1.17955 19.8123 0.915497 19.5483 0.589774 19.5483C0.264051 19.5483 0 19.8123 0 20.138C0 20.4638 0.264051 20.7278 0.589774 20.7278Z" fill="white"/>
<path d="M8.78936 20.0141C9.11508 20.0141 9.37914 19.75 9.37914 19.4243C9.37914 19.0986 9.11508 18.8345 8.78936 18.8345C8.46364 18.8345 8.19958 19.0986 8.19958 19.4243C8.19958 19.75 8.46364 20.0141 8.78936 20.0141Z" fill="white"/>
<path d="M11.1585 23.3914C11.4842 23.3914 11.7483 23.1274 11.7483 22.8016C11.7483 22.4759 11.4842 22.2119 11.1585 22.2119C10.8328 22.2119 10.5687 22.4759 10.5687 22.8016C10.5687 23.1274 10.8328 23.3914 11.1585 23.3914Z" fill="white"/>
<path d="M18.1501 20.9178C18.4758 20.9178 18.7399 20.6538 18.7399 20.3281C18.7399 20.0024 18.4758 19.7383 18.1501 19.7383C17.8244 19.7383 17.5603 20.0024 17.5603 20.3281C17.5603 20.6538 17.8244 20.9178 18.1501 20.9178Z" fill="white"/>
<path d="M1.06536 2.73961C1.39108 2.73961 1.65513 2.47556 1.65513 2.14983C1.65513 1.82411 1.39108 1.56006 1.06536 1.56006C0.739637 1.56006 0.475586 1.82411 0.475586 2.14983C0.475586 2.47556 0.739637 2.73961 1.06536 2.73961Z" fill="white"/>
<path d="M1.68407 10.1975C2.18842 10.1975 2.59727 9.78863 2.59727 9.28429C2.59727 8.77994 2.18842 8.37109 1.68407 8.37109C1.17973 8.37109 0.770874 8.77994 0.770874 9.28429C0.770874 9.78863 1.17973 10.1975 1.68407 10.1975Z" fill="white"/>
<path d="M16.523 18.7588C16.9432 18.7588 17.284 18.4181 17.284 17.9978C17.284 17.5775 16.9432 17.2368 16.523 17.2368C16.1027 17.2368 15.762 17.5775 15.762 17.9978C15.762 18.4181 16.1027 18.7588 16.523 18.7588Z" fill="white"/>
<path d="M1.17921 28.0331C1.5995 28.0331 1.94021 27.6924 1.94021 27.2722C1.94021 26.8519 1.5995 26.5112 1.17921 26.5112C0.758924 26.5112 0.418213 26.8519 0.418213 27.2722C0.418213 27.6924 0.758924 28.0331 1.17921 28.0331Z" fill="white"/>
<path d="M7.04889 23.9906C7.51121 23.9906 7.88599 23.6158 7.88599 23.1535C7.88599 22.6912 7.51121 22.3164 7.04889 22.3164C6.58657 22.3164 6.21179 22.6912 6.21179 23.1535C6.21179 23.6158 6.58657 23.9906 7.04889 23.9906Z" fill="white"/>
<path d="M13.5176 26.8445C13.8853 26.8445 14.1834 26.5463 14.1834 26.1786C14.1834 25.8108 13.8853 25.5127 13.5176 25.5127C13.1498 25.5127 12.8517 25.8108 12.8517 26.1786C12.8517 26.5463 13.1498 26.8445 13.5176 26.8445Z" fill="white"/>
<path d="M3.56717 31.667C4.1188 31.667 4.56598 31.2199 4.56598 30.6682C4.56598 30.1166 4.1188 29.6694 3.56717 29.6694C3.01554 29.6694 2.56836 30.1166 2.56836 30.6682C2.56836 31.2199 3.01554 31.667 3.56717 31.667Z" fill="white"/>
<path d="M7.54323 6.94389C8.38906 6.94389 9.07474 6.2582 9.07474 5.41237C9.07474 4.56654 8.38906 3.88086 7.54323 3.88086C6.6974 3.88086 6.01172 4.56654 6.01172 5.41237C6.01172 6.2582 6.6974 6.94389 7.54323 6.94389Z" fill="white"/>
<path d="M5.16504 3.3484C6.08968 3.3484 6.83924 2.59883 6.83924 1.6742C6.83924 0.749564 6.08968 0 5.16504 0C4.24041 0 3.49084 0.749564 3.49084 1.6742C3.49084 2.59883 4.24041 3.3484 5.16504 3.3484Z" fill="white"/>
<path d="M5.78343 10.7111C6.57673 10.7111 7.21982 10.0681 7.21982 9.27476C7.21982 8.48147 6.57673 7.83838 5.78343 7.83838C4.99014 7.83838 4.34705 8.48147 4.34705 9.27476C4.34705 10.0681 4.99014 10.7111 5.78343 10.7111Z" fill="white"/>
<path d="M9.91226 10.0738C10.7476 10.0738 11.4248 9.39663 11.4248 8.56131C11.4248 7.72599 10.7476 7.04883 9.91226 7.04883C9.07694 7.04883 8.39978 7.72599 8.39978 8.56131C8.39978 9.39663 9.07694 10.0738 9.91226 10.0738Z" fill="white"/>
<path d="M4.06174 14.0881C4.86029 14.0881 5.50764 13.4408 5.50764 12.6422C5.50764 11.8437 4.86029 11.1963 4.06174 11.1963C3.2632 11.1963 2.61584 11.8437 2.61584 12.6422C2.61584 13.4408 3.2632 14.0881 4.06174 14.0881Z" fill="white"/>
<path d="M8.16178 13.679C8.92355 13.679 9.54109 13.0615 9.54109 12.2997C9.54109 11.5379 8.92355 10.9204 8.16178 10.9204C7.40001 10.9204 6.78247 11.5379 6.78247 12.2997C6.78247 13.0615 7.40001 13.679 8.16178 13.679Z" fill="white"/>
<path d="M12.2904 13.1368C12.9523 13.1368 13.4889 12.6002 13.4889 11.9383C13.4889 11.2763 12.9523 10.7397 12.2904 10.7397C11.6284 10.7397 11.0918 11.2763 11.0918 11.9383C11.0918 12.6002 11.6284 13.1368 12.2904 13.1368Z" fill="white"/>
<path d="M10.5495 16.8844C11.2115 16.8844 11.7481 16.3478 11.7481 15.6859C11.7481 15.0239 11.2115 14.4873 10.5495 14.4873C9.88757 14.4873 9.35095 15.0239 9.35095 15.6859C9.35095 16.3478 9.88757 16.8844 10.5495 16.8844Z" fill="white"/>
<path d="M6.41159 17.2463C7.07354 17.2463 7.61016 16.7097 7.61016 16.0477C7.61016 15.3858 7.07354 14.8491 6.41159 14.8491C5.74963 14.8491 5.21301 15.3858 5.21301 16.0477C5.21301 16.7097 5.74963 17.2463 6.41159 17.2463Z" fill="white"/>
<path d="M4.68022 21.1366C5.43674 21.1366 6.05002 20.5233 6.05002 19.7668C6.05002 19.0103 5.43674 18.397 4.68022 18.397C3.9237 18.397 3.31042 19.0103 3.31042 19.7668C3.31042 20.5233 3.9237 21.1366 4.68022 21.1366Z" fill="white"/>
<path d="M2.92976 24.7228C3.60222 24.7228 4.14735 24.1777 4.14735 23.5052C4.14735 22.8328 3.60222 22.2876 2.92976 22.2876C2.2573 22.2876 1.71216 22.8328 1.71216 23.5052C1.71216 24.1777 2.2573 24.7228 2.92976 24.7228Z" fill="white"/>
<path d="M15.2674 23.7811C16.0187 23.7811 16.6277 23.1721 16.6277 22.4208C16.6277 21.6695 16.0187 21.0605 15.2674 21.0605C14.5161 21.0605 13.9071 21.6695 13.9071 22.4208C13.9071 23.1721 14.5161 23.7811 15.2674 23.7811Z" fill="white"/>
<path d="M12.8897 20.433C13.6462 20.433 14.2595 19.8198 14.2595 19.0632C14.2595 18.3067 13.6462 17.6934 12.8897 17.6934C12.1332 17.6934 11.5199 18.3067 11.5199 19.0632C11.5199 19.8198 12.1332 20.433 12.8897 20.433Z" fill="white"/>
<path d="M5.28874 28.2806C6.04526 28.2806 6.65854 27.6673 6.65854 26.9108C6.65854 26.1543 6.04526 25.541 5.28874 25.541C4.53223 25.541 3.91895 26.1543 3.91895 26.9108C3.91895 27.6673 4.53223 28.2806 5.28874 28.2806Z" fill="white"/>
<path d="M2.28309 17.4175C2.84523 17.4175 3.30093 16.9618 3.30093 16.3996C3.30093 15.8375 2.84523 15.3818 2.28309 15.3818C1.72096 15.3818 1.26526 15.8375 1.26526 16.3996C1.26526 16.9618 1.72096 17.4175 2.28309 17.4175Z" fill="white"/>
<path d="M14.6585 16.3331C15.2206 16.3331 15.6763 15.8774 15.6763 15.3153C15.6763 14.7531 15.2206 14.2974 14.6585 14.2974C14.0963 14.2974 13.6406 14.7531 13.6406 15.3153C13.6406 15.8774 14.0963 16.3331 14.6585 16.3331Z" fill="white"/>
<path d="M3.43387 7.03913C4.26919 7.03913 4.94636 6.36197 4.94636 5.52665C4.94636 4.69132 4.26919 4.01416 3.43387 4.01416C2.59855 4.01416 1.92139 4.69132 1.92139 5.52665C1.92139 6.36197 2.59855 7.03913 3.43387 7.03913Z" fill="white"/>
<path d="M39.4105 20.7278C39.7362 20.7278 40.0002 20.4638 40.0002 20.138C40.0002 19.8123 39.7362 19.5483 39.4105 19.5483C39.0847 19.5483 38.8207 19.8123 38.8207 20.138C38.8207 20.4638 39.0847 20.7278 39.4105 20.7278Z" fill="white"/>
<path d="M31.2101 20.0141C31.5359 20.0141 31.7999 19.75 31.7999 19.4243C31.7999 19.0986 31.5359 18.8345 31.2101 18.8345C30.8844 18.8345 30.6204 19.0986 30.6204 19.4243C30.6204 19.75 30.8844 20.0141 31.2101 20.0141Z" fill="white"/>
<path d="M28.8419 23.3914C29.1676 23.3914 29.4316 23.1274 29.4316 22.8016C29.4316 22.4759 29.1676 22.2119 28.8419 22.2119C28.5161 22.2119 28.2521 22.4759 28.2521 22.8016C28.2521 23.1274 28.5161 23.3914 28.8419 23.3914Z" fill="white"/>
<path d="M21.8502 20.9178C22.1759 20.9178 22.4399 20.6538 22.4399 20.3281C22.4399 20.0024 22.1759 19.7383 21.8502 19.7383C21.5244 19.7383 21.2604 20.0024 21.2604 20.3281C21.2604 20.6538 21.5244 20.9178 21.8502 20.9178Z" fill="white"/>
<path d="M38.9349 2.73961C39.2606 2.73961 39.5246 2.47556 39.5246 2.14983C39.5246 1.82411 39.2606 1.56006 38.9349 1.56006C38.6091 1.56006 38.3451 1.82411 38.3451 2.14983C38.3451 2.47556 38.6091 2.73961 38.9349 2.73961Z" fill="white"/>
<path d="M38.3161 10.1975C38.8205 10.1975 39.2293 9.78863 39.2293 9.28429C39.2293 8.77994 38.8205 8.37109 38.3161 8.37109C37.8118 8.37109 37.403 8.77994 37.403 9.28429C37.403 9.78863 37.8118 10.1975 38.3161 10.1975Z" fill="white"/>
<path d="M23.4769 18.7588C23.8972 18.7588 24.2379 18.4181 24.2379 17.9978C24.2379 17.5775 23.8972 17.2368 23.4769 17.2368C23.0567 17.2368 22.7159 17.5775 22.7159 17.9978C22.7159 18.4181 23.0567 18.7588 23.4769 18.7588Z" fill="white"/>
<path d="M38.8207 28.0331C39.241 28.0331 39.5817 27.6924 39.5817 27.2722C39.5817 26.8519 39.241 26.5112 38.8207 26.5112C38.4004 26.5112 38.0597 26.8519 38.0597 27.2722C38.0597 27.6924 38.4004 28.0331 38.8207 28.0331Z" fill="white"/>
<path d="M32.9516 23.9906C33.4139 23.9906 33.7887 23.6158 33.7887 23.1535C33.7887 22.6912 33.4139 22.3164 32.9516 22.3164C32.4893 22.3164 32.1145 22.6912 32.1145 23.1535C32.1145 23.6158 32.4893 23.9906 32.9516 23.9906Z" fill="white"/>
<path d="M26.4824 26.8445C26.8502 26.8445 27.1483 26.5463 27.1483 26.1786C27.1483 25.8108 26.8502 25.5127 26.4824 25.5127C26.1146 25.5127 25.8165 25.8108 25.8165 26.1786C25.8165 26.5463 26.1146 26.8445 26.4824 26.8445Z" fill="white"/>
<path d="M36.4328 31.667C36.9844 31.667 37.4316 31.2199 37.4316 30.6682C37.4316 30.1166 36.9844 29.6694 36.4328 29.6694C35.8811 29.6694 35.434 30.1166 35.434 30.6682C35.434 31.2199 35.8811 31.667 36.4328 31.667Z" fill="white"/>
<path d="M32.4569 6.94389C33.3028 6.94389 33.9884 6.2582 33.9884 5.41237C33.9884 4.56654 33.3028 3.88086 32.4569 3.88086C31.6111 3.88086 30.9254 4.56654 30.9254 5.41237C30.9254 6.2582 31.6111 6.94389 32.4569 6.94389Z" fill="white"/>
<path d="M34.8351 3.3484C35.7597 3.3484 36.5093 2.59883 36.5093 1.6742C36.5093 0.749564 35.7597 0 34.8351 0C33.9105 0 33.1609 0.749564 33.1609 1.6742C33.1609 2.59883 33.9105 3.3484 34.8351 3.3484Z" fill="white"/>
<path d="M34.2167 10.7111C35.0099 10.7111 35.653 10.0681 35.653 9.27476C35.653 8.48147 35.0099 7.83838 34.2167 7.83838C33.4234 7.83838 32.7803 8.48147 32.7803 9.27476C32.7803 10.0681 33.4234 10.7111 34.2167 10.7111Z" fill="white"/>
<path d="M30.0877 10.0738C30.923 10.0738 31.6002 9.39663 31.6002 8.56131C31.6002 7.72599 30.923 7.04883 30.0877 7.04883C29.2524 7.04883 28.5752 7.72599 28.5752 8.56131C28.5752 9.39663 29.2524 10.0738 30.0877 10.0738Z" fill="white"/>
<path d="M35.9386 14.0881C36.7371 14.0881 37.3845 13.4408 37.3845 12.6422C37.3845 11.8437 36.7371 11.1963 35.9386 11.1963C35.14 11.1963 34.4927 11.8437 34.4927 12.6422C34.4927 13.4408 35.14 14.0881 35.9386 14.0881Z" fill="white"/>
<path d="M31.838 13.679C32.5998 13.679 33.2174 13.0615 33.2174 12.2997C33.2174 11.5379 32.5998 10.9204 31.838 10.9204C31.0763 10.9204 30.4587 11.5379 30.4587 12.2997C30.4587 13.0615 31.0763 13.679 31.838 13.679Z" fill="white"/>
<path d="M27.7097 13.1368C28.3716 13.1368 28.9083 12.6002 28.9083 11.9383C28.9083 11.2763 28.3716 10.7397 27.7097 10.7397C27.0477 10.7397 26.5111 11.2763 26.5111 11.9383C26.5111 12.6002 27.0477 13.1368 27.7097 13.1368Z" fill="white"/>
<path d="M29.4506 16.8844C30.1126 16.8844 30.6492 16.3478 30.6492 15.6859C30.6492 15.0239 30.1126 14.4873 29.4506 14.4873C28.7887 14.4873 28.2521 15.0239 28.2521 15.6859C28.2521 16.3478 28.7887 16.8844 29.4506 16.8844Z" fill="white"/>
<path d="M33.5886 17.2463C34.2505 17.2463 34.7872 16.7097 34.7872 16.0477C34.7872 15.3858 34.2505 14.8491 33.5886 14.8491C32.9266 14.8491 32.39 15.3858 32.39 16.0477C32.39 16.7097 32.9266 17.2463 33.5886 17.2463Z" fill="white"/>
<path d="M35.3195 21.1366C36.076 21.1366 36.6893 20.5233 36.6893 19.7668C36.6893 19.0103 36.076 18.397 35.3195 18.397C34.563 18.397 33.9497 19.0103 33.9497 19.7668C33.9497 20.5233 34.563 21.1366 35.3195 21.1366Z" fill="white"/>
<path d="M37.0698 24.7228C37.7422 24.7228 38.2874 24.1777 38.2874 23.5052C38.2874 22.8328 37.7422 22.2876 37.0698 22.2876C36.3973 22.2876 35.8522 22.8328 35.8522 23.5052C35.8522 24.1777 36.3973 24.7228 37.0698 24.7228Z" fill="white"/>
<path d="M24.7322 23.7811C25.4835 23.7811 26.0925 23.1721 26.0925 22.4208C26.0925 21.6695 25.4835 21.0605 24.7322 21.0605C23.981 21.0605 23.3719 21.6695 23.3719 22.4208C23.3719 23.1721 23.981 23.7811 24.7322 23.7811Z" fill="white"/>
<path d="M27.1109 20.433C27.8674 20.433 28.4807 19.8198 28.4807 19.0632C28.4807 18.3067 27.8674 17.6934 27.1109 17.6934C26.3544 17.6934 25.7411 18.3067 25.7411 19.0632C25.7411 19.8198 26.3544 20.433 27.1109 20.433Z" fill="white"/>
<path d="M34.7111 28.2806C35.4676 28.2806 36.0809 27.6673 36.0809 26.9108C36.0809 26.1543 35.4676 25.541 34.7111 25.541C33.9546 25.541 33.3413 26.1543 33.3413 26.9108C33.3413 27.6673 33.9546 28.2806 34.7111 28.2806Z" fill="white"/>
<path d="M37.7171 17.4175C38.2792 17.4175 38.7349 16.9618 38.7349 16.3996C38.7349 15.8375 38.2792 15.3818 37.7171 15.3818C37.1549 15.3818 36.6992 15.8375 36.6992 16.3996C36.6992 16.9618 37.1549 17.4175 37.7171 17.4175Z" fill="white"/>
<path d="M25.3412 16.3331C25.9033 16.3331 26.359 15.8774 26.359 15.3153C26.359 14.7531 25.9033 14.2974 25.3412 14.2974C24.7791 14.2974 24.3234 14.7531 24.3234 15.3153C24.3234 15.8774 24.7791 16.3331 25.3412 16.3331Z" fill="white"/>
<path d="M36.566 7.03913C37.4013 7.03913 38.0784 6.36197 38.0784 5.52665C38.0784 4.69132 37.4013 4.01416 36.566 4.01416C35.7306 4.01416 35.0535 4.69132 35.0535 5.52665C35.0535 6.36197 35.7306 7.03913 36.566 7.03913Z" fill="white"/>
<path d="M17.6363 27.0153C18.2983 27.0153 18.8349 26.4787 18.8349 25.8168C18.8349 25.1548 18.2983 24.6182 17.6363 24.6182C16.9744 24.6182 16.4377 25.1548 16.4377 25.8168C16.4377 26.4787 16.9744 27.0153 17.6363 27.0153Z" fill="white"/>
<path d="M22.3639 27.0153C23.0258 27.0153 23.5624 26.4787 23.5624 25.8168C23.5624 25.1548 23.0258 24.6182 22.3639 24.6182C21.7019 24.6182 21.1653 25.1548 21.1653 25.8168C21.1653 26.4787 21.7019 27.0153 22.3639 27.0153Z" fill="white"/>
<path d="M20.0045 23.9521C20.5614 23.9521 21.0129 23.5007 21.0129 22.9438C21.0129 22.3869 20.5614 21.9355 20.0045 21.9355C19.4477 21.9355 18.9962 22.3869 18.9962 22.9438C18.9962 23.5007 19.4477 23.9521 20.0045 23.9521Z" fill="white"/>
<path d="M15.8956 30.2213C16.2634 30.2213 16.5615 29.9232 16.5615 29.5554C16.5615 29.1877 16.2634 28.8896 15.8956 28.8896C15.5279 28.8896 15.2297 29.1877 15.2297 29.5554C15.2297 29.9232 15.5279 30.2213 15.8956 30.2213Z" fill="white"/>
<path d="M24.1043 30.2213C24.4721 30.2213 24.7702 29.9232 24.7702 29.5554C24.7702 29.1877 24.4721 28.8896 24.1043 28.8896C23.7366 28.8896 23.4385 29.1877 23.4385 29.5554C23.4385 29.9232 23.7366 30.2213 24.1043 30.2213Z" fill="white"/>
<path d="M20.0045 30.2974C20.5614 30.2974 21.0129 29.846 21.0129 29.2891C21.0129 28.7322 20.5614 28.2808 20.0045 28.2808C19.4477 28.2808 18.9962 28.7322 18.9962 29.2891C18.9962 29.846 19.4477 30.2974 20.0045 30.2974Z" fill="white"/>
</svg>
