<svg width="1006" height="1116" viewBox="0 0 1006 1116" fill="none" xmlns="http://www.w3.org/2000/svg">
<g filter="url(#filter0_d_1373_3537)">
<path fill-rule="evenodd" clip-rule="evenodd" d="M345.99 524.87L334.973 489.709L371.665 493.233L408.335 496.75L397.235 510.442L437.412 543.026L408.362 578.846L368.191 546.267L357.027 560.038L345.99 524.87ZM670.499 525.53L682.501 492.102L647.037 494.061L611.573 496.019L621.762 509.67L581.796 539.49L608.371 575.108L648.333 545.291L658.518 558.952L670.499 525.53ZM359.311 696.635L365.274 713.225L329.496 704.447L293.697 695.669L315.696 666.111L337.718 636.553L343.713 653.234L392.383 635.73L407.991 679.129L359.311 696.635ZM618.673 641.842L603.481 683.605L650.341 700.651L644.516 716.659L679.041 708.321L713.566 699.983L692.446 671.428L671.347 642.873L665.529 658.887L618.673 641.842ZM484.011 783.44L484.375 732.231L529.957 732.555L529.593 783.772L547.032 783.895L526.704 814.095L506.353 844.319L486.435 813.813L466.539 783.308L484.011 783.44Z" fill="url(#paint0_linear_1373_3537)"/>
<path d="M527.649 504.129C598.247 515.57 646.203 582.075 634.762 652.673C623.322 723.271 556.816 771.227 486.219 759.786C415.621 748.345 367.665 681.84 379.106 611.243C390.547 540.645 457.052 492.689 527.649 504.129Z" fill="#3E4559" stroke="white" stroke-width="3"/>
<path d="M600.86 673.061C623.561 621.187 599.912 560.733 548.038 538.032C496.165 515.331 435.71 538.98 413.01 590.854C390.309 642.728 413.958 703.182 465.832 725.883C517.705 748.584 578.159 724.934 600.86 673.061Z" fill="url(#paint1_linear_1373_3537)"/>
<path d="M595.532 653.07C607.226 604.113 577.02 554.946 528.064 543.251C479.107 531.557 429.94 561.763 418.245 610.719C406.551 659.676 436.757 708.843 485.713 720.537C534.67 732.232 583.837 702.026 595.532 653.07Z" fill="url(#paint2_linear_1373_3537)"/>
<path d="M609.358 690.782C641.835 634.2 622.294 562.002 565.712 529.525C509.129 497.047 436.931 516.589 404.454 573.171C371.977 629.754 391.518 701.951 448.1 734.429C504.683 766.906 576.88 747.365 609.358 690.782Z" stroke="url(#paint3_linear_1373_3537)" stroke-width="0.5" stroke-miterlimit="10"/>
<path d="M616.817 655.664C629.895 594.996 591.316 535.213 530.648 522.135C469.98 509.057 410.198 547.636 397.119 608.304C384.041 668.971 422.62 728.754 483.288 741.832C543.956 754.911 603.739 716.332 616.817 655.664Z" stroke="url(#paint4_linear_1373_3537)" stroke-width="0.5" stroke-miterlimit="10"/>
<path d="M437.418 619.55H424.658V613.5H457.328V619.55H444.568V652H437.418V619.55ZM472.227 652.385C469.257 652.385 466.58 651.743 464.197 650.46C461.813 649.177 459.943 647.398 458.587 645.125C457.267 642.815 456.607 640.212 456.607 637.315C456.607 634.418 457.267 631.833 458.587 629.56C459.943 627.287 461.813 625.508 464.197 624.225C466.58 622.942 469.257 622.3 472.227 622.3C475.233 622.3 477.928 622.942 480.312 624.225C482.695 625.508 484.547 627.287 485.867 629.56C487.223 631.833 487.902 634.418 487.902 637.315C487.902 640.212 487.223 642.815 485.867 645.125C484.547 647.398 482.695 649.177 480.312 650.46C477.928 651.743 475.233 652.385 472.227 652.385ZM472.227 646.5C474.757 646.5 476.847 645.657 478.497 643.97C480.147 642.283 480.972 640.065 480.972 637.315C480.972 634.565 480.147 632.347 478.497 630.66C476.847 628.973 474.757 628.13 472.227 628.13C469.697 628.13 467.607 628.973 465.957 630.66C464.343 632.347 463.537 634.565 463.537 637.315C463.537 640.065 464.343 642.283 465.957 643.97C467.607 645.657 469.697 646.5 472.227 646.5ZM506.466 639.405L501.351 644.245V652H494.476V611.19H501.351V635.83L515.596 622.63H523.846L511.581 634.95L525.001 652H516.641L506.466 639.405ZM555.816 637.48C555.816 637.957 555.78 638.635 555.706 639.515H532.661C533.065 641.678 534.11 643.402 535.796 644.685C537.52 645.932 539.646 646.555 542.176 646.555C545.403 646.555 548.061 645.492 550.151 643.365L553.836 647.6C552.516 649.177 550.848 650.368 548.831 651.175C546.815 651.982 544.541 652.385 542.011 652.385C538.785 652.385 535.943 651.743 533.486 650.46C531.03 649.177 529.123 647.398 527.766 645.125C526.446 642.815 525.786 640.212 525.786 637.315C525.786 634.455 526.428 631.888 527.711 629.615C529.031 627.305 530.846 625.508 533.156 624.225C535.466 622.942 538.07 622.3 540.966 622.3C543.826 622.3 546.375 622.942 548.611 624.225C550.885 625.472 552.645 627.25 553.891 629.56C555.175 631.833 555.816 634.473 555.816 637.48ZM540.966 627.8C538.766 627.8 536.896 628.46 535.356 629.78C533.853 631.063 532.936 632.787 532.606 634.95H549.271C548.978 632.823 548.08 631.1 546.576 629.78C545.073 628.46 543.203 627.8 540.966 627.8ZM579.085 622.3C582.788 622.3 585.758 623.382 587.995 625.545C590.232 627.708 591.35 630.917 591.35 635.17V652H584.475V636.05C584.475 633.483 583.87 631.558 582.66 630.275C581.45 628.955 579.727 628.295 577.49 628.295C574.96 628.295 572.962 629.065 571.495 630.605C570.028 632.108 569.295 634.29 569.295 637.15V652H562.42V622.63H568.965V626.425C570.102 625.068 571.532 624.042 573.255 623.345C574.978 622.648 576.922 622.3 579.085 622.3Z" fill="white"/>
<path d="M657.565 223.935C677.688 140.504 626.366 56.5574 542.935 36.435C459.504 16.3125 375.557 67.6342 355.435 151.065C335.312 234.496 386.634 318.443 470.065 338.565C553.496 358.688 637.443 307.366 657.565 223.935Z" fill="#474757"/>
<path d="M638.543 219.206C656.085 146.253 611.164 72.8923 538.211 55.3508C465.258 37.8093 391.897 82.7296 374.355 155.683C356.814 228.636 401.734 301.997 474.688 319.539C547.641 337.08 621.002 292.16 638.543 219.206Z" fill="#313144"/>
<g clip-path="url(#clip0_1373_3537)">
<path d="M414.996 205.781C416.532 205.781 417.776 204.542 417.776 203.014C417.776 201.485 416.532 200.246 414.996 200.246C413.461 200.246 412.217 201.485 412.217 203.014C412.217 204.542 413.461 205.781 414.996 205.781Z" fill="white"/>
<path d="M453.643 202.433C455.178 202.433 456.423 201.194 456.423 199.665C456.423 198.136 455.178 196.897 453.643 196.897C452.108 196.897 450.863 198.136 450.863 199.665C450.863 201.194 452.108 202.433 453.643 202.433Z" fill="white"/>
<path d="M464.805 218.278C466.34 218.278 467.585 217.039 467.585 215.511C467.585 213.982 466.34 212.743 464.805 212.743C463.27 212.743 462.025 213.982 462.025 215.511C462.025 217.039 463.27 218.278 464.805 218.278Z" fill="white"/>
<path d="M497.758 206.673C499.294 206.673 500.538 205.434 500.538 203.905C500.538 202.377 499.294 201.138 497.758 201.138C496.223 201.138 494.979 202.377 494.979 203.905C494.979 205.434 496.223 206.673 497.758 206.673Z" fill="white"/>
<path d="M417.239 121.375C418.774 121.375 420.018 120.136 420.018 118.607C420.018 117.079 418.774 115.84 417.239 115.84C415.703 115.84 414.459 117.079 414.459 118.607C414.459 120.136 415.703 121.375 417.239 121.375Z" fill="white"/>
<path d="M420.152 156.369C422.529 156.369 424.456 154.45 424.456 152.084C424.456 149.717 422.529 147.799 420.152 147.799C417.775 147.799 415.848 149.717 415.848 152.084C415.848 154.45 417.775 156.369 420.152 156.369Z" fill="white"/>
<path d="M490.091 196.54C492.071 196.54 493.677 194.942 493.677 192.969C493.677 190.998 492.071 189.398 490.091 189.398C488.109 189.398 486.504 190.998 486.504 192.969C486.504 194.942 488.109 196.54 490.091 196.54Z" fill="white"/>
<path d="M417.776 240.06C419.757 240.06 421.363 238.462 421.363 236.489C421.363 234.518 419.757 232.918 417.776 232.918C415.795 232.918 414.189 234.518 414.189 236.489C414.189 238.462 415.795 240.06 417.776 240.06Z" fill="white"/>
<path d="M445.393 221.09C447.572 221.09 449.338 219.332 449.338 217.162C449.338 214.993 447.572 213.234 445.393 213.234C443.214 213.234 441.447 214.993 441.447 217.162C441.447 219.332 443.214 221.09 445.393 221.09Z" fill="white"/>
<path d="M487.132 251.13C489.312 251.13 491.078 249.371 491.078 247.201C491.078 245.032 489.312 243.274 487.132 243.274C484.954 243.274 483.188 245.032 483.188 247.201C483.188 249.371 484.954 251.13 487.132 251.13Z" fill="white"/>
<path d="M475.923 234.48C477.657 234.48 479.062 233.082 479.062 231.356C479.062 229.63 477.657 228.232 475.923 228.232C474.19 228.232 472.785 229.63 472.785 231.356C472.785 233.082 474.19 234.48 475.923 234.48Z" fill="white"/>
<path d="M428.987 257.111C431.587 257.111 433.694 255.012 433.694 252.424C433.694 249.835 431.587 247.737 428.987 247.737C426.387 247.737 424.279 249.835 424.279 252.424C424.279 255.012 426.387 257.111 428.987 257.111Z" fill="white"/>
<path d="M447.769 141.104C451.755 141.104 454.987 137.886 454.987 133.917C454.987 129.948 451.755 126.731 447.769 126.731C443.782 126.731 440.551 129.948 440.551 133.917C440.551 137.886 443.782 141.104 447.769 141.104Z" fill="white"/>
<path d="M436.516 124.231C440.873 124.231 444.406 120.714 444.406 116.375C444.406 112.037 440.873 108.52 436.516 108.52C432.158 108.52 428.625 112.037 428.625 116.375C428.625 120.714 432.158 124.231 436.516 124.231Z" fill="white"/>
<path d="M439.432 158.779C443.171 158.779 446.202 155.762 446.202 152.039C446.202 148.317 443.171 145.299 439.432 145.299C435.693 145.299 432.662 148.317 432.662 152.039C432.662 155.762 435.693 158.779 439.432 158.779Z" fill="white"/>
<path d="M458.931 155.788C462.868 155.788 466.06 152.611 466.06 148.691C466.06 144.772 462.868 141.594 458.931 141.594C454.994 141.594 451.803 144.772 451.803 148.691C451.803 152.611 454.994 155.788 458.931 155.788Z" fill="white"/>
<path d="M431.359 174.625C435.123 174.625 438.174 171.587 438.174 167.84C438.174 164.093 435.123 161.056 431.359 161.056C427.596 161.056 424.545 164.093 424.545 167.84C424.545 171.587 427.596 174.625 431.359 174.625Z" fill="white"/>
<path d="M450.684 172.705C454.275 172.705 457.185 169.807 457.185 166.233C457.185 162.658 454.275 159.761 450.684 159.761C447.094 159.761 444.184 162.658 444.184 166.233C444.184 169.807 447.094 172.705 450.684 172.705Z" fill="white"/>
<path d="M470.139 170.161C473.259 170.161 475.788 167.643 475.788 164.537C475.788 161.431 473.259 158.913 470.139 158.913C467.019 158.913 464.49 161.431 464.49 164.537C464.49 167.643 467.019 170.161 470.139 170.161Z" fill="white"/>
<path d="M461.893 187.747C465.013 187.747 467.542 185.229 467.542 182.122C467.542 179.016 465.013 176.499 461.893 176.499C458.773 176.499 456.244 179.016 456.244 182.122C456.244 185.229 458.773 187.747 461.893 187.747Z" fill="white"/>
<path d="M442.434 189.444C445.554 189.444 448.083 186.926 448.083 183.82C448.083 180.714 445.554 178.196 442.434 178.196C439.314 178.196 436.785 180.714 436.785 183.82C436.785 186.926 439.314 189.444 442.434 189.444Z" fill="white"/>
<path d="M434.229 207.699C437.795 207.699 440.685 204.821 440.685 201.272C440.685 197.722 437.795 194.844 434.229 194.844C430.664 194.844 427.773 197.722 427.773 201.272C427.773 204.821 430.664 207.699 434.229 207.699Z" fill="white"/>
<path d="M426.024 224.527C429.193 224.527 431.762 221.968 431.762 218.813C431.762 215.658 429.193 213.1 426.024 213.1C422.854 213.1 420.285 215.658 420.285 218.813C420.285 221.968 422.854 224.527 426.024 224.527Z" fill="white"/>
<path d="M484.173 220.108C487.713 220.108 490.584 217.25 490.584 213.725C490.584 210.2 487.713 207.342 484.173 207.342C480.632 207.342 477.762 210.2 477.762 213.725C477.762 217.25 480.632 220.108 484.173 220.108Z" fill="white"/>
<path d="M472.921 204.396C476.486 204.396 479.377 201.519 479.377 197.969C479.377 194.419 476.486 191.542 472.921 191.542C469.355 191.542 466.465 194.419 466.465 197.969C466.465 201.519 469.355 204.396 472.921 204.396Z" fill="white"/>
<path d="M437.143 241.221C440.709 241.221 443.599 238.343 443.599 234.793C443.599 231.243 440.709 228.365 437.143 228.365C433.578 228.365 430.688 231.243 430.688 234.793C430.688 238.343 433.578 241.221 437.143 241.221Z" fill="white"/>
<path d="M422.932 190.247C425.581 190.247 427.729 188.109 427.729 185.471C427.729 182.833 425.581 180.695 422.932 180.695C420.283 180.695 418.135 182.833 418.135 185.471C418.135 188.109 420.283 190.247 422.932 190.247Z" fill="white"/>
<path d="M481.305 185.158C483.954 185.158 486.102 183.02 486.102 180.382C486.102 177.745 483.954 175.606 481.305 175.606C478.656 175.606 476.508 177.745 476.508 180.382C476.508 183.02 478.656 185.158 481.305 185.158Z" fill="white"/>
<path d="M428.402 141.55C432.339 141.55 435.53 138.373 435.53 134.453C435.53 130.534 432.339 127.356 428.402 127.356C424.465 127.356 421.273 130.534 421.273 134.453C421.273 138.373 424.465 141.55 428.402 141.55Z" fill="white"/>
<path d="M505.693 220.108C508.367 220.108 510.535 217.95 510.535 215.287C510.535 212.624 508.367 210.466 505.693 210.466C503.019 210.466 500.852 212.624 500.852 215.287C500.852 217.95 503.019 220.108 505.693 220.108Z" fill="white"/>
<path d="M597.958 205.781C599.492 205.781 600.737 204.542 600.737 203.014C600.737 201.485 599.492 200.246 597.958 200.246C596.422 200.246 595.178 201.485 595.178 203.014C595.178 204.542 596.422 205.781 597.958 205.781Z" fill="white"/>
<path d="M559.268 202.433C560.803 202.433 562.048 201.194 562.048 199.665C562.048 198.136 560.803 196.897 559.268 196.897C557.733 196.897 556.488 198.136 556.488 199.665C556.488 201.194 557.733 202.433 559.268 202.433Z" fill="white"/>
<path d="M548.15 218.278C549.685 218.278 550.93 217.039 550.93 215.511C550.93 213.982 549.685 212.743 548.15 212.743C546.616 212.743 545.371 213.982 545.371 215.511C545.371 217.039 546.616 218.278 548.15 218.278Z" fill="white"/>
<path d="M515.197 206.673C516.732 206.673 517.977 205.434 517.977 203.905C517.977 202.377 516.732 201.138 515.197 201.138C513.662 201.138 512.418 202.377 512.418 203.905C512.418 205.434 513.662 206.673 515.197 206.673Z" fill="white"/>
<path d="M595.717 121.375C597.253 121.375 598.497 120.136 598.497 118.607C598.497 117.079 597.253 115.84 595.717 115.84C594.182 115.84 592.938 117.079 592.938 118.607C592.938 120.136 594.182 121.375 595.717 121.375Z" fill="white"/>
<path d="M592.804 156.369C595.181 156.369 597.108 154.451 597.108 152.084C597.108 149.718 595.181 147.799 592.804 147.799C590.427 147.799 588.5 149.718 588.5 152.084C588.5 154.451 590.427 156.369 592.804 156.369Z" fill="white"/>
<path d="M522.864 196.54C524.845 196.54 526.451 194.942 526.451 192.969C526.451 190.998 524.845 189.398 522.864 189.398C520.884 189.398 519.277 190.998 519.277 192.969C519.277 194.942 520.884 196.54 522.864 196.54Z" fill="white"/>
<path d="M595.136 240.06C597.116 240.06 598.722 238.462 598.722 236.489C598.722 234.518 597.116 232.918 595.136 232.918C593.154 232.918 591.549 234.518 591.549 236.489C591.549 238.462 593.154 240.06 595.136 240.06Z" fill="white"/>
<path d="M567.517 221.09C569.696 221.09 571.463 219.332 571.463 217.162C571.463 214.993 569.696 213.234 567.517 213.234C565.338 213.234 563.572 214.993 563.572 217.162C563.572 219.332 565.338 221.09 567.517 221.09Z" fill="white"/>
<path d="M525.824 251.13C528.003 251.13 529.77 249.371 529.77 247.201C529.77 245.032 528.003 243.274 525.824 243.274C523.645 243.274 521.879 245.032 521.879 247.201C521.879 249.371 523.645 251.13 525.824 251.13Z" fill="white"/>
<path d="M536.986 234.48C538.719 234.48 540.124 233.082 540.124 231.356C540.124 229.63 538.719 228.232 536.986 228.232C535.252 228.232 533.848 229.63 533.848 231.356C533.848 233.082 535.252 234.48 536.986 234.48Z" fill="white"/>
<path d="M583.926 257.111C586.526 257.111 588.634 255.012 588.634 252.424C588.634 249.835 586.526 247.737 583.926 247.737C581.327 247.737 579.219 249.835 579.219 252.424C579.219 255.012 581.327 257.111 583.926 257.111Z" fill="white"/>
<path d="M565.142 141.104C569.128 141.104 572.36 137.886 572.36 133.917C572.36 129.948 569.128 126.731 565.142 126.731C561.156 126.731 557.924 129.948 557.924 133.917C557.924 137.886 561.156 141.104 565.142 141.104Z" fill="white"/>
<path d="M576.394 124.231C580.752 124.231 584.284 120.714 584.284 116.375C584.284 112.037 580.752 108.52 576.394 108.52C572.036 108.52 568.504 112.037 568.504 116.375C568.504 120.714 572.036 124.231 576.394 124.231Z" fill="white"/>
<path d="M573.481 158.779C577.219 158.779 580.25 155.762 580.25 152.039C580.25 148.317 577.219 145.299 573.481 145.299C569.742 145.299 566.711 148.317 566.711 152.039C566.711 155.762 569.742 158.779 573.481 158.779Z" fill="white"/>
<path d="M554.023 155.788C557.959 155.788 561.151 152.611 561.151 148.691C561.151 144.772 557.959 141.594 554.023 141.594C550.085 141.594 546.895 144.772 546.895 148.691C546.895 152.611 550.085 155.788 554.023 155.788Z" fill="white"/>
<path d="M581.551 174.625C585.314 174.625 588.365 171.587 588.365 167.84C588.365 164.093 585.314 161.056 581.551 161.056C577.787 161.056 574.736 164.093 574.736 167.84C574.736 171.587 577.787 174.625 581.551 174.625Z" fill="white"/>
<path d="M562.272 172.705C565.862 172.705 568.773 169.807 568.773 166.233C568.773 162.658 565.862 159.761 562.272 159.761C558.682 159.761 555.771 162.658 555.771 166.233C555.771 169.807 558.682 172.705 562.272 172.705Z" fill="white"/>
<path d="M542.815 170.161C545.935 170.161 548.464 167.643 548.464 164.537C548.464 161.431 545.935 158.913 542.815 158.913C539.695 158.913 537.166 161.431 537.166 164.537C537.166 167.643 539.695 170.161 542.815 170.161Z" fill="white"/>
<path d="M551.02 187.747C554.14 187.747 556.669 185.229 556.669 182.122C556.669 179.016 554.14 176.499 551.02 176.499C547.9 176.499 545.371 179.016 545.371 182.122C545.371 185.229 547.9 187.747 551.02 187.747Z" fill="white"/>
<path d="M570.522 189.445C573.642 189.445 576.171 186.926 576.171 183.82C576.171 180.714 573.642 178.196 570.522 178.196C567.402 178.196 564.873 180.714 564.873 183.82C564.873 186.926 567.402 189.445 570.522 189.445Z" fill="white"/>
<path d="M578.68 207.699C582.246 207.699 585.136 204.821 585.136 201.272C585.136 197.722 582.246 194.844 578.68 194.844C575.115 194.844 572.225 197.722 572.225 201.272C572.225 204.821 575.115 207.699 578.68 207.699Z" fill="white"/>
<path d="M586.887 224.527C590.057 224.527 592.626 221.968 592.626 218.813C592.626 215.658 590.057 213.1 586.887 213.1C583.718 213.1 581.148 215.658 581.148 218.813C581.148 221.968 583.718 224.527 586.887 224.527Z" fill="white"/>
<path d="M528.737 220.108C532.278 220.108 535.148 217.25 535.148 213.725C535.148 210.2 532.278 207.342 528.737 207.342C525.196 207.342 522.326 210.2 522.326 213.725C522.326 217.25 525.196 220.108 528.737 220.108Z" fill="white"/>
<path d="M539.991 204.396C543.557 204.396 546.447 201.519 546.447 197.969C546.447 194.419 543.557 191.542 539.991 191.542C536.426 191.542 533.535 194.419 533.535 197.969C533.535 201.519 536.426 204.396 539.991 204.396Z" fill="white"/>
<path d="M575.812 241.221C579.377 241.221 582.267 238.343 582.267 234.793C582.267 231.243 579.377 228.365 575.812 228.365C572.246 228.365 569.355 231.243 569.355 234.793C569.355 238.343 572.246 241.221 575.812 241.221Z" fill="white"/>
<path d="M589.981 190.247C592.63 190.247 594.778 188.109 594.778 185.471C594.778 182.833 592.63 180.695 589.981 180.695C587.331 180.695 585.184 182.833 585.184 185.471C585.184 188.109 587.331 190.247 589.981 190.247Z" fill="white"/>
<path d="M531.653 185.158C534.302 185.158 536.45 183.02 536.45 180.382C536.45 177.745 534.302 175.606 531.653 175.606C529.003 175.606 526.855 177.745 526.855 180.382C526.855 183.02 529.003 185.158 531.653 185.158Z" fill="white"/>
<path d="M584.555 141.55C588.491 141.55 591.683 138.373 591.683 134.453C591.683 130.534 588.491 127.356 584.555 127.356C580.617 127.356 577.426 130.534 577.426 134.453C577.426 138.373 580.617 141.55 584.555 141.55Z" fill="white"/>
<path d="M507.262 220.108C509.936 220.108 512.104 217.95 512.104 215.287C512.104 212.624 509.936 210.466 507.262 210.466C504.588 210.466 502.42 212.624 502.42 215.287C502.42 217.95 504.588 220.108 507.262 220.108Z" fill="white"/>
<path d="M506.455 220.912C509.575 220.912 512.104 218.394 512.104 215.288C512.104 212.182 509.575 209.664 506.455 209.664C503.335 209.664 500.807 212.182 500.807 215.288C500.807 218.394 503.335 220.912 506.455 220.912Z" fill="white"/>
<path d="M506.455 251.576C509.575 251.576 512.104 249.059 512.104 245.953C512.104 242.846 509.575 240.328 506.455 240.328C503.335 240.328 500.807 242.846 500.807 245.953C500.807 249.059 503.335 251.576 506.455 251.576Z" fill="white"/>
<path d="M495.292 235.284C498.412 235.284 500.94 232.766 500.94 229.66C500.94 226.553 498.412 224.035 495.292 224.035C492.172 224.035 489.643 226.553 489.643 229.66C489.643 232.766 492.172 235.284 495.292 235.284Z" fill="white"/>
<path d="M517.619 235.284C520.739 235.284 523.269 232.766 523.269 229.66C523.269 226.553 520.739 224.035 517.619 224.035C514.5 224.035 511.971 226.553 511.971 229.66C511.971 232.766 514.5 235.284 517.619 235.284Z" fill="white"/>
<path d="M498.252 265.546C499.589 265.546 500.672 264.467 500.672 263.136C500.672 261.805 499.589 260.726 498.252 260.726C496.914 260.726 495.83 261.805 495.83 263.136C495.83 264.467 496.914 265.546 498.252 265.546Z" fill="white"/>
<path d="M514.704 265.546C516.041 265.546 517.125 264.467 517.125 263.136C517.125 261.805 516.041 260.726 514.704 260.726C513.367 260.726 512.283 261.805 512.283 263.136C512.283 264.467 513.367 265.546 514.704 265.546Z" fill="white"/>
</g>
<path d="M493.009 376.006L465.122 458.13C464.568 459.762 465.984 461.378 467.59 460.947L504.027 451.158C505.555 450.75 506.936 452.19 506.552 453.781L492.769 527.913C492.179 530.356 495.389 531.702 496.579 529.508L551.437 426.458C552.298 424.871 551.005 422.951 549.282 423.262L505.958 431.076C504.239 431.386 502.94 429.461 503.807 427.873L542.742 356.599C543.732 354.789 545.388 351.855 543.56 352.697L494.115 374.748C493.856 374.872 493.625 375.048 493.435 375.264C493.244 375.48 493.1 375.733 493.009 376.006Z" fill="#EAA928"/>
<path d="M502.299 372.69L474.408 451.4C474.283 451.755 474.256 452.136 474.33 452.505C474.405 452.873 474.579 453.215 474.833 453.492C475.086 453.769 475.411 453.972 475.771 454.079C476.132 454.186 476.514 454.193 476.878 454.098L513.318 444.718C513.666 444.628 514.031 444.631 514.378 444.725C514.725 444.82 515.041 445.003 515.296 445.257C515.55 445.51 515.735 445.826 515.831 446.172C515.927 446.519 515.931 446.884 515.843 447.233L495.454 528.025C494.864 530.368 498.075 531.656 499.265 529.554L560.736 421.047C560.927 420.706 561.017 420.318 560.997 419.927C560.977 419.536 560.847 419.159 560.621 418.84C560.396 418.52 560.085 418.27 559.724 418.12C559.363 417.97 558.966 417.925 558.581 417.99L515.259 425.467C514.872 425.532 514.475 425.486 514.114 425.335C513.752 425.183 513.441 424.932 513.217 424.611C512.992 424.29 512.863 423.911 512.845 423.52C512.827 423.128 512.92 422.739 513.113 422.398L552.046 354.091C552.26 353.713 552.349 353.276 552.302 352.844C552.254 352.411 552.071 352.005 551.779 351.682C551.487 351.359 551.101 351.137 550.676 351.046C550.251 350.955 549.808 351 549.409 351.175L503.415 371.486C503.157 371.6 502.924 371.766 502.733 371.973C502.541 372.18 502.393 372.424 502.299 372.69Z" fill="url(#paint5_linear_1373_3537)"/>
<path d="M249.141 818.803C280.524 765.696 262.913 697.204 209.805 665.821C156.698 634.439 88.2056 652.05 56.8231 705.157C25.4406 758.264 43.0519 826.757 96.1592 858.139C149.266 889.522 217.759 871.911 249.141 818.803Z" fill="#A55ED9"/>
<path d="M222.03 831.041C260.165 792.907 260.165 731.078 222.03 692.943C183.896 654.808 122.067 654.808 83.932 692.943C45.7972 731.078 45.7972 792.907 83.932 831.041C122.067 869.176 183.896 869.176 222.03 831.041Z" fill="#9A47D6"/>
<path d="M98.828 779.066C101.185 779.066 103.04 779.629 104.392 780.756C105.744 781.882 106.42 783.434 106.42 785.41C106.42 787.386 105.744 788.937 104.392 790.064C103.04 791.19 101.185 791.754 98.828 791.754H94.33V797.266H91.73V779.066H98.828ZM98.75 789.492C100.397 789.492 101.653 789.145 102.52 788.452C103.387 787.741 103.82 786.727 103.82 785.41C103.82 784.092 103.387 783.087 102.52 782.394C101.653 781.683 100.397 781.328 98.75 781.328H94.33V789.492H98.75ZM118.71 797.474C116.872 797.474 115.217 797.075 113.744 796.278C112.27 795.463 111.109 794.345 110.26 792.924C109.428 791.502 109.012 789.916 109.012 788.166C109.012 786.415 109.428 784.829 110.26 783.408C111.109 781.986 112.27 780.877 113.744 780.08C115.217 779.265 116.872 778.858 118.71 778.858C120.53 778.858 122.176 779.265 123.65 780.08C125.123 780.877 126.276 781.986 127.108 783.408C127.94 784.812 128.356 786.398 128.356 788.166C128.356 789.934 127.94 791.528 127.108 792.95C126.276 794.354 125.123 795.463 123.65 796.278C122.176 797.075 120.53 797.474 118.71 797.474ZM118.71 795.16C120.044 795.16 121.24 794.856 122.298 794.25C123.372 793.643 124.213 792.811 124.82 791.754C125.444 790.679 125.756 789.483 125.756 788.166C125.756 786.848 125.444 785.661 124.82 784.604C124.213 783.529 123.372 782.688 122.298 782.082C121.24 781.475 120.044 781.172 118.71 781.172C117.375 781.172 116.162 781.475 115.07 782.082C113.995 782.688 113.146 783.529 112.522 784.604C111.915 785.661 111.612 786.848 111.612 788.166C111.612 789.483 111.915 790.679 112.522 791.754C113.146 792.811 113.995 793.643 115.07 794.25C116.162 794.856 117.375 795.16 118.71 795.16ZM132.33 779.066H134.93V795.004H144.784V797.266H132.33V779.066ZM152.831 790.974V797.266H150.257V790.922L143.029 779.066H145.811L151.635 788.66L157.485 779.066H160.059L152.831 790.974ZM174.52 788.062H177.016V795.16C176.114 795.905 175.066 796.477 173.87 796.876C172.674 797.274 171.426 797.474 170.126 797.474C168.288 797.474 166.633 797.075 165.16 796.278C163.686 795.463 162.525 794.354 161.676 792.95C160.844 791.528 160.428 789.934 160.428 788.166C160.428 786.398 160.844 784.803 161.676 783.382C162.525 781.96 163.686 780.851 165.16 780.054C166.65 779.256 168.323 778.858 170.178 778.858C171.634 778.858 172.951 779.1 174.13 779.586C175.326 780.054 176.34 780.747 177.172 781.666L175.56 783.278C174.104 781.874 172.344 781.172 170.282 781.172C168.895 781.172 167.647 781.475 166.538 782.082C165.446 782.671 164.588 783.503 163.964 784.578C163.34 785.635 163.028 786.831 163.028 788.166C163.028 789.483 163.34 790.679 163.964 791.754C164.588 792.811 165.446 793.643 166.538 794.25C167.647 794.856 168.886 795.16 170.256 795.16C171.885 795.16 173.306 794.77 174.52 793.99V788.062ZM190.21 797.474C188.372 797.474 186.717 797.075 185.244 796.278C183.77 795.463 182.609 794.345 181.76 792.924C180.928 791.502 180.512 789.916 180.512 788.166C180.512 786.415 180.928 784.829 181.76 783.408C182.609 781.986 183.77 780.877 185.244 780.08C186.717 779.265 188.372 778.858 190.21 778.858C192.03 778.858 193.676 779.265 195.15 780.08C196.623 780.877 197.776 781.986 198.608 783.408C199.44 784.812 199.856 786.398 199.856 788.166C199.856 789.934 199.44 791.528 198.608 792.95C197.776 794.354 196.623 795.463 195.15 796.278C193.676 797.075 192.03 797.474 190.21 797.474ZM190.21 795.16C191.544 795.16 192.74 794.856 193.798 794.25C194.872 793.643 195.713 792.811 196.32 791.754C196.944 790.679 197.256 789.483 197.256 788.166C197.256 786.848 196.944 785.661 196.32 784.604C195.713 783.529 194.872 782.688 193.798 782.082C192.74 781.475 191.544 781.172 190.21 781.172C188.875 781.172 187.662 781.475 186.57 782.082C185.495 782.688 184.646 783.529 184.022 784.604C183.415 785.661 183.112 786.848 183.112 788.166C183.112 789.483 183.415 790.679 184.022 791.754C184.646 792.811 185.495 793.643 186.57 794.25C187.662 794.856 188.875 795.16 190.21 795.16ZM219.482 779.066V797.266H217.35L206.43 783.694V797.266H203.83V779.066H205.962L216.882 792.638V779.066H219.482ZM96.852 807.374H99.114L90.534 831.866H88.272L96.852 807.374ZM124.727 829.266L124.701 816.006L118.123 827.056H116.927L110.349 816.084V829.266H107.853V811.066H109.985L117.577 823.858L125.065 811.066H127.197L127.223 829.266H124.727ZM144.281 824.716H134.609L132.607 829.266H129.929L138.171 811.066H140.745L149.013 829.266H146.283L144.281 824.716ZM143.371 822.636L139.445 813.718L135.519 822.636H143.371ZM154.428 813.328H148.188V811.066H163.242V813.328H157.002V829.266H154.428V813.328ZM166.074 811.066H168.674V829.266H166.074V811.066ZM182.261 829.474C180.441 829.474 178.794 829.075 177.321 828.278C175.865 827.463 174.721 826.354 173.889 824.95C173.057 823.528 172.641 821.934 172.641 820.166C172.641 818.398 173.057 816.812 173.889 815.408C174.721 813.986 175.873 812.877 177.347 812.08C178.82 811.265 180.467 810.858 182.287 810.858C183.708 810.858 185.008 811.1 186.187 811.586C187.365 812.054 188.371 812.756 189.203 813.692L187.513 815.33C186.143 813.891 184.436 813.172 182.391 813.172C181.039 813.172 179.817 813.475 178.725 814.082C177.633 814.688 176.775 815.529 176.151 816.604C175.544 817.661 175.241 818.848 175.241 820.166C175.241 821.483 175.544 822.679 176.151 823.754C176.775 824.811 177.633 825.643 178.725 826.25C179.817 826.856 181.039 827.16 182.391 827.16C184.419 827.16 186.126 826.432 187.513 824.976L189.203 826.614C188.371 827.55 187.357 828.26 186.161 828.746C184.982 829.231 183.682 829.474 182.261 829.474Z" fill="white"/>
<path fill-rule="evenodd" clip-rule="evenodd" d="M158.15 712.035L174.725 702.366V721.703L158.15 712.035ZM174.725 753.472L152.625 766.364L130.525 753.472V730.912L152.625 743.804L174.725 730.912V753.472ZM130.525 702.366L147.1 712.035L130.525 721.703V702.366ZM155.388 716.639L171.963 726.308L155.388 735.976V716.639ZM149.863 735.976L133.288 726.308L149.863 716.639V735.976ZM171.963 697.762L152.625 708.812L133.288 697.762L152.625 686.251L171.963 697.762ZM125 695.92V756.235L152.625 771.889L180.25 756.235V695.92L152.625 680.266L125 695.92Z" fill="white"/>
<path d="M955.718 812.18C983.445 757.076 961.251 689.928 906.147 662.202C851.043 634.475 783.895 656.669 756.168 711.773C728.442 766.878 750.636 834.025 805.74 861.752C860.844 889.478 927.992 867.284 955.718 812.18Z" fill="#F4AB69"/>
<path d="M952.662 767.53C955.897 713.599 914.801 667.257 860.87 664.021C806.939 660.785 760.597 701.881 757.361 755.812C754.125 809.743 795.221 856.086 849.152 859.321C903.083 862.557 949.426 821.461 952.662 767.53Z" fill="#F09E5A"/>
<path d="M834.743 724.649L855.755 703.637L876.766 724.649L888.953 712.463L855.755 679.264L822.556 712.463L834.743 724.649ZM801.965 733.056L814.152 720.869L826.338 733.056L814.152 745.242L801.965 733.056ZM834.743 741.878L855.755 762.891L876.766 741.878L888.953 754.065L855.755 787.264L822.556 754.065L834.743 741.878ZM885.591 733.056L897.778 720.869L909.965 733.056L897.778 745.242L885.591 733.056Z" fill="#2D3140"/>
<path d="M817.965 839.794V805.733H829.053C832.734 805.733 835.498 806.495 837.346 808.023C839.21 809.551 840.142 811.813 840.142 814.807C840.142 816.398 839.691 817.811 838.79 819.043C837.89 820.26 836.663 821.204 835.11 821.874C836.942 822.387 838.387 823.369 839.443 824.821C840.514 826.254 841.05 827.974 841.05 829.967C841.05 833.024 840.064 835.429 838.092 837.173C836.119 838.922 833.332 839.794 829.729 839.794H817.965ZM822.437 823.863V836.119H829.822C831.903 836.119 833.541 835.582 834.737 834.504C835.948 833.416 836.554 831.917 836.554 830.015C836.554 825.913 834.334 823.863 829.892 823.863H822.437ZM822.437 820.26H829.193C831.15 820.26 832.711 819.766 833.875 818.784C835.055 817.802 835.646 816.47 835.646 814.783C835.646 812.915 835.102 811.554 834.015 810.716C832.928 809.858 831.274 809.427 829.053 809.427H822.437V820.26ZM857.683 824.61C853.847 823.503 851.052 822.148 849.297 820.538C847.557 818.918 846.688 816.92 846.688 814.549C846.688 811.87 847.752 809.652 849.879 807.908C852.022 806.145 854.802 805.263 858.219 805.263C860.548 805.263 862.621 805.714 864.438 806.619C866.271 807.525 867.684 808.77 868.678 810.361C869.687 811.952 870.192 813.691 870.192 815.579H865.697C865.697 813.523 865.044 811.909 863.74 810.74C862.435 809.551 860.595 808.957 858.219 808.957C856.013 808.957 854.289 809.451 853.047 810.433C851.82 811.401 851.207 812.747 851.207 814.482C851.207 815.871 851.789 817.045 852.954 818.013C854.134 818.966 856.13 819.838 858.941 820.633C861.767 821.429 863.972 822.31 865.557 823.278C867.156 824.227 868.336 825.343 869.097 826.622C869.874 827.902 870.262 829.406 870.262 831.136C870.262 833.9 869.191 836.114 867.048 837.781C864.904 839.434 862.039 840.263 858.452 840.263C856.122 840.263 853.948 839.817 851.929 838.926C849.91 838.026 848.349 836.789 847.247 835.232C846.159 833.67 845.616 831.902 845.616 829.919H850.112C850.112 831.979 850.865 833.608 852.372 834.811C853.893 835.994 855.92 836.588 858.452 836.588C860.812 836.588 862.621 836.104 863.879 835.137C865.137 834.169 865.766 832.851 865.766 831.184C865.766 829.516 865.184 828.228 864.019 827.322C862.855 826.402 860.742 825.501 857.683 824.61ZM900.965 828.985C900.545 832.588 899.218 835.371 896.982 837.336C894.761 839.286 891.802 840.263 888.106 840.263C884.1 840.263 880.885 838.821 878.462 835.932C876.055 833.047 874.851 829.186 874.851 824.351V821.079C874.851 817.912 875.41 815.128 876.529 812.728C877.662 810.323 879.262 808.483 881.327 807.204C883.393 805.91 885.785 805.263 888.502 805.263C892.105 805.263 894.994 806.279 897.168 808.306C899.342 810.318 900.608 813.106 900.965 816.681H896.469C896.081 813.964 895.235 812 893.93 810.783C892.641 809.566 890.832 808.957 888.502 808.957C885.645 808.957 883.401 810.021 881.77 812.143C880.155 814.261 879.347 817.28 879.347 821.194V824.495C879.347 828.189 880.116 831.131 881.653 833.311C883.191 835.496 885.342 836.588 888.106 836.588C890.591 836.588 892.493 836.028 893.813 834.902C895.149 833.766 896.034 831.792 896.469 828.985H900.965Z" fill="#2D3140"/>
<path d="M259.847 459.385C270.143 398.577 229.194 340.936 168.387 330.64C107.579 320.344 49.938 361.293 39.6422 422.1C29.3464 482.908 70.2944 540.549 131.102 550.845C191.91 561.141 249.551 520.193 259.847 459.385Z" fill="#646AF4"/>
<path d="M246.213 455.934C254.575 402.655 218.163 352.685 164.884 344.323C111.606 335.961 61.6362 372.373 53.274 425.651C44.9118 478.93 81.3236 528.9 134.602 537.262C187.881 545.624 237.85 509.212 246.213 455.934Z" fill="#5158F6"/>
<path d="M116.369 498.896H103.411L100.501 506.965H96.2949L108.104 476.042H111.671L123.503 506.965H119.318L116.369 498.896ZM104.642 495.538H115.155L109.888 481.075L104.642 495.538ZM136.034 501.549L144.868 476.042H149.331L137.861 506.965H134.251L122.802 476.042H127.243L136.034 501.549ZM168.953 498.896H155.999L153.089 506.965H148.883L160.693 476.042H164.26L176.091 506.965H171.906L168.953 498.896ZM157.23 495.538H167.744L162.476 481.075L157.23 495.538ZM190.341 487.891L197.757 476.042H202.555L192.785 491.375L202.79 506.965H197.944L190.341 494.903L182.698 506.965H177.874L187.9 491.375L178.109 476.042H182.89L190.341 487.891Z" fill="white"/>
<path d="M173.634 419.468C176.187 415.134 180.306 415.134 182.855 419.468L198.754 446.893C201.302 451.226 199.215 454.762 194.112 454.762H162.09C157.044 454.762 154.952 451.226 157.448 446.893L173.634 419.468ZM142.885 366.668C145.439 362.334 149.501 362.334 152.055 366.668L155.591 372.94L163.947 387.366C165.974 391.471 165.974 396.318 163.947 400.423L135.926 448.146C133.373 452.026 129.14 454.475 124.438 454.762H101.176C96.0735 454.762 93.9856 451.282 96.5346 446.893L142.885 366.668Z" fill="white"/>
<path d="M868.787 550.666C929.328 538.832 968.813 480.161 956.98 419.62C945.146 359.079 886.474 319.594 825.933 331.428C765.393 343.262 725.908 401.933 737.741 462.474C749.575 523.015 808.246 562.5 868.787 550.666Z" fill="#6CBE71"/>
<path d="M912.136 513.924C952.584 478.33 956.519 416.685 920.925 376.237C885.33 335.789 823.686 331.854 783.238 367.449C742.79 403.043 738.855 464.688 774.449 505.136C810.043 545.584 871.688 549.518 912.136 513.924Z" fill="#59A95E"/>
<path d="M881.314 413.244L847.314 357.585L813.314 413.244L847.314 432.585L881.314 413.244Z" fill="white"/>
<path d="M847.314 439.164L813.314 418.585L847.314 467.585L881.314 418.585L847.314 439.164Z" fill="white"/>
<path d="M826.526 494.794H812.563V506.133H828.783V509.585H808.314V477.585H828.561V481.056H812.563V491.342H826.526V494.794ZM856.774 481.056H846.418V509.585H842.192V481.056H831.858V477.585H856.774V481.056ZM886.314 509.585H882.044V494.794H865.802V509.585H861.554V477.585H865.802V491.342H882.044V477.585H886.314V509.585Z" fill="white"/>
<path d="M602.754 1016.18C630.48 961.078 608.286 893.93 553.182 866.204C498.078 838.477 430.93 860.671 403.203 915.775C375.477 970.879 397.671 1038.03 452.775 1065.75C507.879 1093.48 575.027 1071.29 602.754 1016.18Z" fill="#707092"/>
<path d="M599.697 971.532C602.933 917.601 561.836 871.259 507.905 868.023C453.975 864.787 407.632 905.883 404.396 959.814C401.16 1013.74 442.257 1060.09 496.187 1063.32C550.118 1066.56 596.461 1025.46 599.697 971.532Z" fill="#54547B"/>
<path d="M489.35 983.008C489.35 978.016 490.454 973.888 492.662 970.624C494.966 967.36 498.278 963.76 502.598 959.824C505.766 956.944 508.07 954.544 509.51 952.624C511.046 950.608 511.814 948.352 511.814 945.856C511.814 942.304 510.374 939.52 507.494 937.504C504.71 935.392 500.966 934.336 496.262 934.336C491.75 934.336 487.718 935.296 484.166 937.216C480.71 939.04 477.782 941.632 475.382 944.992L457.958 934.768C461.99 928.624 467.414 923.872 474.23 920.512C481.142 917.152 489.302 915.472 498.71 915.472C509.75 915.472 518.582 917.824 525.206 922.528C531.926 927.232 535.286 933.76 535.286 942.112C535.286 946.048 534.614 949.504 533.27 952.48C532.022 955.456 530.438 958 528.518 960.112C526.694 962.128 524.294 964.48 521.318 967.168C517.766 970.336 515.174 973.024 513.542 975.232C511.91 977.344 511.094 979.936 511.094 983.008H489.35ZM500.294 1019.15C496.358 1019.15 493.046 1017.9 490.358 1015.41C487.766 1012.82 486.47 1009.7 486.47 1006.05C486.47 1002.4 487.766 999.376 490.358 996.976C492.95 994.48 496.262 993.232 500.294 993.232C504.326 993.232 507.638 994.48 510.23 996.976C512.822 999.376 514.118 1002.4 514.118 1006.05C514.118 1009.7 512.774 1012.82 510.086 1015.41C507.494 1017.9 504.23 1019.15 500.294 1019.15Z" fill="white"/>
</g>
<defs>
<filter id="filter0_d_1373_3537" x="34.0566" y="32.0674" width="937.604" height="1053.63" filterUnits="userSpaceOnUse" color-interpolation-filters="sRGB">
<feFlood flood-opacity="0" result="BackgroundImageFix"/>
<feColorMatrix in="SourceAlpha" type="matrix" values="0 0 0 0 0 0 0 0 0 0 0 0 0 0 0 0 0 0 127 0" result="hardAlpha"/>
<feOffset dy="4"/>
<feGaussianBlur stdDeviation="2"/>
<feComposite in2="hardAlpha" operator="out"/>
<feColorMatrix type="matrix" values="0 0 0 0 0 0 0 0 0 0 0 0 0 0 0 0 0 0 0.25 0"/>
<feBlend mode="normal" in2="BackgroundImageFix" result="effect1_dropShadow_1373_3537"/>
<feBlend mode="normal" in="SourceGraphic" in2="effect1_dropShadow_1373_3537" result="shape"/>
</filter>
<linearGradient id="paint0_linear_1373_3537" x1="345.201" y1="758.017" x2="417.203" y2="889.704" gradientUnits="userSpaceOnUse">
<stop stop-color="#3E4559"/>
<stop offset="1" stop-color="#3E4559"/>
</linearGradient>
<linearGradient id="paint1_linear_1373_3537" x1="506.271" y1="538.688" x2="507.685" y2="743.734" gradientUnits="userSpaceOnUse">
<stop stop-color="#2D3140"/>
<stop offset="0.14" stop-color="#3C4155"/>
</linearGradient>
<linearGradient id="paint2_linear_1373_3537" x1="507.456" y1="715.478" x2="506.2" y2="533.208" gradientUnits="userSpaceOnUse">
<stop stop-color="#2D3140"/>
<stop offset="1" stop-color="#565C73"/>
</linearGradient>
<linearGradient id="paint3_linear_1373_3537" x1="80129.7" y1="57105.4" x2="80006.6" y2="39244.7" gradientUnits="userSpaceOnUse">
<stop offset="0.4" stop-color="#E9EBEC"/>
<stop offset="1" stop-color="#2D3140"/>
</linearGradient>
<linearGradient id="paint4_linear_1373_3537" x1="76246.5" y1="53941.9" x2="76135" y2="37774.1" gradientUnits="userSpaceOnUse">
<stop offset="0.4" stop-color="#F9FBFC"/>
<stop offset="1" stop-color="#2D3140"/>
</linearGradient>
<linearGradient id="paint5_linear_1373_3537" x1="499.838" y1="522.874" x2="539.322" y2="372.678" gradientUnits="userSpaceOnUse">
<stop stop-color="#F09E5A"/>
<stop offset="0.182292" stop-color="#C5759E"/>
<stop offset="0.46875" stop-color="#CB00DD"/>
<stop offset="0.729167" stop-color="#A728DA"/>
<stop offset="0.973958" stop-color="#5158F6"/>
</linearGradient>
<clipPath id="clip0_1373_3537">
<rect width="189.214" height="157.214" fill="white" transform="translate(412.217 108.52)"/>
</clipPath>
</defs>
</svg>
