<svg width="718" height="612" fill="none" xmlns="http://www.w3.org/2000/svg"><path stroke="#5158F6" stroke-width="10" d="M113.836 563.36h466.027"/><path d="M10.296 142.8V168h-4.68v-21.276H.288V142.8h10.008Zm15.51 25.56c-2.015 0-3.815-.504-5.4-1.512-1.583-1.032-2.831-2.52-3.743-4.464-.912-1.968-1.368-4.296-1.368-6.984 0-2.688.456-5.004 1.368-6.948.912-1.968 2.16-3.456 3.744-4.464 1.584-1.032 3.384-1.548 5.4-1.548 2.016 0 3.816.516 5.4 1.548 1.608 1.008 2.868 2.496 3.78 4.464.912 1.944 1.368 4.26 1.368 6.948 0 2.688-.456 5.016-1.368 6.984-.912 1.944-2.172 3.432-3.78 4.464-1.584 1.008-3.384 1.512-5.4 1.512Zm0-4.068c1.8 0 3.217-.744 4.249-2.232 1.056-1.488 1.584-3.708 1.584-6.66s-.528-5.172-1.584-6.66c-1.032-1.488-2.448-2.232-4.248-2.232-1.776 0-3.192.744-4.248 2.232-1.032 1.488-1.548 3.708-1.548 6.66s.516 5.172 1.548 6.66c1.056 1.488 2.472 2.232 4.248 2.232Zm24.224 4.068c-2.016 0-3.816-.504-5.4-1.512-1.584-1.032-2.832-2.52-3.744-4.464-.912-1.968-1.368-4.296-1.368-6.984 0-2.688.456-5.004 1.368-6.948.912-1.968 2.16-3.456 3.744-4.464 1.584-1.032 3.384-1.548 5.4-1.548 2.016 0 3.816.516 5.4 1.548 1.608 1.008 2.868 2.496 3.78 4.464.912 1.944 1.368 4.26 1.368 6.948 0 2.688-.456 5.016-1.368 6.984-.912 1.944-2.172 3.432-3.78 4.464-1.584 1.008-3.384 1.512-5.4 1.512Zm0-4.068c1.8 0 3.216-.744 4.248-2.232 1.056-1.488 1.584-3.708 1.584-6.66s-.528-5.172-1.584-6.66c-1.032-1.488-2.448-2.232-4.248-2.232-1.776 0-3.192.744-4.248 2.232-1.032 1.488-1.548 3.708-1.548 6.66s.516 5.172 1.548 6.66c1.056 1.488 2.472 2.232 4.248 2.232Zm19.326-7.92c-1.8 0-3.252-.636-4.356-1.908-1.104-1.272-1.656-2.94-1.656-5.004 0-2.064.552-3.732 1.656-5.004 1.104-1.272 2.556-1.908 4.356-1.908 1.8 0 3.252.636 4.356 1.908 1.128 1.248 1.692 2.916 1.692 5.004 0 2.088-.564 3.768-1.692 5.04-1.104 1.248-2.556 1.872-4.356 1.872Zm15.12-13.572h3.528L70.796 168h-3.528l17.208-25.2Zm-15.12 11.052c.984 0 1.74-.384 2.268-1.152.552-.768.828-1.848.828-3.24 0-1.392-.276-2.472-.828-3.24-.528-.768-1.284-1.152-2.268-1.152-.936 0-1.692.396-2.268 1.188-.552.768-.828 1.836-.828 3.204s.276 2.448.828 3.24c.576.768 1.332 1.152 2.268 1.152Zm16.524 14.4c-1.8 0-3.252-.636-4.356-1.908-1.104-1.272-1.656-2.94-1.656-5.004 0-2.064.552-3.732 1.656-5.004 1.104-1.272 2.556-1.908 4.356-1.908 1.8 0 3.252.636 4.356 1.908 1.128 1.272 1.692 2.94 1.692 5.004 0 2.064-.564 3.732-1.692 5.004-1.104 1.272-2.556 1.908-4.356 1.908Zm0-2.52c.96 0 1.716-.384 2.268-1.152.552-.792.828-1.872.828-3.24s-.276-2.436-.828-3.204c-.552-.792-1.308-1.188-2.268-1.188-.96 0-1.716.384-2.268 1.152-.552.768-.828 1.848-.828 3.24 0 1.392.276 2.472.828 3.24.552.768 1.308 1.152 2.268 1.152ZM30.592 269.8v3.132L20.8 295h-5.004l9.468-21.24h-9.9v4.284h-4.356V269.8h19.584Zm10.145 9.756c3.552 0 6.18.696 7.884 2.088 1.704 1.368 2.556 3.24 2.556 5.616 0 1.512-.371 2.88-1.115 4.104-.744 1.224-1.86 2.196-3.348 2.916-1.489.72-3.325 1.08-5.508 1.08-1.8 0-3.54-.252-5.22-.756-1.68-.528-3.096-1.248-4.248-2.16l1.98-3.636c.935.768 2.051 1.38 3.347 1.836 1.32.432 2.677.648 4.069.648 1.655 0 2.952-.336 3.888-1.008.96-.696 1.44-1.644 1.44-2.844 0-1.296-.517-2.268-1.549-2.916-1.007-.672-2.747-1.008-5.22-1.008H33.61l1.297-13.716h14.796v3.924H38.865l-.54 5.832h2.412Zm18.404 3.816c-1.8 0-3.252-.636-4.356-1.908-1.104-1.272-1.656-2.94-1.656-5.004 0-2.064.552-3.732 1.656-5.004 1.104-1.272 2.556-1.908 4.356-1.908 1.8 0 3.252.636 4.356 1.908 1.128 1.248 1.692 2.916 1.692 5.004 0 2.088-.564 3.768-1.692 5.04-1.104 1.248-2.556 1.872-4.356 1.872Zm15.12-13.572h3.528L60.581 295h-3.528l17.208-25.2Zm-15.12 11.052c.984 0 1.74-.384 2.268-1.152.552-.768.828-1.848.828-3.24 0-1.392-.276-2.472-.828-3.24-.528-.768-1.284-1.152-2.268-1.152-.936 0-1.692.396-2.268 1.188-.552.768-.828 1.836-.828 3.204s.276 2.448.828 3.24c.576.768 1.332 1.152 2.268 1.152Zm16.524 14.4c-1.8 0-3.252-.636-4.356-1.908-1.104-1.272-1.656-2.94-1.656-5.004 0-2.064.552-3.732 1.656-5.004 1.104-1.272 2.556-1.908 4.356-1.908 1.8 0 3.252.636 4.356 1.908 1.128 1.272 1.692 2.94 1.692 5.004 0 2.064-.564 3.732-1.692 5.004-1.104 1.272-2.556 1.908-4.356 1.908Zm0-2.52c.96 0 1.716-.384 2.268-1.152.552-.792.828-1.872.828-3.24s-.276-2.436-.828-3.204c-.552-.792-1.308-1.188-2.268-1.188-.96 0-1.716.384-2.268 1.152-.552.768-.828 1.848-.828 3.24 0 1.392.276 2.472.828 3.24.552.768 1.308 1.152 2.268 1.152ZM17.468 406.556c3.552 0 6.18.696 7.884 2.088 1.704 1.368 2.556 3.24 2.556 5.616 0 1.512-.372 2.88-1.116 4.104-.744 1.224-1.86 2.196-3.348 2.916-1.488.72-3.324 1.08-5.508 1.08-1.8 0-3.54-.252-5.22-.756-1.68-.528-3.096-1.248-4.248-2.16l1.98-3.636c.936.768 2.052 1.38 3.348 1.836 1.32.432 2.676.648 4.068.648 1.656 0 2.952-.336 3.888-1.008.96-.696 1.44-1.644 1.44-2.844 0-1.296-.516-2.268-1.548-2.916-1.008-.672-2.748-1.008-5.22-1.008H10.34l1.296-13.716h14.796v3.924H15.596l-.54 5.832h2.412Zm23.651 15.804c-2.016 0-3.816-.504-5.4-1.512-1.584-1.032-2.832-2.52-3.744-4.464-.912-1.968-1.368-4.296-1.368-6.984 0-2.688.456-5.004 1.368-6.948.912-1.968 2.16-3.456 3.744-4.464 1.584-1.032 3.384-1.548 5.4-1.548 2.016 0 3.816.516 5.4 1.548 1.608 1.008 2.868 2.496 3.78 4.464.912 1.944 1.368 4.26 1.368 6.948 0 2.688-.456 5.016-1.368 6.984-.912 1.944-2.172 3.432-3.78 4.464-1.584 1.008-3.384 1.512-5.4 1.512Zm0-4.068c1.8 0 3.216-.744 4.248-2.232 1.056-1.488 1.584-3.708 1.584-6.66s-.528-5.172-1.584-6.66c-1.032-1.488-2.448-2.232-4.248-2.232-1.776 0-3.192.744-4.248 2.232-1.032 1.488-1.548 3.708-1.548 6.66s.516 5.172 1.548 6.66c1.056 1.488 2.472 2.232 4.248 2.232Zm19.327-7.92c-1.8 0-3.252-.636-4.356-1.908-1.104-1.272-1.656-2.94-1.656-5.004 0-2.064.552-3.732 1.656-5.004 1.104-1.272 2.556-1.908 4.356-1.908 1.8 0 3.252.636 4.356 1.908 1.128 1.248 1.692 2.916 1.692 5.004 0 2.088-.564 3.768-1.692 5.04-1.104 1.248-2.556 1.872-4.356 1.872Zm15.12-13.572h3.528L61.886 422h-3.528l17.208-25.2Zm-15.12 11.052c.984 0 1.74-.384 2.268-1.152.552-.768.828-1.848.828-3.24 0-1.392-.276-2.472-.828-3.24-.528-.768-1.284-1.152-2.268-1.152-.936 0-1.692.396-2.268 1.188-.552.768-.828 1.836-.828 3.204s.276 2.448.828 3.24c.576.768 1.332 1.152 2.268 1.152Zm16.524 14.4c-1.8 0-3.252-.636-4.356-1.908-1.104-1.272-1.656-2.94-1.656-5.004 0-2.064.552-3.732 1.656-5.004 1.104-1.272 2.556-1.908 4.356-1.908 1.8 0 3.252.636 4.356 1.908 1.128 1.272 1.692 2.94 1.692 5.004 0 2.064-.564 3.732-1.692 5.004-1.104 1.272-2.556 1.908-4.356 1.908Zm0-2.52c.96 0 1.716-.384 2.268-1.152.552-.792.828-1.872.828-3.24s-.276-2.436-.828-3.204c-.552-.792-1.308-1.188-2.268-1.188-.96 0-1.716.384-2.268 1.152-.552.768-.828 1.848-.828 3.24 0 1.392.276 2.472.828 3.24.552.768 1.308 1.152 2.268 1.152ZM29.836 545.04V549H11.26v-3.132l10.008-9.504c1.128-1.08 1.884-2.016 2.268-2.808.408-.816.612-1.62.612-2.412 0-1.176-.396-2.076-1.188-2.7-.792-.624-1.956-.936-3.492-.936-2.568 0-4.536.876-5.904 2.628l-3.276-2.52c.984-1.32 2.304-2.34 3.96-3.06 1.68-.744 3.552-1.116 5.616-1.116 2.736 0 4.92.648 6.552 1.944 1.632 1.296 2.448 3.06 2.448 5.292a8.787 8.787 0 0 1-.864 3.852c-.576 1.2-1.68 2.568-3.312 4.104l-6.732 6.408h11.88Zm10.585-11.484c3.552 0 6.18.696 7.884 2.088 1.704 1.368 2.556 3.24 2.556 5.616 0 1.512-.372 2.88-1.116 4.104-.744 1.224-1.86 2.196-3.348 2.916-1.488.72-3.324 1.08-5.508 1.08-1.8 0-3.54-.252-5.22-.756-1.68-.528-3.096-1.248-4.248-2.16l1.98-3.636c.936.768 2.052 1.38 3.348 1.836 1.32.432 2.676.648 4.068.648 1.656 0 2.952-.336 3.888-1.008.96-.696 1.44-1.644 1.44-2.844 0-1.296-.516-2.268-1.548-2.916-1.008-.672-2.748-1.008-5.22-1.008h-6.084L34.59 523.8h14.796v3.924H38.55l-.54 5.832h2.412Zm18.404 3.816c-1.8 0-3.252-.636-4.356-1.908-1.104-1.272-1.656-2.94-1.656-5.004 0-2.064.552-3.732 1.656-5.004 1.104-1.272 2.556-1.908 4.356-1.908 1.8 0 3.252.636 4.356 1.908 1.128 1.248 1.692 2.916 1.692 5.004 0 2.088-.564 3.768-1.692 5.04-1.104 1.248-2.556 1.872-4.356 1.872Zm15.12-13.572h3.528L60.265 549h-3.528l17.208-25.2Zm-15.12 11.052c.984 0 1.74-.384 2.268-1.152.552-.768.828-1.848.828-3.24 0-1.392-.276-2.472-.828-3.24-.528-.768-1.284-1.152-2.268-1.152-.936 0-1.692.396-2.268 1.188-.552.768-.828 1.836-.828 3.204s.276 2.448.828 3.24c.576.768 1.332 1.152 2.268 1.152Zm16.524 14.4c-1.8 0-3.252-.636-4.356-1.908-1.104-1.272-1.656-2.94-1.656-5.004 0-2.064.552-3.732 1.656-5.004 1.104-1.272 2.556-1.908 4.356-1.908 1.8 0 3.252.636 4.356 1.908 1.128 1.272 1.692 2.94 1.692 5.004 0 2.064-.564 3.732-1.692 5.004-1.104 1.272-2.556 1.908-4.356 1.908Zm0-2.52c.96 0 1.716-.384 2.268-1.152.552-.792.828-1.872.828-3.24s-.276-2.436-.828-3.204c-.552-.792-1.308-1.188-2.268-1.188-.96 0-1.716.384-2.268 1.152-.552.768-.828 1.848-.828 3.24 0 1.392.276 2.472.828 3.24.552.768 1.308 1.152 2.268 1.152ZM46.584 28.6h-11.7L32.652 34h-5.976L37.908 8.8h5.76L54.936 34h-6.12l-2.232-5.4Zm-1.836-4.428-3.996-9.648-3.996 9.648h7.992Zm37.21-9.828c2.424 0 4.344.72 5.76 2.16 1.44 1.416 2.16 3.552 2.16 6.408V34h-5.615V23.776c0-1.536-.325-2.676-.973-3.42-.624-.768-1.524-1.152-2.7-1.152-1.32 0-2.364.432-3.132 1.296-.767.84-1.151 2.1-1.151 3.78V34H70.69V23.776c0-3.048-1.224-4.572-3.671-4.572-1.297 0-2.329.432-3.097 1.296-.767.84-1.151 2.1-1.151 3.78V34h-5.617V14.632h5.364v2.232a7.12 7.12 0 0 1 2.629-1.872c1.055-.432 2.207-.648 3.456-.648 1.368 0 2.604.276 3.708.828a6.438 6.438 0 0 1 2.663 2.34 7.978 7.978 0 0 1 2.989-2.34c1.224-.552 2.556-.828 3.996-.828Zm22.381 19.944c-2.04 0-3.876-.42-5.508-1.26-1.608-.864-2.868-2.052-3.78-3.564-.912-1.512-1.368-3.228-1.368-5.148 0-1.92.456-3.636 1.368-5.148.912-1.512 2.172-2.688 3.78-3.528 1.632-.864 3.468-1.296 5.508-1.296s3.864.432 5.472 1.296c1.608.84 2.868 2.016 3.78 3.528.912 1.512 1.368 3.228 1.368 5.148 0 1.92-.456 3.636-1.368 5.148-.912 1.512-2.172 2.7-3.78 3.564-1.608.84-3.432 1.26-5.472 1.26Zm0-4.608c1.44 0 2.616-.48 3.528-1.44.936-.984 1.404-2.292 1.404-3.924 0-1.632-.468-2.928-1.404-3.888-.912-.984-2.088-1.476-3.528-1.476s-2.628.492-3.564 1.476c-.936.96-1.404 2.256-1.404 3.888 0 1.632.468 2.94 1.404 3.924.936.96 2.124 1.44 3.564 1.44Zm33.886-15.048V34h-5.328v-2.304a7.643 7.643 0 0 1-2.664 1.944c-1.032.432-2.148.648-3.348.648-2.544 0-4.56-.732-6.048-2.196-1.488-1.464-2.232-3.636-2.232-6.516V14.632h5.616v10.116c0 3.12 1.308 4.68 3.924 4.68 1.344 0 2.424-.432 3.24-1.296.816-.888 1.224-2.196 1.224-3.924v-9.576h5.616Zm16.975-.288c2.4 0 4.332.72 5.796 2.16 1.488 1.44 2.232 3.576 2.232 6.408V34h-5.616V23.776c0-1.536-.336-2.676-1.008-3.42-.672-.768-1.644-1.152-2.916-1.152-1.416 0-2.544.444-3.384 1.332-.84.864-1.26 2.16-1.26 3.888V34h-5.616V14.632h5.364V16.9c.744-.816 1.668-1.44 2.772-1.872 1.104-.456 2.316-.684 3.636-.684Zm25.611 18.72c-.552.408-1.236.72-2.052.936-.792.192-1.632.288-2.52.288-2.304 0-4.092-.588-5.364-1.764-1.248-1.176-1.872-2.904-1.872-5.184v-7.956h-2.988v-4.32h2.988v-4.716h5.616v4.716h4.824v4.32h-4.824v7.884c0 .816.204 1.452.612 1.908.432.432 1.032.648 1.8.648.888 0 1.644-.24 2.268-.72l1.512 3.96ZM34.956 60.188c.672-.936 1.572-1.644 2.7-2.124 1.152-.48 2.472-.72 3.96-.72v5.184a20.268 20.268 0 0 0-1.26-.072c-1.608 0-2.868.456-3.78 1.368-.912.888-1.368 2.232-1.368 4.032V77h-5.616V57.632h5.364v2.556Zm28.795 7.2c0 .072-.035.576-.107 1.512H48.992c.264 1.2.888 2.148 1.872 2.844.983.696 2.208 1.044 3.672 1.044 1.008 0 1.895-.144 2.663-.432.793-.312 1.525-.792 2.197-1.44l2.987 3.24c-1.824 2.088-4.488 3.132-7.992 3.132-2.183 0-4.115-.42-5.795-1.26-1.68-.864-2.976-2.052-3.888-3.564-.913-1.512-1.368-3.228-1.368-5.148 0-1.896.443-3.6 1.331-5.112a9.451 9.451 0 0 1 3.709-3.564c1.584-.864 3.347-1.296 5.291-1.296 1.897 0 3.612.408 5.148 1.224a8.786 8.786 0 0 1 3.6 3.528c.889 1.512 1.333 3.276 1.333 5.292Zm-10.043-5.796c-1.273 0-2.34.36-3.204 1.08-.864.72-1.392 1.704-1.584 2.952h9.54c-.193-1.224-.72-2.196-1.584-2.916-.864-.744-1.92-1.116-3.168-1.116ZM67.49 50.288h5.616V77H67.49V50.288Zm29.8 17.1c0 .072-.035.576-.107 1.512H82.53c.264 1.2.888 2.148 1.872 2.844.984.696 2.208 1.044 3.672 1.044 1.008 0 1.896-.144 2.664-.432.792-.312 1.524-.792 2.196-1.44l2.988 3.24c-1.824 2.088-4.488 3.132-7.992 3.132-2.184 0-4.116-.42-5.796-1.26-1.68-.864-2.976-2.052-3.888-3.564-.912-1.512-1.368-3.228-1.368-5.148 0-1.896.444-3.6 1.332-5.112a9.451 9.451 0 0 1 3.708-3.564c1.584-.864 3.348-1.296 5.292-1.296 1.896 0 3.612.408 5.148 1.224a8.786 8.786 0 0 1 3.6 3.528c.888 1.512 1.332 3.276 1.332 5.292Zm-10.043-5.796c-1.272 0-2.34.36-3.204 1.08-.864.72-1.392 1.704-1.584 2.952h9.54c-.192-1.224-.72-2.196-1.584-2.916-.864-.744-1.92-1.116-3.168-1.116Zm21.067-4.248c3 0 5.304.72 6.912 2.16 1.608 1.416 2.412 3.564 2.412 6.444V77h-5.256v-2.412c-1.056 1.8-3.024 2.7-5.904 2.7-1.488 0-2.784-.252-3.888-.756-1.08-.504-1.908-1.2-2.484-2.088-.576-.888-.864-1.896-.864-3.024 0-1.8.672-3.216 2.016-4.248 1.368-1.032 3.468-1.548 6.3-1.548h4.464c0-1.224-.372-2.16-1.116-2.808-.744-.672-1.86-1.008-3.348-1.008a9.62 9.62 0 0 0-3.06.504c-.984.312-1.824.744-2.52 1.296l-2.016-3.924c1.056-.744 2.316-1.32 3.78-1.728a17.212 17.212 0 0 1 4.572-.612Zm-.432 16.164c.96 0 1.812-.216 2.556-.648.744-.456 1.272-1.116 1.584-1.98V68.9h-3.852c-2.304 0-3.456.756-3.456 2.268 0 .72.276 1.296.828 1.728.576.408 1.356.612 2.34.612Zm21.355 3.78a19.37 19.37 0 0 1-4.716-.576c-1.536-.408-2.76-.912-3.672-1.512l1.872-4.032c.864.552 1.908 1.008 3.132 1.368 1.224.336 2.424.504 3.6.504 2.376 0 3.564-.588 3.564-1.764 0-.552-.324-.948-.972-1.188-.648-.24-1.644-.444-2.988-.612-1.584-.24-2.892-.516-3.924-.828a6.214 6.214 0 0 1-2.7-1.656c-.744-.792-1.116-1.92-1.116-3.384 0-1.224.348-2.304 1.044-3.24.72-.96 1.752-1.704 3.096-2.232 1.368-.528 2.976-.792 4.824-.792 1.368 0 2.724.156 4.068.468 1.368.288 2.496.696 3.384 1.224l-1.872 3.996c-1.704-.96-3.564-1.44-5.58-1.44-1.2 0-2.1.168-2.7.504-.6.336-.9.768-.9 1.296 0 .6.324 1.02.972 1.26.648.24 1.68.468 3.096.684 1.584.264 2.88.552 3.888.864a5.703 5.703 0 0 1 2.628 1.62c.744.792 1.116 1.896 1.116 3.312 0 1.2-.36 2.268-1.08 3.204-.72.936-1.776 1.668-3.168 2.196-1.368.504-3 .756-4.896.756Zm31.581-9.9c0 .072-.036.576-.108 1.512h-14.652c.264 1.2.888 2.148 1.872 2.844.984.696 2.208 1.044 3.672 1.044 1.008 0 1.896-.144 2.664-.432.792-.312 1.524-.792 2.196-1.44l2.988 3.24c-1.824 2.088-4.488 3.132-7.992 3.132-2.184 0-4.116-.42-5.796-1.26-1.68-.864-2.976-2.052-3.888-3.564-.912-1.512-1.368-3.228-1.368-5.148 0-1.896.444-3.6 1.332-5.112a9.451 9.451 0 0 1 3.708-3.564c1.584-.864 3.348-1.296 5.292-1.296 1.896 0 3.612.408 5.148 1.224a8.786 8.786 0 0 1 3.6 3.528c.888 1.512 1.332 3.276 1.332 5.292Zm-10.044-5.796c-1.272 0-2.34.36-3.204 1.08-.864.72-1.392 1.704-1.584 2.952h9.54c-.192-1.224-.72-2.196-1.584-2.916-.864-.744-1.92-1.116-3.168-1.116Zm33.511-11.304V77h-5.364v-2.232c-1.392 1.68-3.408 2.52-6.048 2.52-1.824 0-3.48-.408-4.968-1.224-1.464-.816-2.616-1.98-3.456-3.492-.84-1.512-1.26-3.264-1.26-5.256 0-1.992.42-3.744 1.26-5.256.84-1.512 1.992-2.676 3.456-3.492 1.488-.816 3.144-1.224 4.968-1.224 2.472 0 4.404.78 5.796 2.34v-9.396h5.616Zm-10.44 22.392c1.416 0 2.592-.48 3.528-1.44.936-.984 1.404-2.292 1.404-3.924 0-1.632-.468-2.928-1.404-3.888-.936-.984-2.112-1.476-3.528-1.476-1.44 0-2.628.492-3.564 1.476-.936.96-1.404 2.256-1.404 3.888 0 1.632.468 2.94 1.404 3.924.936.96 2.124 1.44 3.564 1.44Z" fill="#000" fill-opacity=".6"/><path stroke="#5158F6" stroke-width="10" d="M111.531 102.333V568.36"/><path d="M631.208 555.552h-8.064V550.8h21.96v4.752h-8.064V576h-5.832v-20.448Zm16.216 1.08h5.616V576h-5.616v-19.368Zm2.808-2.7c-1.032 0-1.872-.3-2.52-.9-.648-.6-.972-1.344-.972-2.232 0-.888.324-1.632.972-2.232.648-.6 1.488-.9 2.52-.9s1.872.288 2.52.864c.648.576.972 1.296.972 2.16 0 .936-.324 1.716-.972 2.34-.648.6-1.488.9-2.52.9Zm32.824 2.412c2.424 0 4.344.72 5.76 2.16 1.44 1.416 2.16 3.552 2.16 6.408V576h-5.616v-10.224c0-1.536-.324-2.676-.972-3.42-.624-.768-1.524-1.152-2.7-1.152-1.32 0-2.364.432-3.132 1.296-.768.84-1.152 2.1-1.152 3.78V576h-5.616v-10.224c0-3.048-1.224-4.572-3.672-4.572-1.296 0-2.328.432-3.096 1.296-.768.84-1.152 2.1-1.152 3.78V576h-5.616v-19.368h5.364v2.232a7.12 7.12 0 0 1 2.628-1.872c1.056-.432 2.208-.648 3.456-.648 1.368 0 2.604.276 3.708.828a6.438 6.438 0 0 1 2.664 2.34 7.978 7.978 0 0 1 2.988-2.34c1.224-.552 2.556-.828 3.996-.828Zm32.137 10.044c0 .072-.036.576-.108 1.512h-14.652c.264 1.2.888 2.148 1.872 2.844.984.696 2.208 1.044 3.672 1.044 1.008 0 1.896-.144 2.664-.432.792-.312 1.524-.792 2.196-1.44l2.988 3.24c-1.824 2.088-4.488 3.132-7.992 3.132-2.184 0-4.116-.42-5.796-1.26-1.68-.864-2.976-2.052-3.888-3.564-.912-1.512-1.368-3.228-1.368-5.148 0-1.896.444-3.6 1.332-5.112a9.451 9.451 0 0 1 3.708-3.564c1.584-.864 3.348-1.296 5.292-1.296 1.896 0 3.612.408 5.148 1.224a8.786 8.786 0 0 1 3.6 3.528c.888 1.512 1.332 3.276 1.332 5.292Zm-10.044-5.796c-1.272 0-2.34.36-3.204 1.08-.864.72-1.392 1.704-1.584 2.952h9.54c-.192-1.224-.72-2.196-1.584-2.916-.864-.744-1.92-1.116-3.168-1.116Z" fill="#000" fill-opacity=".6"/><path stroke="#5158F6" stroke-width="6" d="m113.879 560.948 371.068-371.069"/><path d="M168.255 585.465v25.2h-4.68v-21.276h-5.328v-3.924h10.008ZM288.824 606.705v3.96h-18.576v-3.132l10.008-9.504c1.128-1.08 1.884-2.016 2.268-2.808.408-.816.612-1.62.612-2.412 0-1.176-.396-2.076-1.188-2.7-.792-.624-1.956-.936-3.492-.936-2.568 0-4.536.876-5.904 2.628l-3.276-2.52c.984-1.32 2.304-2.34 3.96-3.06 1.68-.744 3.552-1.116 5.616-1.116 2.736 0 4.92.648 6.552 1.944 1.632 1.296 2.448 3.06 2.448 5.292a8.787 8.787 0 0 1-.864 3.852c-.576 1.2-1.68 2.568-3.312 4.104l-6.732 6.408h11.88ZM396.71 595.869c2.328.288 4.104 1.08 5.328 2.376 1.224 1.296 1.836 2.916 1.836 4.86 0 1.464-.372 2.796-1.116 3.996-.744 1.2-1.872 2.16-3.384 2.88-1.488.696-3.312 1.044-5.472 1.044-1.8 0-3.54-.252-5.22-.756-1.656-.528-3.072-1.248-4.248-2.16l2.016-3.636c.912.768 2.016 1.38 3.312 1.836 1.32.432 2.676.648 4.068.648 1.656 0 2.952-.336 3.888-1.008.96-.696 1.44-1.632 1.44-2.808s-.456-2.088-1.368-2.736c-.888-.672-2.256-1.008-4.104-1.008h-2.304v-3.204l5.724-6.804h-11.448v-3.924h17.172v3.132l-6.12 7.272ZM523.859 604.941h-4.464v5.724h-4.536v-5.724h-13.824v-3.24l12.42-16.236h5.004l-11.7 15.516h8.244v-5.076h4.392v5.076h4.464v3.96Z" fill="#000" fill-opacity=".6"/><path d="M556 536.484v13.25l23.681 13.265L556 576.25v13.25l47.362-26.501L556 536.484Z" fill="#5158F6"/></svg>