<svg width="498" height="562" viewBox="0 0 498 562" fill="none" xmlns="http://www.w3.org/2000/svg">
<path d="M292.374 561.875L263.156 546.959C247.67 561.86 226.429 558.485 216.1 539.084C194.712 542.605 185.26 537.477 177.766 518.106C161.696 518.632 151.148 511.4 146.474 495.316C132.244 496.046 121.375 490.524 116.306 476.485C111.237 462.446 118.936 451.927 128.183 440.43C125.013 440.43 122.938 439.816 121.507 440.518C110.009 446.142 98.9942 445.265 88.1836 438.75C83.2019 435.74 78.1034 432.906 73.1801 429.78C64.0057 423.936 61.3468 414.031 66.869 404.623C89.8636 365.481 112.96 326.397 136.16 287.371C141.828 277.832 151.952 275.377 161.667 280.856C167.218 284.002 172.702 287.254 178.117 290.615C188.737 297.232 194.099 306.904 193.807 319.409C193.618 320.816 193.899 322.247 194.607 323.478C195.315 324.709 196.41 325.672 197.722 326.217C201.05 328.134 204.757 329.298 208.583 329.629C212.41 329.96 216.262 329.448 219.869 328.13C225.172 326.217 230.446 324.201 235.647 322.009C249.204 316.297 262.381 317.144 274.945 324.58C276.68 325.673 278.643 326.352 280.682 326.565C282.721 326.778 284.782 326.519 286.705 325.808C293.484 323.733 300.54 322.55 307.319 320.475C317.545 317.334 327.406 318.386 337.15 322.535C342.415 325.026 347.884 327.059 353.498 328.613C358.216 329.708 363.315 329.241 368.91 329.504C365.988 316.078 367.04 304.362 376.58 296.297C385.055 289.441 394.349 283.665 404.249 279.103C412.094 275.29 420.597 279.687 425.739 288.365C444.039 319.268 462.325 350.185 480.596 381.117C484.979 388.656 489.566 396.15 493.934 403.732C499.982 414.207 497.44 424.185 487.112 430.437C481.823 433.651 476.506 436.851 471.115 439.889C464.219 443.79 456.623 445.879 449.041 443.439C441.838 441.116 437.353 444.9 432.167 448.333C439.691 459.816 440.933 471.445 432.562 482.591C424.687 493.125 413.804 495.74 400.729 492.146C399.122 500.035 395.674 506.93 388.851 511.576C385.655 513.825 382.017 515.369 378.178 516.104C374.34 516.84 370.389 516.75 366.587 515.842C364.805 525.63 360.481 533.548 351.555 538.164C342.629 542.781 334.024 542.182 324.703 537.813C322.322 550.772 314.17 558.266 302.205 561.904L292.374 561.875ZM273.382 533.036C278.787 536.25 284.207 539.537 289.686 542.722C296.829 546.871 303.36 545.644 306.749 539.713C310.138 533.781 307.932 527.733 301.227 523.643C296.566 520.721 291.745 518.164 287.173 515.199C282.79 512.379 281.753 507.777 284.12 503.833C286.486 499.888 291.015 498.866 295.602 501.159C296.902 501.802 298.115 502.62 299.371 503.351C310.503 509.954 321.562 516.66 332.782 523.102C338.626 526.418 344.893 524.782 348.136 519.596C351.379 514.41 349.802 507.763 344.09 503.935C342.731 503.015 341.27 502.255 339.867 501.422C328.122 494.439 316.371 487.461 304.616 480.488C300.905 478.296 298.626 474.863 300.336 470.933C301.76 468.145 304.211 466.019 307.173 465.002C309.262 464.374 312.388 466.039 314.652 467.354C331.628 477.259 348.516 487.369 365.462 497.376C372.533 501.539 379.195 500.298 382.599 494.454C386.003 488.61 383.928 482.372 376.755 478.077C361.426 468.932 346.071 459.821 330.693 450.744C328.195 449.283 325.595 447.822 323.257 446.171C321.511 445.101 320.26 443.382 319.778 441.392C319.296 439.401 319.623 437.301 320.686 435.55C322.702 431.606 327.172 430.233 331.482 432.147C332.954 432.872 334.383 433.682 335.762 434.572C358.012 447.72 380.218 461.043 402.569 474.016C405.492 475.768 408.833 476.702 412.241 476.719C416.988 476.558 420.159 473.242 421.371 468.567C422.701 463.439 420.597 458.91 415.279 455.725C397.617 445.163 379.882 434.703 362.161 424.199L307.874 392.059C306.924 393.929 306.179 395.551 305.303 397.085C298.714 408.772 288.926 415.463 275.471 416.369C263.594 417.172 255.632 409.78 255.442 397.757C255.311 390.277 255.515 382.783 255.442 375.303C255.208 362.067 254.828 348.846 264.792 337.962C258.554 334.544 252.725 333.813 246.75 335.713C241.038 337.553 235.384 339.613 229.847 341.936C221.242 345.574 212.316 347.444 203.2 345.384C197.634 344.127 192.331 341.673 186.619 339.657C169.994 367.784 153.33 395.989 136.627 424.272C136.101 425.312 135.633 426.38 135.225 427.472C137.29 427.651 139.368 427.651 141.433 427.472C144.983 426.8 148.431 425.266 151.981 425.017C162.938 424.258 171.104 429.502 177.299 438.165C195.472 423.673 218.204 430.861 224.588 452.979C249.511 455.521 257.502 465.28 255.077 490.203C275.383 496.587 282.22 514.498 273.367 533.036H273.382ZM272.14 399.627C278.627 400.503 284.047 398.502 287.129 393.915C290.011 389.192 291.992 383.976 292.973 378.532C294.434 371.665 299.43 368.612 305.741 371.738C307.041 372.396 308.254 373.199 309.51 373.944C343.987 394.397 378.474 414.825 412.971 435.229C414.666 436.222 417.237 437.347 418.698 436.69C422.116 435.229 425.111 432.833 428.442 430.7C427.346 428.757 426.484 427.165 425.52 425.616C417.631 412.264 409.738 398.921 401.839 385.588C399.575 381.76 398.917 377.407 402.686 374.733C405.024 373.053 409.041 372.878 412.08 373.375C413.848 373.681 415.513 376.428 416.696 378.385C424.673 391.68 432.459 405.091 440.392 418.399C446.236 428.129 454.738 430.233 464.599 424.521C468.529 422.227 472.298 419.597 476.374 417.611C480.45 415.624 480.757 413.622 478.419 409.693C456.36 372.732 434.592 335.654 412.606 298.664C411.729 297.203 410.663 295.742 409.523 294.121C403.87 297.466 398.683 300.461 393.556 303.558C383.329 309.738 381.167 318.094 387.23 328.525C390.079 333.419 393.073 338.181 395.762 343.134C396.82 344.981 397.107 347.171 396.56 349.228C396.013 351.285 394.676 353.043 392.84 354.12C391.01 355.184 388.84 355.503 386.781 355.011C384.722 354.519 382.931 353.253 381.781 351.476C380.671 350.024 379.72 348.456 378.947 346.801C377.617 343.733 375.864 343.674 372.577 344.113C365.477 345.077 358.041 345.953 351.073 344.799C343.856 343.601 337.121 339.642 329.992 337.495C325.39 336.151 320.233 334.792 315.69 335.552C306.056 337.429 296.531 339.828 287.158 342.739C278.393 345.208 272.754 351.242 272.301 360.27C271.658 373.228 272.126 386.172 272.126 399.627H272.14ZM151.441 293.872L80.0025 414.645C85.554 417.947 90.5064 420.941 95.4881 423.878C106.898 430.598 114.801 428.597 121.536 417.231C135.94 392.882 150.325 368.534 164.691 344.186C168.212 338.225 171.908 332.352 175.209 326.26C179.212 318.868 177.897 310.731 171.455 306.115C165.29 301.834 158.599 298.182 151.441 293.872ZM208.27 458.881C207.51 453.037 205.348 449.298 200.41 447.647C198.177 446.767 195.707 446.693 193.425 447.437C191.143 448.181 189.191 449.696 187.905 451.723C180.337 461.949 172.93 472.351 165.582 482.752C161.331 488.8 162.091 495.491 167.204 499.26C172.667 503.292 179.095 501.992 183.712 495.666C191.055 485.674 198.267 475.603 205.348 465.455C206.55 463.372 207.529 461.169 208.27 458.881ZM227.773 468.917C225.216 470.378 221.929 471.372 220.234 473.578C211.805 484.754 203.609 496.119 195.75 507.704C192.565 512.394 194.289 518.53 198.598 521.831C202.908 525.133 209.877 525.104 213.383 520.458C221.929 509.151 230.402 497.726 238.087 485.82C242.732 478.705 236.728 469.633 227.831 468.917H227.773ZM142.602 479.538C145.217 478.077 148.533 477.288 150.301 475.155C154.936 469.565 159.182 463.664 163.011 457.493C164.278 455.127 164.634 452.377 164.011 449.766C163.388 447.155 161.829 444.863 159.629 443.324C157.429 441.785 154.742 441.106 152.075 441.415C149.408 441.724 146.948 443.001 145.159 445.002C140.65 450.468 136.53 456.243 132.829 462.285C128.431 469.692 133.764 478.603 142.661 479.538H142.602ZM231.001 529.735C231.001 533.182 233.339 536.703 237.707 538.617C242.075 540.531 246.574 539.873 249.701 536.236C253.379 531.969 256.669 527.383 259.533 522.532C261.987 518.413 261.125 514.03 257.984 510.392C254.843 506.755 250.563 506.01 246.048 507.266C241.125 508.756 231.074 523.044 231.001 529.735Z" fill="#5158F6"/>
<path d="M295.647 0.888672C306.209 3.81047 313.733 11.115 321.198 18.6824C343.871 41.677 366.685 64.5255 389.641 87.2279C393.619 90.987 396.76 95.5423 398.859 100.597C400.959 105.651 401.969 111.092 401.825 116.563C401.635 161.106 401.752 205.678 401.737 250.206C401.876 252.026 401.792 253.855 401.489 255.655C400.452 259.877 397.588 262.302 393.206 262.127C391.256 262.166 389.366 261.459 387.921 260.15C386.476 258.841 385.586 257.029 385.434 255.085C385.243 253.266 385.199 251.434 385.302 249.607V111.566C383.052 111.42 381.153 111.201 379.239 111.201C364.849 111.201 350.445 111.201 336.04 111.201C309.613 111.07 291.79 93.3198 291.614 66.8775C291.512 50.6615 291.614 34.4309 291.614 17.3968H44.7223C26.8409 17.3968 16.5416 27.6231 16.5416 45.563C16.5416 189.238 16.5416 332.922 16.5416 476.616C16.5416 494.147 26.9139 504.593 44.2987 504.636C71.0916 504.709 97.8845 504.636 124.648 504.724C127.396 504.554 130.139 505.119 132.595 506.36C137.855 509.633 136.978 517.682 131.281 520.151C129.418 520.866 127.431 521.199 125.437 521.13C97.9137 521.13 70.3903 521.334 42.867 521.13C21.6839 520.969 5.1027 507.456 0.953742 487.266C0.277911 483.311 0.00381819 479.297 0.135641 475.287C0.135641 332.518 0.135641 189.744 0.135641 46.9655C0.135641 22.4223 10.7418 8.47075 34.5106 1.67756C34.832 1.5753 35.0658 1.23929 35.3433 1.00555L295.647 0.888672ZM308.605 31.5676C308.605 44.9494 308.035 59.1348 308.795 73.2617C309.335 83.225 317.633 92.7939 327.392 93.5682C342.132 94.7369 357.034 93.875 370.912 93.875L308.605 31.5676Z" fill="#5158F6"/>
<path d="M200.967 219.016H70.8149C69.1735 219.082 67.5297 219.053 65.8917 218.929C63.9365 218.828 62.0929 217.987 60.7359 216.576C59.379 215.165 58.6106 213.29 58.5872 211.332C58.3777 209.477 58.8572 207.61 59.9346 206.085C61.0121 204.56 62.6122 203.485 64.4308 203.063C66.1975 202.628 68.019 202.455 69.8361 202.552C157.13 202.552 244.423 202.552 331.717 202.552C333.712 202.452 335.71 202.674 337.634 203.209C339.355 203.816 340.822 204.985 341.796 206.528C342.77 208.071 343.196 209.898 343.003 211.713C342.81 213.527 342.011 215.224 340.734 216.528C339.458 217.833 337.779 218.668 335.968 218.899C334.152 219.07 332.326 219.109 330.505 219.016H200.967Z" fill="#5158F6"/>
<path d="M201.608 151.96C244.792 151.96 287.981 151.96 331.175 151.96C333.352 151.96 336.245 151.405 337.545 152.545C339.882 154.605 342.76 157.819 342.643 160.434C342.527 163.049 339.342 165.897 336.902 167.884C335.631 168.921 333.045 168.41 331.058 168.41H70.7991C69.718 168.41 68.6223 168.41 67.5267 168.41C62.1213 168.089 58.4983 164.714 58.5275 160.054C58.5567 155.394 62.1506 151.99 67.6581 151.975C94.8017 151.917 121.955 151.917 149.118 151.975L201.608 151.96Z" fill="#5158F6"/>
<path d="M133.852 94.6346H196.115C198.299 94.5554 200.486 94.6826 202.646 95.0145C206.751 95.8326 209.512 98.8713 208.825 102.713C208.314 105.562 205.611 108.352 203.245 110.427C202.032 111.508 199.417 111.143 197.401 111.143C154.976 111.143 112.557 111.143 70.142 111.143C68.1551 111.143 65.5401 111.493 64.2984 110.427C61.9463 108.323 59.2291 105.518 58.7616 102.67C58.1188 98.8566 60.8506 95.7887 64.9996 94.9999C66.975 94.6874 68.9759 94.5651 70.9747 94.6346H133.852Z" fill="#5158F6"/>
</svg>
