<svg width="994" height="674" viewBox="0 0 994 674" fill="none" xmlns="http://www.w3.org/2000/svg">
<g clip-path="url(#clip0)">
<g filter="url(#filter0_dii)">
<ellipse cx="497" cy="427" rx="465" ry="215" fill="#313144"/>
</g>
<g filter="url(#filter1_dii)">
<ellipse cx="497" cy="367" rx="465" ry="215" fill="#313144"/>
</g>
<g filter="url(#filter2_dii)">
<ellipse cx="497" cy="307" rx="465" ry="215" fill="#313144"/>
</g>
<g filter="url(#filter3_dii)">
<ellipse cx="497" cy="247" rx="465" ry="215" fill="#313144"/>
</g>
<g filter="url(#filter4_d)">
<path d="M234.637 199.745C238.572 200.796 243.604 200.172 245.876 198.353C248.147 196.534 246.799 194.207 242.864 193.157C238.929 192.106 233.897 192.73 231.626 194.549C229.354 196.368 230.702 198.695 234.637 199.745Z" fill="#5158F6" fill-opacity="0.6"/>
<path opacity="0.6" d="M338.675 222.206C342.61 223.257 347.642 222.634 349.914 220.814C352.186 218.994 350.838 216.668 346.902 215.617C342.967 214.567 337.936 215.19 335.663 217.01C333.391 218.829 334.74 221.156 338.675 222.206Z" fill="#5158F6"/>
<path opacity="0.6" d="M343.736 248.707C347.671 249.757 352.703 249.134 354.974 247.315C357.246 245.495 355.898 243.169 351.963 242.118C348.028 241.068 342.996 241.691 340.724 243.511C338.453 245.33 339.801 247.656 343.736 248.707Z" fill="#5158F6"/>
<path d="M445.457 257.44C449.393 258.49 454.425 257.867 456.697 256.047C458.969 254.227 457.62 251.901 453.685 250.85C449.75 249.8 444.718 250.423 442.446 252.243C440.174 254.062 441.522 256.389 445.457 257.44Z" fill="#5158F6"/>
<path d="M365.851 100.799C369.786 101.85 374.818 101.227 377.09 99.4071C379.362 97.5877 378.014 95.2611 374.079 94.2106C370.144 93.1602 365.112 93.7836 362.84 95.603C360.568 97.4225 361.916 99.749 365.851 100.799Z" fill="#5158F6" fill-opacity="0.6"/>
<path d="M321.306 144.451C327.399 146.078 335.19 145.113 338.708 142.295C342.226 139.478 340.138 135.876 334.045 134.249C327.952 132.623 320.161 133.588 316.643 136.405C313.125 139.222 315.213 142.825 321.306 144.451Z" fill="#5158F6" fill-opacity="0.6"/>
<path d="M440.863 240.132C445.939 241.487 452.434 240.682 455.365 238.335C458.297 235.987 456.556 232.985 451.479 231.63C446.401 230.274 439.909 231.078 436.977 233.426C434.046 235.774 435.784 238.776 440.863 240.132Z" fill="#5158F6"/>
<path d="M190.801 242.456C195.878 243.812 202.37 243.008 205.303 240.659C208.234 238.312 206.494 235.31 201.417 233.954C196.339 232.599 189.846 233.404 186.915 235.751C183.983 238.099 185.723 241.101 190.801 242.456Z" fill="#5158F6" fill-opacity="0.6"/>
<path d="M289.793 238.77C295.378 240.261 302.52 239.377 305.745 236.794C308.97 234.211 307.056 230.909 301.471 229.418C295.885 227.927 288.744 228.812 285.519 231.394C282.294 233.977 284.208 237.279 289.793 238.77Z" fill="#5158F6"/>
<path opacity="0.6" d="M352.139 303.093C357.723 304.584 364.866 303.698 368.09 301.116C371.315 298.534 369.401 295.232 363.816 293.741C358.23 292.25 351.088 293.134 347.864 295.717C344.639 298.299 346.552 301.602 352.139 303.093Z" fill="#5158F6"/>
<path opacity="0.6" d="M348.154 275.603C352.597 276.789 358.277 276.086 360.843 274.031C363.408 271.977 361.885 269.351 357.442 268.165C353 266.979 347.319 267.682 344.754 269.736C342.188 271.791 343.712 274.417 348.154 275.603Z" fill="#5158F6"/>
<path d="M194.192 270.423C200.856 272.202 209.378 271.146 213.225 268.065C217.073 264.983 214.789 261.044 208.125 259.265C201.461 257.486 192.94 258.541 189.091 261.623C185.244 264.704 187.527 268.644 194.192 270.423Z" fill="#5158F6"/>
<path d="M414.787 145.177C425.005 147.905 438.072 146.286 443.971 141.561C449.871 136.836 446.37 130.795 436.151 128.067C425.933 125.339 412.866 126.958 406.967 131.683C401.067 136.408 404.568 142.449 414.787 145.177Z" fill="#5158F6"/>
<path d="M411.019 117.392C422.19 120.374 436.473 118.604 442.923 113.439C449.372 108.274 445.545 101.67 434.374 98.6879C423.204 95.7059 408.92 97.4756 402.47 102.64C396.021 107.805 399.848 114.41 411.019 117.392Z" fill="#5158F6"/>
<path d="M367.137 160.515C376.721 163.073 388.976 161.555 394.509 157.124C400.043 152.692 396.759 147.026 387.175 144.468C377.591 141.909 365.336 143.428 359.803 147.859C354.27 152.29 357.553 157.956 367.137 160.515Z" fill="#5158F6"/>
<path d="M421.574 170.298C431.665 172.992 444.569 171.393 450.396 166.727C456.222 162.061 452.765 156.095 442.673 153.401C432.581 150.707 419.677 152.305 413.851 156.972C408.024 161.638 411.482 167.604 421.574 170.298Z" fill="#5158F6"/>
<path d="M322.896 173.854C332.543 176.43 344.879 174.901 350.449 170.441C356.019 165.98 352.714 160.276 343.066 157.701C333.419 155.126 321.083 156.654 315.513 161.115C309.943 165.575 313.248 171.279 322.896 173.854Z" fill="#5158F6"/>
<path d="M375.277 184.791C384.48 187.247 396.248 185.79 401.561 181.534C406.875 177.279 403.722 171.838 394.519 169.381C385.316 166.925 373.548 168.383 368.234 172.638C362.921 176.893 366.074 182.334 375.277 184.791Z" fill="#5158F6"/>
<path d="M428.933 195.076C436.93 197.211 447.156 195.944 451.773 192.247C456.391 188.549 453.651 183.821 445.653 181.686C437.656 179.551 427.43 180.818 422.813 184.516C418.196 188.213 420.936 192.942 428.933 195.076Z" fill="#5158F6"/>
<path d="M381.653 210.37C389.65 212.505 399.876 211.237 404.494 207.54C409.111 203.842 406.371 199.114 398.374 196.979C390.377 194.844 380.151 196.111 375.533 199.809C370.916 203.507 373.656 208.235 381.653 210.37Z" fill="#5158F6"/>
<path d="M329.253 199.072C337.25 201.207 347.476 199.94 352.092 196.243C356.71 192.545 353.97 187.817 345.973 185.682C337.976 183.547 327.749 184.814 323.132 188.512C318.516 192.209 321.255 196.937 329.253 199.072Z" fill="#5158F6"/>
<path d="M281.085 215.19C290.225 217.63 301.911 216.182 307.188 211.957C312.465 207.731 309.333 202.327 300.194 199.887C291.054 197.448 279.367 198.895 274.09 203.122C268.814 207.347 271.945 212.751 281.085 215.19Z" fill="#5158F6"/>
<path d="M235.035 229.608C243.159 231.777 253.548 230.49 258.238 226.733C262.929 222.977 260.145 218.174 252.021 216.005C243.896 213.837 233.509 215.123 228.818 218.88C224.128 222.636 226.911 227.44 235.035 229.608Z" fill="#5158F6"/>
<path d="M390.66 264.138C399.734 266.56 411.341 265.123 416.581 260.926C421.822 256.73 418.71 251.363 409.636 248.941C400.559 246.518 388.953 247.955 383.713 252.152C378.473 256.349 381.583 261.714 390.66 264.138Z" fill="#5158F6"/>
<path d="M385.176 237.735C394.315 240.175 406.002 238.727 411.279 234.501C416.556 230.275 413.424 224.872 404.284 222.432C395.145 219.992 383.458 221.44 378.182 225.665C372.905 229.892 376.036 235.295 385.176 237.735Z" fill="#5158F6"/>
<path d="M238.722 257.09C247.862 259.529 259.548 258.082 264.826 253.855C270.103 249.629 266.972 244.226 257.832 241.786C248.692 239.346 237.006 240.794 231.728 245.02C226.451 249.246 229.583 254.65 238.722 257.09Z" fill="#5158F6"/>
<path d="M278.064 186.682C284.855 188.495 293.539 187.42 297.46 184.279C301.38 181.14 299.054 177.124 292.263 175.311C285.472 173.498 276.787 174.575 272.867 177.714C268.945 180.855 271.273 184.87 278.064 186.682Z" fill="#5158F6"/>
<path d="M435.265 220.57C442.057 222.383 450.739 221.307 454.661 218.167C458.581 215.027 456.255 211.012 449.464 209.199C442.672 207.386 433.988 208.462 430.068 211.602C426.146 214.742 428.474 218.757 435.265 220.57Z" fill="#5158F6"/>
<path d="M364.475 132.454C374.567 135.148 387.471 133.549 393.298 128.883C399.124 124.217 395.666 118.251 385.575 115.557C375.483 112.863 362.579 114.462 356.753 119.128C350.926 123.794 354.384 129.76 364.475 132.454Z" fill="#5158F6"/>
<path d="M445.823 278.862C452.678 280.692 461.442 279.606 465.399 276.437C469.358 273.267 467.009 269.215 460.155 267.385C453.3 265.555 444.536 266.641 440.578 269.811C436.62 272.98 438.969 277.032 445.823 278.862Z" fill="#5158F6"/>
<path d="M703.628 324.942C707.561 325.992 712.593 325.369 714.865 323.549C717.137 321.729 715.789 319.403 711.855 318.353C707.92 317.302 702.888 317.926 700.616 319.745C698.344 321.565 699.692 323.891 703.628 324.942Z" fill="#5158F6" fill-opacity="0.6"/>
<path opacity="0.6" d="M609.428 294.482C613.363 295.533 618.395 294.91 620.667 293.09C622.939 291.27 621.591 288.944 617.655 287.893C613.72 286.843 608.688 287.466 606.416 289.286C604.144 291.105 605.492 293.432 609.428 294.482Z" fill="#5158F6"/>
<path opacity="0.6" d="M557.375 305.738C561.311 306.788 566.343 306.165 568.614 304.346C570.886 302.526 569.538 300.2 565.602 299.149C561.669 298.099 556.637 298.723 554.365 300.542C552.094 302.361 553.442 304.687 557.375 305.738Z" fill="#5158F6"/>
<path d="M490.16 269.372C494.095 270.423 499.127 269.799 501.399 267.98C503.671 266.16 502.323 263.834 498.387 262.783C494.452 261.732 489.422 262.356 487.15 264.176C484.878 265.996 486.224 268.322 490.16 269.372Z" fill="#5158F6"/>
<path d="M823.355 222.929C827.29 223.98 832.322 223.356 834.594 221.537C836.866 219.717 835.517 217.391 831.582 216.34C827.647 215.29 822.615 215.913 820.343 217.732C818.071 219.552 819.419 221.878 823.355 222.929Z" fill="#5158F6" fill-opacity="0.6"/>
<path d="M763.862 262.593C769.955 264.219 777.746 263.254 781.264 260.437C784.782 257.62 782.694 254.017 776.601 252.391C770.508 250.764 762.717 251.73 759.199 254.547C755.681 257.364 757.769 260.966 763.862 262.593Z" fill="#5158F6" fill-opacity="0.6"/>
<path d="M524.872 262.558C529.951 263.913 536.443 263.108 539.374 260.761C542.306 258.413 540.567 255.412 535.489 254.056C530.412 252.701 523.92 253.505 520.988 255.853C518.057 258.2 519.796 261.203 524.872 262.558Z" fill="#5158F6"/>
<path d="M645.433 363.819C650.51 365.174 657.001 364.369 659.933 362.021C662.864 359.674 661.126 356.672 656.049 355.317C650.971 353.961 644.478 354.766 641.547 357.113C638.615 359.461 640.355 362.463 645.433 363.819Z" fill="#5158F6" fill-opacity="0.6"/>
<path d="M602.839 322.338C608.424 323.828 615.567 322.944 618.793 320.361C622.017 317.779 620.102 314.476 614.517 312.986C608.932 311.495 601.791 312.379 598.566 314.962C595.341 317.545 597.255 320.847 602.839 322.338Z" fill="#5158F6"/>
<path opacity="0.6" d="M451.313 329.567C456.9 331.058 464.042 330.173 467.266 327.591C470.491 325.008 468.577 321.706 462.991 320.215C457.406 318.724 450.265 319.609 447.04 322.191C443.816 324.773 445.728 328.076 451.313 329.567Z" fill="#5158F6"/>
<path opacity="0.6" d="M504.677 317.386C509.121 318.572 514.799 317.869 517.365 315.814C519.93 313.759 518.409 311.134 513.965 309.948C509.522 308.761 503.843 309.465 501.277 311.519C498.712 313.574 500.233 316.2 504.677 317.386Z" fill="#5158F6"/>
<path d="M591.359 376.445C598.024 378.225 606.545 377.168 610.392 374.087C614.24 371.006 611.958 367.066 605.292 365.287C598.629 363.508 590.107 364.563 586.259 367.645C582.412 370.726 584.695 374.667 591.359 376.445Z" fill="#5158F6"/>
<path d="M715.648 225.491C725.867 228.219 738.932 226.6 744.832 221.875C750.732 217.15 747.232 211.109 737.012 208.381C726.795 205.653 713.728 207.272 707.828 211.997C701.928 216.721 705.43 222.763 715.648 225.491Z" fill="#5158F6"/>
<path d="M769.577 213.108C780.747 216.089 795.032 214.32 801.481 209.155C807.93 203.99 804.102 197.385 792.932 194.404C781.761 191.422 767.478 193.191 761.028 198.356C754.579 203.521 758.406 210.125 769.577 213.108Z" fill="#5158F6"/>
<path d="M710.752 252.242C720.335 254.8 732.589 253.282 738.123 248.851C743.656 244.419 740.372 238.753 730.79 236.195C721.205 233.636 708.95 235.155 703.417 239.586C697.884 244.017 701.168 249.683 710.752 252.242Z" fill="#5158F6"/>
<path d="M665.323 235.366C675.415 238.06 688.318 236.461 694.144 231.795C699.971 227.129 696.515 221.163 686.422 218.468C676.331 215.775 663.427 217.373 657.6 222.039C651.774 226.705 655.232 232.672 665.323 235.366Z" fill="#5158F6"/>
<path d="M707.886 276.626C717.533 279.202 729.869 277.673 735.439 273.213C741.009 268.752 737.703 263.048 728.056 260.473C718.409 257.898 706.073 259.426 700.503 263.887C694.933 268.347 698.239 274.051 707.886 276.626Z" fill="#5158F6"/>
<path d="M661.318 261.149C670.52 263.605 682.289 262.147 687.602 257.892C692.915 253.637 689.762 248.196 680.559 245.739C671.356 243.283 659.588 244.741 654.275 248.996C648.961 253.251 652.115 258.692 661.318 261.149Z" fill="#5158F6"/>
<path d="M615.221 244.805C623.219 246.94 633.445 245.673 638.063 241.976C642.68 238.278 639.939 233.55 631.942 231.415C623.944 229.28 613.719 230.547 609.102 234.245C604.485 237.942 607.224 242.67 615.221 244.805Z" fill="#5158F6"/>
<path d="M610.114 271.357C618.111 273.492 628.338 272.225 632.955 268.527C637.572 264.829 634.832 260.101 626.834 257.966C618.837 255.831 608.612 257.098 603.995 260.796C599.378 264.494 602.116 269.222 610.114 271.357Z" fill="#5158F6"/>
<path d="M657.584 286.719C665.58 288.854 675.806 287.588 680.423 283.89C685.041 280.192 682.3 275.463 674.305 273.329C666.307 271.194 656.08 272.461 651.463 276.159C646.846 279.857 649.587 284.584 657.584 286.719Z" fill="#5158F6"/>
<path d="M651.366 314.036C660.506 316.476 672.193 315.028 677.469 310.803C682.746 306.576 679.615 301.173 670.474 298.733C661.336 296.293 649.649 297.741 644.372 301.967C639.096 306.193 642.227 311.596 651.366 314.036Z" fill="#5158F6"/>
<path d="M647.376 339.682C655.5 341.851 665.89 340.563 670.58 336.807C675.271 333.051 672.486 328.248 664.362 326.079C656.238 323.91 645.85 325.197 641.16 328.953C636.47 332.71 639.252 337.513 647.376 339.682Z" fill="#5158F6"/>
<path d="M504.898 294.632C513.974 297.055 525.579 295.617 530.819 291.421C536.059 287.224 532.95 281.859 523.874 279.436C514.797 277.013 503.192 278.451 497.952 282.647C492.712 286.844 495.821 292.209 504.898 294.632Z" fill="#5158F6"/>
<path d="M557.095 283.628C566.236 286.068 577.922 284.62 583.2 280.394C588.476 276.168 585.344 270.765 576.204 268.325C567.065 265.885 555.379 267.333 550.102 271.558C544.825 275.785 547.957 281.188 557.095 283.628Z" fill="#5158F6"/>
<path d="M594.179 351.978C603.318 354.418 615.004 352.97 620.282 348.743C625.559 344.517 622.427 339.114 613.289 336.674C604.148 334.234 592.462 335.682 587.184 339.908C581.907 344.134 585.039 349.538 594.179 351.978Z" fill="#5158F6"/>
<path d="M706.27 300.991C713.06 302.803 721.744 301.728 725.666 298.588C729.586 295.448 727.259 291.432 720.469 289.619C713.676 287.806 704.993 288.883 701.072 292.022C697.151 295.163 699.477 299.177 706.27 300.991Z" fill="#5158F6"/>
<path d="M564.319 255.021C571.109 256.833 579.794 255.758 583.715 252.618C587.636 249.478 585.308 245.462 578.518 243.65C571.726 241.837 563.043 242.913 559.122 246.053C555.201 249.193 557.527 253.208 564.319 255.021Z" fill="#5158F6"/>
<path d="M764.75 239.306C774.841 242 787.745 240.401 793.572 235.735C799.398 231.069 795.94 225.103 785.849 222.409C775.757 219.715 762.852 221.313 757.026 225.979C751.2 230.645 754.658 236.612 764.75 239.306Z" fill="#5158F6"/>
<path d="M449.846 279.936C456.7 281.766 465.465 280.68 469.422 277.511C473.38 274.341 471.032 270.288 464.178 268.459C457.323 266.629 448.557 267.714 444.599 270.884C440.641 274.053 442.991 278.106 449.846 279.936Z" fill="#5158F6"/>
<path d="M446.583 280.342C454.58 282.477 464.807 281.21 469.424 277.512C474.042 273.814 471.3 269.087 463.303 266.952C455.305 264.817 445.081 266.083 440.464 269.781C435.847 273.479 438.585 278.207 446.583 280.342Z" fill="#5158F6"/>
<path d="M401.002 316.845C409 318.98 419.225 317.714 423.843 314.016C428.46 310.318 425.72 305.59 417.722 303.455C409.725 301.32 399.5 302.588 394.883 306.285C390.265 309.983 393.005 314.71 401.002 316.845Z" fill="#5158F6"/>
<path d="M396.607 289.812C404.604 291.947 414.828 290.68 419.445 286.983C424.063 283.285 421.324 278.557 413.327 276.422C405.329 274.287 395.102 275.554 390.485 279.252C385.868 282.949 388.609 287.677 396.607 289.812Z" fill="#5158F6"/>
<path d="M453.835 305.089C461.832 307.224 472.058 305.958 476.675 302.26C481.293 298.562 478.552 293.834 470.555 291.699C462.557 289.564 452.332 290.831 447.715 294.529C443.098 298.227 445.837 302.954 453.835 305.089Z" fill="#5158F6"/>
<path opacity="0.6" d="M359.204 327.863C362.631 328.777 367.013 328.235 368.992 326.65C370.97 325.065 369.796 323.039 366.369 322.124C362.942 321.209 358.56 321.752 356.581 323.337C354.602 324.922 355.776 326.948 359.204 327.863Z" fill="#5158F6"/>
<path opacity="0.6" d="M401.382 339.122C404.809 340.037 409.191 339.494 411.17 337.909C413.149 336.325 411.974 334.298 408.547 333.384C405.12 332.469 400.738 333.012 398.759 334.596C396.78 336.181 397.955 338.207 401.382 339.122Z" fill="#5158F6"/>
</g>
</g>
<defs>
<filter id="filter0_dii" x="0" y="196" width="994" height="494" filterUnits="userSpaceOnUse" color-interpolation-filters="sRGB">
<feFlood flood-opacity="0" result="BackgroundImageFix"/>
<feColorMatrix in="SourceAlpha" type="matrix" values="0 0 0 0 0 0 0 0 0 0 0 0 0 0 0 0 0 0 127 0" result="hardAlpha"/>
<feOffset dy="16"/>
<feGaussianBlur stdDeviation="16"/>
<feComposite in2="hardAlpha" operator="out"/>
<feColorMatrix type="matrix" values="0 0 0 0 0.192157 0 0 0 0 0.192157 0 0 0 0 0.266667 0 0 0 0.05 0"/>
<feBlend mode="normal" in2="BackgroundImageFix" result="effect1_dropShadow"/>
<feBlend mode="normal" in="SourceGraphic" in2="effect1_dropShadow" result="shape"/>
<feColorMatrix in="SourceAlpha" type="matrix" values="0 0 0 0 0 0 0 0 0 0 0 0 0 0 0 0 0 0 127 0" result="hardAlpha"/>
<feOffset dy="8"/>
<feGaussianBlur stdDeviation="32"/>
<feComposite in2="hardAlpha" operator="arithmetic" k2="-1" k3="1"/>
<feColorMatrix type="matrix" values="0 0 0 0 1 0 0 0 0 1 0 0 0 0 1 0 0 0 0.05 0"/>
<feBlend mode="normal" in2="shape" result="effect2_innerShadow"/>
<feColorMatrix in="SourceAlpha" type="matrix" values="0 0 0 0 0 0 0 0 0 0 0 0 0 0 0 0 0 0 127 0" result="hardAlpha"/>
<feOffset dy="-16"/>
<feGaussianBlur stdDeviation="16"/>
<feComposite in2="hardAlpha" operator="arithmetic" k2="-1" k3="1"/>
<feColorMatrix type="matrix" values="0 0 0 0 1 0 0 0 0 1 0 0 0 0 1 0 0 0 0.15 0"/>
<feBlend mode="normal" in2="effect2_innerShadow" result="effect3_innerShadow"/>
</filter>
<filter id="filter1_dii" x="0" y="136" width="994" height="494" filterUnits="userSpaceOnUse" color-interpolation-filters="sRGB">
<feFlood flood-opacity="0" result="BackgroundImageFix"/>
<feColorMatrix in="SourceAlpha" type="matrix" values="0 0 0 0 0 0 0 0 0 0 0 0 0 0 0 0 0 0 127 0" result="hardAlpha"/>
<feOffset dy="16"/>
<feGaussianBlur stdDeviation="16"/>
<feComposite in2="hardAlpha" operator="out"/>
<feColorMatrix type="matrix" values="0 0 0 0 0.192157 0 0 0 0 0.192157 0 0 0 0 0.266667 0 0 0 0.05 0"/>
<feBlend mode="normal" in2="BackgroundImageFix" result="effect1_dropShadow"/>
<feBlend mode="normal" in="SourceGraphic" in2="effect1_dropShadow" result="shape"/>
<feColorMatrix in="SourceAlpha" type="matrix" values="0 0 0 0 0 0 0 0 0 0 0 0 0 0 0 0 0 0 127 0" result="hardAlpha"/>
<feOffset dy="8"/>
<feGaussianBlur stdDeviation="32"/>
<feComposite in2="hardAlpha" operator="arithmetic" k2="-1" k3="1"/>
<feColorMatrix type="matrix" values="0 0 0 0 1 0 0 0 0 1 0 0 0 0 1 0 0 0 0.05 0"/>
<feBlend mode="normal" in2="shape" result="effect2_innerShadow"/>
<feColorMatrix in="SourceAlpha" type="matrix" values="0 0 0 0 0 0 0 0 0 0 0 0 0 0 0 0 0 0 127 0" result="hardAlpha"/>
<feOffset dy="-16"/>
<feGaussianBlur stdDeviation="16"/>
<feComposite in2="hardAlpha" operator="arithmetic" k2="-1" k3="1"/>
<feColorMatrix type="matrix" values="0 0 0 0 1 0 0 0 0 1 0 0 0 0 1 0 0 0 0.15 0"/>
<feBlend mode="normal" in2="effect2_innerShadow" result="effect3_innerShadow"/>
</filter>
<filter id="filter2_dii" x="0" y="76" width="994" height="494" filterUnits="userSpaceOnUse" color-interpolation-filters="sRGB">
<feFlood flood-opacity="0" result="BackgroundImageFix"/>
<feColorMatrix in="SourceAlpha" type="matrix" values="0 0 0 0 0 0 0 0 0 0 0 0 0 0 0 0 0 0 127 0" result="hardAlpha"/>
<feOffset dy="16"/>
<feGaussianBlur stdDeviation="16"/>
<feComposite in2="hardAlpha" operator="out"/>
<feColorMatrix type="matrix" values="0 0 0 0 0.192157 0 0 0 0 0.192157 0 0 0 0 0.266667 0 0 0 0.05 0"/>
<feBlend mode="normal" in2="BackgroundImageFix" result="effect1_dropShadow"/>
<feBlend mode="normal" in="SourceGraphic" in2="effect1_dropShadow" result="shape"/>
<feColorMatrix in="SourceAlpha" type="matrix" values="0 0 0 0 0 0 0 0 0 0 0 0 0 0 0 0 0 0 127 0" result="hardAlpha"/>
<feOffset dy="8"/>
<feGaussianBlur stdDeviation="32"/>
<feComposite in2="hardAlpha" operator="arithmetic" k2="-1" k3="1"/>
<feColorMatrix type="matrix" values="0 0 0 0 1 0 0 0 0 1 0 0 0 0 1 0 0 0 0.05 0"/>
<feBlend mode="normal" in2="shape" result="effect2_innerShadow"/>
<feColorMatrix in="SourceAlpha" type="matrix" values="0 0 0 0 0 0 0 0 0 0 0 0 0 0 0 0 0 0 127 0" result="hardAlpha"/>
<feOffset dy="-16"/>
<feGaussianBlur stdDeviation="16"/>
<feComposite in2="hardAlpha" operator="arithmetic" k2="-1" k3="1"/>
<feColorMatrix type="matrix" values="0 0 0 0 1 0 0 0 0 1 0 0 0 0 1 0 0 0 0.15 0"/>
<feBlend mode="normal" in2="effect2_innerShadow" result="effect3_innerShadow"/>
</filter>
<filter id="filter3_dii" x="0" y="16" width="994" height="494" filterUnits="userSpaceOnUse" color-interpolation-filters="sRGB">
<feFlood flood-opacity="0" result="BackgroundImageFix"/>
<feColorMatrix in="SourceAlpha" type="matrix" values="0 0 0 0 0 0 0 0 0 0 0 0 0 0 0 0 0 0 127 0" result="hardAlpha"/>
<feOffset dy="16"/>
<feGaussianBlur stdDeviation="16"/>
<feComposite in2="hardAlpha" operator="out"/>
<feColorMatrix type="matrix" values="0 0 0 0 0.192157 0 0 0 0 0.192157 0 0 0 0 0.266667 0 0 0 0.05 0"/>
<feBlend mode="normal" in2="BackgroundImageFix" result="effect1_dropShadow"/>
<feBlend mode="normal" in="SourceGraphic" in2="effect1_dropShadow" result="shape"/>
<feColorMatrix in="SourceAlpha" type="matrix" values="0 0 0 0 0 0 0 0 0 0 0 0 0 0 0 0 0 0 127 0" result="hardAlpha"/>
<feOffset dy="8"/>
<feGaussianBlur stdDeviation="32"/>
<feComposite in2="hardAlpha" operator="arithmetic" k2="-1" k3="1"/>
<feColorMatrix type="matrix" values="0 0 0 0 1 0 0 0 0 1 0 0 0 0 1 0 0 0 0.05 0"/>
<feBlend mode="normal" in2="shape" result="effect2_innerShadow"/>
<feColorMatrix in="SourceAlpha" type="matrix" values="0 0 0 0 0 0 0 0 0 0 0 0 0 0 0 0 0 0 127 0" result="hardAlpha"/>
<feOffset dy="-16"/>
<feGaussianBlur stdDeviation="16"/>
<feComposite in2="hardAlpha" operator="arithmetic" k2="-1" k3="1"/>
<feColorMatrix type="matrix" values="0 0 0 0 1 0 0 0 0 1 0 0 0 0 1 0 0 0 0.15 0"/>
<feBlend mode="normal" in2="effect2_innerShadow" result="effect3_innerShadow"/>
</filter>
<filter id="filter4_d" x="169.491" y="85.7002" width="682.207" height="315.61" filterUnits="userSpaceOnUse" color-interpolation-filters="sRGB">
<feFlood flood-opacity="0" result="BackgroundImageFix"/>
<feColorMatrix in="SourceAlpha" type="matrix" values="0 0 0 0 0 0 0 0 0 0 0 0 0 0 0 0 0 0 127 0" result="hardAlpha"/>
<feOffset dy="8"/>
<feGaussianBlur stdDeviation="8"/>
<feComposite in2="hardAlpha" operator="out"/>
<feColorMatrix type="matrix" values="0 0 0 0 0.317647 0 0 0 0 0.345098 0 0 0 0 0.964706 0 0 0 0.25 0"/>
<feBlend mode="normal" in2="BackgroundImageFix" result="effect1_dropShadow"/>
<feBlend mode="normal" in="SourceGraphic" in2="effect1_dropShadow" result="shape"/>
</filter>
<clipPath id="clip0">
<rect width="994" height="674" fill="white"/>
</clipPath>
</defs>
</svg>
