<svg width="542" height="542" viewBox="0 0 542 542" fill="none" xmlns="http://www.w3.org/2000/svg">
<path d="M271.471 541.03C242.706 541.03 213.926 541.161 185.161 540.855C181.269 540.737 177.514 539.386 174.438 536.998C171.078 534.222 171.589 529.796 173.795 525.939C179.094 516.589 184.402 507.244 189.719 497.904C192.334 493.258 196.586 492.528 201.406 492.543C237.267 492.601 273.137 492.601 309.016 492.543C320.119 492.543 331.237 492.63 342.34 492.543C344.706 492.363 347.072 492.904 349.126 494.092C351.18 495.281 352.828 497.063 353.851 499.204C358.453 507.692 363.406 515.975 368.139 524.39C373.486 533.901 369.352 540.986 358.322 541.015C329.381 541.074 300.426 541.03 271.471 541.03Z" fill="#5158F6"/>
<path d="M320.996 373.494L311.018 346.351C321.156 343.633 332.259 340.639 343.377 337.688L520.642 290.793C533.133 287.491 542.307 293.714 541.548 305.124C541.08 312.02 536.624 316.607 528.078 318.857C502.23 325.674 476.377 332.492 450.519 339.309L322.296 373.173C321.624 373.392 320.893 373.509 320.996 373.494Z" fill="#5158F6"/>
<path d="M222.283 369.885C223.744 379.293 225.205 388.38 226.782 398.372C220.428 400.111 212.992 402.229 205.526 404.216L23.878 452.031C22.3002 452.455 20.7371 452.951 19.1301 453.317C11.0805 455.128 3.71756 450.892 1.59926 443.266C1.07993 441.408 0.936902 439.466 1.17859 437.553C1.42029 435.639 2.04182 433.794 3.00669 432.124C3.97157 430.454 5.26034 428.994 6.79733 427.829C8.33432 426.664 10.0886 425.818 11.957 425.34C25.6165 421.527 39.3635 418.036 53.0814 414.384L217.228 371.068C219.142 370.571 221.041 370.162 222.283 369.885Z" fill="#5158F6"/>
<path d="M88.0694 289.434H162.385C169.836 289.434 173.517 291.888 174.745 297.542C176.206 304.525 173.795 309.434 166.87 312.312C114.19 334.167 61.5249 334.103 8.874 312.122C1.94933 309.2 -0.198186 304.715 1.27732 297.177C2.29995 291.976 6.17134 289.434 13.3298 289.434H88.0694Z" fill="#5158F6"/>
<path d="M454.847 192.839H529.149C536.453 192.839 540.281 195.206 541.435 200.304C543.129 207.755 540.777 212.649 533.59 215.614C480.822 237.426 428.083 237.528 375.433 215.234C369.019 212.517 366.477 207.375 367.909 200.713C369.048 195.425 372.891 192.853 379.918 192.839H454.847Z" fill="#5158F6"/>
<path d="M300.264 376.313C300.278 382.024 298.599 387.611 295.438 392.366C292.276 397.122 287.775 400.834 282.504 403.031C277.234 405.228 271.429 405.813 265.826 404.711C260.223 403.609 255.072 400.87 251.026 396.84C246.98 392.81 244.219 387.671 243.095 382.072C241.97 376.473 242.531 370.666 244.707 365.387C246.883 360.107 250.576 355.591 255.319 352.41C260.062 349.23 265.642 347.528 271.353 347.519C275.142 347.509 278.897 348.247 282.401 349.689C285.905 351.131 289.091 353.25 291.776 355.924C294.461 358.598 296.593 361.775 298.049 365.274C299.506 368.772 300.258 372.524 300.264 376.313Z" fill="#5158F6"/>
<path d="M252.13 420.915C258.23 423.456 264.776 424.758 271.384 424.746C277.993 424.733 284.533 423.406 290.624 420.842C290.624 435.831 290.858 450.162 290.507 464.479C290.376 469.738 286.475 472.982 281.026 473.245C274.671 473.522 268.302 473.508 261.947 473.245C256.279 473.025 252.363 469.636 252.232 464.114C251.91 449.943 252.13 435.772 252.13 420.915Z" fill="#5158F6"/>
<path d="M78.6035 387.636V347.68H97.157V382.742L78.6035 387.636Z" fill="#5158F6"/>
<path d="M445.494 290.69V251.158H464.486C464.486 262.042 464.559 272.911 464.354 283.78C464.354 284.686 462.718 286.015 461.593 286.366C456.378 287.929 451.104 289.214 445.494 290.69Z" fill="#5158F6"/>
<path d="M143.188 154.876C141.858 137.904 127.332 131.966 108.895 130.023L109.309 106.521L95.0033 106.271L94.6009 129.153C90.8401 129.087 86.9946 129.094 83.174 129.103L83.5821 106.069L69.2844 105.816L68.865 129.311C65.7667 129.32 62.7241 129.324 59.7583 129.274L59.7577 129.201L40.0272 128.846L39.7617 144.125C39.7617 144.125 50.3292 144.11 50.1502 144.301C55.9446 144.405 57.7712 147.802 58.2686 150.715L57.798 177.489C58.1978 177.498 58.7192 177.524 59.3084 177.615C58.8318 177.607 58.3217 177.595 57.7971 177.59L57.1324 215.097C56.846 216.917 55.7229 219.805 51.6744 219.741C51.8546 219.906 41.2755 219.555 41.2755 219.555L38.132 236.589L56.7485 236.916C60.2128 236.982 63.6205 237.1 66.9665 237.181L66.5538 260.95L80.8438 261.205L81.2578 237.686C85.18 237.837 88.9766 237.935 92.6837 237.997L92.2649 261.406L106.57 261.657L106.993 237.93C131.068 236.974 148.007 231.211 150.496 208.663C152.504 190.507 144.092 182.242 130.498 178.723C138.866 174.646 144.183 167.296 143.188 154.876ZM122.279 205.348C121.973 223.112 91.594 220.555 81.8986 220.393L82.4573 188.9C92.1553 189.073 122.606 186.821 122.279 205.348ZM116.408 160.798C116.119 176.959 90.7865 174.626 82.7109 174.485L83.2152 145.922C91.2908 146.064 116.704 143.942 116.408 160.798Z" fill="#5158F6"/>
<path d="M509.874 62.8395C508.544 45.8674 494.018 39.9296 475.58 37.9863L475.994 14.4844L461.689 14.2337L461.286 37.1163C457.526 37.0505 453.68 37.0571 449.86 37.066L450.268 14.0319L435.97 13.7795L435.551 37.2746C432.452 37.2833 429.41 37.2873 426.444 37.237L426.443 37.164L406.713 36.8095L406.447 52.0882C406.447 52.0882 417.015 52.073 416.836 52.2645C422.63 52.3683 424.457 55.7655 424.954 58.678L424.484 85.4517C424.883 85.4609 425.405 85.4868 425.994 85.5781C425.517 85.5704 425.007 85.5581 424.483 85.5533L423.818 123.061C423.532 124.88 422.408 127.768 418.36 127.704C418.54 127.869 407.961 127.518 407.961 127.518L404.818 144.552L423.434 144.88C426.898 144.945 430.306 145.064 433.652 145.144L433.239 168.913L447.529 169.168L447.943 145.649C451.866 145.8 455.662 145.898 459.369 145.96L458.95 169.37L473.256 169.62L473.679 145.893C497.753 144.937 514.693 139.174 517.181 116.626C519.189 98.4703 510.778 90.2051 497.183 86.6861C505.552 82.6089 510.868 75.2588 509.874 62.8395ZM488.964 113.311C488.659 131.075 458.28 128.518 448.584 128.357L449.143 96.8634C458.841 97.0366 489.292 94.7842 488.964 113.311ZM483.094 68.7616C482.805 84.9223 457.472 82.5894 449.396 82.4478L449.901 53.885C457.976 54.0267 483.389 51.9056 483.094 68.7616Z" fill="#5158F6"/>
</svg>
