<svg width="419" height="340" viewBox="0 0 419 340" fill="none" xmlns="http://www.w3.org/2000/svg">
<path d="M284.275 215.327C317.819 215.327 345.109 188.037 345.109 154.493C345.109 120.949 317.819 93.6592 284.275 93.6592C250.731 93.6592 223.441 120.949 223.441 154.493C223.441 188.037 250.731 215.327 284.275 215.327ZM284.275 108.659C309.548 108.659 330.109 129.22 330.109 154.493C330.109 179.766 309.548 200.327 284.275 200.327C259.002 200.327 238.441 179.766 238.441 154.493C238.441 129.22 259.002 108.659 284.275 108.659Z" fill="#5158F6"/>
<path d="M284.275 181.388C299.105 181.388 311.17 169.323 311.17 154.493C311.17 139.663 299.105 127.598 284.275 127.598C269.445 127.598 257.379 139.663 257.379 154.493C257.38 169.323 269.445 181.388 284.275 181.388ZM284.275 142.598C290.834 142.598 296.17 147.934 296.17 154.493C296.17 161.052 290.834 166.388 284.275 166.388C277.716 166.388 272.379 161.052 272.379 154.493C272.38 147.934 277.716 142.598 284.275 142.598Z" fill="#5158F6"/>
<path d="M387.004 0H31.476C14.12 0 0 14.12 0 31.475V277.51C0 294.866 14.12 308.985 31.476 308.985H38.74V331.675C38.74 335.817 42.098 339.175 46.24 339.175H98.24C102.382 339.175 105.74 335.817 105.74 331.675V308.985H312.74V331.675C312.74 335.817 316.098 339.175 320.24 339.175H372.24C376.382 339.175 379.74 335.817 379.74 331.675V308.985H387.005C404.36 308.985 418.481 294.865 418.481 277.51V31.475C418.48 14.12 404.36 0 387.004 0V0ZM90.74 324.176H53.74V308.986H90.74V324.176ZM364.74 324.176H327.74V308.986H364.74V324.176ZM403.48 277.51C403.48 286.594 396.089 293.985 387.004 293.985H31.476C22.392 293.985 15 286.594 15 277.51V31.475C15 22.391 22.391 15 31.476 15H387.005C396.089 15 403.481 22.391 403.481 31.475V277.51H403.48Z" fill="#5158F6"/>
<path d="M374.979 36H43.5C39.358 36 36 39.358 36 43.5V265.485C36 269.627 39.358 272.985 43.5 272.985H374.979C379.121 272.985 382.479 269.627 382.479 265.485V43.5C382.479 39.358 379.122 36 374.979 36V36ZM367.479 257.985H51V197.101H120.513L139.37 215.958C138.254 218.449 137.62 221.2 137.62 224.101C137.62 235.129 146.592 244.101 157.62 244.101C168.648 244.101 177.62 235.129 177.62 224.101C177.62 213.073 168.648 204.101 157.62 204.101C154.989 204.101 152.481 204.625 150.178 205.552L128.923 184.298C127.517 182.892 125.609 182.101 123.62 182.101H51V167.351H170.842C173.816 174.671 180.995 179.851 189.37 179.851C200.398 179.851 209.37 170.879 209.37 159.851C209.37 148.823 200.398 139.851 189.37 139.851C180.995 139.851 173.817 145.031 170.842 152.351H51V137.601H100.496C102.485 137.601 104.393 136.811 105.799 135.404L127.054 114.149C129.357 115.077 131.865 115.6 134.496 115.6C145.524 115.6 154.496 106.628 154.496 95.6C154.496 84.572 145.524 75.6 134.496 75.6C123.468 75.6 114.496 84.572 114.496 95.6C114.496 98.501 115.131 101.252 116.247 103.743L97.39 122.6H51V51H367.479V257.985ZM157.62 219.102C160.377 219.102 162.62 221.345 162.62 224.102C162.62 226.859 160.377 229.102 157.62 229.102C154.863 229.102 152.62 226.859 152.62 224.102C152.62 221.345 154.863 219.102 157.62 219.102ZM184.37 159.852C184.37 157.095 186.613 154.852 189.37 154.852C192.127 154.852 194.37 157.095 194.37 159.852C194.37 162.609 192.127 164.852 189.37 164.852C186.613 164.852 184.37 162.609 184.37 159.852ZM129.496 95.602C129.496 92.845 131.739 90.602 134.496 90.602C137.253 90.602 139.496 92.845 139.496 95.602C139.496 98.359 137.253 100.602 134.496 100.602C131.739 100.602 129.496 98.359 129.496 95.602Z" fill="#5158F6"/>
</svg>
