<svg width="564" height="565" viewBox="0 0 564 565" fill="none" xmlns="http://www.w3.org/2000/svg">
<path d="M442.002 505.734C443.126 503.793 444.938 503.793 446.062 505.734L453.057 518.014C454.181 519.954 453.262 521.537 451.015 521.537H436.922C434.7 521.537 433.781 519.954 434.879 518.014L442.002 505.734ZM428.471 482.092C429.594 480.151 431.381 480.151 432.505 482.092L434.062 484.9L437.739 491.359C438.632 493.198 438.632 495.368 437.739 497.206L425.407 518.576C424.284 520.312 422.42 521.41 420.352 521.537H410.114C407.867 521.537 406.948 519.98 408.071 518.014L428.471 482.092Z" fill="#5158F6"/>
<path fill-rule="evenodd" clip-rule="evenodd" d="M59.1825 48.1347L69.0521 42.3775V53.892L59.1825 48.1347ZM69.0521 72.8087L55.8927 80.485L42.7332 72.8087V59.3751L55.8927 67.0514L69.0521 59.3751V72.8087ZM42.7332 42.3775L52.6028 48.1347L42.7332 53.892V42.3775ZM57.5376 50.8763L67.4072 56.6335L57.5376 62.3908V50.8763ZM54.2477 62.3908L44.3782 56.6335L54.2477 50.8763V62.3908ZM67.4072 39.6359L55.8927 46.2156L44.3782 39.6359L55.8927 32.782L67.4072 39.6359ZM39.4434 38.5393V74.4536L55.8927 83.7749L72.342 74.4536V38.5393L55.8927 29.218L39.4434 38.5393Z" fill="#5158F6"/>
<path d="M504.15 80.3495V126.622L524.734 114.472L504.15 80.3495Z" fill="#5158F6"/>
<path d="M504.242 80.3495V126.622L483.658 114.472L504.242 80.3495Z" fill="#5158F6"/>
<path d="M503.651 130.804V145.775L485.326 119.992L503.651 130.804Z" fill="#5158F6" stroke="#5158F6"/>
<path d="M504.15 130.519V147.341L524.751 118.369L504.15 130.519Z" fill="#5158F6"/>
<path fill-rule="evenodd" clip-rule="evenodd" d="M29.0135 300.931C14.872 302.611 5.53681 310.792 1.15411 324.524L0.350613 333.524C0.279446 336.06 0.480243 338.597 0.949576 341.091C1.31253 342.562 1.8013 343.999 2.41048 345.386C4.8908 351.609 9.21227 356.925 14.7967 360.625C20.3811 364.324 26.9621 366.23 33.6591 366.087C40.5447 365.891 47.1876 363.5 52.6194 359.264C58.0512 355.028 61.988 349.168 63.856 342.537C64.8202 339.104 66.1496 337.497 69.8164 337C95.6721 333.444 121.52 329.789 147.366 326.133C157.196 324.743 167.027 323.353 176.857 321.968C177.098 321.927 177.345 321.927 177.587 321.968C178.901 324.369 180.154 326.82 181.403 329.265C184.016 334.378 186.614 339.462 189.727 343.998C192.887 348.603 196.653 352.787 200.548 357.114C202.325 359.089 204.129 361.093 205.914 363.18C205.773 363.414 205.606 363.706 205.418 364.037C204.983 364.801 204.432 365.768 203.81 366.686C175.04 409.081 146.251 451.447 117.442 493.784C117.221 494.087 117.019 494.4 116.821 494.707C115.786 496.31 114.837 497.78 111.686 497.13C93.3223 493.39 76.7119 503.748 72.6798 520.943C71.0767 527.491 71.5411 534.376 74.0092 540.65C79.8085 555.097 94.3866 559.583 96.8571 560.343L96.8577 560.343C98.1391 560.74 99.4413 561.067 100.758 561.322C101.197 561.399 101.642 561.433 102.088 561.424H105.375C107.849 561.306 110.3 560.899 112.679 560.211C121.167 557.743 131.452 550.759 135.294 538.663C136.734 533.991 137.116 529.056 136.414 524.218C135.711 519.379 133.942 514.757 131.233 510.687C130.856 510.117 130.467 509.559 130.024 508.921C129.762 508.545 129.482 508.142 129.173 507.692L220.903 372.734C262.29 385.722 278.009 384.889 308.834 367.826L388.38 465.852C388.143 466.364 387.902 466.873 387.66 467.379C378.529 477.726 372.99 491.317 372.99 506.202C372.99 538.625 399.273 564.908 431.695 564.908C464.117 564.908 490.401 538.625 490.401 506.202C490.401 473.78 464.117 447.497 431.695 447.497C421.881 447.497 412.63 449.905 404.499 454.163C403.637 454.38 402.768 454.591 401.894 454.793L322.318 356.664C336.201 342.483 344.978 324.091 347.271 304.379L366.482 305.839C374.103 306.436 381.725 307.035 389.346 307.633C422.762 310.257 456.182 312.881 489.621 315.379C493.682 315.686 495.786 316.577 497.247 320.96C499.756 327.877 504.563 333.724 510.865 337.524C517.166 341.324 524.581 342.846 531.87 341.836C539.173 340.847 545.925 337.41 551.022 332.086C556.119 326.762 559.259 319.867 559.929 312.527C560.599 305.188 558.759 297.838 554.711 291.68C550.662 285.521 544.644 280.918 537.641 278.623C523.251 273.963 507.166 279.587 499.949 292.954C497.32 297.863 494.5 298.389 489.723 297.98C468.634 296.178 447.527 294.55 426.424 292.922C420.832 292.491 415.241 292.059 409.651 291.625C404.643 291.234 399.635 290.848 394.629 290.463C380.198 289.352 365.776 288.241 351.361 286.994C349.827 286.906 347.344 285.255 347.183 284.072C345.357 269.887 340.054 257.075 332.048 244.803L463.076 153.438C464.289 154.592 465.063 155.323 465.867 156.053C473.019 162.754 481.748 167.538 491.244 169.961C500.74 172.385 510.694 172.37 520.183 169.917C527.61 167.948 534.566 164.505 540.635 159.793C547.792 154.239 553.513 147.05 557.319 138.829C559.678 133.549 561.234 127.945 561.935 122.204C562.933 115.417 562.855 108.515 561.702 101.752C561.386 99.8845 561.031 98.4302 560.893 97.8617L560.869 97.7635C559.508 92.7455 557.582 87.8984 555.128 83.3152C546.844 68.4432 521.673 50.328 493.346 56.493C463.924 62.9064 447.152 91.5254 447.635 113.658C447.764 119.555 448.989 125.397 450.254 131.438C450.838 134.226 451.431 137.057 451.93 139.954L321.018 231.217C318.963 229.831 316.989 228.438 315.048 227.067C310.687 223.988 306.494 221.028 301.924 218.551C297.351 216.072 292.441 214.139 287.427 212.166C285.203 211.291 282.957 210.407 280.712 209.464C280.72 209.355 280.728 209.236 280.737 209.11C280.775 208.554 280.824 207.84 280.931 207.126C287.369 162.53 293.724 117.924 299.996 73.308C300.507 69.5973 302.202 68.3409 305.606 67.3913C312.896 65.4361 319.266 60.9772 323.599 54.7962C327.932 48.6152 329.95 41.1064 329.302 33.5861C328.162 18.4512 316.475 6.29648 300.975 4.03209C286.716 1.91378 272.049 10.8691 266.804 24.9084C264.112 31.8643 263.933 39.5422 266.299 46.616C268.665 53.6898 273.427 59.7151 279.762 63.6514C282.699 65.4922 283.473 67.0992 282.947 70.5761C276.402 114.403 270.067 158.298 263.941 202.262C263.284 207.039 261.574 208.295 257.192 208.295C243.854 208.633 230.806 212.261 219.208 218.857C217.154 219.98 215.144 221.162 213.031 222.405C212.393 222.78 211.746 223.161 211.086 223.547L99.4581 93.3954L102.044 89.8746C107.299 82.659 110.762 74.2974 112.15 65.4797C113.537 56.6619 112.808 47.6407 110.022 39.1602C107.237 30.6797 102.475 22.983 96.1295 16.7051C89.7841 10.4272 82.0369 5.74788 73.5271 3.05328C70.8829 2.22057 68.1802 1.4609 68.1802 1.4609C65.3404 0.7466 62.4485 0.258109 59.5317 0L50.9854 0.905762C48.0552 1.2641 45.1549 1.83536 42.3077 2.61501C32.7022 5.04152 23.8954 9.93082 16.7565 16.8004C8.90009 24.7196 3.53235 34.7644 1.3148 45.697C0.656208 48.6406 0.216742 51.629 0 54.6377L0.657401 64.6448C0.8181 65.7259 1.08106 67.2745 1.50473 69.1152C4.20095 80.2652 10.0423 90.4064 18.3343 98.3332C26.8451 106.194 37.5814 111.226 49.0679 112.738C60.5545 114.25 72.2273 112.168 82.4824 106.777C83.221 106.394 83.9721 106.035 84.835 105.623C85.2865 105.408 85.7685 105.178 86.2954 104.922C123.363 148.116 160.577 191.485 197.937 235.03C180.012 254.737 172.299 277.746 174.373 304.495C170.83 305.011 167.319 305.525 163.831 306.036C156.247 307.146 148.769 308.241 141.284 309.302C139.58 309.546 137.876 309.79 136.173 310.034C113.189 313.326 90.2141 316.617 67.2014 319.718C65.3607 319.966 62.322 319.148 61.4893 317.804C53.9365 305.635 43.155 299.251 29.0135 300.931ZM330.456 297.001C329.404 335.963 295.409 366.744 256.549 364.202C242.96 363.311 229.934 358.44 219.094 350.198C208.253 341.956 200.077 330.706 195.585 317.851C191.092 304.995 190.482 291.102 193.829 277.902C197.176 264.702 204.334 252.778 214.409 243.617C224.485 234.455 237.033 228.461 250.491 226.38C263.95 224.3 277.722 226.225 290.094 231.917C302.466 237.608 312.889 246.814 320.066 258.387C327.243 269.96 330.857 283.389 330.456 297.001ZM92.5613 42.2907C94.4737 47.0295 95.4323 52.099 95.3822 57.2089C95.3422 62.3256 94.2913 67.384 92.29 72.0933C90.2886 76.8026 87.3762 81.0699 83.7201 84.6499C80.0641 88.2299 75.7366 91.052 70.9863 92.954C66.236 94.856 61.1566 95.8003 56.0401 95.7328C50.9248 95.6567 45.8747 94.5724 41.179 92.5421C36.4832 90.5117 32.234 87.5751 28.6747 83.9004C25.1153 80.2257 22.3157 75.8851 20.4361 71.127C18.5564 66.3689 17.6337 61.2868 17.7207 56.1716C17.9201 45.949 22.1313 36.2147 29.4455 29.07C36.7596 21.9253 46.5899 17.9434 56.8144 17.9837C61.9244 18.02 66.977 19.0641 71.6827 21.0563C76.3885 23.0485 80.6549 25.9496 84.2377 29.5933C87.8204 33.2371 90.6489 37.552 92.5613 42.2907ZM535.89 92.9137C540.197 99.2579 542.53 106.735 542.593 114.403C542.655 119.531 541.697 124.62 539.774 129.374C537.851 134.129 535.003 138.453 531.393 142.096C527.784 145.74 523.486 148.629 518.75 150.596C514.014 152.563 508.935 153.569 503.806 153.555C496.138 153.564 488.639 151.301 482.255 147.054C475.871 142.807 470.887 136.764 467.932 129.688C464.977 122.612 464.183 114.82 465.651 107.293C467.118 99.767 470.781 92.8436 476.178 87.396C481.575 81.9485 488.463 78.2208 495.976 76.6828C503.488 75.1449 511.287 75.8656 518.391 78.7541C525.494 81.6425 531.583 86.5695 535.89 92.9137ZM409.721 472.477C416.136 468.23 423.667 465.981 431.36 466.013C436.486 466.006 441.562 467.018 446.294 468.99C451.026 470.961 455.319 473.852 458.925 477.496C462.53 481.139 465.376 485.463 467.298 490.215C469.219 494.967 470.178 500.054 470.118 505.179C470.069 512.873 467.74 520.379 463.427 526.75C459.114 533.12 453.009 538.07 445.884 540.973C438.759 543.875 430.934 544.601 423.396 543.059C415.859 541.516 408.948 537.774 403.537 532.305C398.125 526.837 394.456 519.887 392.992 512.334C391.529 504.781 392.337 496.963 395.314 489.869C398.292 482.775 403.305 476.723 409.721 472.477ZM114.403 539.663C112.896 541.084 111.117 542.185 109.173 542.9L109.129 542.929C107.079 543.646 104.899 543.91 102.737 543.704C100.575 543.497 98.484 542.825 96.607 541.733C94.73 540.641 93.1119 539.155 91.864 537.378C90.6161 535.601 89.7681 533.574 89.3782 531.438C88.9883 529.302 89.0659 527.106 89.6056 525.003C90.1453 522.9 91.1343 520.938 92.5046 519.253C93.8748 517.569 95.5938 516.201 97.5432 515.244C99.4926 514.288 101.626 513.764 103.797 513.711C114.067 513.463 122.54 524.113 117.939 534.631C117.112 536.53 115.909 538.242 114.403 539.663ZM311.147 30.8768C311.837 32.712 312.158 34.6653 312.092 36.6248C312.068 38.5834 311.656 40.5178 310.881 42.3167C310.106 44.1156 308.982 45.7435 307.576 47.1067C306.169 48.4699 304.507 49.5415 302.684 50.2598C300.862 50.9781 298.916 51.329 296.957 51.2922C294.997 51.2771 293.059 50.8737 291.255 50.1054C289.452 49.3371 287.818 48.2191 286.449 46.816C285.08 45.4129 284.002 43.7524 283.278 41.9305C282.554 40.1086 282.199 38.1613 282.231 36.2011C282.228 34.1954 282.629 32.2096 283.409 30.3617C284.189 28.5139 285.332 26.8417 286.772 25.4448C288.211 24.0478 289.916 22.9545 291.787 22.2299C293.657 21.5053 295.654 21.1642 297.658 21.2269C299.618 21.2873 301.547 21.7338 303.334 22.5409C305.12 23.348 306.73 24.4997 308.071 25.9302C309.412 27.3606 310.457 29.0416 311.147 30.8768ZM540.138 301.563C541.746 304.039 542.59 306.934 542.564 309.886C542.528 311.895 542.093 313.877 541.285 315.717C540.477 317.557 539.311 319.217 537.855 320.602C536.399 321.988 534.682 323.069 532.805 323.785C530.927 324.501 528.926 324.837 526.918 324.773C523.967 324.652 521.118 323.665 518.725 321.936C516.332 320.206 514.502 317.809 513.462 315.046C512.422 312.282 512.219 309.274 512.879 306.396C513.538 303.517 515.031 300.897 517.17 298.862C519.309 296.827 522 295.466 524.907 294.951C527.815 294.435 530.81 294.788 533.518 295.963C536.227 297.139 538.529 299.087 540.138 301.563ZM45.0086 325.055C46.7054 327.463 47.6562 330.316 47.7422 333.261V333.231C47.7849 335.242 47.427 337.24 46.6894 339.111C45.9517 340.981 44.8491 342.686 43.4459 344.126C42.0426 345.566 40.3667 346.712 38.5159 347.498C36.6651 348.284 34.6764 348.693 32.6657 348.702C29.7204 348.687 26.8449 347.805 24.3975 346.166C21.9501 344.527 20.0392 342.204 18.903 339.487C17.7668 336.77 17.4556 333.778 18.0081 330.885C18.5605 327.992 19.9523 325.325 22.01 323.218C24.0676 321.11 26.6999 319.655 29.579 319.034C32.458 318.412 35.4563 318.652 38.2 319.722C40.9438 320.793 43.3117 322.648 45.0086 325.055Z" fill="#5158F6"/>
<circle cx="505.471" cy="113.95" r="57.936" stroke="#5158F6"/>
<path d="M31.208 337.168C31.208 336.336 31.392 335.648 31.76 335.104C32.144 334.56 32.696 333.96 33.416 333.304C33.944 332.824 34.328 332.424 34.568 332.104C34.824 331.768 34.952 331.392 34.952 330.976C34.952 330.384 34.712 329.92 34.232 329.584C33.768 329.232 33.144 329.056 32.36 329.056C31.608 329.056 30.936 329.216 30.344 329.536C29.768 329.84 29.28 330.272 28.88 330.832L25.976 329.128C26.648 328.104 27.552 327.312 28.688 326.752C29.84 326.192 31.2 325.912 32.768 325.912C34.608 325.912 36.08 326.304 37.184 327.088C38.304 327.872 38.864 328.96 38.864 330.352C38.864 331.008 38.752 331.584 38.528 332.08C38.32 332.576 38.056 333 37.736 333.352C37.432 333.688 37.032 334.08 36.536 334.528C35.944 335.056 35.512 335.504 35.24 335.872C34.968 336.224 34.832 336.656 34.832 337.168H31.208ZM33.032 343.192C32.376 343.192 31.824 342.984 31.376 342.568C30.944 342.136 30.728 341.616 30.728 341.008C30.728 340.4 30.944 339.896 31.376 339.496C31.808 339.08 32.36 338.872 33.032 338.872C33.704 338.872 34.256 339.08 34.688 339.496C35.12 339.896 35.336 340.4 35.336 341.008C35.336 341.616 35.112 342.136 34.664 342.568C34.232 342.984 33.688 343.192 33.032 343.192Z" fill="#5158F6"/>
<path d="M295.208 39.168C295.208 38.336 295.392 37.648 295.76 37.104C296.144 36.56 296.696 35.96 297.416 35.304C297.944 34.824 298.328 34.424 298.568 34.104C298.824 33.768 298.952 33.392 298.952 32.976C298.952 32.384 298.712 31.92 298.232 31.584C297.768 31.232 297.144 31.056 296.36 31.056C295.608 31.056 294.936 31.216 294.344 31.536C293.768 31.84 293.28 32.272 292.88 32.832L289.976 31.128C290.648 30.104 291.552 29.312 292.688 28.752C293.84 28.192 295.2 27.912 296.768 27.912C298.608 27.912 300.08 28.304 301.184 29.088C302.304 29.872 302.864 30.96 302.864 32.352C302.864 33.008 302.752 33.584 302.528 34.08C302.32 34.576 302.056 35 301.736 35.352C301.432 35.688 301.032 36.08 300.536 36.528C299.944 37.056 299.512 37.504 299.24 37.872C298.968 38.224 298.832 38.656 298.832 39.168H295.208ZM297.032 45.192C296.376 45.192 295.824 44.984 295.376 44.568C294.944 44.136 294.728 43.616 294.728 43.008C294.728 42.4 294.944 41.896 295.376 41.496C295.808 41.08 296.36 40.872 297.032 40.872C297.704 40.872 298.256 41.08 298.688 41.496C299.12 41.896 299.336 42.4 299.336 43.008C299.336 43.616 299.112 44.136 298.664 44.568C298.232 44.984 297.688 45.192 297.032 45.192Z" fill="#5158F6"/>
</svg>
